<svg xmlns="http://www.w3.org/2000/svg" xmlns:xlink="http://www.w3.org/1999/xlink" version="1.1" style="shape-rendering:geometricPrecision; text-rendering:geometricPrecision; image-rendering:optimizeQuality; fill-rule:evenodd; clip-rule:evenodd" viewBox="115.62 3620.12 7255.88 284.22">
<g><path style="opacity:0.985" fill="#000000" d="M 2304.5,3620.5 C 2342.79,3618.23 2377.46,3628.07 2408.5,3650C 2435.39,3672.93 2450.89,3702.1 2455,3737.5C 2460.92,3777.78 2453.26,3815.11 2432,3849.5C 2409.96,3878.61 2380.79,3896.11 2344.5,3902C 2312.24,3906.8 2280.9,3903.47 2250.5,3892C 2206.95,3871.13 2181.79,3836.63 2175,3788.5C 2170.31,3755.68 2174.31,3724.01 2187,3693.5C 2205.29,3656.92 2234.46,3634.09 2274.5,3625C 2284.58,3623.06 2294.58,3621.56 2304.5,3620.5 Z M 2309.5,3686.5 C 2347.16,3687.99 2367.32,3707.66 2370,3745.5C 2371.05,3761.25 2370.38,3776.92 2368,3792.5C 2359.64,3825.44 2338.47,3840.27 2304.5,3837C 2286.37,3833.54 2273.54,3823.37 2266,3806.5C 2256.75,3777.93 2256.42,3749.26 2265,3720.5C 2273.37,3700.63 2288.2,3689.29 2309.5,3686.5 Z"/></g>
<g><path style="opacity:0.984" fill="#000000" d="M 4244.5,3620.5 C 4279.22,3618.36 4311.22,3626.52 4340.5,3645C 4363.85,3661.2 4379.18,3683.03 4386.5,3710.5C 4358.97,3713.55 4331.47,3716.88 4304,3720.5C 4303.17,3720.17 4302.33,3719.83 4301.5,3719.5C 4288.32,3691.25 4266.65,3681.41 4236.5,3690C 4216.75,3698.28 4205.25,3713.12 4202,3734.5C 4198.39,3755.97 4199.06,3777.3 4204,3798.5C 4213.94,3827.9 4234.44,3840.73 4265.5,3837C 4286.16,3834 4301.16,3823.17 4310.5,3804.5C 4293.18,3803.5 4275.85,3803.17 4258.5,3803.5C 4258.5,3784.5 4258.5,3765.5 4258.5,3746.5C 4302.83,3746.5 4347.17,3746.5 4391.5,3746.5C 4391.5,3796.83 4391.5,3847.17 4391.5,3897.5C 4373.83,3897.5 4356.17,3897.5 4338.5,3897.5C 4338.67,3887.83 4338.5,3878.16 4338,3868.5C 4322.17,3886 4302.67,3897.17 4279.5,3902C 4244.83,3907.62 4211.83,3902.62 4180.5,3887C 4140.79,3863.22 4118.96,3828.06 4115,3781.5C 4111.18,3747.75 4116.85,3715.75 4132,3685.5C 4149.27,3655.91 4174.44,3636.41 4207.5,3627C 4219.79,3623.75 4232.12,3621.58 4244.5,3620.5 Z"/></g>
<g><path style="opacity:0.982" fill="#000000" d="M 5041.5,3620.5 C 5071.5,3618.52 5099.84,3624.35 5126.5,3638C 5151.96,3653.56 5166.63,3676.23 5170.5,3706C 5143.85,3708.33 5117.19,3710 5090.5,3711C 5086.18,3689.72 5073.02,3679.56 5051,3680.5C 5038.97,3679.84 5028.97,3683.84 5021,3692.5C 5017.25,3698.99 5018.08,3704.83 5023.5,3710C 5026.83,3711.67 5030.17,3713.33 5033.5,3715C 5057.05,3721.74 5080.72,3728.07 5104.5,3734C 5167.83,3748.83 5191,3787.66 5174,3850.5C 5165.77,3868.39 5152.61,3881.23 5134.5,3889C 5117.33,3896.79 5099.33,3901.46 5080.5,3903C 5049.57,3906.44 5019.57,3902.78 4990.5,3892C 4967.75,3882.92 4950.25,3867.75 4938,3846.5C 4932.97,3835.71 4930.14,3824.38 4929.5,3812.5C 4957.15,3809.64 4984.81,3806.97 5012.5,3804.5C 5014.39,3826.56 5026.39,3839.06 5048.5,3842C 5060.21,3843.52 5071.54,3842.18 5082.5,3838C 5094.69,3830.39 5096.69,3820.73 5088.5,3809C 5084.78,3806.47 5080.78,3804.47 5076.5,3803C 5049.17,3795 5021.83,3787 4994.5,3779C 4943.77,3761.72 4926.27,3727.22 4942,3675.5C 4950.93,3655.24 4965.76,3641.07 4986.5,3633C 5004.35,3626.12 5022.69,3621.95 5041.5,3620.5 Z"/></g>
<g><path style="opacity:0.982" fill="#000000" d="M 5865.5,3620.5 C 5891.45,3619.2 5916.45,3623.37 5940.5,3633C 5971.99,3647.46 5989.66,3671.96 5993.5,3706.5C 5966.84,3708.25 5940.17,3709.92 5913.5,3711.5C 5911.91,3693.74 5902.24,3683.58 5884.5,3681C 5872.92,3679.18 5861.92,3680.85 5851.5,3686C 5840.93,3693.31 5839.93,3701.64 5848.5,3711C 5851.42,3712.53 5854.42,3713.86 5857.5,3715C 5882.08,3721.98 5906.75,3728.64 5931.5,3735C 5992.36,3750.56 6014.53,3788.72 5998,3849.5C 5992.12,3863.75 5982.62,3874.92 5969.5,3883C 5949.05,3894.61 5927.05,3901.28 5903.5,3903C 5870.18,3906.93 5838.18,3902.26 5807.5,3889C 5784.86,3877.7 5768.36,3860.53 5758,3837.5C 5755.52,3829.43 5753.69,3821.27 5752.5,3813C 5780.46,3809.7 5808.46,3806.87 5836.5,3804.5C 5838.25,3826.09 5849.91,3838.59 5871.5,3842C 5884.87,3844.1 5897.54,3842.1 5909.5,3836C 5919.81,3826.9 5920.15,3817.57 5910.5,3808C 5907.17,3806.33 5903.83,3804.67 5900.5,3803C 5872.12,3794.82 5843.79,3786.49 5815.5,3778C 5772.5,3763.85 5754.67,3734.35 5762,3689.5C 5768.05,3662.11 5784.22,3643.27 5810.5,3633C 5828.31,3625.94 5846.65,3621.77 5865.5,3620.5 Z"/></g>
<g><path style="opacity:0.964" fill="#000000" d="M 240.5,3621.5 C 301.261,3617.21 347.761,3640.54 380,3691.5C 398.97,3725.96 403.636,3762.29 394,3800.5C 379.091,3849.08 347.591,3881.58 299.5,3898C 229.617,3914.94 174.783,3893.77 135,3834.5C 109.846,3788.17 109.179,3741.5 133,3694.5C 157.238,3653.13 193.071,3628.8 240.5,3621.5 Z M 245.5,3652.5 C 285.665,3649.71 318.499,3663.71 344,3694.5C 371.454,3732.77 374.787,3773.1 354,3815.5C 329.368,3856.06 293.202,3874.89 245.5,3872C 200.764,3864.93 169.931,3840.43 153,3798.5C 138.163,3742.66 154.663,3698.83 202.5,3667C 216.054,3659.43 230.387,3654.59 245.5,3652.5 Z"/></g>
<g><path style="opacity:0.985" fill="#000000" d="M 822.5,3626.5 C 848.277,3625.09 872.611,3630.25 895.5,3642C 914.888,3654.06 928.388,3670.89 936,3692.5C 945.453,3723.15 948.787,3754.48 946,3786.5C 945.014,3813.46 937.681,3838.46 924,3861.5C 907.557,3883.98 885.39,3897.15 857.5,3901C 830.702,3905.01 804.369,3903.01 778.5,3895C 748.02,3882.18 728.52,3859.68 720,3827.5C 709.734,3784.74 710.068,3742.08 721,3699.5C 731.375,3663.12 754.875,3640.29 791.5,3631C 801.871,3628.75 812.205,3627.25 822.5,3626.5 Z M 823.5,3685.5 C 836.05,3683.53 845.55,3687.86 852,3698.5C 858.396,3713.15 861.73,3728.48 862,3744.5C 863.508,3768.34 862.175,3792.01 858,3815.5C 855.809,3822.88 852.809,3829.88 849,3836.5C 841.608,3843.85 832.775,3846.35 822.5,3844C 813.36,3841.53 807.526,3835.69 805,3826.5C 802.217,3819.04 800.217,3811.37 799,3803.5C 795.667,3777.83 795.667,3752.17 799,3726.5C 800.485,3715.04 804.151,3704.38 810,3694.5C 813.517,3689.84 818.017,3686.84 823.5,3685.5 Z"/></g>
<g><path style="opacity:0.982" fill="#000000" d="M 1284.5,3626.5 C 1308.91,3625.2 1332.58,3628.7 1355.5,3637C 1393.08,3654.67 1407.25,3683.84 1398,3724.5C 1390.16,3741.35 1377.33,3752.51 1359.5,3758C 1394.45,3769.02 1409.28,3792.85 1404,3829.5C 1400.06,3867.11 1379.56,3889.94 1342.5,3898C 1312.16,3903.98 1281.83,3903.98 1251.5,3898C 1207.21,3887.22 1184.55,3859.05 1183.5,3813.5C 1210.48,3811.99 1237.48,3810.99 1264.5,3810.5C 1264.18,3831.51 1274.51,3842.51 1295.5,3843.5C 1313.59,3842.33 1322.93,3832.66 1323.5,3814.5C 1322.87,3799.09 1314.87,3790.59 1299.5,3789C 1288.84,3788.5 1278.17,3788.33 1267.5,3788.5C 1267.5,3770.83 1267.5,3753.17 1267.5,3735.5C 1279.89,3735.89 1292.22,3735.39 1304.5,3734C 1321.53,3725.89 1326.03,3713.39 1318,3696.5C 1307.43,3685.83 1295.26,3683.67 1281.5,3690C 1272.91,3696.22 1268.58,3704.72 1268.5,3715.5C 1242.17,3714.36 1215.84,3713.36 1189.5,3712.5C 1191.16,3668.34 1213.49,3641.17 1256.5,3631C 1265.91,3629.06 1275.24,3627.56 1284.5,3626.5 Z"/></g>
<g><path style="opacity:0.98" fill="#000000" d="M 1492.5,3626.5 C 1563.83,3626.33 1635.17,3626.5 1706.5,3627C 1707.83,3648 1707.83,3669 1706.5,3690C 1663.5,3690.5 1620.5,3690.67 1577.5,3690.5C 1577.5,3706.5 1577.5,3722.5 1577.5,3738.5C 1618.17,3738.5 1658.83,3738.5 1699.5,3738.5C 1699.5,3758.83 1699.5,3779.17 1699.5,3799.5C 1658.83,3799.5 1618.17,3799.5 1577.5,3799.5C 1577.5,3832.17 1577.5,3864.83 1577.5,3897.5C 1549.17,3897.5 1520.83,3897.5 1492.5,3897.5C 1492.5,3807.17 1492.5,3716.83 1492.5,3626.5 Z"/></g>
<g><path style="opacity:0.987" fill="#000000" d="M 1721.5,3626.5 C 1792.83,3626.5 1864.17,3626.5 1935.5,3626.5C 1935.5,3647.83 1935.5,3669.17 1935.5,3690.5C 1892.17,3690.5 1848.83,3690.5 1805.5,3690.5C 1805.5,3703.5 1805.5,3716.5 1805.5,3729.5C 1846.17,3729.5 1886.83,3729.5 1927.5,3729.5C 1927.5,3749.83 1927.5,3770.17 1927.5,3790.5C 1886.83,3790.5 1846.17,3790.5 1805.5,3790.5C 1805.5,3804.5 1805.5,3818.5 1805.5,3832.5C 1848.83,3832.5 1892.17,3832.5 1935.5,3832.5C 1935.5,3854.17 1935.5,3875.83 1935.5,3897.5C 1864.17,3897.5 1792.83,3897.5 1721.5,3897.5C 1721.5,3807.17 1721.5,3716.83 1721.5,3626.5 Z"/></g>
<g><path style="opacity:0.986" fill="#000000" d="M 1951.5,3626.5 C 1979.5,3626.5 2007.5,3626.5 2035.5,3626.5C 2035.5,3694.17 2035.5,3761.83 2035.5,3829.5C 2079.83,3829.5 2124.17,3829.5 2168.5,3829.5C 2168.5,3852.17 2168.5,3874.83 2168.5,3897.5C 2095.83,3897.5 2023.17,3897.5 1950.5,3897.5C 1950.17,3807.1 1950.5,3716.76 1951.5,3626.5 Z"/></g>
<g><path style="opacity:0.988" fill="#000000" d="M 2471.5,3626.5 C 2503.84,3626.17 2536.17,3626.5 2568.5,3627.5C 2596.09,3680.36 2623.93,3733.02 2652,3785.5C 2652.5,3732.5 2652.67,3679.5 2652.5,3626.5C 2677.83,3626.5 2703.17,3626.5 2728.5,3626.5C 2728.5,3716.83 2728.5,3807.17 2728.5,3897.5C 2696.83,3897.67 2665.16,3897.5 2633.5,3897C 2604.95,3843.4 2576.78,3789.57 2549,3735.5C 2548.5,3789.5 2548.33,3843.5 2548.5,3897.5C 2522.83,3897.5 2497.17,3897.5 2471.5,3897.5C 2471.5,3807.17 2471.5,3716.83 2471.5,3626.5 Z"/></g>
<g><path style="opacity:0.986" fill="#000000" d="M 3003.5,3626.5 C 3041.84,3626.17 3080.17,3626.5 3118.5,3627.5C 3149.38,3717.46 3180.04,3807.46 3210.5,3897.5C 3180.83,3897.67 3151.16,3897.5 3121.5,3897C 3116,3880.66 3111,3864.16 3106.5,3847.5C 3075.83,3847.33 3045.16,3847.5 3014.5,3848C 3009.5,3864.33 3004.5,3880.67 2999.5,3897C 2970.16,3897.83 2940.83,3897.67 2911.5,3896.5C 2942.77,3806.68 2973.44,3716.68 3003.5,3626.5 Z M 3059.5,3694.5 C 3069.13,3725.73 3078.79,3757.06 3088.5,3788.5C 3069.51,3789.67 3050.51,3789.83 3031.5,3789C 3040.94,3757.52 3050.27,3726.02 3059.5,3694.5 Z"/></g>
<g><path style="opacity:0.995" fill="#000000" d="M 3218.5,3626.5 C 3246.5,3626.5 3274.5,3626.5 3302.5,3626.5C 3302.5,3694.17 3302.5,3761.83 3302.5,3829.5C 3346.83,3829.5 3391.17,3829.5 3435.5,3829.5C 3435.5,3852.17 3435.5,3874.83 3435.5,3897.5C 3363.17,3897.5 3290.83,3897.5 3218.5,3897.5C 3218.5,3807.17 3218.5,3716.83 3218.5,3626.5 Z"/></g>
<g><path style="opacity:0.986" fill="#000000" d="M 3448.5,3626.5 C 3476.5,3626.5 3504.5,3626.5 3532.5,3626.5C 3532.5,3694.17 3532.5,3761.83 3532.5,3829.5C 3576.83,3829.5 3621.17,3829.5 3665.5,3829.5C 3665.5,3852.17 3665.5,3874.83 3665.5,3897.5C 3592.83,3897.5 3520.17,3897.5 3447.5,3897.5C 3447.17,3807.1 3447.5,3716.76 3448.5,3626.5 Z"/></g>
<g><path style="opacity:0.985" fill="#000000" d="M 3749.5,3626.5 C 3799.5,3626.33 3849.5,3626.5 3899.5,3627C 3925.38,3626.63 3948.71,3633.96 3969.5,3649C 3990.86,3667.57 4000.86,3691.07 3999.5,3719.5C 4000.24,3756.55 3984.57,3784.05 3952.5,3802C 3971.03,3833.57 3989.7,3865.07 4008.5,3896.5C 3976.17,3897.67 3943.84,3897.83 3911.5,3897C 3896.3,3869.29 3881.3,3841.46 3866.5,3813.5C 3855.85,3812.5 3845.19,3812.17 3834.5,3812.5C 3834.5,3840.83 3834.5,3869.17 3834.5,3897.5C 3806.17,3897.5 3777.83,3897.5 3749.5,3897.5C 3749.5,3807.17 3749.5,3716.83 3749.5,3626.5 Z M 3834.5,3690.5 C 3854.21,3690.06 3873.88,3690.56 3893.5,3692C 3911.54,3699.41 3917.71,3712.57 3912,3731.5C 3904.81,3743.68 3893.98,3749.52 3879.5,3749C 3864.5,3749.5 3849.5,3749.67 3834.5,3749.5C 3834.5,3729.83 3834.5,3710.17 3834.5,3690.5 Z"/></g>
<g><path style="opacity:0.978" fill="#000000" d="M 4014.5,3626.5 C 4042.83,3626.5 4071.17,3626.5 4099.5,3626.5C 4099.5,3716.83 4099.5,3807.17 4099.5,3897.5C 4071.17,3897.5 4042.83,3897.5 4014.5,3897.5C 4014.5,3807.17 4014.5,3716.83 4014.5,3626.5 Z"/></g>
<g><path style="opacity:0.99" fill="#000000" d="M 4408.5,3626.5 C 4436.5,3626.5 4464.5,3626.5 4492.5,3626.5C 4492.5,3659.83 4492.5,3693.17 4492.5,3726.5C 4521.83,3726.5 4551.17,3726.5 4580.5,3726.5C 4580.5,3693.17 4580.5,3659.83 4580.5,3626.5C 4608.5,3626.5 4636.5,3626.5 4664.5,3626.5C 4664.5,3716.83 4664.5,3807.17 4664.5,3897.5C 4636.5,3897.5 4608.5,3897.5 4580.5,3897.5C 4580.5,3863.17 4580.5,3828.83 4580.5,3794.5C 4551.17,3794.5 4521.83,3794.5 4492.5,3794.5C 4492.5,3828.83 4492.5,3863.17 4492.5,3897.5C 4464.5,3897.5 4436.5,3897.5 4408.5,3897.5C 4408.5,3807.17 4408.5,3716.83 4408.5,3626.5 Z"/></g>
<g><path style="opacity:0.987" fill="#000000" d="M 4677.5,3626.5 C 4760.17,3626.5 4842.83,3626.5 4925.5,3626.5C 4925.5,3649.5 4925.5,3672.5 4925.5,3695.5C 4898.17,3695.5 4870.83,3695.5 4843.5,3695.5C 4843.5,3762.83 4843.5,3830.17 4843.5,3897.5C 4815.5,3897.5 4787.5,3897.5 4759.5,3897.5C 4759.5,3830.17 4759.5,3762.83 4759.5,3695.5C 4732.17,3695.5 4704.83,3695.5 4677.5,3695.5C 4677.5,3672.5 4677.5,3649.5 4677.5,3626.5 Z"/></g>
<g><path style="opacity:0.985" fill="#000000" d="M 5266.5,3626.5 C 5316.5,3626.33 5366.5,3626.5 5416.5,3627C 5442.38,3626.63 5465.71,3633.96 5486.5,3649C 5507.86,3667.57 5517.86,3691.07 5516.5,3719.5C 5517.24,3756.55 5501.57,3784.05 5469.5,3802C 5488.03,3833.57 5506.7,3865.07 5525.5,3896.5C 5493.17,3897.67 5460.84,3897.83 5428.5,3897C 5413.3,3869.29 5398.3,3841.46 5383.5,3813.5C 5372.85,3812.5 5362.19,3812.17 5351.5,3812.5C 5351.5,3840.83 5351.5,3869.17 5351.5,3897.5C 5323.17,3897.5 5294.83,3897.5 5266.5,3897.5C 5266.5,3807.17 5266.5,3716.83 5266.5,3626.5 Z M 5351.5,3690.5 C 5371.21,3690.06 5390.88,3690.56 5410.5,3692C 5428.54,3699.41 5434.71,3712.57 5429,3731.5C 5421.81,3743.68 5410.98,3749.52 5396.5,3749C 5381.5,3749.5 5366.5,3749.67 5351.5,3749.5C 5351.5,3729.83 5351.5,3710.17 5351.5,3690.5 Z"/></g>
<g><path style="opacity:0.981" fill="#000000" d="M 5531.5,3626.5 C 5602.83,3626.33 5674.17,3626.5 5745.5,3627C 5746.83,3648 5746.83,3669 5745.5,3690C 5702.5,3690.5 5659.5,3690.67 5616.5,3690.5C 5616.5,3703.5 5616.5,3716.5 5616.5,3729.5C 5657.17,3729.5 5697.83,3729.5 5738.5,3729.5C 5738.5,3749.83 5738.5,3770.17 5738.5,3790.5C 5697.83,3790.5 5657.17,3790.5 5616.5,3790.5C 5616.5,3804.5 5616.5,3818.5 5616.5,3832.5C 5659.5,3832.33 5702.5,3832.5 5745.5,3833C 5746.49,3854.42 5746.83,3875.92 5746.5,3897.5C 5674.83,3897.5 5603.17,3897.5 5531.5,3897.5C 5531.5,3807.17 5531.5,3716.83 5531.5,3626.5 Z"/></g>
<g><path style="opacity:0.985" fill="#000000" d="M 6018.5,3626.5 C 6089.83,3626.5 6161.17,3626.5 6232.5,3626.5C 6232.5,3647.83 6232.5,3669.17 6232.5,3690.5C 6189.5,3690.5 6146.5,3690.5 6103.5,3690.5C 6103.5,3703.5 6103.5,3716.5 6103.5,3729.5C 6143.83,3729.5 6184.17,3729.5 6224.5,3729.5C 6224.5,3749.83 6224.5,3770.17 6224.5,3790.5C 6184.17,3790.5 6143.83,3790.5 6103.5,3790.5C 6103.5,3804.5 6103.5,3818.5 6103.5,3832.5C 6146.5,3832.5 6189.5,3832.5 6232.5,3832.5C 6232.5,3854.17 6232.5,3875.83 6232.5,3897.5C 6161.17,3897.5 6089.83,3897.5 6018.5,3897.5C 6018.5,3807.17 6018.5,3716.83 6018.5,3626.5 Z"/></g>
<g><path style="opacity:0.989" fill="#000000" d="M 6248.5,3626.5 C 6298.17,3626.33 6347.83,3626.5 6397.5,3627C 6424.74,3626.55 6449.07,3634.55 6470.5,3651C 6489.99,3670.1 6499.32,3693.44 6498.5,3721C 6498.46,3757.61 6482.46,3784.45 6450.5,3801.5C 6469.3,3833.46 6488.3,3865.3 6507.5,3897C 6474.83,3897.67 6442.17,3897.67 6409.5,3897C 6394.37,3869.25 6379.37,3841.41 6364.5,3813.5C 6353.85,3812.5 6343.19,3812.17 6332.5,3812.5C 6332.5,3840.83 6332.5,3869.17 6332.5,3897.5C 6304.5,3897.5 6276.5,3897.5 6248.5,3897.5C 6248.5,3807.17 6248.5,3716.83 6248.5,3626.5 Z M 6332.5,3690.5 C 6350.5,3690.33 6368.5,3690.5 6386.5,3691C 6407.05,3695.24 6415.22,3707.74 6411,3728.5C 6408.17,3738 6402,3744.17 6392.5,3747C 6387.55,3748 6382.55,3748.66 6377.5,3749C 6362.5,3749.5 6347.5,3749.67 6332.5,3749.5C 6332.5,3729.83 6332.5,3710.17 6332.5,3690.5 Z"/></g>
<g><path style="opacity:0.984" fill="#000000" d="M 6493.5,3626.5 C 6523.07,3626.17 6552.57,3626.5 6582,3627.5C 6599.95,3690.01 6618.28,3752.34 6637,3814.5C 6654.84,3752.12 6672.84,3689.79 6691,3627.5C 6720.09,3626.5 6749.26,3626.17 6778.5,3626.5C 6748.84,3716.65 6718.67,3806.65 6688,3896.5C 6652.91,3897.5 6617.74,3897.83 6582.5,3897.5C 6552.63,3807.22 6522.96,3716.89 6493.5,3626.5 Z"/></g>
<g><path style="opacity:0.987" fill="#000000" d="M 6786.5,3626.5 C 6857.83,3626.5 6929.17,3626.5 7000.5,3626.5C 7000.5,3647.83 7000.5,3669.17 7000.5,3690.5C 6957.17,3690.5 6913.83,3690.5 6870.5,3690.5C 6870.5,3703.5 6870.5,3716.5 6870.5,3729.5C 6911.17,3729.5 6951.83,3729.5 6992.5,3729.5C 6992.5,3749.83 6992.5,3770.17 6992.5,3790.5C 6951.83,3790.5 6911.17,3790.5 6870.5,3790.5C 6870.5,3804.5 6870.5,3818.5 6870.5,3832.5C 6913.83,3832.5 6957.17,3832.5 7000.5,3832.5C 7000.5,3854.17 7000.5,3875.83 7000.5,3897.5C 6929.17,3897.5 6857.83,3897.5 6786.5,3897.5C 6786.5,3807.17 6786.5,3716.83 6786.5,3626.5 Z"/></g>
<g><path style="opacity:0.984" fill="#000000" d="M 7015.5,3626.5 C 7062.18,3626.09 7108.85,3626.59 7155.5,3628C 7190.48,3630.01 7220.82,3642.67 7246.5,3666C 7264.42,3686.4 7274.59,3710.23 7277,3737.5C 7281.81,3772.39 7276.81,3805.72 7262,3837.5C 7245.49,3863.66 7222.32,3881.16 7192.5,3890C 7179.37,3893.49 7166.03,3895.83 7152.5,3897C 7106.83,3897.5 7061.17,3897.67 7015.5,3897.5C 7015.5,3807.17 7015.5,3716.83 7015.5,3626.5 Z M 7100.5,3690.5 C 7114.21,3690.14 7127.87,3690.64 7141.5,3692C 7169.75,3695.58 7186.25,3711.42 7191,3739.5C 7193.96,3760.15 7192.62,3780.48 7187,3800.5C 7180.4,3816.77 7168.57,3826.93 7151.5,3831C 7134.64,3834.07 7117.64,3835.23 7100.5,3834.5C 7100.5,3786.5 7100.5,3738.5 7100.5,3690.5 Z"/></g>
<g><path style="opacity:0.987" fill="#000000" d="M 578.5,3627.5 C 602.803,3625.33 626.47,3628.16 649.5,3636C 682.121,3649.05 698.454,3673.22 698.5,3708.5C 699.887,3744.2 685.553,3771.37 655.5,3790C 639.424,3799.73 623.091,3809.07 606.5,3818C 598.995,3822.58 591.662,3827.42 584.5,3832.5C 622.494,3833.5 660.494,3833.83 698.5,3833.5C 698.5,3854.83 698.5,3876.17 698.5,3897.5C 627.167,3897.5 555.833,3897.5 484.5,3897.5C 481.891,3864.93 489.725,3835.26 508,3808.5C 516.577,3797.92 526.41,3788.75 537.5,3781C 558.833,3767.67 580.167,3754.33 601.5,3741C 607.86,3735.98 612.693,3729.81 616,3722.5C 620.508,3696.01 609.675,3685.51 583.5,3691C 571.727,3699.78 566.394,3711.61 567.5,3726.5C 540.411,3726.98 513.411,3726.48 486.5,3725C 490.249,3667.08 520.916,3634.58 578.5,3627.5 Z"/></g>
<g><path style="opacity:0.986" fill="#000000" d="M 1052.5,3627.5 C 1076.8,3625.33 1100.47,3628.16 1123.5,3636C 1156.12,3649.05 1172.45,3673.22 1172.5,3708.5C 1173.89,3744.2 1159.55,3771.37 1129.5,3790C 1113.42,3799.73 1097.09,3809.07 1080.5,3818C 1073,3822.58 1065.66,3827.42 1058.5,3832.5C 1096.49,3833.5 1134.49,3833.83 1172.5,3833.5C 1172.5,3854.83 1172.5,3876.17 1172.5,3897.5C 1101.17,3897.5 1029.83,3897.5 958.5,3897.5C 955.891,3864.93 963.725,3835.26 982,3808.5C 990.577,3797.92 1000.41,3788.75 1011.5,3781C 1032.83,3767.67 1054.17,3754.33 1075.5,3741C 1081.86,3735.98 1086.69,3729.81 1090,3722.5C 1094.51,3696.01 1083.67,3685.51 1057.5,3691C 1045.73,3699.78 1040.39,3711.61 1041.5,3726.5C 1014.41,3726.98 987.411,3726.48 960.5,3725C 964.249,3667.08 994.916,3634.58 1052.5,3627.5 Z"/></g>
<g><path style="opacity:0.966" fill="#000000" d="M 244.5,3691.5 C 273.799,3687.42 297.632,3696.75 316,3719.5C 319.893,3725.34 322.726,3731.67 324.5,3738.5C 323.624,3739.25 322.624,3739.75 321.5,3740C 308.297,3741.28 295.13,3742.78 282,3744.5C 279.692,3740.56 277.359,3736.56 275,3732.5C 266.317,3723.81 256.484,3722.31 245.5,3728C 238.169,3732.82 234.002,3739.65 233,3748.5C 232.68,3753.02 232.18,3757.52 231.5,3762C 231.507,3771.71 233.674,3780.87 238,3789.5C 246.605,3799.76 257.105,3802.26 269.5,3797C 275.808,3791.72 279.808,3785.05 281.5,3777C 296.166,3777.5 310.832,3778.33 325.5,3779.5C 320.559,3805.94 305.226,3823.11 279.5,3831C 258.28,3836.06 237.946,3833.72 218.5,3824C 196.976,3809.18 186.643,3788.52 187.5,3762C 186.859,3732.25 199.526,3710.58 225.5,3697C 231.828,3694.67 238.162,3692.84 244.5,3691.5 Z"/></g>
<g><path style="opacity:0.991" fill="#000000" d="M 2748.5,3821.5 C 2776.17,3821.5 2803.83,3821.5 2831.5,3821.5C 2831.5,3846.83 2831.5,3872.17 2831.5,3897.5C 2803.83,3897.5 2776.17,3897.5 2748.5,3897.5C 2748.5,3872.17 2748.5,3846.83 2748.5,3821.5 Z"/></g>
<g><path style="opacity:0.979" fill="#000000" d="M 7287.5,3821.5 C 7315.5,3821.5 7343.5,3821.5 7371.5,3821.5C 7371.5,3846.83 7371.5,3872.17 7371.5,3897.5C 7343.5,3897.5 7315.5,3897.5 7287.5,3897.5C 7287.5,3872.17 7287.5,3846.83 7287.5,3821.5 Z"/></g>
</svg>