<svg xmlns="http://www.w3.org/2000/svg" xmlns:xlink="http://www.w3.org/1999/xlink" version="1.1" style="shape-rendering:geometricPrecision; text-rendering:geometricPrecision; image-rendering:optimizeQuality; fill-rule:evenodd; clip-rule:evenodd" viewBox="49.87 3611.7 7387.75 303.08">
<g><path style="opacity:0.961" fill="#000000" d="M 185.5,3612.5 C 249.216,3609.1 298.049,3634.1 332,3687.5C 353.028,3726.35 357.361,3767.02 345,3809.5C 322.419,3870.9 278.586,3905.73 213.5,3914C 151.913,3916.96 104.413,3892.79 71,3841.5C 45.8155,3795.77 43.1488,3748.77 63,3700.5C 88.4282,3649.7 129.262,3620.37 185.5,3612.5 Z M 184.5,3642.5 C 238.139,3638.4 278.973,3659.07 307,3704.5C 330.322,3750.92 326.989,3795.25 297,3837.5C 262.402,3878.37 218.902,3892.54 166.5,3880C 116.091,3862.59 87.2575,3827.42 80,3774.5C 77.5525,3723.69 97.7192,3684.86 140.5,3658C 154.475,3650.51 169.142,3645.34 184.5,3642.5 Z"/></g>
<g><path style="opacity:0.98" fill="#000000" d="M 2293.5,3612.5 C 2331.81,3608.86 2366.81,3617.69 2398.5,3639C 2427.13,3662.41 2444.3,3692.58 2450,3729.5C 2457.23,3772.36 2450.89,3813.03 2431,3851.5C 2410.02,3885.11 2379.85,3905.28 2340.5,3912C 2297.86,3919.61 2258.53,3911.61 2222.5,3888C 2192.13,3863.44 2174.63,3831.6 2170,3792.5C 2165.09,3757.39 2169.09,3723.39 2182,3690.5C 2204.81,3644.16 2241.98,3618.16 2293.5,3612.5 Z M 2298.5,3662.5 C 2341.2,3659.08 2369.7,3677.42 2384,3717.5C 2393.05,3750.05 2392.39,3782.38 2382,3814.5C 2367.21,3850.24 2340.38,3866.74 2301.5,3864C 2272.09,3860.25 2251.59,3844.75 2240,3817.5C 2226.82,3778.78 2227.82,3740.45 2243,3702.5C 2255.01,3679.97 2273.51,3666.64 2298.5,3662.5 Z"/></g>
<g><path style="opacity:0.979" fill="#000000" d="M 4261.5,3612.5 C 4304.36,3608.62 4342.03,3620.46 4374.5,3648C 4390.12,3663.23 4401.46,3681.23 4408.5,3702C 4388.37,3705.04 4368.2,3707.87 4348,3710.5C 4347.23,3710.36 4346.56,3710.02 4346,3709.5C 4328.85,3671.84 4299.69,3656.67 4258.5,3664C 4230.98,3671.19 4212.81,3688.36 4204,3715.5C 4197.9,3737.09 4195.9,3759.09 4198,3781.5C 4199.42,3806.46 4208.59,3827.96 4225.5,3846C 4250.31,3865.31 4277.65,3869.64 4307.5,3859C 4331.72,3847.78 4346.72,3829.11 4352.5,3803C 4328.84,3802.5 4305.17,3802.33 4281.5,3802.5C 4281.5,3786.83 4281.5,3771.17 4281.5,3755.5C 4324.17,3755.5 4366.83,3755.5 4409.5,3755.5C 4409.5,3806.17 4409.5,3856.83 4409.5,3907.5C 4394.83,3907.5 4380.17,3907.5 4365.5,3907.5C 4365.67,3896.83 4365.5,3886.16 4365,3875.5C 4344.61,3899.84 4318.44,3912.68 4286.5,3914C 4231.19,3917.59 4188.03,3896.76 4157,3851.5C 4138.8,3818.86 4131.47,3783.86 4135,3746.5C 4137.69,3697.93 4158.85,3660.1 4198.5,3633C 4218.07,3621.42 4239.07,3614.59 4261.5,3612.5 Z"/></g>
<g><path style="opacity:0.978" fill="#000000" d="M 5071.5,3612.5 C 5095.08,3610.82 5118.08,3613.66 5140.5,3621C 5175.74,3635.76 5197.41,3661.92 5205.5,3699.5C 5204.27,3700.28 5202.94,3700.78 5201.5,3701C 5185.33,3702.14 5169.16,3703.31 5153,3704.5C 5150.5,3704.17 5148,3703.83 5145.5,3703.5C 5141.1,3682.49 5128.77,3668.66 5108.5,3662C 5091.29,3657.15 5074.29,3657.82 5057.5,3664C 5036.16,3674.49 5030.66,3690.32 5041,3711.5C 5049.36,3718.26 5058.86,3722.76 5069.5,3725C 5100.21,3731.59 5130.55,3739.59 5160.5,3749C 5191.67,3759.84 5209.17,3781.67 5213,3814.5C 5217.15,3857.06 5199.65,3886.56 5160.5,3903C 5118.7,3917.39 5076.7,3918.05 5034.5,3905C 4994.15,3889.48 4971.15,3860.32 4965.5,3817.5C 4985.04,3815.86 5004.54,3813.86 5024,3811.5C 5024.95,3811.91 5025.61,3812.57 5026,3813.5C 5030.52,3843.35 5047.69,3860.85 5077.5,3866C 5096.59,3869.21 5114.92,3866.88 5132.5,3859C 5150.58,3847.1 5155.08,3831.27 5146,3811.5C 5141.66,3805.83 5136.16,3801.66 5129.5,3799C 5102.34,3791.04 5075.01,3783.71 5047.5,3777C 5030.24,3772.7 5014.24,3765.7 4999.5,3756C 4977.43,3735.46 4969.6,3710.29 4976,3680.5C 4983.67,3651.82 5001.5,3632.32 5029.5,3622C 5043.28,3617.22 5057.28,3614.05 5071.5,3612.5 Z"/></g>
<g><path style="opacity:0.978" fill="#000000" d="M 5915.5,3612.5 C 5946.63,3609.63 5975.96,3615.46 6003.5,3630C 6028.63,3646.99 6043.97,3670.49 6049.5,3700.5C 6029.55,3702.4 6009.55,3703.73 5989.5,3704.5C 5986.35,3682.85 5974.35,3668.68 5953.5,3662C 5939.26,3657.82 5924.92,3657.49 5910.5,3661C 5898.88,3664.21 5889.71,3670.71 5883,3680.5C 5876.34,3696.35 5880.18,3708.85 5894.5,3718C 5899.68,3720.39 5905.01,3722.39 5910.5,3724C 5942.18,3731.09 5973.51,3739.42 6004.5,3749C 6032.08,3757.91 6049.25,3776.41 6056,3804.5C 6064.46,3858.76 6042.29,3893.26 5989.5,3908C 5951.4,3917.84 5913.74,3916.5 5876.5,3904C 5837.1,3888.43 5814.77,3859.6 5809.5,3817.5C 5829.87,3815.83 5850.2,3813.83 5870.5,3811.5C 5872.71,3838.41 5886.71,3855.91 5912.5,3864C 5936.12,3870.36 5958.79,3868.02 5980.5,3857C 5996.45,3843.46 5999.28,3827.63 5989,3809.5C 5980.32,3801.57 5970.15,3796.41 5958.5,3794C 5935.17,3788 5911.83,3782 5888.5,3776C 5828.89,3761.28 5807.72,3724.45 5825,3665.5C 5838.36,3640.7 5858.86,3624.87 5886.5,3618C 5896.2,3615.59 5905.87,3613.75 5915.5,3612.5 Z"/></g>
<g><path style="opacity:0.981" fill="#000000" d="M 547.5,3618.5 C 577.967,3616.2 605.633,3623.7 630.5,3641C 648.879,3657.28 657.879,3677.78 657.5,3702.5C 657.677,3734.31 645.01,3759.48 619.5,3778C 591.987,3794.92 564.987,3812.59 538.5,3831C 532.967,3836.2 527.8,3841.7 523,3847.5C 520.636,3851.22 519.136,3855.22 518.5,3859.5C 564.5,3859.5 610.5,3859.5 656.5,3859.5C 656.5,3875.5 656.5,3891.5 656.5,3907.5C 587.833,3907.5 519.167,3907.5 450.5,3907.5C 446.936,3857.13 465.936,3817.97 507.5,3790C 530.671,3775.25 553.671,3760.25 576.5,3745C 598.82,3726.9 603.653,3705.07 591,3679.5C 584.658,3671.74 576.491,3667.24 566.5,3666C 540.173,3662.24 522.339,3672.74 513,3697.5C 511.108,3704.63 509.608,3711.8 508.5,3719C 489.499,3718.54 470.499,3717.7 451.5,3716.5C 456.973,3657.69 488.973,3625.03 547.5,3618.5 Z"/></g>
<g><path style="opacity:0.98" fill="#000000" d="M 780.5,3618.5 C 806.606,3616.22 831.273,3621.05 854.5,3633C 879.173,3648.7 895.007,3670.87 902,3699.5C 912,3743.83 912,3788.17 902,3832.5C 888.62,3881.27 856.786,3908.1 806.5,3913C 741.929,3917.15 701.763,3887.99 686,3825.5C 679.472,3789.29 678.805,3752.95 684,3716.5C 692.676,3660.33 724.843,3627.66 780.5,3618.5 Z M 785.5,3663.5 C 816.626,3661.66 835.793,3676 843,3706.5C 845.648,3717.69 847.315,3729.02 848,3740.5C 849.357,3765.94 848.357,3791.28 845,3816.5C 842.723,3833.22 835.556,3847.39 823.5,3859C 806.472,3870.45 788.805,3871.45 770.5,3862C 757.176,3852.54 749.01,3839.7 746,3823.5C 740.073,3790.99 739.073,3758.33 743,3725.5C 744.326,3709.5 749.326,3694.84 758,3681.5C 765.251,3672.39 774.418,3666.39 785.5,3663.5 Z"/></g>
<g><path style="opacity:0.982" fill="#000000" d="M 1024.5,3618.5 C 1050.33,3616.83 1074.66,3622 1097.5,3634C 1126.17,3652.6 1138.34,3679.1 1134,3713.5C 1131.33,3741.35 1118.49,3763.19 1095.5,3779C 1069.83,3794.83 1044.49,3811.17 1019.5,3828C 1012.67,3833.5 1006.5,3839.67 1001,3846.5C 998.063,3850.37 996.229,3854.71 995.5,3859.5C 1041.5,3859.5 1087.5,3859.5 1133.5,3859.5C 1133.5,3875.5 1133.5,3891.5 1133.5,3907.5C 1064.83,3907.5 996.167,3907.5 927.5,3907.5C 924.221,3869.37 935.554,3836.54 961.5,3809C 968.833,3803 976.167,3797 983.5,3791C 1006.67,3776.25 1029.67,3761.25 1052.5,3746C 1061.63,3738.88 1068.46,3730.05 1073,3719.5C 1077.75,3703.14 1074.91,3688.3 1064.5,3675C 1055.71,3668.13 1045.71,3664.97 1034.5,3665.5C 1013.04,3665.47 998.539,3675.47 991,3695.5C 988.314,3703.28 986.814,3711.28 986.5,3719.5C 967.167,3718.5 947.833,3717.5 928.5,3716.5C 932.515,3665.61 959.182,3633.78 1008.5,3621C 1014,3620.34 1019.34,3619.51 1024.5,3618.5 Z"/></g>
<g><path style="opacity:0.975" fill="#000000" d="M 1249.5,3618.5 C 1274.61,3616.52 1298.61,3620.69 1321.5,3631C 1353.01,3649.53 1366.18,3677.03 1361,3713.5C 1357.24,3730.86 1347.74,3744.03 1332.5,3753C 1328.01,3755.08 1323.67,3757.41 1319.5,3760C 1359.17,3774.4 1375.34,3802.57 1368,3844.5C 1363.63,3870.76 1349.46,3889.59 1325.5,3901C 1293.8,3914.01 1261.13,3917.01 1227.5,3910C 1181.16,3899.19 1155.83,3870.02 1151.5,3822.5C 1171.17,3821.17 1190.83,3819.83 1210.5,3818.5C 1213.37,3851.2 1231.2,3867.87 1264,3868.5C 1297.07,3865.98 1312.07,3848.31 1309,3815.5C 1305.81,3801.3 1297.31,3791.8 1283.5,3787C 1279.28,3785.53 1274.94,3784.53 1270.5,3784C 1257.84,3783.5 1245.17,3783.33 1232.5,3783.5C 1232.5,3769.5 1232.5,3755.5 1232.5,3741.5C 1243.51,3741.67 1254.51,3741.5 1265.5,3741C 1296.61,3736.57 1308.78,3719.07 1302,3688.5C 1296.24,3675.54 1286.41,3667.71 1272.5,3665C 1247.69,3661.15 1230.52,3670.65 1221,3693.5C 1219.59,3697.73 1218.75,3702.06 1218.5,3706.5C 1199.45,3705.69 1180.45,3704.35 1161.5,3702.5C 1165.19,3659.64 1187.86,3632.81 1229.5,3622C 1236.29,3620.7 1242.96,3619.54 1249.5,3618.5 Z"/></g>
<g><path style="opacity:0.976" fill="#000000" d="M 1472.5,3618.5 C 1543.17,3618.5 1613.83,3618.5 1684.5,3618.5C 1684.5,3634.83 1684.5,3651.17 1684.5,3667.5C 1634.5,3667.5 1584.5,3667.5 1534.5,3667.5C 1534.5,3692.17 1534.5,3716.83 1534.5,3741.5C 1581.83,3741.5 1629.17,3741.5 1676.5,3741.5C 1676.5,3757.5 1676.5,3773.5 1676.5,3789.5C 1629.17,3789.5 1581.83,3789.5 1534.5,3789.5C 1534.5,3828.83 1534.5,3868.17 1534.5,3907.5C 1513.83,3907.5 1493.17,3907.5 1472.5,3907.5C 1472.5,3811.17 1472.5,3714.83 1472.5,3618.5 Z"/></g>
<g><path style="opacity:0.982" fill="#000000" d="M 1706.5,3618.5 C 1776.83,3618.5 1847.17,3618.5 1917.5,3618.5C 1917.5,3634.83 1917.5,3651.17 1917.5,3667.5C 1867.83,3667.5 1818.17,3667.5 1768.5,3667.5C 1768.5,3690.17 1768.5,3712.83 1768.5,3735.5C 1815.83,3735.5 1863.17,3735.5 1910.5,3735.5C 1910.5,3751.5 1910.5,3767.5 1910.5,3783.5C 1863.17,3783.5 1815.83,3783.5 1768.5,3783.5C 1768.5,3808.17 1768.5,3832.83 1768.5,3857.5C 1818.17,3857.5 1867.83,3857.5 1917.5,3857.5C 1917.5,3874.17 1917.5,3890.83 1917.5,3907.5C 1847.17,3907.5 1776.83,3907.5 1706.5,3907.5C 1706.5,3811.17 1706.5,3714.83 1706.5,3618.5 Z"/></g>
<g><path style="opacity:0.992" fill="#000000" d="M 1943.5,3618.5 C 1963.83,3618.5 1984.17,3618.5 2004.5,3618.5C 2004.5,3697.83 2004.5,3777.17 2004.5,3856.5C 2055.17,3856.5 2105.83,3856.5 2156.5,3856.5C 2156.5,3873.5 2156.5,3890.5 2156.5,3907.5C 2085.5,3907.5 2014.5,3907.5 1943.5,3907.5C 1943.5,3811.17 1943.5,3714.83 1943.5,3618.5 Z"/></g>
<g><path style="opacity:0.983" fill="#000000" d="M 2478.5,3618.5 C 2501.5,3618.33 2524.5,3618.5 2547.5,3619C 2589.46,3686.42 2631.29,3753.92 2673,3821.5C 2673.5,3753.83 2673.67,3686.17 2673.5,3618.5C 2692.41,3618.17 2711.24,3618.51 2730,3619.5C 2730.48,3715.5 2730.64,3811.5 2730.5,3907.5C 2707.26,3907.83 2684.09,3907.49 2661,3906.5C 2619.37,3838.03 2577.53,3769.7 2535.5,3701.5C 2534.5,3770.16 2534.17,3838.83 2534.5,3907.5C 2515.83,3907.5 2497.17,3907.5 2478.5,3907.5C 2478.5,3811.17 2478.5,3714.83 2478.5,3618.5 Z"/></g>
<g><path style="opacity:0.982" fill="#000000" d="M 3026.5,3618.5 C 3053.41,3618.17 3080.24,3618.51 3107,3619.5C 3142.83,3715.17 3178.67,3810.83 3214.5,3906.5C 3192.51,3907.67 3170.51,3907.83 3148.5,3907C 3140.41,3884.89 3132.41,3862.72 3124.5,3840.5C 3085.5,3839.33 3046.5,3839.17 3007.5,3840C 2999.33,3862.33 2991.67,3884.83 2984.5,3907.5C 2962.49,3907.83 2940.49,3907.5 2918.5,3906.5C 2954.52,3810.47 2990.52,3714.47 3026.5,3618.5 Z M 3065.5,3671.5 C 3079.92,3711.54 3094.26,3751.71 3108.5,3792C 3080.16,3792.83 3051.83,3792.67 3023.5,3791.5C 3037.7,3751.55 3051.7,3711.55 3065.5,3671.5 Z"/></g>
<g><path style="opacity:0.981" fill="#000000" d="M 3229.5,3618.5 C 3250.17,3618.5 3270.83,3618.5 3291.5,3618.5C 3291.5,3697.83 3291.5,3777.17 3291.5,3856.5C 3342.17,3856.5 3392.83,3856.5 3443.5,3856.5C 3443.5,3873.5 3443.5,3890.5 3443.5,3907.5C 3372.17,3907.5 3300.83,3907.5 3229.5,3907.5C 3229.5,3811.17 3229.5,3714.83 3229.5,3618.5 Z"/></g>
<g><path style="opacity:0.981" fill="#000000" d="M 3464.5,3618.5 C 3484.83,3618.5 3505.17,3618.5 3525.5,3618.5C 3525.5,3697.83 3525.5,3777.17 3525.5,3856.5C 3576.17,3856.5 3626.83,3856.5 3677.5,3856.5C 3677.5,3873.5 3677.5,3890.5 3677.5,3907.5C 3606.17,3907.5 3534.83,3907.5 3463.5,3907.5C 3463.31,3811.24 3463.64,3714.9 3464.5,3618.5 Z"/></g>
<g><path style="opacity:0.981" fill="#000000" d="M 3775.5,3618.5 C 3826.5,3618.33 3877.5,3618.5 3928.5,3619C 3993.89,3624.05 4024.72,3659.21 4021,3724.5C 4016.08,3761.42 3995.92,3785.58 3960.5,3797C 3983.17,3833.67 4005.83,3870.33 4028.5,3907C 4004.5,3907.67 3980.5,3907.67 3956.5,3907C 3936.04,3872.58 3915.71,3838.08 3895.5,3803.5C 3876.18,3802.5 3856.84,3802.17 3837.5,3802.5C 3837.5,3837.5 3837.5,3872.5 3837.5,3907.5C 3816.83,3907.5 3796.17,3907.5 3775.5,3907.5C 3775.5,3811.17 3775.5,3714.83 3775.5,3618.5 Z M 3837.5,3667.5 C 3863.17,3667.33 3888.84,3667.5 3914.5,3668C 3950.28,3671.72 3964.45,3691.22 3957,3726.5C 3949.77,3742.55 3937.27,3751.39 3919.5,3753C 3892.17,3753.5 3864.84,3753.67 3837.5,3753.5C 3837.5,3724.83 3837.5,3696.17 3837.5,3667.5 Z"/></g>
<g><path style="opacity:0.975" fill="#000000" d="M 4046.5,3618.5 C 4067.17,3618.5 4087.83,3618.5 4108.5,3618.5C 4108.5,3714.83 4108.5,3811.17 4108.5,3907.5C 4087.83,3907.5 4067.17,3907.5 4046.5,3907.5C 4046.5,3811.17 4046.5,3714.83 4046.5,3618.5 Z"/></g>
<g><path style="opacity:0.98" fill="#000000" d="M 4438.5,3618.5 C 4459.17,3618.5 4479.83,3618.5 4500.5,3618.5C 4500.5,3657.83 4500.5,3697.17 4500.5,3736.5C 4542.5,3736.5 4584.5,3736.5 4626.5,3736.5C 4626.33,3697.5 4626.5,3658.5 4627,3619.5C 4647.42,3618.51 4667.92,3618.17 4688.5,3618.5C 4688.5,3714.83 4688.5,3811.17 4688.5,3907.5C 4667.83,3907.5 4647.17,3907.5 4626.5,3907.5C 4626.5,3867.17 4626.5,3826.83 4626.5,3786.5C 4584.5,3786.5 4542.5,3786.5 4500.5,3786.5C 4500.5,3826.83 4500.5,3867.17 4500.5,3907.5C 4479.83,3907.5 4459.17,3907.5 4438.5,3907.5C 4438.5,3811.17 4438.5,3714.83 4438.5,3618.5 Z"/></g>
<g><path style="opacity:0.985" fill="#000000" d="M 4709.5,3618.5 C 4792.17,3618.5 4874.83,3618.5 4957.5,3618.5C 4957.5,3635.83 4957.5,3653.17 4957.5,3670.5C 4926.17,3670.5 4894.83,3670.5 4863.5,3670.5C 4863.5,3749.5 4863.5,3828.5 4863.5,3907.5C 4843.17,3907.5 4822.83,3907.5 4802.5,3907.5C 4802.5,3828.5 4802.5,3749.5 4802.5,3670.5C 4771.5,3670.67 4740.5,3670.5 4709.5,3670C 4708.17,3652.83 4708.17,3635.67 4709.5,3618.5 Z"/></g>
<g><path style="opacity:0.981" fill="#000000" d="M 5314.5,3618.5 C 5365.5,3618.33 5416.5,3618.5 5467.5,3619C 5532.89,3624.05 5563.72,3659.21 5560,3724.5C 5555.08,3761.42 5534.92,3785.58 5499.5,3797C 5522.17,3833.67 5544.83,3870.33 5567.5,3907C 5543.5,3907.67 5519.5,3907.67 5495.5,3907C 5475.04,3872.58 5454.71,3838.08 5434.5,3803.5C 5415.18,3802.5 5395.84,3802.17 5376.5,3802.5C 5376.5,3837.5 5376.5,3872.5 5376.5,3907.5C 5355.83,3907.5 5335.17,3907.5 5314.5,3907.5C 5314.5,3811.17 5314.5,3714.83 5314.5,3618.5 Z M 5376.5,3667.5 C 5402.17,3667.33 5427.84,3667.5 5453.5,3668C 5489.28,3671.72 5503.45,3691.22 5496,3726.5C 5488.77,3742.55 5476.27,3751.39 5458.5,3753C 5431.17,3753.5 5403.84,3753.67 5376.5,3753.5C 5376.5,3724.83 5376.5,3696.17 5376.5,3667.5 Z"/></g>
<g><path style="opacity:0.986" fill="#000000" d="M 5585.5,3618.5 C 5655.83,3618.5 5726.17,3618.5 5796.5,3618.5C 5796.5,3634.83 5796.5,3651.17 5796.5,3667.5C 5746.5,3667.5 5696.5,3667.5 5646.5,3667.5C 5646.5,3690.17 5646.5,3712.83 5646.5,3735.5C 5694.17,3735.5 5741.83,3735.5 5789.5,3735.5C 5789.5,3751.5 5789.5,3767.5 5789.5,3783.5C 5741.83,3783.5 5694.17,3783.5 5646.5,3783.5C 5646.5,3808.17 5646.5,3832.83 5646.5,3857.5C 5696.5,3857.5 5746.5,3857.5 5796.5,3857.5C 5796.5,3874.17 5796.5,3890.83 5796.5,3907.5C 5726.17,3907.5 5655.83,3907.5 5585.5,3907.5C 5585.5,3811.17 5585.5,3714.83 5585.5,3618.5 Z"/></g>
<g><path style="opacity:0.98" fill="#000000" d="M 6082.5,3618.5 C 6153.17,3618.5 6223.83,3618.5 6294.5,3618.5C 6294.5,3634.83 6294.5,3651.17 6294.5,3667.5C 6244.5,3667.5 6194.5,3667.5 6144.5,3667.5C 6144.5,3690.17 6144.5,3712.83 6144.5,3735.5C 6191.83,3735.5 6239.17,3735.5 6286.5,3735.5C 6286.5,3751.5 6286.5,3767.5 6286.5,3783.5C 6239.17,3783.5 6191.83,3783.5 6144.5,3783.5C 6144.5,3808.17 6144.5,3832.83 6144.5,3857.5C 6194.5,3857.5 6244.5,3857.5 6294.5,3857.5C 6294.5,3874.17 6294.5,3890.83 6294.5,3907.5C 6223.83,3907.5 6153.17,3907.5 6082.5,3907.5C 6082.5,3811.17 6082.5,3714.83 6082.5,3618.5 Z"/></g>
<g><path style="opacity:0.981" fill="#000000" d="M 6319.5,3618.5 C 6370.5,3618.33 6421.5,3618.5 6472.5,3619C 6502.97,3619.36 6528.14,3630.86 6548,3653.5C 6563.75,3676.52 6569.08,3701.85 6564,3729.5C 6557.5,3763.84 6537.66,3786.5 6504.5,3797.5C 6527.08,3833.67 6549.42,3870 6571.5,3906.5C 6547.5,3907.83 6523.5,3907.83 6499.5,3906.5C 6479.37,3871.87 6459.03,3837.37 6438.5,3803C 6419.5,3802.5 6400.5,3802.33 6381.5,3802.5C 6381.5,3837.5 6381.5,3872.5 6381.5,3907.5C 6360.83,3907.5 6340.17,3907.5 6319.5,3907.5C 6319.5,3811.17 6319.5,3714.83 6319.5,3618.5 Z M 6380.5,3667.5 C 6406.5,3667.33 6432.5,3667.5 6458.5,3668C 6493.71,3671.55 6507.88,3690.72 6501,3725.5C 6494.25,3742.22 6481.75,3751.39 6463.5,3753C 6436.16,3753.83 6408.83,3753.67 6381.5,3752.5C 6381.82,3723.87 6381.48,3695.53 6380.5,3667.5 Z"/></g>
<g><path style="opacity:0.98" fill="#000000" d="M 6565.5,3618.5 C 6587.51,3618.17 6609.51,3618.5 6631.5,3619.5C 6656.43,3693.8 6681.27,3768.13 6706,3842.5C 6731.86,3768.09 6757.03,3693.42 6781.5,3618.5C 6803.17,3618.5 6824.83,3618.5 6846.5,3618.5C 6812.51,3714.3 6778.01,3809.97 6743,3905.5C 6731.06,3906.82 6718.89,3907.49 6706.5,3907.5C 6694.5,3907.33 6682.5,3907.17 6670.5,3907C 6635.07,3810.98 6600.07,3714.81 6565.5,3618.5 Z"/></g>
<g><path style="opacity:0.986" fill="#000000" d="M 6862.5,3618.5 C 6932.83,3618.5 7003.17,3618.5 7073.5,3618.5C 7073.5,3634.83 7073.5,3651.17 7073.5,3667.5C 7023.5,3667.5 6973.5,3667.5 6923.5,3667.5C 6923.5,3690.17 6923.5,3712.83 6923.5,3735.5C 6971.17,3735.5 7018.83,3735.5 7066.5,3735.5C 7066.5,3751.5 7066.5,3767.5 7066.5,3783.5C 7018.83,3783.5 6971.17,3783.5 6923.5,3783.5C 6923.5,3808.17 6923.5,3832.83 6923.5,3857.5C 6973.5,3857.5 7023.5,3857.5 7073.5,3857.5C 7073.5,3874.17 7073.5,3890.83 7073.5,3907.5C 7003.17,3907.5 6932.83,3907.5 6862.5,3907.5C 6862.5,3811.17 6862.5,3714.83 6862.5,3618.5 Z"/></g>
<g><path style="opacity:0.981" fill="#000000" d="M 7098.5,3618.5 C 7145.19,3618.05 7191.86,3618.55 7238.5,3620C 7279.28,3623.8 7311.78,3641.96 7336,3674.5C 7351.61,3701.85 7359.11,3731.35 7358.5,3763C 7358.77,3788.86 7353.94,3813.7 7344,3837.5C 7329.39,3866.44 7306.89,3886.6 7276.5,3898C 7266.07,3901.61 7255.41,3904.27 7244.5,3906C 7195.86,3907.45 7147.19,3907.95 7098.5,3907.5C 7098.5,3811.17 7098.5,3714.83 7098.5,3618.5 Z M 7160.5,3667.5 C 7181.53,3667.1 7202.53,3667.6 7223.5,3669C 7262.21,3674.38 7285.38,3696.21 7293,3734.5C 7297.52,3760.26 7295.86,3785.59 7288,3810.5C 7276.79,3836.87 7256.96,3852.37 7228.5,3857C 7205.89,3859.16 7183.22,3859.99 7160.5,3859.5C 7160.5,3795.5 7160.5,3731.5 7160.5,3667.5 Z"/></g>
<g><path style="opacity:0.964" fill="#000000" d="M 189.5,3687.5 C 218.39,3683.84 241.89,3693.17 260,3715.5C 264.503,3721.84 267.337,3728.84 268.5,3736.5C 256.633,3737.46 244.799,3738.8 233,3740.5C 231.833,3740.17 230.667,3739.83 229.5,3739.5C 221.169,3719.67 206.836,3713.51 186.5,3721C 175.902,3728.36 170.068,3738.52 169,3751.5C 167.429,3764.83 168.762,3777.83 173,3790.5C 180.576,3804.7 192.41,3810.54 208.5,3808C 215.354,3806.15 220.854,3802.32 225,3796.5C 227.717,3791.73 229.884,3786.73 231.5,3781.5C 232.5,3781.17 233.5,3780.83 234.5,3780.5C 246.475,3781.83 258.475,3782.83 270.5,3783.5C 264.801,3811.03 248.468,3828.87 221.5,3837C 191.17,3844.44 165.337,3836.94 144,3814.5C 131.129,3795.5 126.129,3774.5 129,3751.5C 133.345,3714.99 153.511,3693.66 189.5,3687.5 Z"/></g>
<g><path style="opacity:0.973" fill="#000000" d="M 2761.5,3845.5 C 2783.17,3845.5 2804.83,3845.5 2826.5,3845.5C 2826.5,3866.17 2826.5,3886.83 2826.5,3907.5C 2804.83,3907.5 2783.17,3907.5 2761.5,3907.5C 2761.5,3886.83 2761.5,3866.17 2761.5,3845.5 Z"/></g>
<g><path style="opacity:0.974" fill="#000000" d="M 7372.5,3845.5 C 7393.84,3845.33 7415.17,3845.5 7436.5,3846C 7437.49,3866.42 7437.83,3886.92 7437.5,3907.5C 7415.83,3907.5 7394.17,3907.5 7372.5,3907.5C 7372.5,3886.83 7372.5,3866.17 7372.5,3845.5 Z"/></g>
</svg>