<svg xmlns="http://www.w3.org/2000/svg" xmlns:xlink="http://www.w3.org/1999/xlink" version="1.1" style="shape-rendering:geometricPrecision; text-rendering:geometricPrecision; image-rendering:optimizeQuality; fill-rule:evenodd; clip-rule:evenodd" viewBox="26.69 3385.39 7455.81 802.14">
<g><path style="opacity:0.992" fill="#000000" d="M 371.5,3386.5 C 477.45,3378.99 570.45,3409.49 650.5,3478C 691.717,3516.58 721.217,3562.75 739,3616.5C 739.667,3617.83 739.667,3619.17 739,3620.5C 685.7,3629.5 632.367,3637.5 579,3644.5C 559.435,3589.14 522.602,3550.31 468.5,3528C 416.752,3511.15 365.752,3513.15 315.5,3534C 268.089,3558.08 234.589,3594.92 215,3644.5C 198.8,3689.89 190.967,3736.72 191.5,3785C 191.381,3826.94 196.881,3868.1 208,3908.5C 240.749,4009.47 310.249,4058.64 416.5,4056C 469.594,4052.38 512.094,4029.54 544,3987.5C 565.811,3958.2 580.311,3925.53 587.5,3889.5C 641.882,3895.06 696.215,3901.06 750.5,3907.5C 733.318,3992.4 691.318,4061.9 624.5,4116C 558.948,4163.99 485.282,4187.82 403.5,4187.5C 334.062,4188.31 268.729,4172.47 207.5,4140C 149.357,4106.52 104.857,4060.02 74,4000.5C 49.8585,3952.27 35.1918,3901.27 30,3847.5C 22.6107,3779.23 27.6107,3711.9 45,3645.5C 86.6694,3507.16 178.169,3423 319.5,3393C 336.887,3390.04 354.221,3387.87 371.5,3386.5 Z"/></g>
<g><path style="opacity:0.992" fill="#000000" d="M 1145.5,3386.5 C 1198.86,3383.47 1251.19,3389.31 1302.5,3404C 1410.18,3439.01 1484.01,3509.51 1524,3615.5C 1547.24,3682.95 1556.24,3752.29 1551,3823.5C 1547.76,3903.87 1523.76,3977.2 1479,4043.5C 1424.72,4116.59 1352.55,4161.76 1262.5,4179C 1188.96,4192.48 1116.29,4188.81 1044.5,4168C 942.746,4133.58 871.246,4066.75 830,3967.5C 804.039,3898.16 793.706,3826.49 799,3752.5C 801.886,3669.54 826.886,3594.21 874,3526.5C 929.807,3454.14 1002.97,3409.64 1093.5,3393C 1110.88,3390.01 1128.22,3387.85 1145.5,3386.5 Z M 1162.5,3516.5 C 1267.31,3514.97 1336.81,3563.64 1371,3662.5C 1382.81,3703.34 1388.65,3745.01 1388.5,3787.5C 1388.79,3832.61 1381.96,3876.61 1368,3919.5C 1349.51,3972.99 1315.01,4012.49 1264.5,4038C 1206.77,4061.86 1148.77,4062.52 1090.5,4040C 1038.16,4014.66 1002.33,3974.49 983,3919.5C 971.817,3886.07 965.484,3851.74 964,3816.5C 961.501,3775.15 964.168,3734.15 972,3693.5C 980.845,3644.64 1002.68,3602.8 1037.5,3568C 1072.96,3535.94 1114.63,3518.77 1162.5,3516.5 Z"/></g>
<g><path style="opacity:0.992" fill="#000000" d="M 3838.5,3386.5 C 3903.46,3382.16 3966.13,3391.99 4026.5,3416C 4110.81,3452.98 4170.98,3513.81 4207,3598.5C 4210.67,3607.35 4213.84,3616.35 4216.5,3625.5C 4162.79,3631.42 4109.12,3637.76 4055.5,3644.5C 4009.62,3544.55 3931.95,3503.38 3822.5,3521C 3759.15,3536.02 3713.31,3572.85 3685,3631.5C 3668.55,3668.4 3659.22,3707.07 3657,3747.5C 3652.31,3803.18 3657.64,3857.85 3673,3911.5C 3708.07,4011.86 3778.9,4060.02 3885.5,4056C 3963.74,4049.33 4019.9,4010.83 4054,3940.5C 4061.09,3923.74 4066.25,3906.4 4069.5,3888.5C 4006.5,3888.5 3943.5,3888.5 3880.5,3888.5C 3880.5,3847.83 3880.5,3807.17 3880.5,3766.5C 3993.5,3766.5 4106.5,3766.5 4219.5,3766.5C 4219.5,3900.83 4219.5,4035.17 4219.5,4169.5C 4180.83,4169.5 4142.17,4169.5 4103.5,4169.5C 4103.67,4140.5 4103.5,4111.5 4103,4082.5C 4051.62,4145.28 3985.12,4179.78 3903.5,4186C 3830.68,4191.81 3761.02,4179.81 3694.5,4150C 3610.83,4107.55 3552.33,4042.39 3519,3954.5C 3496.79,3891.72 3487.46,3827.06 3491,3760.5C 3493.01,3691.8 3510.01,3627.13 3542,3566.5C 3597.43,3471.98 3679.26,3414.14 3787.5,3393C 3804.58,3390.3 3821.58,3388.13 3838.5,3386.5 Z"/></g>
<g><path style="opacity:0.992" fill="#000000" d="M 4764.5,3386.5 C 4821.29,3382.85 4876.62,3390.01 4930.5,3408C 5015.99,3441.16 5072.16,3501.66 5099,3589.5C 5101.82,3599.45 5104.32,3609.45 5106.5,3619.5C 5054.18,3623.48 5001.85,3626.98 4949.5,3630C 4937.04,3567.21 4899.71,3528.21 4837.5,3513C 4807.22,3507.43 4776.89,3507.09 4746.5,3512C 4718.75,3517.29 4694.92,3529.79 4675,3549.5C 4655.89,3573.49 4650.56,3600.16 4659,3629.5C 4664.52,3644.03 4674.02,3655.19 4687.5,3663C 4703.05,3671.61 4719.38,3678.27 4736.5,3683C 4795.17,3697.33 4853.83,3711.67 4912.5,3726C 4953.64,3736.38 4993.3,3750.71 5031.5,3769C 5087.54,3802.19 5119.04,3851.36 5126,3916.5C 5139.85,4023.99 5098.68,4101.82 5002.5,4150C 4962,4168.04 4919.67,4179.37 4875.5,4184C 4810.36,4191.24 4746.03,4186.9 4682.5,4171C 4635.59,4157.88 4593.59,4135.88 4556.5,4105C 4506.15,4058.13 4477.15,4000.3 4469.5,3931.5C 4522.89,3926.68 4576.23,3921.35 4629.5,3915.5C 4632.37,3950.32 4644.54,3981.32 4666,4008.5C 4697.68,4039.75 4735.84,4057.58 4780.5,4062C 4817.07,4066.43 4853.07,4063.43 4888.5,4053C 4915.45,4044.7 4936.61,4028.86 4952,4005.5C 4963.08,3983.02 4965.74,3959.68 4960,3935.5C 4955.19,3918.69 4945.69,3905.19 4931.5,3895C 4912.92,3883.24 4892.92,3874.58 4871.5,3869C 4807.21,3852.18 4742.88,3835.51 4678.5,3819C 4650.04,3810.63 4622.37,3800.29 4595.5,3788C 4532.96,3755.13 4499.46,3703.3 4495,3632.5C 4489.14,3542.03 4525.31,3474.53 4603.5,3430C 4654.1,3403.77 4707.76,3389.27 4764.5,3386.5 Z"/></g>
<g><path style="opacity:0.992" fill="#000000" d="M 5529.5,3386.5 C 5595.07,3382.41 5658.41,3392.25 5719.5,3416C 5801.07,3450.9 5860.24,3508.74 5897,3589.5C 5919.9,3642.09 5932.56,3697.09 5935,3754.5C 5938.87,3816.35 5932.2,3877.02 5915,3936.5C 5866.43,4081.38 5766.27,4163.88 5614.5,4184C 5549.2,4191.58 5485.2,4185.58 5422.5,4166C 5320.49,4129.99 5249.99,4061.49 5211,3960.5C 5186.67,3891.52 5177.34,3820.52 5183,3747.5C 5186.56,3666.82 5211.23,3593.48 5257,3527.5C 5312.57,3454.09 5386.07,3409.26 5477.5,3393C 5494.88,3390.01 5512.22,3387.85 5529.5,3386.5 Z M 5546.5,3516.5 C 5656.15,3516.23 5726.65,3568.56 5758,3673.5C 5770.58,3724.81 5774.58,3776.81 5770,3829.5C 5767.42,3881.22 5752.42,3928.89 5725,3972.5C 5684.35,4028.83 5629.01,4056.83 5559,4056.5C 5471.4,4055.06 5409.4,4014.73 5373,3935.5C 5360.21,3904.57 5352.38,3872.4 5349.5,3839C 5343.51,3782.47 5347.34,3726.64 5361,3671.5C 5375.75,3616.46 5406.92,3573.63 5454.5,3543C 5483.27,3527.13 5513.93,3518.29 5546.5,3516.5 Z"/></g>
<g><path style="opacity:0.992" fill="#000000" d="M 6338.5,3386.5 C 6401.72,3382.6 6463.05,3391.44 6522.5,3413C 6618.37,3452.88 6683.87,3521.71 6719,3619.5C 6740.29,3683.12 6748.95,3748.45 6745,3815.5C 6742.68,3899.11 6718.35,3975.44 6672,4044.5C 6620.04,4114.37 6551.2,4158.54 6465.5,4177C 6385.76,4193.52 6307.1,4189.52 6229.5,4165C 6133.91,4130.74 6066.07,4066.91 6026,3973.5C 5999.5,3906.36 5988.17,3836.69 5992,3764.5C 5993.21,3694.01 6010.21,3627.68 6043,3565.5C 6097.32,3470.86 6178.49,3413.36 6286.5,3393C 6303.91,3390.2 6321.24,3388.03 6338.5,3386.5 Z M 6356.5,3516.5 C 6454.91,3514.59 6522.75,3558.93 6560,3649.5C 6572.91,3686.06 6579.91,3723.72 6581,3762.5C 6584.03,3813.52 6578.36,3863.52 6564,3912.5C 6545.32,3970.84 6508.49,4013.34 6453.5,4040C 6396.04,4062.25 6338.71,4061.92 6281.5,4039C 6237.89,4017.39 6205.72,3984.55 6185,3940.5C 6171.82,3910.13 6163.49,3878.46 6160,3845.5C 6153.53,3789.31 6156.53,3733.64 6169,3678.5C 6180.67,3630.28 6205.17,3590.12 6242.5,3558C 6276.18,3532.39 6314.18,3518.55 6356.5,3516.5 Z"/></g>
<g><path style="opacity:0.992" fill="#000000" d="M 1621.5,3403.5 C 1700.83,3403.5 1780.17,3403.5 1859.5,3403.5C 1913.5,3579.5 1967.5,3755.5 2021.5,3931.5C 2022.83,3931.5 2024.17,3931.5 2025.5,3931.5C 2079.7,3755.55 2133.7,3579.55 2187.5,3403.5C 2266.5,3403.5 2345.5,3403.5 2424.5,3403.5C 2424.5,3658.83 2424.5,3914.17 2424.5,4169.5C 2373.17,4169.5 2321.83,4169.5 2270.5,4169.5C 2270.5,3980.83 2270.5,3792.17 2270.5,3603.5C 2269.18,3603.33 2268.01,3603.66 2267,3604.5C 2205.06,3792.82 2143.23,3981.15 2081.5,4169.5C 2041.16,4169.83 2000.83,4169.5 1960.5,4168.5C 1898.37,3980.93 1836.53,3793.27 1775,3605.5C 1773.95,3603.89 1772.45,3603.23 1770.5,3603.5C 1770.5,3792.17 1770.5,3980.83 1770.5,4169.5C 1720.83,4169.5 1671.17,4169.5 1621.5,4169.5C 1621.74,3914.03 1621.74,3658.69 1621.5,3403.5 Z"/></g>
<g><path style="opacity:0.993" fill="#000000" d="M 2507.5,3403.5 C 2561.5,3403.5 2615.5,3403.5 2669.5,3403.5C 2669.5,3658.83 2669.5,3914.17 2669.5,4169.5C 2615.5,4169.5 2561.5,4169.5 2507.5,4169.5C 2507.5,3914.17 2507.5,3658.83 2507.5,3403.5 Z"/></g>
<g><path style="opacity:0.993" fill="#000000" d="M 2754.5,3403.5 C 2816.07,3403.17 2877.57,3403.5 2939,3404.5C 3048.83,3583.5 3158.67,3762.5 3268.5,3941.5C 3269.69,3942.43 3271.02,3942.76 3272.5,3942.5C 3272.5,3762.83 3272.5,3583.17 3272.5,3403.5C 3322.17,3403.5 3371.83,3403.5 3421.5,3403.5C 3421.5,3658.83 3421.5,3914.17 3421.5,4169.5C 3361.83,4169.67 3302.17,4169.5 3242.5,4169C 3130.63,3986.63 3018.97,3804.13 2907.5,3621.5C 2906.31,3620.57 2904.98,3620.24 2903.5,3620.5C 2903.5,3803.5 2903.5,3986.5 2903.5,4169.5C 2853.83,4169.5 2804.17,4169.5 2754.5,4169.5C 2754.5,3914.17 2754.5,3658.83 2754.5,3403.5 Z"/></g>
<g><path style="opacity:0.993" fill="#000000" d="M 6815.5,3403.5 C 6876.84,3403.17 6938.17,3403.5 6999.5,3404.5C 7109.5,3583.5 7219.5,3762.5 7329.5,3941.5C 7330.69,3942.43 7332.02,3942.76 7333.5,3942.5C 7333.5,3762.83 7333.5,3583.17 7333.5,3403.5C 7383.17,3403.5 7432.83,3403.5 7482.5,3403.5C 7482.5,3658.83 7482.5,3914.17 7482.5,4169.5C 7422.5,4169.83 7362.5,4169.5 7302.5,4168.5C 7191.03,3985.87 7079.37,3803.37 6967.5,3621C 6966.55,3620.52 6965.55,3620.35 6964.5,3620.5C 6964.5,3803.5 6964.5,3986.5 6964.5,4169.5C 6914.83,4169.5 6865.17,4169.5 6815.5,4169.5C 6815.5,3914.17 6815.5,3658.83 6815.5,3403.5 Z"/></g>
</svg>