<svg xmlns="http://www.w3.org/2000/svg" xmlns:xlink="http://www.w3.org/1999/xlink" version="1.1" style="shape-rendering:geometricPrecision; text-rendering:geometricPrecision; image-rendering:optimizeQuality; fill-rule:evenodd; clip-rule:evenodd" viewBox="22.54 3407.29 7437.96 764.48">
<g><path style="opacity:0.994" fill="#000000" d="M 389.5,3407.5 C 476.124,3405.55 555.124,3428.72 626.5,3477C 691.605,3524.31 733.939,3587.14 753.5,3665.5C 677.907,3674.26 602.24,3682.09 526.5,3689C 517.371,3655.39 499.038,3628.05 471.5,3607C 435.414,3583.88 396.748,3578.54 355.5,3591C 309.546,3608.29 279.379,3640.46 265,3687.5C 254.048,3729.82 250.048,3772.82 253,3816.5C 253.699,3854 262.032,3889.67 278,3923.5C 313.688,3980.96 364.855,4003.13 431.5,3990C 469.626,3978.21 496.793,3954.04 513,3917.5C 520.018,3901.11 525.018,3884.11 528,3866.5C 528.388,3865.57 529.055,3864.91 530,3864.5C 605.963,3870.27 681.796,3876.44 757.5,3883C 732.201,4018.3 654.534,4108.3 524.5,4153C 429.659,4179.93 335.659,4177.27 242.5,4145C 138.05,4103.54 70.2162,4028.71 39,3920.5C 17.3906,3834.58 17.0573,3748.58 38,3662.5C 68.2454,3552.26 136.412,3476.09 242.5,3434C 290.146,3416.83 339.146,3408 389.5,3407.5 Z"/></g>
<g><path style="opacity:0.994" fill="#000000" d="M 1156.5,3407.5 C 1236.71,3405.41 1311.71,3423.91 1381.5,3463C 1465.37,3516.47 1517.21,3592.31 1537,3690.5C 1552.02,3769.22 1549.02,3847.22 1528,3924.5C 1486.15,4051.01 1400.32,4129.51 1270.5,4160C 1191.67,4176.97 1113.34,4174.97 1035.5,4154C 915.824,4117.66 837.324,4039.82 800,3920.5C 777.265,3834.34 776.932,3748.34 799,3662.5C 839.05,3531.45 925.883,3450.29 1059.5,3419C 1091.59,3411.83 1123.92,3408 1156.5,3407.5 Z M 1153.5,3584.5 C 1202.93,3581.91 1244.1,3598.91 1277,3635.5C 1296.48,3661.93 1308.15,3691.59 1312,3724.5C 1318.49,3771.94 1317.82,3819.27 1310,3866.5C 1303.24,3913.86 1279.74,3950.02 1239.5,3975C 1196.06,3997.88 1151.4,4000.54 1105.5,3983C 1065.56,3965.07 1039.06,3935.23 1026,3893.5C 1014,3847.89 1010,3801.55 1014,3754.5C 1015.35,3718.08 1024.35,3683.74 1041,3651.5C 1067.63,3611.07 1105.13,3588.73 1153.5,3584.5 Z"/></g>
<g><path style="opacity:0.995" fill="#000000" d="M 3865.5,3407.5 C 3947.83,3405 4024.16,3424.83 4094.5,3467C 4161.94,3510.69 4206.94,3571.19 4229.5,3648.5C 4154.11,3657.01 4078.78,3666.01 4003.5,3675.5C 4002.83,3675.17 4002.17,3674.83 4001.5,3674.5C 3972.37,3605.09 3920.37,3575.93 3845.5,3587C 3799.12,3596.72 3765.62,3622.89 3745,3665.5C 3731.99,3699.25 3725.32,3734.25 3725,3770.5C 3723.39,3806.16 3726.06,3841.5 3733,3876.5C 3745.82,3938.63 3782.99,3977.13 3844.5,3992C 3891.66,3999.29 3935.33,3990.29 3975.5,3965C 3997.12,3947.54 4014.12,3926.38 4026.5,3901.5C 3979.17,3900.5 3931.84,3900.17 3884.5,3900.5C 3884.5,3849.83 3884.5,3799.17 3884.5,3748.5C 4003.5,3748.5 4122.5,3748.5 4241.5,3748.5C 4241.5,3883.83 4241.5,4019.17 4241.5,4154.5C 4194.17,4154.5 4146.83,4154.5 4099.5,4154.5C 4099.67,4128.16 4099.5,4101.83 4099,4075.5C 4043.76,4135.2 3975.26,4167.03 3893.5,4171C 3816.37,4174.97 3743.37,4159.64 3674.5,4125C 3594.46,4079.49 3540.62,4012.65 3513,3924.5C 3490.86,3842.67 3488.86,3760.33 3507,3677.5C 3536.67,3559.17 3608.17,3477.67 3721.5,3433C 3768.26,3416.68 3816.26,3408.18 3865.5,3407.5 Z"/></g>
<g><path style="opacity:0.994" fill="#000000" d="M 4782.5,3407.5 C 4824.04,3406.47 4865.04,3410.63 4905.5,3420C 4961.06,3433.52 5008.89,3460.35 5049,3500.5C 5083.52,3539.56 5103.35,3585.23 5108.5,3637.5C 5037.17,3642.17 4965.83,3646.83 4894.5,3651.5C 4890.58,3607.75 4867.25,3580.92 4824.5,3571C 4798,3565.81 4771.66,3566.48 4745.5,3573C 4732.84,3577.08 4721.67,3583.58 4712,3592.5C 4698.72,3608.02 4697.05,3624.69 4707,3642.5C 4709.5,3645 4712,3647.5 4714.5,3650C 4730.91,3659.2 4748.24,3666.2 4766.5,3671C 4820.59,3684.69 4874.59,3698.69 4928.5,3713C 4964.7,3722.84 4999.7,3735.84 5033.5,3752C 5092.96,3786.38 5126.12,3837.88 5133,3906.5C 5138.45,3949.93 5133.11,3991.93 5117,4032.5C 5100.59,4067.58 5075.75,4095.08 5042.5,4115C 4989.87,4145.32 4933.2,4162.99 4872.5,4168C 4800.67,4176.41 4730.01,4170.74 4660.5,4151C 4596.04,4132.8 4543.21,4097.63 4502,4045.5C 4478.21,4011.06 4464.38,3972.9 4460.5,3931C 4460.63,3929.02 4461.3,3927.35 4462.5,3926C 4535.03,3918.72 4607.53,3911.22 4680,3903.5C 4681.33,3903.75 4682.33,3904.42 4683,3905.5C 4688.02,3959.68 4717.19,3992.51 4770.5,4004C 4802.73,4010.28 4834.39,4008.28 4865.5,3998C 4900.83,3984.18 4911.66,3959.68 4898,3924.5C 4890.53,3914.71 4881.03,3907.54 4869.5,3903C 4854.72,3897.07 4839.72,3891.74 4824.5,3887C 4769.37,3872.13 4714.37,3856.8 4659.5,3841C 4628.32,3831.72 4598.32,3819.72 4569.5,3805C 4542,3788.17 4519.83,3766 4503,3738.5C 4487.22,3707.25 4479.72,3674.09 4480.5,3639C 4479.49,3556.3 4514.83,3494.97 4586.5,3455C 4625.63,3433.8 4667.3,3420.13 4711.5,3414C 4735.21,3410.61 4758.88,3408.45 4782.5,3407.5 Z"/></g>
<g><path style="opacity:0.995" fill="#000000" d="M 5539.5,3407.5 C 5604.41,3406.05 5666.74,3417.88 5726.5,3443C 5829.74,3491.61 5893.91,3571.78 5919,3683.5C 5929.8,3737.41 5932.46,3791.75 5927,3846.5C 5918.67,3935.99 5882.83,4012.15 5819.5,4075C 5772.29,4117.78 5717.29,4146.11 5654.5,4160C 5574.24,4177.24 5494.58,4174.91 5415.5,4153C 5285.44,4110.93 5205.6,4023.1 5176,3889.5C 5160.61,3809.02 5163.94,3729.35 5186,3650.5C 5228.99,3526.39 5314.49,3449.23 5442.5,3419C 5474.59,3411.86 5506.93,3408.02 5539.5,3407.5 Z M 5536.5,3584.5 C 5595.42,3581.71 5640.92,3604.71 5673,3653.5C 5689.18,3686.23 5697.85,3720.9 5699,3757.5C 5702.5,3802.11 5698.84,3846.11 5688,3889.5C 5673.5,3938.67 5642,3971.5 5593.5,3988C 5532.82,4004.29 5480.65,3990.13 5437,3945.5C 5416.81,3918.96 5404.81,3888.96 5401,3855.5C 5394.76,3809.45 5395.09,3763.45 5402,3717.5C 5405.69,3693.75 5413.36,3671.42 5425,3650.5C 5451.66,3610.91 5488.83,3588.91 5536.5,3584.5 Z"/></g>
<g><path style="opacity:0.994" fill="#000000" d="M 6335.5,3407.5 C 6407.47,3405.93 6475.8,3420.76 6540.5,3452C 6629.79,3500.66 6686.95,3574.49 6712,3673.5C 6729.5,3749.42 6729.84,3825.42 6713,3901.5C 6676.38,4039.79 6588.55,4125.95 6449.5,4160C 6361.52,4179.07 6274.85,4174.4 6189.5,4146C 6084.02,4105.85 6014.19,4032.02 5980,3924.5C 5955.33,3834.5 5955.33,3744.5 5980,3654.5C 6018.23,3537.27 6096.4,3460.77 6214.5,3425C 6254.23,3413.93 6294.56,3408.1 6335.5,3407.5 Z M 6332.5,3584.5 C 6422.59,3585.48 6475.09,3630.48 6490,3719.5C 6496.87,3764.12 6497.2,3808.78 6491,3853.5C 6487.31,3886.24 6475.98,3915.91 6457,3942.5C 6418.66,3984.84 6371.16,4001.34 6314.5,3992C 6266.4,3981.88 6231.9,3954.71 6211,3910.5C 6198.89,3878.29 6192.56,3844.96 6192,3810.5C 6190.71,3779.67 6192.38,3749 6197,3718.5C 6203.13,3668.35 6227.3,3629.85 6269.5,3603C 6289.34,3592.48 6310.34,3586.31 6332.5,3584.5 Z"/></g>
<g><path style="opacity:0.997" fill="#000000" d="M 1588.5,3424.5 C 1699.17,3424.17 1809.84,3424.5 1920.5,3425.5C 1949.82,3555.79 1978.99,3686.12 2008,3816.5C 2008.39,3817.43 2009.05,3818.09 2010,3818.5C 2011.88,3817.01 2012.88,3815.01 2013,3812.5C 2041.46,3683.21 2070.29,3554.04 2099.5,3425C 2209.5,3424.5 2319.5,3424.33 2429.5,3424.5C 2429.5,3667.83 2429.5,3911.17 2429.5,4154.5C 2359.83,4154.5 2290.17,4154.5 2220.5,4154.5C 2220.5,3991.5 2220.5,3828.5 2220.5,3665.5C 2219.17,3665.5 2217.83,3665.5 2216.5,3665.5C 2172.34,3828.46 2128.34,3991.46 2084.5,4154.5C 2032.83,4154.5 1981.17,4154.5 1929.5,4154.5C 1885.34,3991.54 1841.34,3828.54 1797.5,3665.5C 1796.17,3665.5 1794.83,3665.5 1793.5,3665.5C 1793.5,3828.5 1793.5,3991.5 1793.5,4154.5C 1725.17,4154.5 1656.83,4154.5 1588.5,4154.5C 1588.5,3911.17 1588.5,3667.83 1588.5,3424.5 Z"/></g>
<g><path style="opacity:0.996" fill="#000000" d="M 2481.5,3424.5 C 2556.83,3424.5 2632.17,3424.5 2707.5,3424.5C 2707.5,3667.83 2707.5,3911.17 2707.5,4154.5C 2632.17,4154.5 2556.83,4154.5 2481.5,4154.5C 2481.5,3911.17 2481.5,3667.83 2481.5,3424.5 Z"/></g>
<g><path style="opacity:0.996" fill="#000000" d="M 2759.5,3424.5 C 2846.17,3424.33 2932.83,3424.5 3019.5,3425C 3094.55,3566.93 3169.22,3709.1 3243.5,3851.5C 3244.69,3852.43 3246.02,3852.76 3247.5,3852.5C 3247.5,3709.83 3247.5,3567.17 3247.5,3424.5C 3315.83,3424.5 3384.17,3424.5 3452.5,3424.5C 3452.5,3667.83 3452.5,3911.17 3452.5,4154.5C 3367.16,4154.83 3281.83,4154.5 3196.5,4153.5C 3120.67,4007.83 3044.83,3862.17 2969,3716.5C 2967.99,3715.66 2966.82,3715.33 2965.5,3715.5C 2965.5,3861.83 2965.5,4008.17 2965.5,4154.5C 2896.83,4154.5 2828.17,4154.5 2759.5,4154.5C 2759.5,3911.17 2759.5,3667.83 2759.5,3424.5 Z"/></g>
<g><path style="opacity:0.994" fill="#000000" d="M 6766.5,3424.5 C 6853.5,3424.17 6940.5,3424.5 7027.5,3425.5C 7101.8,3567.62 7176.3,3709.62 7251,3851.5C 7252.01,3852.34 7253.18,3852.67 7254.5,3852.5C 7254.5,3709.83 7254.5,3567.17 7254.5,3424.5C 7323.17,3424.5 7391.83,3424.5 7460.5,3424.5C 7460.45,3667.83 7460.45,3911.17 7460.5,4154.5C 7375.17,4154.67 7289.83,4154.5 7204.5,4154C 7128.54,4008.58 7052.71,3863.08 6977,3717.5C 6975.89,3715.96 6974.39,3715.3 6972.5,3715.5C 6972.5,3861.83 6972.5,4008.17 6972.5,4154.5C 6903.83,4154.5 6835.17,4154.5 6766.5,4154.5C 6766.55,3911.17 6766.55,3667.83 6766.5,3424.5 Z"/></g>
</svg>