<svg xmlns="http://www.w3.org/2000/svg" xmlns:xlink="http://www.w3.org/1999/xlink" version="1.1" style="shape-rendering:geometricPrecision; text-rendering:geometricPrecision; image-rendering:optimizeQuality; fill-rule:evenodd; clip-rule:evenodd" viewBox="54.3 3461.77 7397.2 626.02">
<g><path style="opacity:0.995" fill="#000000" d="M 1092.5,3462.5 C 1144.18,3460.33 1195.51,3463.5 1246.5,3472C 1288.87,3479.34 1328.2,3494.34 1364.5,3517C 1411.49,3550.1 1439.32,3595.27 1448,3652.5C 1455.83,3733.03 1443.5,3810.36 1411,3884.5C 1365.45,3977.57 1292.62,4038.07 1192.5,4066C 1114.61,4085.73 1035.61,4092.06 955.5,4085C 908.384,4081.71 863.05,4071.04 819.5,4053C 744.99,4017.44 704.823,3958.27 699,3875.5C 695.331,3802.85 707.997,3733.18 737,3666.5C 776.025,3585.48 837.525,3528.65 921.5,3496C 977.077,3476.92 1034.08,3465.75 1092.5,3462.5 Z M 1086.5,3646.5 C 1112.71,3645.47 1138.37,3648.63 1163.5,3656C 1192.35,3666.19 1209.85,3686.36 1216,3716.5C 1220.37,3763.34 1210.7,3807 1187,3847.5C 1168.59,3873.19 1143.76,3889.36 1112.5,3896C 1074.96,3903.66 1037.29,3904.33 999.5,3898C 952.54,3888.82 929.54,3860.15 930.5,3812C 931.887,3778.4 939.387,3746.23 953,3715.5C 971.876,3680.98 1000.71,3659.82 1039.5,3652C 1055.19,3649.1 1070.86,3647.27 1086.5,3646.5 Z"/></g>
<g><path style="opacity:0.995" fill="#000000" d="M 5513.5,3462.5 C 5570.35,3459.95 5626.68,3464.12 5682.5,3475C 5821.36,3507.17 5883.86,3594.34 5870,3736.5C 5865,3787.52 5852.33,3836.52 5832,3883.5C 5785.96,3978.52 5711.79,4039.69 5609.5,4067C 5528.84,4086.71 5447.18,4092.38 5364.5,4084C 5169.36,4063.92 5090.19,3957.42 5127,3764.5C 5154.14,3619.97 5237.98,3526.47 5378.5,3484C 5422.93,3472.3 5467.93,3465.13 5513.5,3462.5 Z M 5506.5,3646.5 C 5533.82,3645.22 5560.49,3648.72 5586.5,3657C 5611.69,3666.19 5627.85,3683.69 5635,3709.5C 5638.75,3725.03 5639.42,3740.7 5637,3756.5C 5634.14,3791.42 5623.14,3823.42 5604,3852.5C 5587.44,3873.21 5566.27,3887.04 5540.5,3894C 5499.05,3903.93 5457.38,3904.93 5415.5,3897C 5381.08,3890.24 5360.24,3869.74 5353,3835.5C 5348.85,3789.6 5357.51,3746.27 5379,3705.5C 5398.48,3676.32 5425.65,3658.49 5460.5,3652C 5475.86,3649.11 5491.19,3647.27 5506.5,3646.5 Z"/></g>
<g><path style="opacity:0.995" fill="#000000" d="M 6314.5,3462.5 C 6362.41,3460.64 6410.07,3463.14 6457.5,3470C 6502.64,3476.49 6544.64,3491.49 6583.5,3515C 6633.62,3549.38 6662.79,3596.88 6671,3657.5C 6677.27,3734.78 6665.27,3809.11 6635,3880.5C 6589.92,3975.9 6516.42,4037.73 6414.5,4066C 6348.92,4083.13 6282.26,4090.13 6214.5,4087C 6169.67,4086.36 6125.67,4080.02 6082.5,4068C 6037.03,4055.53 5998.53,4032.03 5967,3997.5C 5938.27,3961.33 5922.93,3920 5921,3873.5C 5917.81,3800.79 5930.81,3731.13 5960,3664.5C 5999.57,3583.27 6061.74,3526.77 6146.5,3495C 6201.14,3476.51 6257.14,3465.67 6314.5,3462.5 Z M 6308.5,3646.5 C 6337.71,3645.02 6366.04,3649.19 6393.5,3659C 6419.99,3671.43 6435.15,3692.26 6439,3721.5C 6442.16,3768.05 6431.5,3811.05 6407,3850.5C 6389.51,3873.29 6366.67,3888.12 6338.5,3895C 6291.87,3905.86 6245.53,3904.86 6199.5,3892C 6172.61,3880.76 6157.45,3860.59 6154,3831.5C 6151.06,3787.58 6159.72,3745.91 6180,3706.5C 6198.64,3678.42 6224.47,3660.58 6257.5,3653C 6274.47,3649.37 6291.47,3647.21 6308.5,3646.5 Z"/></g>
<g><path style="opacity:0.994" fill="#000000" d="M 302.5,3464.5 C 436.833,3464.5 571.167,3464.5 705.5,3464.5C 694.628,3526.86 683.628,3589.19 672.5,3651.5C 576.499,3651.33 480.499,3651.5 384.5,3652C 356.339,3655.99 336.172,3670.83 324,3696.5C 319.659,3707.19 316.326,3718.19 314,3729.5C 306.588,3766.81 300.421,3804.31 295.5,3842C 294.981,3860.28 301.314,3875.61 314.5,3888C 323.196,3892.84 332.53,3895.51 342.5,3896C 438.166,3896.5 533.833,3896.67 629.5,3896.5C 619.198,3958.48 608.198,4020.31 596.5,4082C 459.5,4082.67 322.5,4082.67 185.5,4082C 168.914,4079.69 153.581,4074.03 139.5,4065C 101.513,4040.67 75.0126,4007.17 60,3964.5C 54.8632,3945.83 53.1965,3926.83 55,3907.5C 71.1281,3817.86 87.1281,3728.19 103,3638.5C 106.787,3621.47 113.12,3605.47 122,3590.5C 156.083,3540.42 200.583,3502.58 255.5,3477C 270.684,3470.47 286.351,3466.31 302.5,3464.5 Z"/></g>
<g><path style="opacity:0.995" fill="#000000" d="M 1563.5,3464.5 C 1639.84,3464.17 1716.17,3464.5 1792.5,3465.5C 1830.17,3546.87 1867.84,3628.2 1905.5,3709.5C 1971.37,3628.46 2036.71,3546.96 2101.5,3465C 2183.83,3464.5 2266.17,3464.33 2348.5,3464.5C 2312.37,3670.48 2276.37,3876.48 2240.5,4082.5C 2164.83,4082.83 2089.16,4082.5 2013.5,4081.5C 2027.92,4002.55 2041.76,3923.55 2055,3844.5C 1992.5,3923.67 1930,4002.83 1867.5,4082C 1854.15,4082.83 1840.82,4082.67 1827.5,4081.5C 1792.24,4002.21 1757.07,3922.87 1722,3843.5C 1707.9,3922.86 1693.73,4002.19 1679.5,4081.5C 1604.5,4082.5 1529.5,4082.83 1454.5,4082.5C 1490.41,3876.39 1526.74,3670.39 1563.5,3464.5 Z"/></g>
<g><path style="opacity:0.994" fill="#000000" d="M 2413.5,3464.5 C 2488.83,3464.5 2564.17,3464.5 2639.5,3464.5C 2603.17,3670.5 2566.83,3876.5 2530.5,4082.5C 2455.5,4082.5 2380.5,4082.5 2305.5,4082.5C 2341.5,3876.5 2377.5,3670.5 2413.5,3464.5 Z"/></g>
<g><path style="opacity:0.995" fill="#000000" d="M 2704.5,3464.5 C 2777.84,3464.17 2851.17,3464.5 2924.5,3465.5C 2981.26,3558.7 3038.26,3651.7 3095.5,3744.5C 3112.6,3651.24 3129.27,3557.91 3145.5,3464.5C 3220.5,3464.5 3295.5,3464.5 3370.5,3464.5C 3334.63,3670.52 3298.63,3876.52 3262.5,4082.5C 3189.16,4082.83 3115.83,4082.5 3042.5,4081.5C 2985.53,3988.03 2928.37,3894.7 2871,3801.5C 2854.07,3895.11 2837.57,3988.77 2821.5,4082.5C 2746.16,4082.83 2670.83,4082.5 2595.5,4081.5C 2631.96,3875.86 2668.3,3670.19 2704.5,3464.5 Z"/></g>
<g><path style="opacity:0.995" fill="#000000" d="M 3777.5,3464.5 C 3883.17,3464.5 3988.83,3464.5 4094.5,3464.5C 4084.53,3526.48 4073.86,3588.32 4062.5,3650C 3961.83,3650.33 3861.17,3650.67 3760.5,3651C 3731.06,3651.82 3703.06,3658.49 3676.5,3671C 3647.48,3688.37 3627.65,3713.2 3617,3745.5C 3612.05,3762.92 3608.38,3780.58 3606,3798.5C 3600.5,3853.65 3625,3885.48 3679.5,3894C 3684.83,3894.67 3690.17,3895.33 3695.5,3896C 3728.5,3896.5 3761.5,3896.67 3794.5,3896.5C 3802.63,3846.07 3811.29,3795.74 3820.5,3745.5C 3895.5,3744.5 3970.5,3744.17 4045.5,3744.5C 4025.83,3857.17 4006.17,3969.83 3986.5,4082.5C 3873.17,4082.67 3759.83,4082.5 3646.5,4082C 3592.5,4080.83 3540.5,4070.16 3490.5,4050C 3412.38,4012.43 3373.22,3949.93 3373,3862.5C 3371.67,3793.48 3384.34,3727.15 3411,3663.5C 3448.85,3583.32 3509.35,3527.82 3592.5,3497C 3652.62,3476.65 3714.29,3465.81 3777.5,3464.5 Z"/></g>
<g><path style="opacity:0.994" fill="#000000" d="M 4726.5,3464.5 C 4863.5,3464.5 5000.5,3464.5 5137.5,3464.5C 5126.39,3526.81 5115.39,3589.15 5104.5,3651.5C 5015.5,3651.33 4926.5,3651.5 4837.5,3652C 4862.48,3686.79 4888.32,3720.96 4915,3754.5C 4936.99,3783.54 4955.32,3814.87 4970,3848.5C 4989.64,3898 4989.3,3947.34 4969,3996.5C 4945.25,4044.92 4906.75,4073.42 4853.5,4082C 4697.17,4082.5 4540.83,4082.67 4384.5,4082.5C 4394.96,4020.73 4405.96,3959.07 4417.5,3897.5C 4519.17,3896.67 4620.83,3896.17 4722.5,3896C 4698.33,3866.5 4674.17,3837 4650,3807.5C 4633.83,3786.32 4618.83,3764.32 4605,3741.5C 4594.04,3722.25 4584.71,3702.25 4577,3681.5C 4560.46,3621.99 4572.46,3568.99 4613,3522.5C 4643.78,3489.19 4681.61,3469.85 4726.5,3464.5 Z"/></g>
<g><path style="opacity:0.995" fill="#000000" d="M 6785.5,3464.5 C 6858.5,3464.33 6931.5,3464.5 7004.5,3465C 7062.06,3558.24 7119.23,3651.74 7176,3745.5C 7193.03,3652.2 7209.86,3558.86 7226.5,3465.5C 7301.5,3464.5 7376.5,3464.17 7451.5,3464.5C 7415.65,3670.45 7379.31,3876.28 7342.5,4082C 7269.5,4082.83 7196.5,4082.67 7123.5,4081.5C 7066.08,3988.33 7008.92,3895 6952,3801.5C 6935.08,3894.78 6918.41,3988.11 6902,4081.5C 6826.9,4082.5 6751.74,4082.83 6676.5,4082.5C 6712.62,3876.45 6748.95,3670.45 6785.5,3464.5 Z"/></g>
</svg>