<svg xmlns="http://www.w3.org/2000/svg" xmlns:xlink="http://www.w3.org/1999/xlink" version="1.1" style="shape-rendering:geometricPrecision; text-rendering:geometricPrecision; image-rendering:optimizeQuality; fill-rule:evenodd; clip-rule:evenodd" viewBox="67.5 3500.3 7376 651.27">
<g><path style="opacity:0.992" fill="#000000" d="M 1492.5,3500.5 C 1554.9,3498.35 1612.57,3513.52 1665.5,3546C 1718.26,3582.63 1751.76,3632.46 1766,3695.5C 1779.65,3759.54 1776.49,3822.71 1756.5,3885C 1722.56,3970.26 1660.56,4022.26 1570.5,4041C 1504.12,4054.11 1439.45,4048.44 1376.5,4024C 1296.66,3987.26 1248.83,3925.42 1233,3838.5C 1223.89,3784.98 1226.22,3731.98 1240,3679.5C 1269.46,3588.05 1330.96,3531.21 1424.5,3509C 1447.07,3504.18 1469.74,3501.35 1492.5,3500.5 Z M 1489.5,3627.5 C 1533.55,3624.77 1567.38,3641.77 1591,3678.5C 1602.34,3702.53 1608.34,3727.86 1609,3754.5C 1610.84,3783.85 1608.51,3812.85 1602,3841.5C 1584.52,3897.51 1546.35,3923.68 1487.5,3920C 1453.93,3915.65 1428.43,3899.15 1411,3870.5C 1399.82,3846.78 1393.82,3821.78 1393,3795.5C 1390.48,3761.87 1393.82,3728.87 1403,3696.5C 1418.42,3656.57 1447.26,3633.57 1489.5,3627.5 Z"/></g>
<g><path style="opacity:0.992" fill="#000000" d="M 4083.5,3500.5 C 4144.56,3498.43 4201.23,3512.93 4253.5,3544C 4307.62,3580.84 4342.12,3631.34 4357,3695.5C 4370.8,3759.55 4367.63,3822.72 4347.5,3885C 4312.8,3972.35 4249.14,4024.68 4156.5,4042C 4091.72,4053.88 4028.72,4047.88 3967.5,4024C 3887.66,3987.26 3839.83,3925.42 3824,3838.5C 3813.46,3777.28 3818.13,3717.28 3838,3658.5C 3871.5,3578.35 3930.66,3528.52 4015.5,3509C 4038.07,3504.18 4060.74,3501.35 4083.5,3500.5 Z M 4080.5,3627.5 C 4119.08,3624.55 4150.58,3637.89 4175,3667.5C 4189.59,3690.29 4197.59,3715.29 4199,3742.5C 4203.16,3780.54 4199.83,3817.88 4189,3854.5C 4167.97,3902.45 4131.14,3924.29 4078.5,3920C 4039.41,3914.22 4011.91,3893.39 3996,3857.5C 3986.85,3830.61 3982.68,3802.94 3983.5,3774.5C 3982.95,3747.94 3986.45,3721.94 3994,3696.5C 4009.42,3656.57 4038.26,3633.57 4080.5,3627.5 Z"/></g>
<g><path style="opacity:0.991" fill="#000000" d="M 5369.5,3500.5 C 5442.43,3498.01 5506.76,3519.84 5562.5,3566C 5598.45,3598.22 5622.12,3637.89 5633.5,3685C 5581,3691.44 5528.34,3697.28 5475.5,3702.5C 5473.57,3702.46 5471.74,3702.13 5470,3701.5C 5459.66,3662.83 5435.16,3638.66 5396.5,3629C 5348.14,3623.09 5312.64,3641.59 5290,3684.5C 5280.79,3706.9 5275.79,3730.24 5275,3754.5C 5272.61,3788.54 5276.28,3821.87 5286,3854.5C 5299.39,3888.11 5323.56,3909.61 5358.5,3919C 5409.16,3925.6 5444.32,3905.43 5464,3858.5C 5467.44,3848.72 5469.94,3838.72 5471.5,3828.5C 5526.22,3831.94 5580.89,3835.94 5635.5,3840.5C 5623.09,3916.87 5583.76,3974.71 5517.5,4014C 5466.73,4040.49 5412.73,4051.49 5355.5,4047C 5305.15,4044.55 5258.81,4029.88 5216.5,4003C 5164.82,3965.86 5131.98,3916.03 5118,3853.5C 5105.49,3793.76 5107.16,3734.42 5123,3675.5C 5155.41,3578.44 5222.24,3521.61 5323.5,3505C 5338.93,3502.86 5354.26,3501.36 5369.5,3500.5 Z"/></g>
<g><path style="opacity:0.992" fill="#000000" d="M 5918.5,3500.5 C 5974,3498.63 6026.33,3510.47 6075.5,3536C 6130.66,3567.51 6167.83,3613.68 6187,3674.5C 6205.66,3739.74 6205.99,3805.08 6188,3870.5C 6158.04,3961.79 6096.21,4018.29 6002.5,4040C 5944.67,4051.65 5887.33,4049.65 5830.5,4034C 5736.53,4002.35 5679.69,3937.85 5660,3840.5C 5648.83,3778.24 5653.49,3717.24 5674,3657.5C 5707.72,3578.47 5766.56,3528.97 5850.5,3509C 5873.09,3504.34 5895.76,3501.51 5918.5,3500.5 Z M 5916.5,3627.5 C 5981.18,3626.68 6019.68,3658.02 6032,3721.5C 6038.56,3761.37 6037.56,3801.03 6029,3840.5C 6016.82,3886.35 5987.32,3912.85 5940.5,3920C 5899.62,3923.96 5866.78,3909.8 5842,3877.5C 5829.99,3857.14 5822.99,3835.14 5821,3811.5C 5819.01,3786.83 5819.01,3762.17 5821,3737.5C 5822.91,3717.19 5828.24,3697.86 5837,3679.5C 5855.22,3649.44 5881.72,3632.11 5916.5,3627.5 Z"/></g>
<g><path style="opacity:0.986" fill="#000000" d="M 2125.5,3501.5 C 2208.01,3497.96 2284.01,3518.12 2353.5,3562C 2460.64,3638.06 2495.8,3739.56 2459,3866.5C 2427.95,3941.15 2372.11,3983.65 2291.5,3994C 2266.2,3996.75 2241.54,3994.09 2217.5,3986C 2199.95,3978.96 2188.62,3966.46 2183.5,3948.5C 2162.37,3976.74 2134.03,3991.9 2098.5,3994C 2050.02,4001.07 2009.19,3986.9 1976,3951.5C 1949.95,3917.63 1939.61,3879.3 1945,3836.5C 1948.46,3786.1 1967.3,3742.6 2001.5,3706C 2042.36,3669.2 2090.03,3655.86 2144.5,3666C 2168.99,3672.55 2187.99,3686.38 2201.5,3707.5C 2204.72,3697.39 2207.06,3687.06 2208.5,3676.5C 2245.84,3676.17 2283.17,3676.5 2320.5,3677.5C 2304.55,3750.39 2289.05,3823.39 2274,3896.5C 2270.48,3914 2277.31,3924.5 2294.5,3928C 2303.79,3929.32 2312.79,3928.32 2321.5,3925C 2338.66,3917.17 2352.83,3905.67 2364,3890.5C 2385.35,3857.79 2395.52,3821.79 2394.5,3782.5C 2391.74,3695.64 2351.4,3633.47 2273.5,3596C 2223.37,3574.48 2171.04,3565.81 2116.5,3570C 2026.43,3582.76 1958.59,3628.26 1913,3706.5C 1876.17,3774.97 1867.17,3846.97 1886,3922.5C 1908.98,3990.15 1953.81,4036.98 2020.5,4063C 2106.01,4094.24 2191.01,4092.9 2275.5,4059C 2288.04,4053.48 2300.21,4047.31 2312,4040.5C 2324.02,4058.01 2335.18,4076.18 2345.5,4095C 2345.36,4095.77 2345.02,4096.44 2344.5,4097C 2250.81,4148.61 2151.48,4163.61 2046.5,4142C 1988.27,4129.96 1936.61,4104.96 1891.5,4067C 1827.86,4007.82 1796.19,3934.49 1796.5,3847C 1798.39,3734.56 1842.72,3643.23 1929.5,3573C 1987.48,3529.19 2052.81,3505.35 2125.5,3501.5 Z M 2125.5,3748.5 C 2158.9,3745.41 2178.07,3760.41 2183,3793.5C 2186.18,3825.28 2178.85,3854.28 2161,3880.5C 2138.79,3908.91 2111.29,3915.74 2078.5,3901C 2066.23,3889.96 2059.73,3876.12 2059,3859.5C 2056.79,3827.67 2065.12,3799 2084,3773.5C 2089.57,3767.26 2095.74,3761.76 2102.5,3757C 2109.88,3753.04 2117.55,3750.21 2125.5,3748.5 Z"/></g>
<g><path style="opacity:0.988" fill="#000000" d="M 67.5,3512.5 C 121.833,3512.5 176.167,3512.5 230.5,3512.5C 230.5,3686.83 230.5,3861.17 230.5,4035.5C 176.167,4035.5 121.833,4035.5 67.5,4035.5C 67.5,3861.17 67.5,3686.83 67.5,3512.5 Z"/></g>
<g><path style="opacity:0.995" fill="#000000" d="M 267.5,3512.5 C 329.501,3512.33 391.501,3512.5 453.5,3513C 506.127,3613.09 558.627,3713.25 611,3813.5C 612.268,3815.72 613.768,3817.72 615.5,3819.5C 616.5,3717.17 616.833,3614.84 616.5,3512.5C 665.5,3512.5 714.5,3512.5 763.5,3512.5C 763.5,3686.83 763.5,3861.17 763.5,4035.5C 702.499,4035.67 641.499,4035.5 580.5,4035C 526.617,3932.74 473.117,3830.24 420,3727.5C 418.732,3725.28 417.232,3723.28 415.5,3721.5C 414.5,3826.16 414.167,3930.83 414.5,4035.5C 365.5,4035.5 316.5,4035.5 267.5,4035.5C 267.5,3861.17 267.5,3686.83 267.5,3512.5 Z"/></g>
<g><path style="opacity:0.995" fill="#000000" d="M 800.5,3512.5 C 938.167,3512.5 1075.83,3512.5 1213.5,3512.5C 1213.5,3552.83 1213.5,3593.17 1213.5,3633.5C 1130.17,3633.5 1046.83,3633.5 963.5,3633.5C 963.5,3665.5 963.5,3697.5 963.5,3729.5C 1042.17,3729.5 1120.83,3729.5 1199.5,3729.5C 1199.5,3768.17 1199.5,3806.83 1199.5,3845.5C 1120.83,3845.5 1042.17,3845.5 963.5,3845.5C 963.5,3908.83 963.5,3972.17 963.5,4035.5C 909.167,4035.5 854.833,4035.5 800.5,4035.5C 800.5,3861.17 800.5,3686.83 800.5,3512.5 Z"/></g>
<g><path style="opacity:0.998" fill="#000000" d="M 2503.5,3512.5 C 2641.17,3512.5 2778.83,3512.5 2916.5,3512.5C 2916.5,3552.83 2916.5,3593.17 2916.5,3633.5C 2832.83,3633.5 2749.17,3633.5 2665.5,3633.5C 2665.5,3665.5 2665.5,3697.5 2665.5,3729.5C 2744.17,3729.5 2822.83,3729.5 2901.5,3729.5C 2901.5,3768.17 2901.5,3806.83 2901.5,3845.5C 2822.83,3845.5 2744.17,3845.5 2665.5,3845.5C 2665.5,3908.83 2665.5,3972.17 2665.5,4035.5C 2611.5,4035.5 2557.5,4035.5 2503.5,4035.5C 2503.5,3861.17 2503.5,3686.83 2503.5,3512.5 Z"/></g>
<g><path style="opacity:0.994" fill="#000000" d="M 2944.5,3512.5 C 3082.17,3512.5 3219.83,3512.5 3357.5,3512.5C 3357.5,3552.83 3357.5,3593.17 3357.5,3633.5C 3274.17,3633.5 3190.83,3633.5 3107.5,3633.5C 3107.5,3659.17 3107.5,3684.83 3107.5,3710.5C 3185.83,3710.33 3264.17,3710.5 3342.5,3711C 3343.16,3730.26 3343.5,3749.59 3343.5,3769C 3343.5,3788.41 3343.16,3807.74 3342.5,3827C 3264.17,3827.5 3185.83,3827.67 3107.5,3827.5C 3107.5,3855.17 3107.5,3882.83 3107.5,3910.5C 3190.83,3910.5 3274.17,3910.5 3357.5,3910.5C 3357.5,3952.17 3357.5,3993.83 3357.5,4035.5C 3219.83,4035.5 3082.17,4035.5 2944.5,4035.5C 2944.5,3861.17 2944.5,3686.83 2944.5,3512.5 Z"/></g>
<g><path style="opacity:0.994" fill="#000000" d="M 3388.5,3512.5 C 3442.83,3512.5 3497.17,3512.5 3551.5,3512.5C 3551.5,3642.83 3551.5,3773.17 3551.5,3903.5C 3636.83,3903.5 3722.17,3903.5 3807.5,3903.5C 3807.5,3947.5 3807.5,3991.5 3807.5,4035.5C 3667.83,4035.5 3528.17,4035.5 3388.5,4035.5C 3388.5,3861.17 3388.5,3686.83 3388.5,3512.5 Z"/></g>
<g><path style="opacity:0.995" fill="#000000" d="M 4395.5,3512.5 C 4457.5,3512.33 4519.5,3512.5 4581.5,3513C 4633.79,3612.42 4685.96,3711.92 4738,3811.5C 4739.6,3814.38 4741.43,3817.04 4743.5,3819.5C 4744.5,3717.17 4744.83,3614.84 4744.5,3512.5C 4793.5,3512.5 4842.5,3512.5 4891.5,3512.5C 4891.5,3686.83 4891.5,3861.17 4891.5,4035.5C 4830.5,4035.67 4769.5,4035.5 4708.5,4035C 4653.95,3931.4 4599.78,3827.57 4546,3723.5C 4545.31,3722.64 4544.48,3721.98 4543.5,3721.5C 4542.5,3826.16 4542.17,3930.83 4542.5,4035.5C 4493.5,4035.5 4444.5,4035.5 4395.5,4035.5C 4395.5,3861.17 4395.5,3686.83 4395.5,3512.5 Z"/></g>
<g><path style="opacity:0.994" fill="#000000" d="M 6421.5,3512.5 C 6568.17,3512.5 6714.83,3512.5 6861.5,3512.5C 6861.67,3557.17 6861.5,3601.83 6861,3646.5C 6782.17,3732 6703.33,3817.5 6624.5,3903C 6703.5,3903.5 6782.5,3903.67 6861.5,3903.5C 6861.5,3947.5 6861.5,3991.5 6861.5,4035.5C 6710.17,4035.5 6558.83,4035.5 6407.5,4035.5C 6407.33,3991.17 6407.5,3946.83 6408,3902.5C 6486.83,3817 6565.67,3731.5 6644.5,3646C 6570.5,3645.67 6496.5,3645.33 6422.5,3645C 6421.5,3600.91 6421.17,3556.74 6421.5,3512.5 Z"/></g>
<g><path style="opacity:0.994" fill="#000000" d="M 7043.5,3512.5 C 7117.4,3512.17 7191.24,3512.5 7265,3513.5C 7324.11,3687.5 7383.61,3861.33 7443.5,4035C 7385.83,4035.5 7328.17,4035.67 7270.5,4035.5C 7261.22,4002.88 7251.55,3970.38 7241.5,3938C 7182.17,3937.33 7122.83,3937.33 7063.5,3938C 7053.78,3970.38 7044.45,4002.88 7035.5,4035.5C 6978.83,4035.83 6922.16,4035.5 6865.5,4034.5C 6925.44,3860.69 6984.77,3686.69 7043.5,3512.5 Z M 7150.5,3642.5 C 7151.75,3642.58 7152.58,3643.24 7153,3644.5C 7171.48,3705.43 7189.64,3766.43 7207.5,3827.5C 7170.49,3827.83 7133.49,3827.5 7096.5,3826.5C 7114.71,3765.21 7132.71,3703.88 7150.5,3642.5 Z"/></g>
<g><path style="opacity:0.992" fill="#000000" d="M 4930.5,3888.5 C 4983.83,3888.5 5037.17,3888.5 5090.5,3888.5C 5090.5,3937.5 5090.5,3986.5 5090.5,4035.5C 5037.17,4035.5 4983.83,4035.5 4930.5,4035.5C 4930.5,3986.5 4930.5,3937.5 4930.5,3888.5 Z"/></g>
<g><path style="opacity:0.986" fill="#000000" d="M 6220.5,3888.5 C 6273.83,3888.5 6327.17,3888.5 6380.5,3888.5C 6380.5,3937.5 6380.5,3986.5 6380.5,4035.5C 6326.83,4035.5 6273.17,4035.5 6219.5,4035.5C 6219.17,3986.43 6219.51,3937.43 6220.5,3888.5 Z"/></g>
</svg>