<svg xmlns="http://www.w3.org/2000/svg" xmlns:xlink="http://www.w3.org/1999/xlink" version="1.1" style="shape-rendering:geometricPrecision; text-rendering:geometricPrecision; image-rendering:optimizeQuality; fill-rule:evenodd; clip-rule:evenodd" viewBox="80.5 3481.44 7339 569.13">
<g><path style="opacity:0.992" fill="#000000" d="M 2054.5,3481.5 C 2194.17,3481.33 2333.83,3481.5 2473.5,3482C 2490.89,3484.2 2506.55,3490.53 2520.5,3501C 2547.45,3520.95 2565.29,3547.12 2574,3579.5C 2576.28,3594.62 2575.61,3609.62 2572,3624.5C 2564,3669.83 2556,3715.17 2548,3760.5C 2542.28,3779.27 2532.95,3795.94 2520,3810.5C 2496.18,3839.33 2467.02,3860.83 2432.5,3875C 2424.12,3878.24 2415.45,3880.24 2406.5,3881C 2331.17,3881.67 2255.83,3881.67 2180.5,3881C 2152.72,3880.74 2127.06,3873.4 2103.5,3859C 2085.63,3843.76 2076.47,3824.26 2076,3800.5C 2076.84,3710.66 2122,3661.16 2211.5,3652C 2240.69,3649.38 2269.36,3652.05 2297.5,3660C 2326.32,3668.48 2344.15,3687.32 2351,3716.5C 2352.54,3728.79 2352.87,3741.12 2352,3753.5C 2349.63,3767.71 2346.63,3781.71 2343,3795.5C 2361.67,3792.51 2375,3782.51 2383,3765.5C 2387.13,3755.77 2390.46,3745.77 2393,3735.5C 2397.76,3711.29 2401.76,3686.95 2405,3662.5C 2407.91,3645.58 2403.41,3631.08 2391.5,3619C 2386.83,3616.16 2381.83,3614.16 2376.5,3613C 2291.19,3611.35 2205.86,3611.02 2120.5,3612C 2092.46,3611.39 2073.62,3624.22 2064,3650.5C 2060.85,3658.61 2058.52,3666.94 2057,3675.5C 2044.63,3743.71 2033.13,3812.04 2022.5,3880.5C 2022.07,3893.04 2026.07,3903.87 2034.5,3913C 2038.8,3915.77 2043.47,3917.77 2048.5,3919C 2196.14,3920.32 2343.81,3920.99 2491.5,3921C 2483.35,3964.05 2475.69,4007.22 2468.5,4050.5C 2295.83,4050.67 2123.17,4050.5 1950.5,4050C 1931.38,4046.94 1914.38,4039.27 1899.5,4027C 1876.01,4006.85 1860.85,3981.68 1854,3951.5C 1853.64,3945.49 1853.14,3939.49 1852.5,3933.5C 1871.4,3826.18 1890.23,3718.85 1909,3611.5C 1913.4,3591.37 1922.07,3573.37 1935,3557.5C 1958.54,3528.96 1987.04,3506.79 2020.5,3491C 2031.65,3486.66 2042.98,3483.5 2054.5,3481.5 Z M 2213.5,3734.5 C 2223.94,3734.12 2233.94,3735.95 2243.5,3740C 2247.5,3743.18 2249.5,3747.34 2249.5,3752.5C 2248.76,3762.51 2246.6,3772.18 2243,3781.5C 2240.34,3787.49 2235.84,3791.33 2229.5,3793C 2215.14,3796.24 2200.81,3796.24 2186.5,3793C 2181.15,3790.14 2178.49,3785.64 2178.5,3779.5C 2179.7,3769.27 2181.87,3759.27 2185,3749.5C 2187.99,3743.18 2192.82,3739.01 2199.5,3737C 2204.31,3736.2 2208.98,3735.36 2213.5,3734.5 Z"/></g>
<g><path style="opacity:0.993" fill="#000000" d="M 1571.5,3537.5 C 1619.61,3535.1 1666.94,3539.93 1713.5,3552C 1792.37,3575.89 1832.37,3629.06 1833.5,3711.5C 1832.07,3759.15 1821.91,3804.81 1803,3848.5C 1769.92,3915.89 1717.09,3959.73 1644.5,3980C 1572.82,3998.33 1500.49,4001.33 1427.5,3989C 1316.83,3966.6 1268.33,3899.1 1282,3786.5C 1300.66,3645.17 1380.49,3564.01 1521.5,3543C 1538.26,3540.59 1554.92,3538.75 1571.5,3537.5 Z M 1565.5,3672.5 C 1586.02,3671.75 1606.02,3674.59 1625.5,3681C 1644.31,3689.15 1655.81,3703.32 1660,3723.5C 1663.89,3760.59 1655.56,3794.59 1635,3825.5C 1616.05,3845.89 1592.55,3857.06 1564.5,3859C 1536.99,3862.2 1509.99,3859.87 1483.5,3852C 1464.88,3843.03 1454.38,3828.2 1452,3807.5C 1450.42,3778.66 1455.42,3751 1467,3724.5C 1480.59,3698.61 1501.76,3682.78 1530.5,3677C 1542.22,3674.74 1553.89,3673.24 1565.5,3672.5 Z"/></g>
<g><path style="opacity:0.993" fill="#000000" d="M 4152.5,3537.5 C 4199.52,3535.24 4245.85,3539.74 4291.5,3551C 4327.03,3560.17 4356.86,3578.33 4381,3605.5C 4404.24,3636.25 4415.41,3671.08 4414.5,3710C 4413.66,3764.54 4400.82,3816.04 4376,3864.5C 4341.67,3923.29 4291.51,3961.79 4225.5,3980C 4175.03,3993.37 4123.69,3998.7 4071.5,3996C 4028.02,3995.17 3986.35,3986.17 3946.5,3969C 3892.24,3941.37 3864.07,3896.87 3862,3835.5C 3860.29,3784.07 3869.62,3734.74 3890,3687.5C 3918.55,3627.28 3964.05,3585.45 4026.5,3562C 4067.49,3547.97 4109.49,3539.8 4152.5,3537.5 Z M 4146.5,3672.5 C 4167.02,3671.75 4187.02,3674.59 4206.5,3681C 4227.41,3689.96 4239.24,3705.8 4242,3728.5C 4243.84,3759.3 4237.51,3788.3 4223,3815.5C 4206.81,3840.61 4183.65,3854.78 4153.5,3858C 4131.83,3861.33 4110.17,3861.33 4088.5,3858C 4055.98,3855.14 4037.48,3837.64 4033,3805.5C 4031.84,3778.48 4036.5,3752.48 4047,3727.5C 4059.04,3701.13 4079.2,3684.63 4107.5,3678C 4120.51,3675.16 4133.51,3673.33 4146.5,3672.5 Z"/></g>
<g><path style="opacity:0.993" fill="#000000" d="M 5950.5,3537.5 C 5986.71,3536.26 6022.71,3538.43 6058.5,3544C 6096.85,3549.69 6131.18,3564.35 6161.5,3588C 6197.1,3621.08 6213.76,3662.08 6211.5,3711C 6211.31,3768.61 6197.14,3822.45 6169,3872.5C 6131.88,3930.23 6079.72,3967.06 6012.5,3983C 5944.23,3998.47 5875.56,4000.47 5806.5,3989C 5695.33,3966.43 5646.83,3898.6 5661,3785.5C 5666.26,3735.7 5682.6,3690.03 5710,3648.5C 5739.49,3608.37 5777.65,3579.54 5824.5,3562C 5865.48,3547.9 5907.48,3539.73 5950.5,3537.5 Z M 5944.5,3672.5 C 5965.78,3671.8 5986.45,3674.97 6006.5,3682C 6029.43,3693.67 6040.76,3712.5 6040.5,3738.5C 6040.08,3768.85 6031.92,3796.85 6016,3822.5C 6003.24,3839.48 5986.41,3850.31 5965.5,3855C 5930.88,3863.05 5896.54,3862.05 5862.5,3852C 5843.81,3843.47 5833.31,3828.97 5831,3808.5C 5828.81,3774.78 5835.81,3743.11 5852,3713.5C 5866.32,3693.91 5885.48,3681.75 5909.5,3677C 5921.22,3674.74 5932.89,3673.24 5944.5,3672.5 Z"/></g>
<g><path style="opacity:0.992" fill="#000000" d="M 160.5,3539.5 C 215.5,3539.5 270.5,3539.5 325.5,3539.5C 299.11,3690.17 272.61,3840.84 246,3991.5C 190.905,3992.5 135.738,3992.83 80.5,3992.5C 106.659,3841.38 133.325,3690.38 160.5,3539.5 Z"/></g>
<g><path style="opacity:0.994" fill="#000000" d="M 373.5,3539.5 C 427.168,3539.33 480.834,3539.5 534.5,3540C 576.71,3608.25 618.543,3676.75 660,3745.5C 672.276,3676.84 684.443,3608.17 696.5,3539.5C 751.834,3539.33 807.168,3539.5 862.5,3540C 835.518,3690.75 808.851,3841.58 782.5,3992.5C 728.832,3992.67 675.166,3992.5 621.5,3992C 579.541,3923.92 537.708,3855.75 496,3787.5C 483.248,3855.34 470.915,3923.34 459,3991.5C 403.905,3992.5 348.738,3992.83 293.5,3992.5C 319.848,3841.41 346.515,3690.41 373.5,3539.5 Z"/></g>
<g><path style="opacity:0.994" fill="#000000" d="M 909.5,3539.5 C 1035.17,3539.33 1160.83,3539.5 1286.5,3540C 1278.27,3585.35 1269.94,3630.69 1261.5,3676C 1191.17,3676.5 1120.83,3676.67 1050.5,3676.5C 1049.17,3686.5 1047.83,3696.5 1046.5,3706.5C 1110.5,3706.17 1174.5,3706.5 1238.5,3707.5C 1230.5,3751.17 1222.5,3794.83 1214.5,3838.5C 1150.5,3839.5 1086.5,3839.83 1022.5,3839.5C 1013.39,3890.48 1004.39,3941.48 995.5,3992.5C 940.166,3992.67 884.832,3992.5 829.5,3992C 856.54,3841.26 883.206,3690.43 909.5,3539.5 Z"/></g>
<g><path style="opacity:0.994" fill="#000000" d="M 2641.5,3539.5 C 2766.83,3539.5 2892.17,3539.5 3017.5,3539.5C 3009.82,3585.22 3001.82,3630.89 2993.5,3676.5C 2923.17,3676.5 2852.83,3676.5 2782.5,3676.5C 2781.16,3686.23 2779.49,3695.89 2777.5,3705.5C 2841.83,3706.33 2906.16,3706.83 2970.5,3707C 2962.13,3751.07 2954.13,3795.24 2946.5,3839.5C 2882.5,3839.33 2818.5,3839.5 2754.5,3840C 2744.91,3890.7 2735.91,3941.53 2727.5,3992.5C 2672.17,3992.5 2616.83,3992.5 2561.5,3992.5C 2588.06,3841.47 2614.73,3690.47 2641.5,3539.5 Z"/></g>
<g><path style="opacity:0.995" fill="#000000" d="M 3065.5,3539.5 C 3205.5,3539.5 3345.5,3539.5 3485.5,3539.5C 3477.61,3585.19 3469.61,3630.85 3461.5,3676.5C 3376.5,3676.5 3291.5,3676.5 3206.5,3676.5C 3205.25,3686.44 3203.58,3696.27 3201.5,3706C 3280.17,3706.5 3358.83,3706.67 3437.5,3706.5C 3430.5,3746.5 3423.5,3786.5 3416.5,3826.5C 3337.83,3826.33 3259.17,3826.5 3180.5,3827C 3178.57,3836.76 3176.9,3846.59 3175.5,3856.5C 3260.5,3856.33 3345.5,3856.5 3430.5,3857C 3422.17,3902 3413.83,3947 3405.5,3992C 3265.5,3992.83 3125.5,3992.67 2985.5,3991.5C 3012.38,3840.87 3039.05,3690.21 3065.5,3539.5 Z"/></g>
<g><path style="opacity:0.994" fill="#000000" d="M 3533.5,3539.5 C 3588.5,3539.5 3643.5,3539.5 3698.5,3539.5C 3680.27,3645.18 3661.94,3750.85 3643.5,3856.5C 3703.17,3856.17 3762.84,3856.5 3822.5,3857.5C 3813.99,3902.41 3805.99,3947.41 3798.5,3992.5C 3683.5,3992.5 3568.5,3992.5 3453.5,3992.5C 3479.91,3841.45 3506.58,3690.45 3533.5,3539.5 Z"/></g>
<g><path style="opacity:0.994" fill="#000000" d="M 4495.5,3539.5 C 4549.5,3539.33 4603.5,3539.5 4657.5,3540C 4698.96,3608.42 4740.79,3676.58 4783,3744.5C 4795.17,3676.15 4807.34,3607.82 4819.5,3539.5C 4874.5,3539.5 4929.5,3539.5 4984.5,3539.5C 4958.27,3690.52 4931.94,3841.52 4905.5,3992.5C 4851.5,3992.83 4797.5,3992.5 4743.5,3991.5C 4701.83,3923.5 4660.17,3855.5 4618.5,3787.5C 4605.95,3855.47 4593.62,3923.47 4581.5,3991.5C 4526.5,3992.5 4471.5,3992.83 4416.5,3992.5C 4442.94,3841.52 4469.27,3690.52 4495.5,3539.5 Z"/></g>
<g><path style="opacity:0.994" fill="#000000" d="M 5366.5,3539.5 C 5465.83,3539.5 5565.17,3539.5 5664.5,3539.5C 5657.09,3585.13 5649.09,3630.63 5640.5,3676C 5570.5,3676.33 5500.5,3676.67 5430.5,3677C 5409.41,3679.62 5394.24,3690.46 5385,3709.5C 5382.8,3715.77 5380.8,3722.11 5379,3728.5C 5373.03,3757.49 5368.2,3786.66 5364.5,3816C 5364.72,3844.4 5379.05,3857.74 5407.5,3856C 5474.83,3856.5 5542.17,3856.67 5609.5,3856.5C 5601.5,3901.83 5593.5,3947.17 5585.5,3992.5C 5484.17,3992.67 5382.83,3992.5 5281.5,3992C 5258.63,3986.65 5239.13,3975.48 5223,3958.5C 5206.46,3940.76 5195.13,3920.1 5189,3896.5C 5187.48,3885.54 5187.15,3874.54 5188,3863.5C 5199.33,3799.5 5210.67,3735.5 5222,3671.5C 5226.51,3647.81 5236.84,3627.15 5253,3609.5C 5279.47,3578.51 5311.97,3556.35 5350.5,3543C 5355.95,3541.75 5361.29,3540.58 5366.5,3539.5 Z"/></g>
<g><path style="opacity:0.994" fill="#000000" d="M 6444.5,3539.5 C 6576.83,3539.5 6709.17,3539.5 6841.5,3539.5C 6835.55,3575.19 6829.38,3610.86 6823,3646.5C 6818.05,3664.4 6810.38,3681.07 6800,3696.5C 6775.8,3729.38 6748.64,3759.88 6718.5,3788C 6692.46,3811.04 6666.13,3833.71 6639.5,3856C 6713.5,3856.5 6787.5,3856.67 6861.5,3856.5C 6853.63,3901.86 6845.63,3947.19 6837.5,3992.5C 6696.83,3992.5 6556.17,3992.5 6415.5,3992.5C 6421.29,3955.38 6427.79,3918.38 6435,3881.5C 6443.44,3855.77 6456.1,3832.43 6473,3811.5C 6489.03,3791.46 6506.53,3772.63 6525.5,3755C 6555.43,3729.74 6584.76,3703.74 6613.5,3677C 6549.17,3676.5 6484.83,3676.33 6420.5,3676.5C 6427.96,3630.71 6435.96,3585.05 6444.5,3539.5 Z"/></g>
<g><path style="opacity:0.994" fill="#000000" d="M 7093.5,3539.5 C 7181.74,3539.17 7269.9,3539.5 7358,3540.5C 7378.64,3691.16 7399.14,3841.82 7419.5,3992.5C 7365.16,3992.83 7310.83,3992.5 7256.5,3991.5C 7252.4,3968.91 7248.73,3946.24 7245.5,3923.5C 7189.5,3923.17 7133.5,3923.5 7077.5,3924.5C 7065.96,3947.08 7054.29,3969.58 7042.5,3992C 6985.5,3992.67 6928.5,3992.67 6871.5,3992C 6945.39,3841.06 7019.39,3690.23 7093.5,3539.5 Z M 7207.5,3660.5 C 7215.28,3707.63 7222.62,3754.97 7229.5,3802.5C 7198.49,3802.83 7167.49,3802.5 7136.5,3801.5C 7160.45,3754.6 7184.12,3707.6 7207.5,3660.5 Z"/></g>
<g><path style="opacity:0.993" fill="#000000" d="M 4976.5,3856.5 C 5031.84,3856.17 5087.17,3856.5 5142.5,3857.5C 5134.18,3902.44 5126.18,3947.44 5118.5,3992.5C 5063.17,3992.5 5007.83,3992.5 4952.5,3992.5C 4960.89,3947.24 4968.89,3901.9 4976.5,3856.5 Z"/></g>
<g><path style="opacity:0.993" fill="#000000" d="M 6220.5,3856.5 C 6275.83,3856.33 6331.17,3856.5 6386.5,3857C 6378.02,3902.05 6370.02,3947.22 6362.5,3992.5C 6307.17,3992.5 6251.83,3992.5 6196.5,3992.5C 6204.5,3947.17 6212.5,3901.83 6220.5,3856.5 Z"/></g>
</svg>