<svg xmlns="http://www.w3.org/2000/svg" xmlns:xlink="http://www.w3.org/1999/xlink" version="1.1" style="shape-rendering:geometricPrecision; text-rendering:geometricPrecision; image-rendering:optimizeQuality; fill-rule:evenodd; clip-rule:evenodd" viewBox="57.5 3488.46 7410 683.81">
<g><path style="opacity:0.99" fill="#000000" d="M 1451.5,3489.5 C 1510.12,3484.82 1565.45,3495.99 1617.5,3523C 1675.4,3557.6 1713.9,3607.43 1733,3672.5C 1747.07,3725.47 1750.41,3779.14 1743,3833.5C 1735.11,3896.78 1708.94,3950.95 1664.5,3996C 1616.26,4038.98 1559.6,4061.65 1494.5,4064C 1435.81,4067.73 1380.81,4055.4 1329.5,4027C 1274.16,3991.95 1237.33,3942.79 1219,3879.5C 1199.57,3805.33 1201.24,3731.66 1224,3658.5C 1258.13,3568.04 1322.63,3513.21 1417.5,3494C 1428.98,3492.48 1440.31,3490.98 1451.5,3489.5 Z M 1459.5,3583.5 C 1547.25,3580.74 1601.41,3622.07 1622,3707.5C 1630.27,3752.1 1630.6,3796.77 1623,3841.5C 1615.02,3888.7 1591.18,3925.2 1551.5,3951C 1517.41,3969.01 1481.41,3974.35 1443.5,3967C 1392.04,3954.54 1357.2,3923.37 1339,3873.5C 1326.56,3834.45 1321.89,3794.45 1325,3753.5C 1326.05,3711.58 1338.05,3673.25 1361,3638.5C 1385.98,3606.25 1418.82,3587.92 1459.5,3583.5 Z"/></g>
<g><path style="opacity:0.983" fill="#000000" d="M 2119.5,3489.5 C 2199.79,3483.99 2275.12,3500.49 2345.5,3539C 2398.93,3569.43 2439.76,3611.93 2468,3666.5C 2494.25,3723.78 2499.92,3783.11 2485,3844.5C 2459.97,3937.87 2399.8,3992.37 2304.5,4008C 2287.5,4009.96 2270.5,4009.96 2253.5,4008C 2231.34,4005.46 2214.84,3994.62 2204,3975.5C 2202.06,3969.61 2200.56,3963.61 2199.5,3957.5C 2176.85,3987 2146.85,4003.84 2109.5,4008C 2055.78,4016.32 2011.61,3999.82 1977,3958.5C 1952.55,3923.27 1943.22,3884.27 1949,3841.5C 1953.36,3794.71 1970.03,3753.04 1999,3716.5C 2044.7,3666.49 2100.87,3648.32 2167.5,3662C 2183.13,3666.33 2196.8,3674 2208.5,3685C 2214.77,3692.1 2220.44,3699.6 2225.5,3707.5C 2228.29,3695.54 2230.96,3683.54 2233.5,3671.5C 2263.83,3670.5 2294.16,3670.17 2324.5,3670.5C 2306.96,3756.2 2289.29,3841.86 2271.5,3927.5C 2272.36,3945.19 2281.69,3954.35 2299.5,3955C 2318.05,3956.36 2335.39,3952.36 2351.5,3943C 2383.93,3921.35 2406.09,3891.85 2418,3854.5C 2439.99,3780.35 2428.99,3711.69 2385,3648.5C 2347.83,3602.41 2300.33,3571.91 2242.5,3557C 2184.61,3541.74 2126.61,3541.07 2068.5,3555C 1961.33,3590.17 1892.16,3662.01 1861,3770.5C 1845.91,3830 1847.57,3889 1866,3947.5C 1891.33,4011.5 1935.17,4058 1997.5,4087C 2070.69,4117.61 2146.36,4125.61 2224.5,4111C 2263.5,4104.08 2300,4090.58 2334,4070.5C 2334.77,4070.64 2335.44,4070.98 2336,4071.5C 2344.37,4085.75 2352.87,4099.92 2361.5,4114C 2305.69,4148.04 2245.03,4167.04 2179.5,4171C 2103.89,4176.57 2031.56,4163.9 1962.5,4133C 1861.7,4083.16 1803.87,4002.33 1789,3890.5C 1776.97,3756.8 1822.47,3647.63 1925.5,3563C 1982.99,3519.76 2047.66,3495.26 2119.5,3489.5 Z M 2135.5,3728.5 C 2176.79,3727.62 2200.63,3747.62 2207,3788.5C 2211.68,3830.47 2201.68,3868.47 2177,3902.5C 2151.8,3933.1 2119.96,3943.26 2081.5,3933C 2065.29,3926.42 2054.12,3914.92 2048,3898.5C 2033.74,3847.2 2043.41,3800.87 2077,3759.5C 2092.76,3741.87 2112.26,3731.54 2135.5,3728.5 Z"/></g>
<g><path style="opacity:0.989" fill="#000000" d="M 4113.5,3489.5 C 4172.12,3484.82 4227.45,3495.99 4279.5,3523C 4335.8,3556.04 4373.64,3603.88 4393,3666.5C 4409.39,3723.66 4413.06,3781.66 4404,3840.5C 4394.4,3905.54 4365.57,3960.04 4317.5,4004C 4270.62,4041.52 4216.95,4061.52 4156.5,4064C 4097.81,4067.73 4042.81,4055.4 3991.5,4027C 3936.13,3991.93 3899.3,3942.76 3881,3879.5C 3864.97,3817.9 3863.3,3755.9 3876,3693.5C 3890.59,3627.01 3925.09,3573.84 3979.5,3534C 4020.47,3507.84 4065.13,3493.01 4113.5,3489.5 Z M 4121.5,3583.5 C 4194.98,3578.88 4246.15,3610.22 4275,3677.5C 4288.4,3717.77 4293.4,3759.1 4290,3801.5C 4288.65,3839.56 4278.32,3874.9 4259,3907.5C 4229.66,3949.01 4189.32,3970.01 4138,3970.5C 4070.96,3968.16 4025.29,3935.83 4001,3873.5C 3988.37,3834.13 3983.7,3793.8 3987,3752.5C 3988.18,3714.08 3998.52,3678.41 4018,3645.5C 4043.09,3609.27 4077.59,3588.6 4121.5,3583.5 Z"/></g>
<g><path style="opacity:0.988" fill="#000000" d="M 5402.5,3489.5 C 5485.63,3483.04 5557.13,3508.37 5617,3565.5C 5642.05,3592.25 5659.88,3623.25 5670.5,3658.5C 5632.44,3663.73 5594.44,3669.4 5556.5,3675.5C 5522.15,3598.16 5463.48,3569.66 5380.5,3590C 5338.45,3605.72 5309.28,3634.55 5293,3676.5C 5281.55,3708.84 5276.38,3742.17 5277.5,3776.5C 5276.34,3814.57 5282.84,3851.24 5297,3886.5C 5327.63,3947.41 5377.13,3974.91 5445.5,3969C 5481.85,3964.25 5510.69,3947.08 5532,3917.5C 5546.44,3897.29 5555.94,3874.96 5560.5,3850.5C 5599.95,3854.09 5639.28,3858.59 5678.5,3864C 5663.86,3932.35 5627.86,3986.02 5570.5,4025C 5527.09,4051.85 5479.76,4065.02 5428.5,4064.5C 5365.66,4065.47 5309,4047.64 5258.5,4011C 5205.06,3965.79 5173.22,3908.29 5163,3838.5C 5154.87,3783.95 5157.54,3729.95 5171,3676.5C 5200.7,3576.46 5266.54,3515.63 5368.5,3494C 5379.98,3492.48 5391.31,3490.98 5402.5,3489.5 Z"/></g>
<g><path style="opacity:0.99" fill="#000000" d="M 5958.5,3489.5 C 6017.64,3484.83 6073.31,3496.33 6125.5,3524C 6183.15,3559.03 6221.32,3609.19 6240,3674.5C 6259.2,3748.32 6257.53,3821.66 6235,3894.5C 6198.22,3992.59 6127.72,4048.42 6023.5,4062C 5957.71,4070.7 5895.71,4059.37 5837.5,4028C 5781.91,3993.38 5744.74,3944.54 5726,3881.5C 5705.66,3806 5707.32,3731 5731,3656.5C 5765.2,3566.97 5829.37,3512.81 5923.5,3494C 5935.3,3492.4 5946.97,3490.9 5958.5,3489.5 Z M 5965.5,3583.5 C 6038.77,3578.69 6089.94,3609.69 6119,3676.5C 6133.29,3719.07 6138.29,3762.73 6134,3807.5C 6132.05,3845.67 6120.72,3880.67 6100,3912.5C 6070.29,3950.61 6031.12,3969.94 5982.5,3970.5C 5910.96,3967.11 5864.13,3931.45 5842,3863.5C 5828.73,3812.57 5827.06,3761.23 5837,3709.5C 5845.45,3664.11 5868.62,3628.61 5906.5,3603C 5924.92,3592.44 5944.59,3585.94 5965.5,3583.5 Z"/></g>
<g><path style="opacity:0.986" fill="#000000" d="M 57.5,3501.5 C 96.5,3501.5 135.5,3501.5 174.5,3501.5C 174.5,3684.83 174.5,3868.17 174.5,4051.5C 135.5,4051.5 96.5,4051.5 57.5,4051.5C 57.5,3868.17 57.5,3684.83 57.5,3501.5 Z"/></g>
<g><path style="opacity:0.989" fill="#000000" d="M 234.5,3501.5 C 278.501,3501.33 322.501,3501.5 366.5,3502C 445.96,3629.75 524.794,3757.92 603,3886.5C 603.689,3887.36 604.522,3888.02 605.5,3888.5C 606.5,3759.5 606.833,3630.5 606.5,3501.5C 642.167,3501.5 677.833,3501.5 713.5,3501.5C 713.5,3684.83 713.5,3868.17 713.5,4051.5C 670.261,4051.83 627.094,4051.5 584,4050.5C 504.335,3919.17 424.169,3788.17 343.5,3657.5C 342.5,3788.83 342.167,3920.16 342.5,4051.5C 306.5,4051.5 270.5,4051.5 234.5,4051.5C 234.5,3868.17 234.5,3684.83 234.5,3501.5 Z"/></g>
<g><path style="opacity:0.99" fill="#000000" d="M 773.5,3501.5 C 907.167,3501.33 1040.83,3501.5 1174.5,3502C 1175.5,3532.43 1175.83,3562.93 1175.5,3593.5C 1080.17,3593.5 984.833,3593.5 889.5,3593.5C 889.5,3641.17 889.5,3688.83 889.5,3736.5C 980.167,3736.5 1070.83,3736.5 1161.5,3736.5C 1161.5,3766.17 1161.5,3795.83 1161.5,3825.5C 1070.83,3825.5 980.167,3825.5 889.5,3825.5C 889.5,3900.83 889.5,3976.17 889.5,4051.5C 850.5,4051.5 811.5,4051.5 772.5,4051.5C 772.168,3868.1 772.501,3684.76 773.5,3501.5 Z"/></g>
<g><path style="opacity:0.99" fill="#000000" d="M 2541.5,3501.5 C 2675.5,3501.33 2809.5,3501.5 2943.5,3502C 2944.5,3532.43 2944.83,3562.93 2944.5,3593.5C 2849.17,3593.5 2753.83,3593.5 2658.5,3593.5C 2658.5,3641.17 2658.5,3688.83 2658.5,3736.5C 2749.17,3736.5 2839.83,3736.5 2930.5,3736.5C 2930.5,3766.17 2930.5,3795.83 2930.5,3825.5C 2839.83,3825.5 2749.17,3825.5 2658.5,3825.5C 2658.5,3900.83 2658.5,3976.17 2658.5,4051.5C 2619.5,4051.5 2580.5,4051.5 2541.5,4051.5C 2541.5,3868.17 2541.5,3684.83 2541.5,3501.5 Z"/></g>
<g><path style="opacity:0.993" fill="#000000" d="M 2987.5,3501.5 C 3121.5,3501.5 3255.5,3501.5 3389.5,3501.5C 3389.5,3532.17 3389.5,3562.83 3389.5,3593.5C 3294.5,3593.5 3199.5,3593.5 3104.5,3593.5C 3104.5,3637.17 3104.5,3680.83 3104.5,3724.5C 3194.83,3724.5 3285.17,3724.5 3375.5,3724.5C 3375.5,3754.17 3375.5,3783.83 3375.5,3813.5C 3285.17,3813.5 3194.83,3813.5 3104.5,3813.5C 3104.5,3861.17 3104.5,3908.83 3104.5,3956.5C 3199.5,3956.5 3294.5,3956.5 3389.5,3956.5C 3389.5,3988.17 3389.5,4019.83 3389.5,4051.5C 3255.5,4051.5 3121.5,4051.5 2987.5,4051.5C 2987.5,3868.17 2987.5,3684.83 2987.5,3501.5 Z"/></g>
<g><path style="opacity:0.991" fill="#000000" d="M 3438.5,3501.5 C 3477.5,3501.5 3516.5,3501.5 3555.5,3501.5C 3555.5,3652.5 3555.5,3803.5 3555.5,3954.5C 3651.83,3954.5 3748.17,3954.5 3844.5,3954.5C 3844.5,3986.83 3844.5,4019.17 3844.5,4051.5C 3709.17,4051.5 3573.83,4051.5 3438.5,4051.5C 3438.5,3868.17 3438.5,3684.83 3438.5,3501.5 Z"/></g>
<g><path style="opacity:0.992" fill="#000000" d="M 4458.5,3501.5 C 4502.5,3501.33 4546.5,3501.5 4590.5,3502C 4669.04,3628.92 4747.21,3756.08 4825,3883.5C 4826.04,3885.59 4827.54,3887.25 4829.5,3888.5C 4830.5,3759.5 4830.83,3630.5 4830.5,3501.5C 4866.17,3501.5 4901.83,3501.5 4937.5,3501.5C 4937.5,3684.83 4937.5,3868.17 4937.5,4051.5C 4894.26,4051.83 4851.09,4051.5 4808,4050.5C 4727.97,3919.97 4648.13,3789.3 4568.5,3658.5C 4567.68,3657.61 4566.68,3657.28 4565.5,3657.5C 4565.5,3788.83 4565.5,3920.17 4565.5,4051.5C 4529.83,4051.5 4494.17,4051.5 4458.5,4051.5C 4458.5,3868.17 4458.5,3684.83 4458.5,3501.5 Z"/></g>
<g><path style="opacity:0.992" fill="#000000" d="M 6465.5,3501.5 C 6606.83,3501.5 6748.17,3501.5 6889.5,3501.5C 6889.67,3534.17 6889.5,3566.84 6889,3599.5C 6792.17,3717.67 6695.33,3835.83 6598.5,3954C 6695.17,3954.5 6791.83,3954.67 6888.5,3954.5C 6888.5,3986.83 6888.5,4019.17 6888.5,4051.5C 6741.83,4051.5 6595.17,4051.5 6448.5,4051.5C 6448.33,4018.83 6448.5,3986.16 6449,3953.5C 6545.5,3835.67 6642,3717.83 6738.5,3600C 6647.5,3599.5 6556.5,3599.33 6465.5,3599.5C 6465.5,3566.83 6465.5,3534.17 6465.5,3501.5 Z"/></g>
<g><path style="opacity:0.99" fill="#000000" d="M 7109.5,3501.5 C 7160.74,3501.17 7211.91,3501.5 7263,3502.5C 7331.47,3685.42 7399.64,3868.42 7467.5,4051.5C 7425.83,4051.5 7384.17,4051.5 7342.5,4051.5C 7327.5,4008.17 7312.5,3964.83 7297.5,3921.5C 7222.5,3921.5 7147.5,3921.5 7072.5,3921.5C 7058.24,3964.61 7043.57,4007.61 7028.5,4050.5C 6987.17,4051.83 6945.83,4051.83 6904.5,4050.5C 6973.04,3867.55 7041.37,3684.55 7109.5,3501.5 Z M 7183.5,3600.5 C 7184.5,3600.5 7185.5,3600.5 7186.5,3600.5C 7212.86,3677.76 7239.53,3754.93 7266.5,3832C 7212.16,3832.83 7157.83,3832.67 7103.5,3831.5C 7130.57,3754.61 7157.24,3677.61 7183.5,3600.5 Z"/></g>
<g><path style="opacity:0.997" fill="#000000" d="M 4998.5,3934.5 C 5039.17,3934.5 5079.83,3934.5 5120.5,3934.5C 5120.5,3973.5 5120.5,4012.5 5120.5,4051.5C 5079.83,4051.5 5039.17,4051.5 4998.5,4051.5C 4998.5,4012.5 4998.5,3973.5 4998.5,3934.5 Z"/></g>
<g><path style="opacity:0.989" fill="#000000" d="M 6281.5,3934.5 C 6322.5,3934.5 6363.5,3934.5 6404.5,3934.5C 6404.5,3973.5 6404.5,4012.5 6404.5,4051.5C 6363.5,4051.5 6322.5,4051.5 6281.5,4051.5C 6281.5,4012.5 6281.5,3973.5 6281.5,3934.5 Z"/></g>
</svg>