<svg xmlns="http://www.w3.org/2000/svg" xmlns:xlink="http://www.w3.org/1999/xlink" xmlns:svgjs="http://svgjs.com/svgjs" id="SvgjsSvg1001" version="1.1" viewBox="0 116.78 288 54.44"><defs id="SvgjsDefs1002"/><g id="SvgjsG1008"><svg xmlns="http://www.w3.org/2000/svg" version="1.0" viewBox="34.7 3115.15 7442.91 1407.01" width="288" height="288"><g transform="matrix(.1 0 0 -.1 0 7500)" fill="#fe0000" class="color000 svgShape"><path d="M49420 43839c-1329-44-2771-294-3828-663-1006-352-2011-938-2723-1588-665-608-1217-1356-1640-2223-347-711-638-1637-769-2445-12-74-35-202-50-285-86-448-120-847-120-1395 0-1401 251-2323 868-3190 421-591 994-1060 1747-1430 538-265 1018-421 1820-594 864-185 1915-266 3185-244 786 13 1542 83 2305 213 2506 427 4352 1537 5540 3330 469 708 814 1474 1069 2375 155 549 229 917 321 1595 86 638 108 971 93 1475-36 1271-384 2247-1095 3070-112 130-355 372-483 481-334 285-788 563-1265 774-434 192-1032 382-1510 481-1028 212-2242 304-3465 263zm200-4139c728-40 1300-197 1681-463 145-100 299-269 408-444 282-456 352-976 235-1768-66-452-110-648-218-970-289-859-726-1401-1391-1725-437-213-910-330-1540-382-204-17-873-17-1095 0-698 53-1150 174-1490 400-120 80-288 251-378 386-202 302-290 591-313 1036-17 321 11 784 56 940 9 30 25 102 35 160 91 500 229 929 425 1321 169 338 406 619 737 875 420 323 1004 529 1718 605 353 37 778 48 1130 29zM2795 43778c-4-16-2435-13807-2442-13860l-6-38 2526 0 2526 0 10 53c6 28 189 1060 406 2292 218 1232 401 2268 407 2303l11 62 2953 0 2952 0 12 68c6 37 170 954 364 2037l352 1970-2953 3c-1881 1-2953 6-2953 12 0 12 139 877 145 908l5 22 3240 0 3240 0 5 23c11 51 735 4126 735 4141 0 15-497 16-5765 16-4604 0-5766-3-5770-12zM15825 43768c-9-40-2445-13861-2445-13875 0-11 1126-13 6438-13l6439 0 72 403c40 221 208 1160 375 2087l302 1685-3913 3c-3718 2-3913 3-3913 20 1 9 33 220 73 467l73 450 3626 3 3627 2 10 53c6 28 153 842 326 1807 173 965 318 1767 321 1783l6 27-3626 0c-1994 0-3626 3-3626 8 0 10 139 872 146 905l6 27 3911 0 3912 0 369 2073c203 1139 371 2080 374 2090 4 16-307 17-6437 17l-6441 0-5-22zM30196 43758c-3-18-552-3136-1221-6928-668-3792-1218-6907-1221-6922l-6-28 5280 0 5280 0 6 28c13 63 736 4133 736 4142 0 7-936 10-2751 10l-2751 0 6 28c3 15 386 2194 851 4842 465 2648 847 4825 850 4838l5 22-2529 0-2529 0-6-32zM59780 43782c0-10-2436-13831-2446-13874l-6-28 2531 0c1392 0 2531 3 2531 8-2 32 1126 6360 1132 6354 5-5 883-1437 1952-3183l1944-3174 2454-3 2454-2 1223 6937c672 3816 1225 6946 1227 6956 5 16-120 17-2525 17-1392 0-2531-3-2531-7 0-24-1124-6329-1129-6335-3-4-877 1421-1941 3165l-1935 3172-2468 3c-1357 1-2467-2-2467-6z" fill="#fe0000" class="color000 svgShape"/></g></svg></g></svg>