<svg xmlns="http://www.w3.org/2000/svg" xmlns:xlink="http://www.w3.org/1999/xlink" version="1.1" style="shape-rendering:geometricPrecision; text-rendering:geometricPrecision; image-rendering:optimizeQuality; fill-rule:evenodd; clip-rule:evenodd" viewBox="118.5 2234.44 7262 2518.42">
<g><path style="opacity:0.998" fill="#000000" d="M 4663.5,2234.5 C 4815.97,2232.61 4956.64,2272.11 5085.5,2353C 5239.06,2451.57 5351.89,2584.73 5424,2752.5C 5467.23,2857.07 5497.23,2965.41 5514,3077.5C 5527.2,3163.7 5535.53,3250.36 5539,3337.5C 5546.02,3490.07 5542.68,3642.4 5529,3794.5C 5518.01,3912.47 5494.34,4027.8 5458,4140.5C 5421.07,4250.71 5367.74,4351.71 5298,4443.5C 5185.91,4582.83 5043.75,4677.66 4871.5,4728C 4713.23,4769.63 4558.56,4758.96 4407.5,4696C 4233.16,4619.32 4097.33,4499.16 4000,4335.5C 3940.26,4228.96 3898.26,4115.63 3874,3995.5C 3853.37,3895.49 3840.37,3794.49 3835,3692.5C 3827.11,3548.12 3827.78,3403.79 3837,3259.5C 3844.61,3139.55 3863.94,3021.55 3895,2905.5C 3931.42,2771 3991.42,2648.66 4075,2538.5C 4192.64,2393.54 4342.48,2298.38 4524.5,2253C 4570.46,2242.8 4616.79,2236.63 4663.5,2234.5 Z M 4671.5,2678.5 C 4738.14,2675.59 4795.8,2696.59 4844.5,2741.5C 4868.62,2764.77 4889.12,2790.77 4906,2819.5C 4935.16,2871.28 4957.49,2925.95 4973,2983.5C 4999.01,3082.91 5015.35,3183.91 5022,3286.5C 5033.22,3433.8 5031.88,3581.13 5018,3728.5C 5009.45,3826.61 4990.95,3922.78 4962.5,4017C 4945.07,4072.35 4920.57,4124.18 4889,4172.5C 4865.7,4206.13 4836.87,4233.97 4802.5,4256C 4738.8,4291.17 4672.47,4296.84 4603.5,4273C 4564.1,4256.61 4530.6,4232.11 4503,4199.5C 4465.28,4151.74 4436.61,4098.74 4417,4040.5C 4389.92,3959.76 4371.25,3877.09 4361,3792.5C 4343.63,3647.28 4338.29,3501.62 4345,3355.5C 4349.24,3245.23 4363.24,3136.23 4387,3028.5C 4399.95,2971.98 4418.28,2917.31 4442,2864.5C 4463.13,2818.71 4491.3,2777.87 4526.5,2742C 4567.44,2704.07 4615.77,2682.9 4671.5,2678.5 Z"/></g>
<g><path style="opacity:0.999" fill="#000000" d="M 118.5,2271.5 C 443.5,2271.5 768.5,2271.5 1093.5,2271.5C 1093.5,2421.83 1093.5,2572.17 1093.5,2722.5C 929.833,2722.5 766.167,2722.5 602.5,2722.5C 602.5,2895.17 602.5,3067.83 602.5,3240.5C 749.833,3240.5 897.167,3240.5 1044.5,3240.5C 1044.5,3395.83 1044.5,3551.17 1044.5,3706.5C 897.167,3706.5 749.833,3706.5 602.5,3706.5C 602.5,4041.83 602.5,4377.17 602.5,4712.5C 441.167,4712.5 279.833,4712.5 118.5,4712.5C 118.5,3898.83 118.5,3085.17 118.5,2271.5 Z"/></g>
<g><path style="opacity:0.998" fill="#000000" d="M 1391.5,2271.5 C 1715.17,2271.5 2038.83,2271.5 2362.5,2271.5C 2362.5,2422.83 2362.5,2574.17 2362.5,2725.5C 2200.5,2725.5 2038.5,2725.5 1876.5,2725.5C 1876.5,2901.17 1876.5,3076.83 1876.5,3252.5C 2019.17,3252.5 2161.83,3252.5 2304.5,3252.5C 2304.5,3406.17 2304.5,3559.83 2304.5,3713.5C 2161.83,3713.5 2019.17,3713.5 1876.5,3713.5C 1876.5,3896.17 1876.5,4078.83 1876.5,4261.5C 2041.17,4261.5 2205.83,4261.5 2370.5,4261.5C 2370.5,4411.83 2370.5,4562.17 2370.5,4712.5C 2044.17,4712.5 1717.83,4712.5 1391.5,4712.5C 1391.5,3898.83 1391.5,3085.17 1391.5,2271.5 Z"/></g>
<g><path style="opacity:0.999" fill="#000000" d="M 2691.5,2271.5 C 2852.83,2271.5 3014.17,2271.5 3175.5,2271.5C 3175.5,2932.5 3175.5,3593.5 3175.5,4254.5C 3343.83,4254.5 3512.17,4254.5 3680.5,4254.5C 3680.5,4407.17 3680.5,4559.83 3680.5,4712.5C 3350.83,4712.5 3021.17,4712.5 2691.5,4712.5C 2691.5,3898.83 2691.5,3085.17 2691.5,2271.5 Z"/></g>
<g><path style="opacity:0.998" fill="#000000" d="M 5867.5,2271.5 C 6020.5,2271.17 6173.5,2271.5 6326.5,2272.5C 6525.33,2760.83 6724.17,3249.17 6923,3737.5C 6908.19,3661.84 6897.86,3585.51 6892,3508.5C 6890.37,3484.19 6889.37,3459.86 6889,3435.5C 6888.5,3047.5 6888.33,2659.5 6888.5,2271.5C 7052.5,2271.5 7216.5,2271.5 7380.5,2271.5C 7380.5,3085.17 7380.5,3898.83 7380.5,4712.5C 7228.6,4712.83 7076.76,4712.5 6925,4711.5C 6726,4223.83 6527,3736.17 6328,3248.5C 6340.93,3321.55 6348.6,3395.22 6351,3469.5C 6351.5,3883.83 6351.67,4298.17 6351.5,4712.5C 6190.17,4712.5 6028.83,4712.5 5867.5,4712.5C 5867.5,3898.83 5867.5,3085.17 5867.5,2271.5 Z"/></g>
</svg>