<svg xmlns="http://www.w3.org/2000/svg" xmlns:xlink="http://www.w3.org/1999/xlink" version="1.1" style="shape-rendering:geometricPrecision; text-rendering:geometricPrecision; image-rendering:optimizeQuality; fill-rule:evenodd; clip-rule:evenodd" viewBox="45.5 2829.5 7405.06 1827">
<g><path style="opacity:0.998" fill="#000000" d="M 5917.5,2829.5 C 5920.6,2831.42 5923.6,2833.59 5926.5,2836C 6305.33,3172.83 6684.17,3509.67 7063,3846.5C 7063.5,3535.17 7063.67,3223.83 7063.5,2912.5C 7192.5,2912.5 7321.5,2912.5 7450.5,2912.5C 7450.67,3493.83 7450.5,4075.17 7450,4656.5C 7067.98,4317.65 6685.82,3978.98 6303.5,3640.5C 6302.5,3951.5 6302.17,4262.5 6302.5,4573.5C 6174.17,4573.5 6045.83,4573.5 5917.5,4573.5C 5917.5,3992.17 5917.5,3410.83 5917.5,2829.5 Z"/></g>
<g><path style="opacity:0.997" fill="#000000" d="M 4731.5,2874.5 C 4883.07,2868.26 5028.41,2895.09 5167.5,2955C 5378.97,3051.47 5526.14,3208.3 5609,3425.5C 5648.54,3537.43 5666.21,3652.77 5662,3771.5C 5658.9,3952.11 5606.9,4116.78 5506,4265.5C 5379.64,4439.52 5211.14,4551.36 5000.5,4601C 4853.84,4632.68 4706.84,4634.35 4559.5,4606C 4369.87,4566.98 4211.03,4475.81 4083,4332.5C 3958.45,4183.64 3889.78,4011.64 3877,3816.5C 3867.73,3693.84 3881.4,3573.84 3918,3456.5C 3998.25,3223.59 4150.42,3056.09 4374.5,2954C 4488.58,2905.09 4607.58,2878.59 4731.5,2874.5 Z M 4767.5,3242.5 C 4836.46,3241.99 4902.8,3254.83 4966.5,3281C 5080.66,3332.83 5159.16,3417.66 5202,3535.5C 5231.37,3621.19 5242.04,3709.19 5234,3799.5C 5227.27,3897.71 5195.6,3986.71 5139,4066.5C 5059.36,4169.76 4954.2,4227.92 4823.5,4241C 4742.9,4249.29 4664.57,4239.63 4588.5,4212C 4480.14,4167.31 4400.64,4092.14 4350,3986.5C 4315.64,3909.21 4299.14,3828.21 4300.5,3743.5C 4298.53,3646.83 4320.03,3555.83 4365,3470.5C 4432.75,3351.82 4533.92,3278.99 4668.5,3252C 4701.4,3246.18 4734.4,3243.01 4767.5,3242.5 Z"/></g>
<g><path style="opacity:0.996" fill="#000000" d="M 45.5,2912.5 C 381.833,2912.5 718.167,2912.5 1054.5,2912.5C 1054.5,3027.5 1054.5,3142.5 1054.5,3257.5C 846.833,3257.5 639.167,3257.5 431.5,3257.5C 431.5,3366.17 431.5,3474.83 431.5,3583.5C 631.5,3583.5 831.5,3583.5 1031.5,3583.5C 1031.5,3691.5 1031.5,3799.5 1031.5,3907.5C 831.5,3907.5 631.5,3907.5 431.5,3907.5C 431.5,4129.5 431.5,4351.5 431.5,4573.5C 302.833,4573.5 174.167,4573.5 45.5,4573.5C 45.5,4019.83 45.5,3466.17 45.5,2912.5 Z"/></g>
<g><path style="opacity:0.997" fill="#000000" d="M 1357.5,2912.5 C 1725.5,2912.5 2093.5,2912.5 2461.5,2912.5C 2461.5,3022.5 2461.5,3132.5 2461.5,3242.5C 2222.17,3242.5 1982.83,3242.5 1743.5,3242.5C 1743.5,3341.17 1743.5,3439.83 1743.5,3538.5C 1967.17,3538.5 2190.83,3538.5 2414.5,3538.5C 2414.5,3646.5 2414.5,3754.5 2414.5,3862.5C 2190.83,3862.5 1967.17,3862.5 1743.5,3862.5C 1743.5,3989.5 1743.5,4116.5 1743.5,4243.5C 1982.83,4243.5 2222.17,4243.5 2461.5,4243.5C 2461.5,4353.5 2461.5,4463.5 2461.5,4573.5C 2093.5,4573.5 1725.5,4573.5 1357.5,4573.5C 1357.5,4019.83 1357.5,3466.17 1357.5,2912.5 Z"/></g>
<g><path style="opacity:0.999" fill="#000000" d="M 2788.5,2912.5 C 2922.17,2912.5 3055.83,2912.5 3189.5,2912.5C 3189.5,3351.5 3189.5,3790.5 3189.5,4229.5C 3411.83,4229.5 3634.17,4229.5 3856.5,4229.5C 3856.5,4344.17 3856.5,4458.83 3856.5,4573.5C 3500.5,4573.5 3144.5,4573.5 2788.5,4573.5C 2788.5,4019.83 2788.5,3466.17 2788.5,2912.5 Z"/></g>
</svg>