<svg xmlns="http://www.w3.org/2000/svg" xmlns:xlink="http://www.w3.org/1999/xlink" version="1.1" style="shape-rendering:geometricPrecision; text-rendering:geometricPrecision; image-rendering:optimizeQuality; fill-rule:evenodd; clip-rule:evenodd" viewBox="50.5 2962.66 7399 1582.36">
<g><path style="opacity:0.997" fill="#000000" d="M 4939.5,2963.5 C 5021.5,2960.33 5102.83,2966.17 5183.5,2981C 5390.62,3022.9 5555.12,3129.4 5677,3300.5C 5756.24,3418.87 5799.57,3549.54 5807,3692.5C 5813.67,3790.42 5805.01,3887.09 5781,3982.5C 5739.74,4133.27 5659.57,4258.77 5540.5,4359C 5434.73,4446.7 5313.73,4503.03 5177.5,4528C 5092.79,4543.26 5007.45,4548.26 4921.5,4543C 4801.2,4537.09 4687.2,4507.43 4579.5,4454C 4448.04,4384.54 4344.54,4285.71 4269,4157.5C 4206.85,4043.91 4174.18,3922.24 4171,3792.5C 4166.06,3683.09 4180.73,3576.43 4215,3472.5C 4260.2,3346 4333.7,3239.17 4435.5,3152C 4556.84,3050.05 4696.84,2989.72 4855.5,2971C 4883.6,2967.83 4911.6,2965.33 4939.5,2963.5 Z M 4962.5,3317.5 C 5035.46,3313.44 5105.79,3324.94 5173.5,3352C 5278.29,3399.12 5352.12,3475.95 5395,3582.5C 5420.13,3654.15 5429.13,3727.82 5422,3803.5C 5407.76,3954.91 5334.93,4067.74 5203.5,4142C 5136.21,4175.69 5064.88,4191.86 4989.5,4190.5C 4897.42,4192.52 4813.08,4168.35 4736.5,4118C 4630.18,4040.92 4571.35,3936.42 4560,3804.5C 4552.61,3727.05 4561.94,3651.72 4588,3578.5C 4622.68,3492.27 4679.52,3424.77 4758.5,3376C 4821.8,3340.01 4889.8,3320.51 4962.5,3317.5 Z"/></g>
<g><path style="opacity:0.997" fill="#000000" d="M 50.5,2985.5 C 446.833,2985.5 843.167,2985.5 1239.5,2985.5C 1239.5,3097.5 1239.5,3209.5 1239.5,3321.5C 967.5,3321.5 695.5,3321.5 423.5,3321.5C 423.5,3409.17 423.5,3496.83 423.5,3584.5C 672.167,3584.5 920.833,3584.5 1169.5,3584.5C 1169.5,3696.17 1169.5,3807.83 1169.5,3919.5C 920.833,3919.5 672.167,3919.5 423.5,3919.5C 423.5,4120.5 423.5,4321.5 423.5,4522.5C 299.167,4522.5 174.833,4522.5 50.5,4522.5C 50.5,4010.17 50.5,3497.83 50.5,2985.5 Z"/></g>
<g><path style="opacity:0.998" fill="#000000" d="M 1462.5,2985.5 C 1864.17,2985.5 2265.83,2985.5 2667.5,2985.5C 2667.5,3097.5 2667.5,3209.5 2667.5,3321.5C 2390.17,3321.5 2112.83,3321.5 1835.5,3321.5C 1835.5,3402.5 1835.5,3483.5 1835.5,3564.5C 2097.17,3564.33 2358.83,3564.5 2620.5,3565C 2621.17,3615.43 2621.5,3665.93 2621.5,3716.5C 2621.5,3767.07 2621.17,3817.57 2620.5,3868C 2358.83,3868.5 2097.17,3868.67 1835.5,3868.5C 1835.5,3974.5 1835.5,4080.5 1835.5,4186.5C 2112.83,4186.5 2390.17,4186.5 2667.5,4186.5C 2667.5,4298.5 2667.5,4410.5 2667.5,4522.5C 2265.83,4522.5 1864.17,4522.5 1462.5,4522.5C 1462.5,4010.17 1462.5,3497.83 1462.5,2985.5 Z"/></g>
<g><path style="opacity:0.999" fill="#000000" d="M 2936.5,2985.5 C 3060.5,2985.5 3184.5,2985.5 3308.5,2985.5C 3308.5,3383.5 3308.5,3781.5 3308.5,4179.5C 3572.5,4179.5 3836.5,4179.5 4100.5,4179.5C 4100.5,4293.83 4100.5,4408.17 4100.5,4522.5C 3712.5,4522.5 3324.5,4522.5 2936.5,4522.5C 2936.5,4010.17 2936.5,3497.83 2936.5,2985.5 Z"/></g>
<g><path style="opacity:0.997" fill="#000000" d="M 6018.5,2985.5 C 6161.83,2985.33 6305.17,2985.5 6448.5,2986C 6658.12,3227.41 6867.62,3468.91 7077,3710.5C 7077.5,3468.83 7077.67,3227.17 7077.5,2985.5C 7201.5,2985.5 7325.5,2985.5 7449.5,2985.5C 7449.5,3505.17 7449.5,4024.83 7449.5,4544.5C 7412.16,4544.83 7374.83,4544.5 7337.5,4543.5C 7022.15,4187.32 6706.98,3830.98 6392,3474.5C 6391.5,3823.83 6391.33,4173.17 6391.5,4522.5C 6267.17,4522.5 6142.83,4522.5 6018.5,4522.5C 6018.5,4010.17 6018.5,3497.83 6018.5,2985.5 Z"/></g>
</svg>