<svg xmlns="http://www.w3.org/2000/svg" xmlns:xlink="http://www.w3.org/1999/xlink" version="1.1" style="shape-rendering:geometricPrecision; text-rendering:geometricPrecision; image-rendering:optimizeQuality; fill-rule:evenodd; clip-rule:evenodd" viewBox="-0.5 3714.9 7489 90.7">
<g><path style="opacity:0.911" fill="#000000" d="M 300.5,3715.5 C 332.107,3713.94 346.607,3728.94 344,3760.5C 339.274,3784.19 324.774,3794.35 300.5,3791C 286.767,3787.6 277.933,3779.1 274,3765.5C 269.63,3747.78 274.13,3732.95 287.5,3721C 291.741,3718.65 296.075,3716.82 300.5,3715.5 Z M 304.5,3728.5 C 320.276,3728.78 328.276,3736.94 328.5,3753C 327.599,3774.28 317.266,3781.62 297.5,3775C 293.743,3771.58 291.243,3767.41 290,3762.5C 288.898,3754.32 289.565,3746.32 292,3738.5C 294.887,3733.43 299.054,3730.1 304.5,3728.5 Z"/></g>
<g><path style="opacity:0.908" fill="#000000" d="M 662.5,3715.5 C 676.175,3713.54 688.008,3717.21 698,3726.5C 700.6,3730.1 702.766,3733.93 704.5,3738C 698.881,3739.75 693.215,3740.25 687.5,3739.5C 680.599,3728.27 671.266,3725.77 659.5,3732C 651.965,3740.45 649.465,3750.28 652,3761.5C 657.49,3778.22 667.99,3782.39 683.5,3774C 686.268,3771.13 688.268,3767.8 689.5,3764C 683.509,3763.5 677.509,3763.33 671.5,3763.5C 671.5,3759.5 671.5,3755.5 671.5,3751.5C 682.5,3751.5 693.5,3751.5 704.5,3751.5C 704.5,3764.17 704.5,3776.83 704.5,3789.5C 700.5,3789.5 696.5,3789.5 692.5,3789.5C 692.662,3787.47 692.495,3785.47 692,3783.5C 683.81,3790.59 674.31,3793.09 663.5,3791C 644.631,3785.82 634.965,3773.32 634.5,3753.5C 634.649,3733.81 643.982,3721.14 662.5,3715.5 Z"/></g>
<g><path style="opacity:0.904" fill="#000000" d="M 940.5,3715.5 C 949.993,3714.41 958.993,3715.91 967.5,3720C 974.107,3724.37 977.774,3730.54 978.5,3738.5C 973.456,3738.58 968.456,3738.75 963.5,3739C 961.264,3731.6 956.264,3727.77 948.5,3727.5C 944.807,3727.75 941.474,3728.92 938.5,3731C 935.45,3735.42 936.117,3739.08 940.5,3742C 949.918,3744.35 959.251,3747.02 968.5,3750C 974.333,3751.83 978.167,3755.67 980,3761.5C 982.997,3778.17 976.163,3788 959.5,3791C 948.017,3793.04 937.35,3791.04 927.5,3785C 921.54,3780.29 918.54,3774.13 918.5,3766.5C 923.822,3766.02 929.155,3765.69 934.5,3765.5C 935.761,3774.91 941.261,3779.58 951,3779.5C 954.716,3778.96 958.216,3777.79 961.5,3776C 965.5,3772 965.5,3768 961.5,3764C 950.845,3760.67 940.178,3757.34 929.5,3754C 923.362,3750.06 920.362,3744.39 920.5,3737C 920.345,3729.64 923.345,3723.98 929.5,3720C 933.157,3718.18 936.824,3716.68 940.5,3715.5 Z"/></g>
<g><path style="opacity:0.906" fill="#000000" d="M 1036.5,3715.5 C 1055.63,3712.73 1069.3,3719.89 1077.5,3737C 1077.09,3737.95 1076.43,3738.61 1075.5,3739C 1070.82,3739.71 1066.16,3740.04 1061.5,3740C 1054.77,3728.43 1045.44,3725.76 1033.5,3732C 1029.74,3735.42 1027.24,3739.59 1026,3744.5C 1024.9,3752.68 1025.56,3760.68 1028,3768.5C 1034.71,3778.29 1043.54,3780.79 1054.5,3776C 1059.04,3772.98 1061.7,3768.81 1062.5,3763.5C 1056.83,3763.5 1051.17,3763.5 1045.5,3763.5C 1045.5,3759.5 1045.5,3755.5 1045.5,3751.5C 1056.5,3751.5 1067.5,3751.5 1078.5,3751.5C 1078.5,3764.17 1078.5,3776.83 1078.5,3789.5C 1074.5,3789.5 1070.5,3789.5 1066.5,3789.5C 1066.66,3787.47 1066.5,3785.47 1066,3783.5C 1051.91,3793.66 1037.41,3794.16 1022.5,3785C 1012.81,3776.6 1008.14,3765.93 1008.5,3753C 1008.79,3733.54 1018.12,3721.04 1036.5,3715.5 Z"/></g>
<g><path style="opacity:0.904" fill="#000000" d="M 1174.5,3715.5 C 1183.99,3714.41 1192.99,3715.91 1201.5,3720C 1208.11,3724.37 1211.77,3730.54 1212.5,3738.5C 1207.46,3738.58 1202.46,3738.75 1197.5,3739C 1195.26,3731.6 1190.26,3727.77 1182.5,3727.5C 1178.81,3727.75 1175.47,3728.92 1172.5,3731C 1169.45,3735.42 1170.12,3739.08 1174.5,3742C 1183.92,3744.35 1193.25,3747.02 1202.5,3750C 1208.33,3751.83 1212.17,3755.67 1214,3761.5C 1217,3778.17 1210.16,3788 1193.5,3791C 1182.02,3793.04 1171.35,3791.04 1161.5,3785C 1155.54,3780.29 1152.54,3774.13 1152.5,3766.5C 1157.82,3766.02 1163.16,3765.69 1168.5,3765.5C 1169.76,3774.91 1175.26,3779.58 1185,3779.5C 1188.72,3778.96 1192.22,3777.79 1195.5,3776C 1199.5,3772 1199.5,3768 1195.5,3764C 1184.84,3760.67 1174.18,3757.34 1163.5,3754C 1157.36,3750.06 1154.36,3744.39 1154.5,3737C 1154.34,3729.64 1157.34,3723.98 1163.5,3720C 1167.16,3718.18 1170.82,3716.68 1174.5,3715.5 Z"/></g>
<g><path style="opacity:0.912" fill="#000000" d="M 1570.5,3715.5 C 1597.88,3713.55 1612.55,3726.22 1614.5,3753.5C 1612.55,3780.95 1597.88,3793.45 1570.5,3791C 1556.52,3788.36 1547.69,3780.19 1544,3766.5C 1539.59,3749.96 1543.09,3735.46 1554.5,3723C 1559.54,3719.64 1564.88,3717.14 1570.5,3715.5 Z M 1574.5,3728.5 C 1586.52,3727.59 1594.02,3732.92 1597,3744.5C 1598.64,3754.01 1597.31,3763.01 1593,3771.5C 1582.71,3781.05 1572.71,3780.72 1563,3770.5C 1557,3759.17 1557,3747.83 1563,3736.5C 1565.96,3732.34 1569.79,3729.67 1574.5,3728.5 Z"/></g>
<g><path style="opacity:0.916" fill="#000000" d="M 1703.5,3715.5 C 1736.6,3714.44 1751.1,3730.44 1747,3763.5C 1742.75,3782.08 1731.09,3791.41 1712,3791.5C 1688.33,3790 1676.5,3777.33 1676.5,3753.5C 1676.22,3734 1685.22,3721.33 1703.5,3715.5 Z M 1707.5,3728.5 C 1720.64,3727.65 1728.48,3733.65 1731,3746.5C 1732.98,3756.74 1730.81,3765.9 1724.5,3774C 1707.84,3782.59 1697.34,3777.76 1693,3759.5C 1691.37,3749.65 1693.53,3740.81 1699.5,3733C 1702.1,3731.2 1704.77,3729.7 1707.5,3728.5 Z"/></g>
<g><path style="opacity:0.918" fill="#000000" d="M 1780.5,3715.5 C 1799.85,3712.67 1813.52,3720 1821.5,3737.5C 1820.97,3738.19 1820.31,3738.69 1819.5,3739C 1814.82,3739.71 1810.16,3740.04 1805.5,3740C 1799.23,3729.02 1790.23,3726.02 1778.5,3731C 1772.56,3735.72 1769.39,3741.89 1769,3749.5C 1768.29,3756.89 1769.62,3763.89 1773,3770.5C 1783.33,3781.17 1793.67,3781.17 1804,3770.5C 1805.41,3768.35 1806.24,3766.02 1806.5,3763.5C 1800.83,3763.5 1795.17,3763.5 1789.5,3763.5C 1789.5,3759.5 1789.5,3755.5 1789.5,3751.5C 1800.17,3751.5 1810.83,3751.5 1821.5,3751.5C 1821.5,3764.17 1821.5,3776.83 1821.5,3789.5C 1817.83,3789.5 1814.17,3789.5 1810.5,3789.5C 1810.66,3787.14 1810.5,3784.81 1810,3782.5C 1801.81,3790.68 1791.98,3793.51 1780.5,3791C 1761.26,3785.75 1751.93,3773.08 1752.5,3753C 1752.64,3733.39 1761.97,3720.89 1780.5,3715.5 Z"/></g>
<g><path style="opacity:0.903" fill="#000000" d="M 2001.5,3715.5 C 2020.85,3712.67 2034.52,3720 2042.5,3737.5C 2037.29,3739.31 2031.96,3740.15 2026.5,3740C 2020.54,3729.24 2011.87,3726.24 2000.5,3731C 1993.6,3736.86 1990.26,3744.36 1990.5,3753.5C 1990.16,3763.65 1994.16,3771.49 2002.5,3777C 2015.08,3780.46 2023.25,3775.96 2027,3763.5C 2027.56,3762.98 2028.23,3762.64 2029,3762.5C 2033.95,3763.03 2038.78,3764.03 2043.5,3765.5C 2037.2,3785.6 2023.53,3794.1 2002.5,3791C 1988.52,3788.36 1979.69,3780.19 1976,3766.5C 1971.59,3749.96 1975.09,3735.46 1986.5,3723C 1991.15,3719.63 1996.15,3717.13 2001.5,3715.5 Z"/></g>
<g><path style="opacity:0.906" fill="#000000" d="M 3431.5,3715.5 C 3450.63,3712.73 3464.3,3719.89 3472.5,3737C 3472.09,3737.95 3471.43,3738.61 3470.5,3739C 3465.82,3739.71 3461.16,3740.04 3456.5,3740C 3449.77,3728.43 3440.44,3725.76 3428.5,3732C 3424.74,3735.42 3422.24,3739.59 3421,3744.5C 3419.9,3752.68 3420.56,3760.68 3423,3768.5C 3429.71,3778.29 3438.54,3780.79 3449.5,3776C 3454.04,3772.98 3456.7,3768.81 3457.5,3763.5C 3451.83,3763.5 3446.17,3763.5 3440.5,3763.5C 3440.5,3759.5 3440.5,3755.5 3440.5,3751.5C 3451.5,3751.5 3462.5,3751.5 3473.5,3751.5C 3473.5,3764.17 3473.5,3776.83 3473.5,3789.5C 3469.5,3789.5 3465.5,3789.5 3461.5,3789.5C 3461.66,3787.47 3461.5,3785.47 3461,3783.5C 3446.91,3793.66 3432.41,3794.16 3417.5,3785C 3407.81,3776.6 3403.14,3765.93 3403.5,3753C 3403.79,3733.54 3413.12,3721.04 3431.5,3715.5 Z"/></g>
<g><path style="opacity:0.903" fill="#000000" d="M 3525.5,3715.5 C 3540.43,3713.41 3552.59,3718.08 3562,3729.5C 3563.74,3732.31 3564.91,3735.31 3565.5,3738.5C 3560.17,3739.34 3554.83,3739.84 3549.5,3740C 3544.48,3729.66 3536.48,3726.32 3525.5,3730C 3517.15,3735.53 3513.48,3743.36 3514.5,3753.5C 3514.36,3773.22 3523.7,3780.72 3542.5,3776C 3546.18,3772.48 3548.85,3768.32 3550.5,3763.5C 3551.17,3763.17 3551.83,3762.83 3552.5,3762.5C 3557.17,3763.24 3561.83,3763.91 3566.5,3764.5C 3560.84,3785.35 3547.18,3794.18 3525.5,3791C 3509.26,3786.75 3500.09,3776.25 3498,3759.5C 3495.36,3737.05 3504.53,3722.38 3525.5,3715.5 Z"/></g>
<g><path style="opacity:0.916" fill="#000000" d="M 3597.5,3715.5 C 3630.6,3714.44 3645.1,3730.44 3641,3763.5C 3636.75,3782.08 3625.09,3791.41 3606,3791.5C 3582.33,3790 3570.5,3777.33 3570.5,3753.5C 3570.22,3734 3579.22,3721.33 3597.5,3715.5 Z M 3601.5,3728.5 C 3614.64,3727.65 3622.48,3733.65 3625,3746.5C 3626.98,3756.74 3624.81,3765.9 3618.5,3774C 3601.84,3782.59 3591.34,3777.76 3587,3759.5C 3585.37,3749.65 3587.53,3740.81 3593.5,3733C 3596.1,3731.2 3598.77,3729.7 3601.5,3728.5 Z"/></g>
<g><path style="opacity:0.911" fill="#000000" d="M 4288.5,3715.5 C 4320.11,3713.94 4334.61,3728.94 4332,3760.5C 4327.27,3784.19 4312.77,3794.35 4288.5,3791C 4274.77,3787.6 4265.93,3779.1 4262,3765.5C 4257.63,3747.78 4262.13,3732.95 4275.5,3721C 4279.74,3718.65 4284.07,3716.82 4288.5,3715.5 Z M 4292.5,3728.5 C 4308.28,3728.78 4316.28,3736.94 4316.5,3753C 4315.6,3774.28 4305.27,3781.62 4285.5,3775C 4281.74,3771.58 4279.24,3767.41 4278,3762.5C 4276.9,3754.32 4277.56,3746.32 4280,3738.5C 4282.89,3733.43 4287.05,3730.1 4292.5,3728.5 Z"/></g>
<g><path style="opacity:0.909" fill="#000000" d="M 4383.5,3715.5 C 4411.55,3712.9 4426.22,3725.56 4427.5,3753.5C 4427.78,3761.77 4425.78,3769.44 4421.5,3776.5C 4424.76,3781.35 4428.26,3786.01 4432,3790.5C 4432.48,3791.45 4432.65,3792.45 4432.5,3793.5C 4426.49,3793.67 4420.49,3793.5 4414.5,3793C 4413,3790.83 4411.5,3788.67 4410,3786.5C 4391.71,3795.57 4375.71,3792.57 4362,3777.5C 4352.44,3759.22 4353.6,3741.72 4365.5,3725C 4370.88,3720.48 4376.88,3717.31 4383.5,3715.5 Z M 4387.5,3728.5 C 4403.28,3728.78 4411.28,3736.94 4411.5,3753C 4410.6,3774.28 4400.27,3781.62 4380.5,3775C 4376.74,3771.58 4374.24,3767.41 4373,3762.5C 4371.9,3754.32 4372.56,3746.32 4375,3738.5C 4377.89,3733.43 4382.05,3730.1 4387.5,3728.5 Z"/></g>
<g><path style="opacity:0.903" fill="#000000" d="M 5022.5,3715.5 C 5037.43,3713.41 5049.59,3718.08 5059,3729.5C 5060.74,3732.31 5061.91,3735.31 5062.5,3738.5C 5057.17,3739.34 5051.83,3739.84 5046.5,3740C 5041.48,3729.66 5033.48,3726.32 5022.5,3730C 5014.15,3735.53 5010.48,3743.36 5011.5,3753.5C 5011.36,3773.22 5020.7,3780.72 5039.5,3776C 5043.18,3772.48 5045.85,3768.32 5047.5,3763.5C 5048.17,3763.17 5048.83,3762.83 5049.5,3762.5C 5054.17,3763.24 5058.83,3763.91 5063.5,3764.5C 5057.84,3785.35 5044.18,3794.18 5022.5,3791C 5006.26,3786.75 4997.09,3776.25 4995,3759.5C 4992.36,3737.05 5001.53,3722.38 5022.5,3715.5 Z"/></g>
<g><path style="opacity:0.916" fill="#000000" d="M 5511.5,3715.5 C 5544.6,3714.44 5559.1,3730.44 5555,3763.5C 5550.75,3782.08 5539.09,3791.41 5520,3791.5C 5496.33,3790 5484.5,3777.33 5484.5,3753.5C 5484.22,3734 5493.22,3721.33 5511.5,3715.5 Z M 5515.5,3728.5 C 5528.64,3727.65 5536.48,3733.65 5539,3746.5C 5540.98,3756.74 5538.81,3765.9 5532.5,3774C 5515.84,3782.59 5505.34,3777.76 5501,3759.5C 5499.37,3749.65 5501.53,3740.81 5507.5,3733C 5510.1,3731.2 5512.77,3729.7 5515.5,3728.5 Z"/></g>
<g><path style="opacity:0.904" fill="#000000" d="M 5728.5,3715.5 C 5744.05,3713.2 5756.55,3718.2 5766,3730.5C 5767.71,3732.91 5768.54,3735.58 5768.5,3738.5C 5763.99,3739.03 5759.49,3739.69 5755,3740.5C 5751.93,3737.43 5748.76,3734.26 5745.5,3731C 5731.15,3725.93 5721.98,3730.76 5718,3745.5C 5715.46,3756.73 5717.96,3766.57 5725.5,3775C 5739.84,3781.94 5749.18,3777.78 5753.5,3762.5C 5758.85,3763.09 5764.18,3763.76 5769.5,3764.5C 5767.1,3779.4 5758.44,3788.23 5743.5,3791C 5718.44,3793.6 5704.27,3782.43 5701,3757.5C 5699.28,3736.1 5708.45,3722.1 5728.5,3715.5 Z"/></g>
<g><path style="opacity:0.9" fill="#000000" d="M 5856.5,3715.5 C 5866.86,3714.17 5876.53,3716 5885.5,3721C 5890.68,3725.36 5894.02,3730.86 5895.5,3737.5C 5890.84,3738.28 5886.18,3738.94 5881.5,3739.5C 5879.44,3735.95 5876.78,3732.78 5873.5,3730C 5867.81,3726.77 5862.15,3726.77 5856.5,3730C 5851.3,3734.09 5851.3,3738.09 5856.5,3742C 5866.98,3744.54 5877.31,3747.54 5887.5,3751C 5894.19,3755.05 5897.53,3761.05 5897.5,3769C 5896.23,3782.27 5888.89,3789.61 5875.5,3791C 5862.02,3793.51 5850.19,3790.34 5840,3781.5C 5836.48,3777.11 5834.65,3772.11 5834.5,3766.5C 5839.82,3766.02 5845.16,3765.69 5850.5,3765.5C 5852.28,3774.59 5857.95,3779.26 5867.5,3779.5C 5872.51,3779.12 5876.67,3777.12 5880,3773.5C 5881.18,3769.73 5880.35,3766.56 5877.5,3764C 5867.93,3760.75 5858.27,3757.75 5848.5,3755C 5840.56,3751.71 5836.56,3745.71 5836.5,3737C 5838.19,3725.15 5844.86,3717.98 5856.5,3715.5 Z"/></g>
<g><path style="opacity:0.905" fill="#000000" d="M 6531.5,3715.5 C 6551.1,3712.62 6564.76,3720.12 6572.5,3738C 6566.89,3739.27 6561.22,3740.1 6555.5,3740.5C 6553.23,3732.67 6547.9,3728.67 6539.5,3728.5C 6532.71,3728.81 6527.54,3731.81 6524,3737.5C 6519.33,3748.17 6519.33,3758.83 6524,3769.5C 6530.34,3778.39 6538.5,3780.56 6548.5,3776C 6553.35,3772.79 6556.02,3768.29 6556.5,3762.5C 6562.21,3763.01 6567.88,3763.84 6573.5,3765C 6566.24,3786.87 6551.24,3795.2 6528.5,3790C 6515.41,3785.9 6507.57,3777.07 6505,3763.5C 6501.67,3747.28 6505.84,3733.45 6517.5,3722C 6521.88,3718.97 6526.54,3716.81 6531.5,3715.5 Z"/></g>
<g><path style="opacity:0.911" fill="#000000" d="M 6745.5,3715.5 C 6778.07,3714.24 6792.57,3729.9 6789,3762.5C 6783.44,3784.55 6769.27,3794.05 6746.5,3791C 6727.15,3786.18 6717.48,3773.68 6717.5,3753.5C 6717.65,3733.81 6726.98,3721.14 6745.5,3715.5 Z M 6749.5,3728.5 C 6765.77,3728.61 6773.77,3736.94 6773.5,3753.5C 6774.09,3767.89 6767.43,3776.22 6753.5,3778.5C 6743.05,3777.55 6736.89,3771.89 6735,3761.5C 6732.46,3750.27 6734.96,3740.43 6742.5,3732C 6744.93,3730.79 6747.26,3729.62 6749.5,3728.5 Z"/></g>
<g><path style="opacity:0.912" fill="#000000" d="M -0.5,3716.5 C 4.8746,3716.17 10.2079,3716.51 15.5,3717.5C 19.025,3734.3 22.8583,3750.97 27,3767.5C 30.4381,3750.81 33.9381,3734.14 37.5,3717.5C 43.4632,3716.5 49.4632,3716.17 55.5,3716.5C 58.8371,3734.18 62.3371,3751.85 66,3769.5C 69.6667,3752.17 73.3333,3734.83 77,3717.5C 82.4066,3716.53 87.9066,3716.19 93.5,3716.5C 88.1499,3740.57 82.4832,3764.57 76.5,3788.5C 69.8665,3789.5 63.1998,3789.83 56.5,3789.5C 53.8074,3773.37 50.474,3757.37 46.5,3741.5C 42.5279,3757.36 39.1946,3773.36 36.5,3789.5C 29.8002,3789.83 23.1335,3789.5 16.5,3788.5C 10.9621,3766.01 5.29539,3743.68 -0.5,3721.5C -0.5,3719.83 -0.5,3718.17 -0.5,3716.5 Z"/></g>
<g><path style="opacity:0.93" fill="#000000" d="M 97.5,3716.5 C 102.833,3716.5 108.167,3716.5 113.5,3716.5C 113.5,3740.83 113.5,3765.17 113.5,3789.5C 108.167,3789.5 102.833,3789.5 97.5,3789.5C 97.5,3765.17 97.5,3740.83 97.5,3716.5 Z"/></g>
<g><path style="opacity:0.888" fill="#000000" d="M 117.5,3716.5 C 138.5,3716.5 159.5,3716.5 180.5,3716.5C 180.5,3721.17 180.5,3725.83 180.5,3730.5C 172.833,3730.5 165.167,3730.5 157.5,3730.5C 157.5,3750.17 157.5,3769.83 157.5,3789.5C 151.833,3789.5 146.167,3789.5 140.5,3789.5C 140.5,3769.83 140.5,3750.17 140.5,3730.5C 132.833,3730.5 125.167,3730.5 117.5,3730.5C 117.5,3725.83 117.5,3721.17 117.5,3716.5 Z"/></g>
<g><path style="opacity:0.894" fill="#000000" d="M 184.5,3716.5 C 190.167,3716.5 195.833,3716.5 201.5,3716.5C 201.5,3726.5 201.5,3736.5 201.5,3746.5C 211.5,3746.5 221.5,3746.5 231.5,3746.5C 231.334,3736.83 231.5,3727.16 232,3717.5C 237.407,3716.53 242.907,3716.19 248.5,3716.5C 248.5,3740.83 248.5,3765.17 248.5,3789.5C 242.833,3789.5 237.167,3789.5 231.5,3789.5C 231.5,3779.5 231.5,3769.5 231.5,3759.5C 221.5,3759.5 211.5,3759.5 201.5,3759.5C 201.5,3769.5 201.5,3779.5 201.5,3789.5C 195.833,3789.5 190.167,3789.5 184.5,3789.5C 184.5,3765.17 184.5,3740.83 184.5,3716.5 Z"/></g>
<g><path style="opacity:0.914" fill="#000000" d="M 350.5,3716.5 C 355.833,3716.5 361.167,3716.5 366.5,3716.5C 366.333,3733.5 366.5,3750.5 367,3767.5C 369.077,3774.74 373.91,3778.4 381.5,3778.5C 389.09,3778.4 393.923,3774.74 396,3767.5C 396.5,3750.5 396.667,3733.5 396.5,3716.5C 401.833,3716.5 407.167,3716.5 412.5,3716.5C 412.95,3735.89 412.45,3755.22 411,3774.5C 404.937,3786.46 395.103,3792.12 381.5,3791.5C 367.897,3792.12 358.063,3786.46 352,3774.5C 350.55,3755.22 350.05,3735.89 350.5,3716.5 Z"/></g>
<g><path style="opacity:0.923" fill="#000000" d="M 419.5,3716.5 C 434.869,3716.14 450.203,3716.64 465.5,3718C 480.538,3724.07 485.371,3734.9 480,3750.5C 477.341,3756.49 472.841,3760.33 466.5,3762C 472.167,3771 477.833,3780 483.5,3789C 477.167,3789.67 470.833,3789.67 464.5,3789C 459.5,3780.67 454.5,3772.33 449.5,3764C 444.845,3763.5 440.179,3763.33 435.5,3763.5C 435.5,3772.17 435.5,3780.83 435.5,3789.5C 430.167,3789.5 424.833,3789.5 419.5,3789.5C 419.5,3765.17 419.5,3740.83 419.5,3716.5 Z M 435.5,3729.5 C 443.553,3729.23 451.553,3729.73 459.5,3731C 466.017,3735.24 467.183,3740.74 463,3747.5C 461.581,3748.46 460.081,3749.29 458.5,3750C 450.841,3750.5 443.174,3750.67 435.5,3750.5C 435.5,3743.5 435.5,3736.5 435.5,3729.5 Z"/></g>
<g><path style="opacity:0.915" fill="#000000" d="M 505.5,3716.5 C 523.5,3716.5 541.5,3716.5 559.5,3716.5C 559.5,3720.83 559.5,3725.17 559.5,3729.5C 547.167,3729.5 534.833,3729.5 522.5,3729.5C 522.5,3735.17 522.5,3740.83 522.5,3746.5C 534.167,3746.5 545.833,3746.5 557.5,3746.5C 557.5,3750.5 557.5,3754.5 557.5,3758.5C 545.833,3758.5 534.167,3758.5 522.5,3758.5C 522.5,3764.5 522.5,3770.5 522.5,3776.5C 534.833,3776.5 547.167,3776.5 559.5,3776.5C 559.5,3780.83 559.5,3785.17 559.5,3789.5C 541.5,3789.5 523.5,3789.5 505.5,3789.5C 505.5,3765.17 505.5,3740.83 505.5,3716.5 Z"/></g>
<g><path style="opacity:0.926" fill="#000000" d="M 565.5,3716.5 C 578.868,3716.19 592.201,3716.69 605.5,3718C 623.303,3723.09 631.636,3734.92 630.5,3753.5C 631.586,3772.57 622.919,3784.4 604.5,3789C 591.504,3789.5 578.504,3789.67 565.5,3789.5C 565.5,3765.17 565.5,3740.83 565.5,3716.5 Z M 581.5,3729.5 C 609.067,3727.56 619.234,3739.9 612,3766.5C 609.28,3771.55 605.113,3774.72 599.5,3776C 593.509,3776.5 587.509,3776.67 581.5,3776.5C 581.5,3760.83 581.5,3745.17 581.5,3729.5 Z"/></g>
<g><path style="opacity:0.902" fill="#000000" d="M 700.5,3716.5 C 706.537,3716.17 712.537,3716.5 718.5,3717.5C 723.746,3727.66 729.246,3737.66 735,3747.5C 740.373,3737.25 745.873,3727.09 751.5,3717C 757.157,3716.5 762.824,3716.33 768.5,3716.5C 760.549,3731.73 752.049,3746.73 743,3761.5C 742.5,3770.83 742.334,3780.16 742.5,3789.5C 737.167,3789.5 731.833,3789.5 726.5,3789.5C 726.666,3780.16 726.5,3770.83 726,3761.5C 716.97,3746.77 708.47,3731.77 700.5,3716.5 Z"/></g>
<g><path style="opacity:0.907" fill="#000000" d="M 790.5,3716.5 C 801.172,3716.33 811.839,3716.5 822.5,3717C 845.045,3718.71 856.378,3730.88 856.5,3753.5C 857.188,3772.32 848.521,3784.16 830.5,3789C 817.171,3789.5 803.837,3789.67 790.5,3789.5C 790.5,3765.17 790.5,3740.83 790.5,3716.5 Z M 807.5,3729.5 C 834.525,3727.35 844.692,3739.35 838,3765.5C 835.668,3771.16 831.501,3774.66 825.5,3776C 819.509,3776.5 813.509,3776.67 807.5,3776.5C 807.5,3760.83 807.5,3745.17 807.5,3729.5 Z"/></g>
<g><path style="opacity:0.938" fill="#000000" d="M 862.5,3716.5 C 880.167,3716.5 897.833,3716.5 915.5,3716.5C 915.5,3720.83 915.5,3725.17 915.5,3729.5C 903.167,3729.5 890.833,3729.5 878.5,3729.5C 878.5,3735.17 878.5,3740.83 878.5,3746.5C 890.167,3746.5 901.833,3746.5 913.5,3746.5C 913.5,3750.5 913.5,3754.5 913.5,3758.5C 901.833,3758.5 890.167,3758.5 878.5,3758.5C 878.5,3764.5 878.5,3770.5 878.5,3776.5C 890.833,3776.5 903.167,3776.5 915.5,3776.5C 915.5,3780.83 915.5,3785.17 915.5,3789.5C 897.833,3789.5 880.167,3789.5 862.5,3789.5C 862.5,3765.17 862.5,3740.83 862.5,3716.5 Z"/></g>
<g><path style="opacity:0.922" fill="#000000" d="M 986.5,3716.5 C 991.833,3716.5 997.167,3716.5 1002.5,3716.5C 1002.5,3740.83 1002.5,3765.17 1002.5,3789.5C 997.167,3789.5 991.833,3789.5 986.5,3789.5C 986.5,3765.17 986.5,3740.83 986.5,3716.5 Z"/></g>
<g><path style="opacity:0.911" fill="#000000" d="M 1084.5,3716.5 C 1090.51,3716.33 1096.51,3716.5 1102.5,3717C 1113.04,3733.25 1123.21,3749.75 1133,3766.5C 1133.5,3749.84 1133.67,3733.17 1133.5,3716.5C 1138.5,3716.5 1143.5,3716.5 1148.5,3716.5C 1148.5,3740.83 1148.5,3765.17 1148.5,3789.5C 1142.49,3789.67 1136.49,3789.5 1130.5,3789C 1119.96,3772.75 1109.79,3756.25 1100,3739.5C 1099.5,3756.16 1099.33,3772.83 1099.5,3789.5C 1094.5,3789.5 1089.5,3789.5 1084.5,3789.5C 1084.5,3765.17 1084.5,3740.83 1084.5,3716.5 Z"/></g>
<g><path style="opacity:0.901" fill="#000000" d="M 1263.5,3716.5 C 1269.17,3716.5 1274.83,3716.5 1280.5,3716.5C 1280.33,3733.84 1280.5,3751.17 1281,3768.5C 1283.38,3775.13 1288.22,3778.46 1295.5,3778.5C 1303.53,3778.3 1308.36,3774.3 1310,3766.5C 1310.5,3749.84 1310.67,3733.17 1310.5,3716.5C 1315.83,3716.5 1321.17,3716.5 1326.5,3716.5C 1326.67,3734.17 1326.5,3751.84 1326,3769.5C 1321.6,3784.87 1311.27,3792.2 1295,3791.5C 1276.51,3791.67 1266.18,3782.67 1264,3764.5C 1263.5,3748.5 1263.33,3732.5 1263.5,3716.5 Z"/></g>
<g><path style="opacity:0.911" fill="#000000" d="M 1333.5,3716.5 C 1339.76,3716.19 1345.92,3716.52 1352,3717.5C 1361.75,3734 1371.75,3750.33 1382,3766.5C 1382.5,3749.84 1382.67,3733.17 1382.5,3716.5C 1387.5,3716.5 1392.5,3716.5 1397.5,3716.5C 1397.5,3740.83 1397.5,3765.17 1397.5,3789.5C 1391.13,3789.83 1384.8,3789.5 1378.5,3788.5C 1368.86,3772.37 1359.03,3756.37 1349,3740.5C 1348.5,3756.83 1348.33,3773.16 1348.5,3789.5C 1343.5,3789.5 1338.5,3789.5 1333.5,3789.5C 1333.5,3765.17 1333.5,3740.83 1333.5,3716.5 Z"/></g>
<g><path style="opacity:0.92" fill="#000000" d="M 1427.5,3716.5 C 1434.42,3716.19 1441.26,3716.52 1448,3717.5C 1457.34,3741.34 1466.17,3765.34 1474.5,3789.5C 1468.82,3789.67 1463.16,3789.5 1457.5,3789C 1455.5,3783.67 1453.5,3778.33 1451.5,3773C 1442.17,3772.33 1432.83,3772.33 1423.5,3773C 1421.21,3778.03 1419.21,3783.2 1417.5,3788.5C 1411.87,3789.5 1406.21,3789.83 1400.5,3789.5C 1408.91,3764.94 1417.91,3740.61 1427.5,3716.5 Z M 1436.5,3732.5 C 1437.12,3732.61 1437.62,3732.94 1438,3733.5C 1441.17,3742.35 1444.34,3751.18 1447.5,3760C 1440.81,3760.83 1434.14,3760.66 1427.5,3759.5C 1430.8,3750.57 1433.8,3741.57 1436.5,3732.5 Z"/></g>
<g><path style="opacity:0.904" fill="#000000" d="M 1477.5,3716.5 C 1492.21,3716.13 1506.87,3716.63 1521.5,3718C 1532.83,3721.15 1538.5,3728.65 1538.5,3740.5C 1538.13,3753.7 1531.46,3761.54 1518.5,3764C 1510.51,3764.5 1502.51,3764.67 1494.5,3764.5C 1494.5,3772.83 1494.5,3781.17 1494.5,3789.5C 1488.83,3789.5 1483.17,3789.5 1477.5,3789.5C 1477.5,3765.17 1477.5,3740.83 1477.5,3716.5 Z M 1494.5,3729.5 C 1501.56,3729.21 1508.56,3729.71 1515.5,3731C 1519.8,3732.94 1521.8,3736.27 1521.5,3741C 1521.9,3745.2 1520.24,3748.2 1516.5,3750C 1509.25,3751.39 1501.92,3751.89 1494.5,3751.5C 1494.5,3744.17 1494.5,3736.83 1494.5,3729.5 Z"/></g>
<g><path style="opacity:0.903" fill="#000000" d="M 1619.5,3716.5 C 1625.17,3716.5 1630.83,3716.5 1636.5,3716.5C 1636.5,3736.5 1636.5,3756.5 1636.5,3776.5C 1649.17,3776.5 1661.83,3776.5 1674.5,3776.5C 1674.5,3780.83 1674.5,3785.17 1674.5,3789.5C 1656.17,3789.5 1637.83,3789.5 1619.5,3789.5C 1619.5,3765.17 1619.5,3740.83 1619.5,3716.5 Z"/></g>
<g><path style="opacity:0.925" fill="#000000" d="M 1828.5,3716.5 C 1846.5,3716.5 1864.5,3716.5 1882.5,3716.5C 1882.5,3720.83 1882.5,3725.17 1882.5,3729.5C 1869.83,3729.5 1857.17,3729.5 1844.5,3729.5C 1844.5,3735.17 1844.5,3740.83 1844.5,3746.5C 1856.5,3746.5 1868.5,3746.5 1880.5,3746.5C 1880.5,3750.5 1880.5,3754.5 1880.5,3758.5C 1868.5,3758.5 1856.5,3758.5 1844.5,3758.5C 1844.5,3764.5 1844.5,3770.5 1844.5,3776.5C 1857.17,3776.5 1869.83,3776.5 1882.5,3776.5C 1882.5,3780.83 1882.5,3785.17 1882.5,3789.5C 1864.5,3789.5 1846.5,3789.5 1828.5,3789.5C 1828.5,3765.17 1828.5,3740.83 1828.5,3716.5 Z"/></g>
<g><path style="opacity:0.918" fill="#000000" d="M 1885.5,3716.5 C 1906.17,3716.5 1926.83,3716.5 1947.5,3716.5C 1947.5,3721.17 1947.5,3725.83 1947.5,3730.5C 1939.83,3730.5 1932.17,3730.5 1924.5,3730.5C 1924.5,3750.17 1924.5,3769.83 1924.5,3789.5C 1919.17,3789.5 1913.83,3789.5 1908.5,3789.5C 1908.5,3769.83 1908.5,3750.17 1908.5,3730.5C 1900.83,3730.5 1893.17,3730.5 1885.5,3730.5C 1885.5,3725.83 1885.5,3721.17 1885.5,3716.5 Z"/></g>
<g><path style="opacity:0.922" fill="#000000" d="M 1952.5,3716.5 C 1957.83,3716.5 1963.17,3716.5 1968.5,3716.5C 1968.5,3740.83 1968.5,3765.17 1968.5,3789.5C 1963.17,3789.5 1957.83,3789.5 1952.5,3789.5C 1952.5,3765.17 1952.5,3740.83 1952.5,3716.5 Z"/></g>
<g><path style="opacity:0.92" fill="#000000" d="M 2090.5,3716.5 C 2097.42,3716.19 2104.26,3716.52 2111,3717.5C 2120.34,3741.34 2129.17,3765.34 2137.5,3789.5C 2131.82,3789.67 2126.16,3789.5 2120.5,3789C 2118.5,3783.67 2116.5,3778.33 2114.5,3773C 2105.17,3772.33 2095.83,3772.33 2086.5,3773C 2084.21,3778.03 2082.21,3783.2 2080.5,3788.5C 2074.87,3789.5 2069.21,3789.83 2063.5,3789.5C 2071.91,3764.94 2080.91,3740.61 2090.5,3716.5 Z M 2099.5,3732.5 C 2100.12,3732.61 2100.62,3732.94 2101,3733.5C 2104.17,3742.35 2107.34,3751.18 2110.5,3760C 2103.81,3760.83 2097.14,3760.66 2090.5,3759.5C 2093.8,3750.57 2096.8,3741.57 2099.5,3732.5 Z"/></g>
<g><path style="opacity:0.911" fill="#000000" d="M 2127.5,3716.5 C 2148.5,3716.5 2169.5,3716.5 2190.5,3716.5C 2190.5,3721.17 2190.5,3725.83 2190.5,3730.5C 2182.83,3730.5 2175.17,3730.5 2167.5,3730.5C 2167.5,3750.17 2167.5,3769.83 2167.5,3789.5C 2162.17,3789.5 2156.83,3789.5 2151.5,3789.5C 2151.5,3769.83 2151.5,3750.17 2151.5,3730.5C 2143.5,3730.5 2135.5,3730.5 2127.5,3730.5C 2127.5,3725.83 2127.5,3721.17 2127.5,3716.5 Z"/></g>
<g><path style="opacity:0.911" fill="#000000" d="M 2192.5,3716.5 C 2213.5,3716.5 2234.5,3716.5 2255.5,3716.5C 2255.5,3721.17 2255.5,3725.83 2255.5,3730.5C 2247.83,3730.5 2240.17,3730.5 2232.5,3730.5C 2232.5,3750.17 2232.5,3769.83 2232.5,3789.5C 2227.17,3789.5 2221.83,3789.5 2216.5,3789.5C 2216.5,3769.83 2216.5,3750.17 2216.5,3730.5C 2208.5,3730.5 2200.5,3730.5 2192.5,3730.5C 2192.5,3725.83 2192.5,3721.17 2192.5,3716.5 Z"/></g>
<g><path style="opacity:0.922" fill="#000000" d="M 2260.5,3716.5 C 2265.83,3716.5 2271.17,3716.5 2276.5,3716.5C 2276.5,3740.83 2276.5,3765.17 2276.5,3789.5C 2271.17,3789.5 2265.83,3789.5 2260.5,3789.5C 2260.5,3765.17 2260.5,3740.83 2260.5,3716.5 Z"/></g>
<g><path style="opacity:0.911" fill="#000000" d="M 2280.5,3716.5 C 2301.5,3716.5 2322.5,3716.5 2343.5,3716.5C 2343.5,3721.17 2343.5,3725.83 2343.5,3730.5C 2335.83,3730.5 2328.17,3730.5 2320.5,3730.5C 2320.5,3750.17 2320.5,3769.83 2320.5,3789.5C 2315.17,3789.5 2309.83,3789.5 2304.5,3789.5C 2304.5,3769.83 2304.5,3750.17 2304.5,3730.5C 2296.5,3730.5 2288.5,3730.5 2280.5,3730.5C 2280.5,3725.83 2280.5,3721.17 2280.5,3716.5 Z"/></g>
<g><path style="opacity:0.914" fill="#000000" d="M 2348.5,3716.5 C 2353.83,3716.5 2359.17,3716.5 2364.5,3716.5C 2364.33,3733.5 2364.5,3750.5 2365,3767.5C 2367.08,3774.74 2371.91,3778.4 2379.5,3778.5C 2387.09,3778.4 2391.92,3774.74 2394,3767.5C 2394.5,3750.5 2394.67,3733.5 2394.5,3716.5C 2399.83,3716.5 2405.17,3716.5 2410.5,3716.5C 2410.95,3735.89 2410.45,3755.22 2409,3774.5C 2402.94,3786.46 2393.1,3792.12 2379.5,3791.5C 2365.9,3792.12 2356.06,3786.46 2350,3774.5C 2348.55,3755.22 2348.05,3735.89 2348.5,3716.5 Z"/></g>
<g><path style="opacity:0.924" fill="#000000" d="M 2417.5,3716.5 C 2430.87,3716.19 2444.2,3716.69 2457.5,3718C 2475.1,3723.12 2483.77,3734.96 2483.5,3753.5C 2483.67,3772.48 2474.67,3784.31 2456.5,3789C 2443.5,3789.5 2430.5,3789.67 2417.5,3789.5C 2417.5,3765.17 2417.5,3740.83 2417.5,3716.5 Z M 2433.5,3729.5 C 2460.03,3726.86 2470.53,3738.53 2465,3764.5C 2462.41,3770.09 2458.25,3773.92 2452.5,3776C 2446.18,3776.5 2439.84,3776.67 2433.5,3776.5C 2433.5,3760.83 2433.5,3745.17 2433.5,3729.5 Z"/></g>
<g><path style="opacity:0.925" fill="#000000" d="M 2488.5,3716.5 C 2506.5,3716.5 2524.5,3716.5 2542.5,3716.5C 2542.5,3720.83 2542.5,3725.17 2542.5,3729.5C 2529.83,3729.5 2517.17,3729.5 2504.5,3729.5C 2504.5,3735.17 2504.5,3740.83 2504.5,3746.5C 2516.5,3746.5 2528.5,3746.5 2540.5,3746.5C 2540.5,3750.5 2540.5,3754.5 2540.5,3758.5C 2528.5,3758.5 2516.5,3758.5 2504.5,3758.5C 2504.5,3764.5 2504.5,3770.5 2504.5,3776.5C 2517.17,3776.5 2529.83,3776.5 2542.5,3776.5C 2542.5,3780.83 2542.5,3785.17 2542.5,3789.5C 2524.5,3789.5 2506.5,3789.5 2488.5,3789.5C 2488.5,3765.17 2488.5,3740.83 2488.5,3716.5 Z"/></g>
<g><path style="opacity:0.92" fill="#000000" d="M 2615.5,3716.5 C 2622.42,3716.19 2629.26,3716.52 2636,3717.5C 2645.34,3741.34 2654.17,3765.34 2662.5,3789.5C 2656.82,3789.67 2651.16,3789.5 2645.5,3789C 2643.5,3783.67 2641.5,3778.33 2639.5,3773C 2630.17,3772.33 2620.83,3772.33 2611.5,3773C 2609.21,3778.03 2607.21,3783.2 2605.5,3788.5C 2599.87,3789.5 2594.21,3789.83 2588.5,3789.5C 2596.91,3764.94 2605.91,3740.61 2615.5,3716.5 Z M 2624.5,3732.5 C 2625.12,3732.61 2625.62,3732.94 2626,3733.5C 2629.17,3742.35 2632.34,3751.18 2635.5,3760C 2628.81,3760.83 2622.14,3760.66 2615.5,3759.5C 2618.8,3750.57 2621.8,3741.57 2624.5,3732.5 Z"/></g>
<g><path style="opacity:0.913" fill="#000000" d="M 2665.5,3716.5 C 2671.87,3716.17 2678.2,3716.5 2684.5,3717.5C 2694.14,3733.63 2703.97,3749.63 2714,3765.5C 2714.5,3749.17 2714.67,3732.84 2714.5,3716.5C 2719.5,3716.5 2724.5,3716.5 2729.5,3716.5C 2729.5,3740.83 2729.5,3765.17 2729.5,3789.5C 2723.24,3789.81 2717.08,3789.48 2711,3788.5C 2701.25,3772 2691.25,3755.67 2681,3739.5C 2680.5,3756.16 2680.33,3772.83 2680.5,3789.5C 2675.5,3789.5 2670.5,3789.5 2665.5,3789.5C 2665.5,3765.17 2665.5,3740.83 2665.5,3716.5 Z"/></g>
<g><path style="opacity:0.924" fill="#000000" d="M 2736.5,3716.5 C 2749.87,3716.19 2763.2,3716.69 2776.5,3718C 2794.1,3723.12 2802.77,3734.96 2802.5,3753.5C 2802.67,3772.48 2793.67,3784.31 2775.5,3789C 2762.5,3789.5 2749.5,3789.67 2736.5,3789.5C 2736.5,3765.17 2736.5,3740.83 2736.5,3716.5 Z M 2752.5,3729.5 C 2779.03,3726.86 2789.53,3738.53 2784,3764.5C 2781.41,3770.09 2777.25,3773.92 2771.5,3776C 2765.18,3776.5 2758.84,3776.67 2752.5,3776.5C 2752.5,3760.83 2752.5,3745.17 2752.5,3729.5 Z"/></g>
<g><path style="opacity:0.901" fill="#000000" d="M 2826.5,3716.5 C 2832.17,3716.5 2837.83,3716.5 2843.5,3716.5C 2843.33,3733.84 2843.5,3751.17 2844,3768.5C 2846.38,3775.13 2851.22,3778.46 2858.5,3778.5C 2866.53,3778.3 2871.36,3774.3 2873,3766.5C 2873.5,3749.84 2873.67,3733.17 2873.5,3716.5C 2878.83,3716.5 2884.17,3716.5 2889.5,3716.5C 2889.67,3734.17 2889.5,3751.84 2889,3769.5C 2884.6,3784.87 2874.27,3792.2 2858,3791.5C 2839.51,3791.67 2829.18,3782.67 2827,3764.5C 2826.5,3748.5 2826.33,3732.5 2826.5,3716.5 Z"/></g>
<g><path style="opacity:0.911" fill="#000000" d="M 2896.5,3716.5 C 2902.76,3716.19 2908.92,3716.52 2915,3717.5C 2924.75,3734 2934.75,3750.33 2945,3766.5C 2945.5,3749.84 2945.67,3733.17 2945.5,3716.5C 2950.5,3716.5 2955.5,3716.5 2960.5,3716.5C 2960.5,3740.83 2960.5,3765.17 2960.5,3789.5C 2954.13,3789.83 2947.8,3789.5 2941.5,3788.5C 2931.86,3772.37 2922.03,3756.37 2912,3740.5C 2911.5,3756.83 2911.33,3773.16 2911.5,3789.5C 2906.5,3789.5 2901.5,3789.5 2896.5,3789.5C 2896.5,3765.17 2896.5,3740.83 2896.5,3716.5 Z"/></g>
<g><path style="opacity:0.912" fill="#000000" d="M 2963.5,3716.5 C 2968.87,3716.17 2974.21,3716.51 2979.5,3717.5C 2983.02,3734.3 2986.86,3750.97 2991,3767.5C 2994.44,3750.81 2997.94,3734.14 3001.5,3717.5C 3007.46,3716.5 3013.46,3716.17 3019.5,3716.5C 3022.84,3734.18 3026.34,3751.85 3030,3769.5C 3033.67,3752.17 3037.33,3734.83 3041,3717.5C 3046.41,3716.53 3051.91,3716.19 3057.5,3716.5C 3052.15,3740.57 3046.48,3764.57 3040.5,3788.5C 3033.87,3789.5 3027.2,3789.83 3020.5,3789.5C 3017.81,3773.37 3014.47,3757.37 3010.5,3741.5C 3006.53,3757.36 3003.19,3773.36 3000.5,3789.5C 2993.8,3789.83 2987.13,3789.5 2980.5,3788.5C 2974.2,3764.64 2968.53,3740.64 2963.5,3716.5 Z"/></g>
<g><path style="opacity:0.92" fill="#000000" d="M 3077.5,3716.5 C 3084.42,3716.19 3091.26,3716.52 3098,3717.5C 3107.34,3741.34 3116.17,3765.34 3124.5,3789.5C 3118.82,3789.67 3113.16,3789.5 3107.5,3789C 3105.5,3783.67 3103.5,3778.33 3101.5,3773C 3092.17,3772.33 3082.83,3772.33 3073.5,3773C 3071.21,3778.03 3069.21,3783.2 3067.5,3788.5C 3061.87,3789.5 3056.21,3789.83 3050.5,3789.5C 3058.91,3764.94 3067.91,3740.61 3077.5,3716.5 Z M 3086.5,3732.5 C 3087.12,3732.61 3087.62,3732.94 3088,3733.5C 3091.17,3742.35 3094.34,3751.18 3097.5,3760C 3090.81,3760.83 3084.14,3760.66 3077.5,3759.5C 3080.8,3750.57 3083.8,3741.57 3086.5,3732.5 Z"/></g>
<g><path style="opacity:0.904" fill="#000000" d="M 3110.5,3716.5 C 3116.21,3716.17 3121.87,3716.5 3127.5,3717.5C 3133.57,3735.54 3139.73,3753.54 3146,3771.5C 3152,3753.5 3158,3735.5 3164,3717.5C 3169.78,3716.19 3175.61,3716.19 3181.5,3717.5C 3172.83,3741.17 3164.17,3764.83 3155.5,3788.5C 3148.94,3789.81 3142.44,3789.81 3136,3788.5C 3126.79,3764.71 3118.29,3740.71 3110.5,3716.5 Z"/></g>
<g><path style="opacity:0.925" fill="#000000" d="M 3184.5,3716.5 C 3202.17,3716.33 3219.84,3716.5 3237.5,3717C 3238.46,3721.07 3238.8,3725.23 3238.5,3729.5C 3225.83,3729.5 3213.17,3729.5 3200.5,3729.5C 3200.5,3735.17 3200.5,3740.83 3200.5,3746.5C 3212.5,3746.5 3224.5,3746.5 3236.5,3746.5C 3236.5,3750.5 3236.5,3754.5 3236.5,3758.5C 3224.5,3758.5 3212.5,3758.5 3200.5,3758.5C 3200.5,3764.5 3200.5,3770.5 3200.5,3776.5C 3213.17,3776.5 3225.83,3776.5 3238.5,3776.5C 3238.5,3780.83 3238.5,3785.17 3238.5,3789.5C 3220.5,3789.5 3202.5,3789.5 3184.5,3789.5C 3184.5,3765.17 3184.5,3740.83 3184.5,3716.5 Z"/></g>
<g><path style="opacity:0.922" fill="#000000" d="M 3243.5,3716.5 C 3258.54,3716.12 3273.54,3716.62 3288.5,3718C 3299.8,3720.97 3305.47,3728.31 3305.5,3740C 3305.7,3750.96 3300.7,3758.29 3290.5,3762C 3296.17,3771 3301.83,3780 3307.5,3789C 3301.17,3789.67 3294.83,3789.67 3288.5,3789C 3283.5,3780.67 3278.5,3772.33 3273.5,3764C 3268.85,3763.5 3264.18,3763.33 3259.5,3763.5C 3259.5,3772.17 3259.5,3780.83 3259.5,3789.5C 3254.17,3789.5 3248.83,3789.5 3243.5,3789.5C 3243.5,3765.17 3243.5,3740.83 3243.5,3716.5 Z M 3259.5,3729.5 C 3267.23,3729.19 3274.89,3729.69 3282.5,3731C 3290.97,3736.04 3291.64,3742.04 3284.5,3749C 3276.25,3750.41 3267.92,3750.91 3259.5,3750.5C 3259.5,3743.5 3259.5,3736.5 3259.5,3729.5 Z"/></g>
<g><path style="opacity:0.922" fill="#000000" d="M 3311.5,3716.5 C 3316.83,3716.5 3322.17,3716.5 3327.5,3716.5C 3327.5,3740.83 3327.5,3765.17 3327.5,3789.5C 3322.17,3789.5 3316.83,3789.5 3311.5,3789.5C 3311.5,3765.17 3311.5,3740.83 3311.5,3716.5 Z"/></g>
<g><path style="opacity:0.911" fill="#000000" d="M 3334.5,3716.5 C 3340.76,3716.19 3346.92,3716.52 3353,3717.5C 3362.75,3734 3372.75,3750.33 3383,3766.5C 3383.5,3749.84 3383.67,3733.17 3383.5,3716.5C 3388.5,3716.5 3393.5,3716.5 3398.5,3716.5C 3398.5,3740.83 3398.5,3765.17 3398.5,3789.5C 3392.13,3789.83 3385.8,3789.5 3379.5,3788.5C 3369.86,3772.37 3360.03,3756.37 3350,3740.5C 3349.5,3756.83 3349.33,3773.16 3349.5,3789.5C 3344.5,3789.5 3339.5,3789.5 3334.5,3789.5C 3334.5,3765.17 3334.5,3740.83 3334.5,3716.5 Z"/></g>
<g><path style="opacity:0.907" fill="#000000" d="M 3647.5,3716.5 C 3655.42,3716.18 3663.25,3716.52 3671,3717.5C 3675.8,3733.56 3680.8,3749.56 3686,3765.5C 3690.8,3749.44 3695.8,3733.44 3701,3717.5C 3708.75,3716.52 3716.58,3716.18 3724.5,3716.5C 3724.5,3740.83 3724.5,3765.17 3724.5,3789.5C 3719.17,3789.5 3713.83,3789.5 3708.5,3789.5C 3708.67,3773.16 3708.5,3756.83 3708,3740.5C 3702.32,3756.7 3697.16,3773.03 3692.5,3789.5C 3687.9,3789.8 3683.4,3789.47 3679,3788.5C 3673.87,3772.1 3668.53,3755.77 3663,3739.5C 3662.5,3756.16 3662.33,3772.83 3662.5,3789.5C 3657.5,3789.5 3652.5,3789.5 3647.5,3789.5C 3647.5,3765.17 3647.5,3740.83 3647.5,3716.5 Z"/></g>
<g><path style="opacity:0.919" fill="#000000" d="M 3730.5,3716.5 C 3738.5,3716.5 3746.5,3716.5 3754.5,3716.5C 3759.02,3732.9 3763.86,3749.24 3769,3765.5C 3774.2,3749.57 3779.2,3733.57 3784,3717.5C 3791.75,3716.52 3799.58,3716.18 3807.5,3716.5C 3807.5,3740.83 3807.5,3765.17 3807.5,3789.5C 3802.5,3789.5 3797.5,3789.5 3792.5,3789.5C 3792.67,3772.5 3792.5,3755.5 3792,3738.5C 3786.19,3755.43 3780.69,3772.43 3775.5,3789.5C 3771.12,3789.83 3766.78,3789.49 3762.5,3788.5C 3756.7,3771.93 3751.2,3755.27 3746,3738.5C 3745.5,3755.5 3745.33,3772.5 3745.5,3789.5C 3740.5,3789.5 3735.5,3789.5 3730.5,3789.5C 3730.5,3765.17 3730.5,3740.83 3730.5,3716.5 Z"/></g>
<g><path style="opacity:0.922" fill="#000000" d="M 3814.5,3716.5 C 3819.83,3716.5 3825.17,3716.5 3830.5,3716.5C 3830.5,3740.83 3830.5,3765.17 3830.5,3789.5C 3825.17,3789.5 3819.83,3789.5 3814.5,3789.5C 3814.5,3765.17 3814.5,3740.83 3814.5,3716.5 Z"/></g>
<g><path style="opacity:0.918" fill="#000000" d="M 3835.5,3716.5 C 3856.17,3716.5 3876.83,3716.5 3897.5,3716.5C 3897.5,3721.17 3897.5,3725.83 3897.5,3730.5C 3889.83,3730.5 3882.17,3730.5 3874.5,3730.5C 3874.5,3750.17 3874.5,3769.83 3874.5,3789.5C 3869.17,3789.5 3863.83,3789.5 3858.5,3789.5C 3858.5,3769.83 3858.5,3750.17 3858.5,3730.5C 3850.83,3730.5 3843.17,3730.5 3835.5,3730.5C 3835.5,3725.83 3835.5,3721.17 3835.5,3716.5 Z"/></g>
<g><path style="opacity:0.92" fill="#000000" d="M 3902.5,3716.5 C 3910.17,3716.5 3917.83,3716.5 3925.5,3716.5C 3930.23,3732.51 3935.06,3748.51 3940,3764.5C 3945.65,3749.04 3950.82,3733.37 3955.5,3717.5C 3963.14,3716.5 3970.8,3716.17 3978.5,3716.5C 3978.5,3740.83 3978.5,3765.17 3978.5,3789.5C 3973.5,3789.5 3968.5,3789.5 3963.5,3789.5C 3963.67,3772.83 3963.5,3756.16 3963,3739.5C 3957.6,3755.87 3952.1,3772.2 3946.5,3788.5C 3942.22,3789.49 3937.88,3789.83 3933.5,3789.5C 3928.64,3773.43 3923.48,3757.43 3918,3741.5C 3917.5,3757.5 3917.33,3773.5 3917.5,3789.5C 3912.5,3789.5 3907.5,3789.5 3902.5,3789.5C 3902.5,3765.17 3902.5,3740.83 3902.5,3716.5 Z"/></g>
<g><path style="opacity:0.925" fill="#000000" d="M 3985.5,3716.5 C 4003.17,3716.33 4020.84,3716.5 4038.5,3717C 4039.46,3721.07 4039.8,3725.23 4039.5,3729.5C 4026.83,3729.5 4014.17,3729.5 4001.5,3729.5C 4001.5,3735.17 4001.5,3740.83 4001.5,3746.5C 4013.5,3746.5 4025.5,3746.5 4037.5,3746.5C 4037.5,3750.5 4037.5,3754.5 4037.5,3758.5C 4025.5,3758.5 4013.5,3758.5 4001.5,3758.5C 4001.5,3764.5 4001.5,3770.5 4001.5,3776.5C 4014.17,3776.5 4026.83,3776.5 4039.5,3776.5C 4039.5,3780.83 4039.5,3785.17 4039.5,3789.5C 4021.5,3789.5 4003.5,3789.5 3985.5,3789.5C 3985.5,3765.17 3985.5,3740.83 3985.5,3716.5 Z"/></g>
<g><path style="opacity:0.911" fill="#000000" d="M 4044.5,3716.5 C 4050.51,3716.33 4056.51,3716.5 4062.5,3717C 4073.04,3733.25 4083.21,3749.75 4093,3766.5C 4093.5,3749.84 4093.67,3733.17 4093.5,3716.5C 4098.5,3716.5 4103.5,3716.5 4108.5,3716.5C 4108.5,3740.83 4108.5,3765.17 4108.5,3789.5C 4102.49,3789.67 4096.49,3789.5 4090.5,3789C 4079.96,3772.75 4069.79,3756.25 4060,3739.5C 4059.5,3756.16 4059.33,3772.83 4059.5,3789.5C 4054.5,3789.5 4049.5,3789.5 4044.5,3789.5C 4044.5,3765.17 4044.5,3740.83 4044.5,3716.5 Z"/></g>
<g><path style="opacity:0.888" fill="#000000" d="M 4112.5,3716.5 C 4133.5,3716.5 4154.5,3716.5 4175.5,3716.5C 4175.5,3721.17 4175.5,3725.83 4175.5,3730.5C 4167.83,3730.5 4160.17,3730.5 4152.5,3730.5C 4152.5,3750.17 4152.5,3769.83 4152.5,3789.5C 4146.83,3789.5 4141.17,3789.5 4135.5,3789.5C 4135.5,3769.83 4135.5,3750.17 4135.5,3730.5C 4127.83,3730.5 4120.17,3730.5 4112.5,3730.5C 4112.5,3725.83 4112.5,3721.17 4112.5,3716.5 Z"/></g>
<g><path style="opacity:0.913" fill="#000000" d="M 4196.5,3716.5 C 4217.5,3716.5 4238.5,3716.5 4259.5,3716.5C 4259.5,3721.17 4259.5,3725.83 4259.5,3730.5C 4251.5,3730.5 4243.5,3730.5 4235.5,3730.5C 4235.5,3750.17 4235.5,3769.83 4235.5,3789.5C 4230.17,3789.5 4224.83,3789.5 4219.5,3789.5C 4219.5,3769.83 4219.5,3750.17 4219.5,3730.5C 4211.83,3730.5 4204.17,3730.5 4196.5,3730.5C 4196.5,3725.83 4196.5,3721.17 4196.5,3716.5 Z"/></g>
<g><path style="opacity:0.914" fill="#000000" d="M 4433.5,3716.5 C 4438.83,3716.5 4444.17,3716.5 4449.5,3716.5C 4449.33,3733.5 4449.5,3750.5 4450,3767.5C 4452.08,3774.74 4456.91,3778.4 4464.5,3778.5C 4472.09,3778.4 4476.92,3774.74 4479,3767.5C 4479.5,3750.5 4479.67,3733.5 4479.5,3716.5C 4484.83,3716.5 4490.17,3716.5 4495.5,3716.5C 4495.95,3735.89 4495.45,3755.22 4494,3774.5C 4487.94,3786.46 4478.1,3792.12 4464.5,3791.5C 4450.9,3792.12 4441.06,3786.46 4435,3774.5C 4433.55,3755.22 4433.05,3735.89 4433.5,3716.5 Z"/></g>
<g><path style="opacity:0.92" fill="#000000" d="M 4521.5,3716.5 C 4528.75,3716.19 4535.92,3716.52 4543,3717.5C 4551.74,3741.21 4560.57,3764.87 4569.5,3788.5C 4563.86,3789.66 4558.2,3789.83 4552.5,3789C 4550.21,3783.97 4548.21,3778.8 4546.5,3773.5C 4536.86,3772.5 4527.19,3772.17 4517.5,3772.5C 4516.03,3778.24 4514.37,3783.9 4512.5,3789.5C 4506.49,3789.67 4500.49,3789.5 4494.5,3789C 4503.93,3764.98 4512.93,3740.81 4521.5,3716.5 Z M 4531.5,3731.5 C 4535.6,3740.8 4538.94,3750.47 4541.5,3760.5C 4535.17,3760.5 4528.83,3760.5 4522.5,3760.5C 4525.7,3750.9 4528.7,3741.24 4531.5,3731.5 Z"/></g>
<g><path style="opacity:0.936" fill="#000000" d="M 4572.5,3716.5 C 4577.83,3716.5 4583.17,3716.5 4588.5,3716.5C 4588.5,3736.5 4588.5,3756.5 4588.5,3776.5C 4601.17,3776.5 4613.83,3776.5 4626.5,3776.5C 4626.5,3780.83 4626.5,3785.17 4626.5,3789.5C 4608.5,3789.5 4590.5,3789.5 4572.5,3789.5C 4572.5,3765.17 4572.5,3740.83 4572.5,3716.5 Z"/></g>
<g><path style="opacity:0.922" fill="#000000" d="M 4631.5,3716.5 C 4636.83,3716.5 4642.17,3716.5 4647.5,3716.5C 4647.5,3740.83 4647.5,3765.17 4647.5,3789.5C 4642.17,3789.5 4636.83,3789.5 4631.5,3789.5C 4631.5,3765.17 4631.5,3740.83 4631.5,3716.5 Z"/></g>
<g><path style="opacity:0.911" fill="#000000" d="M 4651.5,3716.5 C 4672.5,3716.5 4693.5,3716.5 4714.5,3716.5C 4714.5,3721.17 4714.5,3725.83 4714.5,3730.5C 4706.83,3730.5 4699.17,3730.5 4691.5,3730.5C 4691.5,3750.17 4691.5,3769.83 4691.5,3789.5C 4686.17,3789.5 4680.83,3789.5 4675.5,3789.5C 4675.5,3769.83 4675.5,3750.17 4675.5,3730.5C 4667.5,3730.5 4659.5,3730.5 4651.5,3730.5C 4651.5,3725.83 4651.5,3721.17 4651.5,3716.5 Z"/></g>
<g><path style="opacity:0.901" fill="#000000" d="M 4715.5,3716.5 C 4721.18,3716.33 4726.84,3716.5 4732.5,3717C 4738.29,3726.75 4743.96,3736.59 4749.5,3746.5C 4755.55,3736.91 4761.21,3727.08 4766.5,3717C 4772.2,3716.17 4777.86,3716.34 4783.5,3717.5C 4775.2,3732.3 4766.7,3746.96 4758,3761.5C 4757.5,3770.83 4757.33,3780.16 4757.5,3789.5C 4752.17,3789.5 4746.83,3789.5 4741.5,3789.5C 4741.67,3780.16 4741.5,3770.83 4741,3761.5C 4731.97,3746.77 4723.47,3731.77 4715.5,3716.5 Z"/></g>
<g><path style="opacity:0.912" fill="#000000" d="M 4819.5,3716.5 C 4824.87,3716.17 4830.21,3716.51 4835.5,3717.5C 4839.02,3734.3 4842.86,3750.97 4847,3767.5C 4850.44,3750.81 4853.94,3734.14 4857.5,3717.5C 4863.46,3716.5 4869.46,3716.17 4875.5,3716.5C 4878.84,3734.18 4882.34,3751.85 4886,3769.5C 4889.67,3752.17 4893.33,3734.83 4897,3717.5C 4902.41,3716.53 4907.91,3716.19 4913.5,3716.5C 4908.15,3740.57 4902.48,3764.57 4896.5,3788.5C 4889.87,3789.5 4883.2,3789.83 4876.5,3789.5C 4873.81,3773.37 4870.47,3757.37 4866.5,3741.5C 4862.53,3757.36 4859.19,3773.36 4856.5,3789.5C 4849.8,3789.83 4843.13,3789.5 4836.5,3788.5C 4830.2,3764.64 4824.53,3740.64 4819.5,3716.5 Z"/></g>
<g><path style="opacity:0.915" fill="#000000" d="M 4916.5,3716.5 C 4934.5,3716.5 4952.5,3716.5 4970.5,3716.5C 4970.5,3720.83 4970.5,3725.17 4970.5,3729.5C 4958.17,3729.5 4945.83,3729.5 4933.5,3729.5C 4933.5,3735.17 4933.5,3740.83 4933.5,3746.5C 4945.17,3746.5 4956.83,3746.5 4968.5,3746.5C 4968.5,3750.5 4968.5,3754.5 4968.5,3758.5C 4956.83,3758.5 4945.17,3758.5 4933.5,3758.5C 4933.5,3764.5 4933.5,3770.5 4933.5,3776.5C 4945.83,3776.5 4958.17,3776.5 4970.5,3776.5C 4970.5,3780.83 4970.5,3785.17 4970.5,3789.5C 4952.5,3789.5 4934.5,3789.5 4916.5,3789.5C 4916.5,3765.17 4916.5,3740.83 4916.5,3716.5 Z"/></g>
<g><path style="opacity:0.922" fill="#000000" d="M 5068.5,3716.5 C 5083.54,3716.12 5098.54,3716.62 5113.5,3718C 5127.34,3722.51 5132.84,3732.01 5130,3746.5C 5128.27,3754.56 5123.44,3759.73 5115.5,3762C 5120.88,3770.59 5126.38,3779.09 5132,3787.5C 5140.67,3764.17 5149.33,3740.83 5158,3717.5C 5165.08,3716.52 5172.25,3716.19 5179.5,3716.5C 5187.81,3740.92 5196.81,3765.09 5206.5,3789C 5200.47,3789.83 5194.47,3789.66 5188.5,3788.5C 5186.79,3783.2 5184.79,3778.03 5182.5,3773C 5173.17,3772.33 5163.83,3772.33 5154.5,3773C 5152.5,3778.33 5150.5,3783.67 5148.5,3789C 5136.83,3789.67 5125.17,3789.67 5113.5,3789C 5108.5,3780.67 5103.5,3772.33 5098.5,3764C 5093.85,3763.5 5089.18,3763.33 5084.5,3763.5C 5084.5,3772.17 5084.5,3780.83 5084.5,3789.5C 5079.17,3789.5 5073.83,3789.5 5068.5,3789.5C 5068.5,3765.17 5068.5,3740.83 5068.5,3716.5 Z M 5084.5,3729.5 C 5092.23,3729.19 5099.89,3729.69 5107.5,3731C 5115.97,3736.04 5116.64,3742.04 5109.5,3749C 5101.25,3750.41 5092.92,3750.91 5084.5,3750.5C 5084.5,3743.5 5084.5,3736.5 5084.5,3729.5 Z M 5168.5,3732.5 C 5171.8,3741.4 5175.14,3750.4 5178.5,3759.5C 5171.86,3760.66 5165.19,3760.83 5158.5,3760C 5161.74,3750.78 5165.07,3741.62 5168.5,3732.5 Z"/></g>
<g><path style="opacity:0.919" fill="#000000" d="M 5209.5,3716.5 C 5227.17,3716.5 5244.83,3716.5 5262.5,3716.5C 5262.5,3720.83 5262.5,3725.17 5262.5,3729.5C 5250.17,3729.5 5237.83,3729.5 5225.5,3729.5C 5225.5,3735.5 5225.5,3741.5 5225.5,3747.5C 5237.17,3747.5 5248.83,3747.5 5260.5,3747.5C 5260.5,3751.83 5260.5,3756.17 5260.5,3760.5C 5248.83,3760.5 5237.17,3760.5 5225.5,3760.5C 5225.5,3770.17 5225.5,3779.83 5225.5,3789.5C 5220.17,3789.5 5214.83,3789.5 5209.5,3789.5C 5209.5,3765.17 5209.5,3740.83 5209.5,3716.5 Z"/></g>
<g><path style="opacity:0.888" fill="#000000" d="M 5265.5,3716.5 C 5286.5,3716.5 5307.5,3716.5 5328.5,3716.5C 5328.5,3721.17 5328.5,3725.83 5328.5,3730.5C 5320.83,3730.5 5313.17,3730.5 5305.5,3730.5C 5305.5,3750.17 5305.5,3769.83 5305.5,3789.5C 5299.83,3789.5 5294.17,3789.5 5288.5,3789.5C 5288.5,3769.83 5288.5,3750.17 5288.5,3730.5C 5280.83,3730.5 5273.17,3730.5 5265.5,3730.5C 5265.5,3725.83 5265.5,3721.17 5265.5,3716.5 Z"/></g>
<g><path style="opacity:0.904" fill="#000000" d="M 5351.5,3716.5 C 5366.21,3716.13 5380.87,3716.63 5395.5,3718C 5406.83,3721.15 5412.5,3728.65 5412.5,3740.5C 5412.13,3753.7 5405.46,3761.54 5392.5,3764C 5384.51,3764.5 5376.51,3764.67 5368.5,3764.5C 5368.5,3772.83 5368.5,3781.17 5368.5,3789.5C 5362.83,3789.5 5357.17,3789.5 5351.5,3789.5C 5351.5,3765.17 5351.5,3740.83 5351.5,3716.5 Z M 5368.5,3729.5 C 5375.56,3729.21 5382.56,3729.71 5389.5,3731C 5393.8,3732.94 5395.8,3736.27 5395.5,3741C 5395.9,3745.2 5394.24,3748.2 5390.5,3750C 5383.25,3751.39 5375.92,3751.89 5368.5,3751.5C 5368.5,3744.17 5368.5,3736.83 5368.5,3729.5 Z"/></g>
<g><path style="opacity:0.923" fill="#000000" d="M 5417.5,3716.5 C 5432.87,3716.14 5448.2,3716.64 5463.5,3718C 5478.54,3724.07 5483.37,3734.9 5478,3750.5C 5475.34,3756.49 5470.84,3760.33 5464.5,3762C 5470.17,3771 5475.83,3780 5481.5,3789C 5475.17,3789.67 5468.83,3789.67 5462.5,3789C 5457.5,3780.67 5452.5,3772.33 5447.5,3764C 5442.85,3763.5 5438.18,3763.33 5433.5,3763.5C 5433.5,3772.17 5433.5,3780.83 5433.5,3789.5C 5428.17,3789.5 5422.83,3789.5 5417.5,3789.5C 5417.5,3765.17 5417.5,3740.83 5417.5,3716.5 Z M 5433.5,3729.5 C 5441.55,3729.23 5449.55,3729.73 5457.5,3731C 5464.02,3735.24 5465.18,3740.74 5461,3747.5C 5459.58,3748.46 5458.08,3749.29 5456.5,3750C 5448.84,3750.5 5441.17,3750.67 5433.5,3750.5C 5433.5,3743.5 5433.5,3736.5 5433.5,3729.5 Z"/></g>
<g><path style="opacity:0.919" fill="#000000" d="M 5561.5,3716.5 C 5574.87,3716.19 5588.2,3716.69 5601.5,3718C 5612.96,3720.12 5620.79,3726.62 5625,3737.5C 5629.43,3751.98 5627.77,3765.65 5620,3778.5C 5615.11,3784.2 5608.94,3787.7 5601.5,3789C 5588.17,3789.5 5574.84,3789.67 5561.5,3789.5C 5561.5,3765.17 5561.5,3740.83 5561.5,3716.5 Z M 5577.5,3729.5 C 5605.96,3727.41 5616.13,3740.08 5608,3767.5C 5605.19,3771.66 5601.36,3774.49 5596.5,3776C 5590.18,3776.5 5583.84,3776.67 5577.5,3776.5C 5577.5,3760.83 5577.5,3745.17 5577.5,3729.5 Z"/></g>
<g><path style="opacity:0.915" fill="#000000" d="M 5632.5,3716.5 C 5637.83,3716.5 5643.17,3716.5 5648.5,3716.5C 5648.07,3734.21 5648.57,3751.88 5650,3769.5C 5652.79,3775.24 5657.45,3778.24 5664,3778.5C 5670.55,3778.24 5675.21,3775.24 5678,3769.5C 5679.43,3751.88 5679.93,3734.21 5679.5,3716.5C 5684.83,3716.5 5690.17,3716.5 5695.5,3716.5C 5695.67,3733.5 5695.5,3750.5 5695,3767.5C 5691.42,3784.06 5681.09,3792.06 5664,3791.5C 5647.45,3792.07 5637.12,3784.4 5633,3768.5C 5632.5,3751.17 5632.33,3733.84 5632.5,3716.5 Z"/></g>
<g><path style="opacity:0.918" fill="#000000" d="M 5770.5,3716.5 C 5791.17,3716.5 5811.83,3716.5 5832.5,3716.5C 5832.5,3721.17 5832.5,3725.83 5832.5,3730.5C 5824.83,3730.5 5817.17,3730.5 5809.5,3730.5C 5809.5,3750.17 5809.5,3769.83 5809.5,3789.5C 5804.17,3789.5 5798.83,3789.5 5793.5,3789.5C 5793.5,3769.83 5793.5,3750.17 5793.5,3730.5C 5785.83,3730.5 5778.17,3730.5 5770.5,3730.5C 5770.5,3725.83 5770.5,3721.17 5770.5,3716.5 Z"/></g>
<g><path style="opacity:0.913" fill="#000000" d="M 5919.5,3716.5 C 5940.5,3716.5 5961.5,3716.5 5982.5,3716.5C 5982.5,3721.17 5982.5,3725.83 5982.5,3730.5C 5974.5,3730.5 5966.5,3730.5 5958.5,3730.5C 5958.5,3750.17 5958.5,3769.83 5958.5,3789.5C 5953.17,3789.5 5947.83,3789.5 5942.5,3789.5C 5942.5,3769.83 5942.5,3750.17 5942.5,3730.5C 5934.83,3730.5 5927.17,3730.5 5919.5,3730.5C 5919.5,3725.83 5919.5,3721.17 5919.5,3716.5 Z"/></g>
<g><path style="opacity:0.928" fill="#000000" d="M 5986.5,3716.5 C 5991.83,3716.5 5997.17,3716.5 6002.5,3716.5C 6002.5,3726.5 6002.5,3736.5 6002.5,3746.5C 6012.83,3746.5 6023.17,3746.5 6033.5,3746.5C 6033.5,3736.5 6033.5,3726.5 6033.5,3716.5C 6038.83,3716.5 6044.17,3716.5 6049.5,3716.5C 6049.5,3740.83 6049.5,3765.17 6049.5,3789.5C 6044.17,3789.5 6038.83,3789.5 6033.5,3789.5C 6033.5,3779.5 6033.5,3769.5 6033.5,3759.5C 6023.17,3759.5 6012.83,3759.5 6002.5,3759.5C 6002.5,3769.5 6002.5,3779.5 6002.5,3789.5C 5997.17,3789.5 5991.83,3789.5 5986.5,3789.5C 5986.5,3765.17 5986.5,3740.83 5986.5,3716.5 Z"/></g>
<g><path style="opacity:0.92" fill="#000000" d="M 6079.5,3716.5 C 6086.75,3716.19 6093.92,3716.52 6101,3717.5C 6109.74,3741.21 6118.57,3764.87 6127.5,3788.5C 6121.86,3789.66 6116.2,3789.83 6110.5,3789C 6108.21,3783.97 6106.21,3778.8 6104.5,3773.5C 6094.86,3772.5 6085.19,3772.17 6075.5,3772.5C 6074.03,3778.24 6072.37,3783.9 6070.5,3789.5C 6064.49,3789.67 6058.49,3789.5 6052.5,3789C 6061.93,3764.98 6070.93,3740.81 6079.5,3716.5 Z M 6089.5,3731.5 C 6093.6,3740.8 6096.94,3750.47 6099.5,3760.5C 6093.17,3760.5 6086.83,3760.5 6080.5,3760.5C 6083.7,3750.9 6086.7,3741.24 6089.5,3731.5 Z"/></g>
<g><path style="opacity:0.888" fill="#000000" d="M 6117.5,3716.5 C 6138.5,3716.5 6159.5,3716.5 6180.5,3716.5C 6180.5,3721.17 6180.5,3725.83 6180.5,3730.5C 6172.83,3730.5 6165.17,3730.5 6157.5,3730.5C 6157.5,3750.17 6157.5,3769.83 6157.5,3789.5C 6151.83,3789.5 6146.17,3789.5 6140.5,3789.5C 6140.5,3769.83 6140.5,3750.17 6140.5,3730.5C 6132.83,3730.5 6125.17,3730.5 6117.5,3730.5C 6117.5,3725.83 6117.5,3721.17 6117.5,3716.5 Z"/></g>
<g><path style="opacity:0.908" fill="#000000" d="M 6202.5,3716.5 C 6217.87,3716.12 6233.21,3716.62 6248.5,3718C 6264.06,3724.3 6268.89,3735.47 6263,3751.5C 6259.92,3756.41 6255.76,3760.08 6250.5,3762.5C 6255.83,3771.17 6261.17,3779.83 6266.5,3788.5C 6260.17,3789.83 6253.83,3789.83 6247.5,3788.5C 6242.88,3780.08 6237.88,3771.92 6232.5,3764C 6228.18,3763.5 6223.85,3763.33 6219.5,3763.5C 6219.5,3772.17 6219.5,3780.83 6219.5,3789.5C 6213.83,3789.5 6208.17,3789.5 6202.5,3789.5C 6202.5,3765.17 6202.5,3740.83 6202.5,3716.5 Z M 6219.5,3729.5 C 6227.23,3729.19 6234.89,3729.69 6242.5,3731C 6248.67,3734.66 6250.17,3739.82 6247,3746.5C 6245.42,3748.04 6243.59,3749.21 6241.5,3750C 6234.17,3750.5 6226.84,3750.67 6219.5,3750.5C 6219.5,3743.5 6219.5,3736.5 6219.5,3729.5 Z"/></g>
<g><path style="opacity:0.925" fill="#000000" d="M 6270.5,3716.5 C 6288.5,3716.5 6306.5,3716.5 6324.5,3716.5C 6324.5,3720.83 6324.5,3725.17 6324.5,3729.5C 6311.83,3729.5 6299.17,3729.5 6286.5,3729.5C 6286.5,3735.17 6286.5,3740.83 6286.5,3746.5C 6298.5,3746.5 6310.5,3746.5 6322.5,3746.5C 6322.5,3750.5 6322.5,3754.5 6322.5,3758.5C 6310.5,3758.5 6298.5,3758.5 6286.5,3758.5C 6286.5,3764.5 6286.5,3770.5 6286.5,3776.5C 6299.17,3776.5 6311.83,3776.5 6324.5,3776.5C 6324.5,3780.83 6324.5,3785.17 6324.5,3789.5C 6306.5,3789.5 6288.5,3789.5 6270.5,3789.5C 6270.5,3765.17 6270.5,3740.83 6270.5,3716.5 Z"/></g>
<g><path style="opacity:0.908" fill="#000000" d="M 6329.5,3716.5 C 6347.5,3716.5 6365.5,3716.5 6383.5,3716.5C 6383.5,3720.83 6383.5,3725.17 6383.5,3729.5C 6370.83,3729.5 6358.17,3729.5 6345.5,3729.5C 6345.5,3735.5 6345.5,3741.5 6345.5,3747.5C 6357.5,3747.5 6369.5,3747.5 6381.5,3747.5C 6381.5,3751.83 6381.5,3756.17 6381.5,3760.5C 6369.5,3760.5 6357.5,3760.5 6345.5,3760.5C 6345.5,3770.17 6345.5,3779.83 6345.5,3789.5C 6340.17,3789.5 6334.83,3789.5 6329.5,3789.5C 6329.5,3765.17 6329.5,3740.83 6329.5,3716.5 Z"/></g>
<g><path style="opacity:0.936" fill="#000000" d="M 6388.5,3716.5 C 6393.83,3716.5 6399.17,3716.5 6404.5,3716.5C 6404.5,3736.5 6404.5,3756.5 6404.5,3776.5C 6417.17,3776.5 6429.83,3776.5 6442.5,3776.5C 6442.5,3780.83 6442.5,3785.17 6442.5,3789.5C 6424.5,3789.5 6406.5,3789.5 6388.5,3789.5C 6388.5,3765.17 6388.5,3740.83 6388.5,3716.5 Z"/></g>
<g><path style="opacity:0.925" fill="#000000" d="M 6446.5,3716.5 C 6464.5,3716.5 6482.5,3716.5 6500.5,3716.5C 6500.5,3720.83 6500.5,3725.17 6500.5,3729.5C 6487.83,3729.5 6475.17,3729.5 6462.5,3729.5C 6462.5,3735.17 6462.5,3740.83 6462.5,3746.5C 6474.5,3746.5 6486.5,3746.5 6498.5,3746.5C 6498.5,3750.5 6498.5,3754.5 6498.5,3758.5C 6486.5,3758.5 6474.5,3758.5 6462.5,3758.5C 6462.5,3764.5 6462.5,3770.5 6462.5,3776.5C 6475.17,3776.5 6487.83,3776.5 6500.5,3776.5C 6500.5,3780.83 6500.5,3785.17 6500.5,3789.5C 6482.5,3789.5 6464.5,3789.5 6446.5,3789.5C 6446.5,3765.17 6446.5,3740.83 6446.5,3716.5 Z"/></g>
<g><path style="opacity:0.913" fill="#000000" d="M 6573.5,3716.5 C 6594.5,3716.5 6615.5,3716.5 6636.5,3716.5C 6636.5,3721.17 6636.5,3725.83 6636.5,3730.5C 6628.5,3730.5 6620.5,3730.5 6612.5,3730.5C 6612.5,3750.17 6612.5,3769.83 6612.5,3789.5C 6607.17,3789.5 6601.83,3789.5 6596.5,3789.5C 6596.5,3769.83 6596.5,3750.17 6596.5,3730.5C 6588.83,3730.5 6581.17,3730.5 6573.5,3730.5C 6573.5,3725.83 6573.5,3721.17 6573.5,3716.5 Z"/></g>
<g><path style="opacity:0.903" fill="#000000" d="M 6656.5,3716.5 C 6662.18,3716.33 6667.84,3716.5 6673.5,3717C 6679.13,3727.09 6684.63,3737.25 6690,3747.5C 6695.75,3737.66 6701.25,3727.66 6706.5,3717.5C 6712.5,3716.17 6718.5,3716.17 6724.5,3717.5C 6716,3731.83 6707.5,3746.17 6699,3760.5C 6698.5,3770.16 6698.33,3779.83 6698.5,3789.5C 6693.17,3789.5 6687.83,3789.5 6682.5,3789.5C 6682.67,3780.49 6682.5,3771.49 6682,3762.5C 6674.25,3748.67 6666.25,3735 6658,3721.5C 6656.99,3719.98 6656.49,3718.31 6656.5,3716.5 Z"/></g>
<g><path style="opacity:0.901" fill="#000000" d="M 6795.5,3716.5 C 6800.83,3716.5 6806.17,3716.5 6811.5,3716.5C 6811.33,3733.17 6811.5,3749.84 6812,3766.5C 6813.63,3774.29 6818.46,3778.29 6826.5,3778.5C 6833.71,3778.43 6838.54,3775.1 6841,3768.5C 6841.5,3751.17 6841.67,3733.84 6841.5,3716.5C 6847.09,3716.19 6852.59,3716.53 6858,3717.5C 6858.88,3735.53 6858.55,3753.53 6857,3771.5C 6851.95,3785.37 6841.95,3792.04 6827,3791.5C 6810.73,3792.2 6800.4,3784.87 6796,3769.5C 6795.5,3751.84 6795.33,3734.17 6795.5,3716.5 Z"/></g>
<g><path style="opacity:0.908" fill="#000000" d="M 6864.5,3716.5 C 6879.87,3716.12 6895.21,3716.62 6910.5,3718C 6926.06,3724.3 6930.89,3735.47 6925,3751.5C 6921.92,3756.41 6917.76,3760.08 6912.5,3762.5C 6917.83,3771.17 6923.17,3779.83 6928.5,3788.5C 6922.17,3789.83 6915.83,3789.83 6909.5,3788.5C 6904.88,3780.08 6899.88,3771.92 6894.5,3764C 6890.18,3763.5 6885.85,3763.33 6881.5,3763.5C 6881.5,3772.17 6881.5,3780.83 6881.5,3789.5C 6875.83,3789.5 6870.17,3789.5 6864.5,3789.5C 6864.5,3765.17 6864.5,3740.83 6864.5,3716.5 Z M 6881.5,3729.5 C 6889.23,3729.19 6896.89,3729.69 6904.5,3731C 6910.67,3734.66 6912.17,3739.82 6909,3746.5C 6907.42,3748.04 6905.59,3749.21 6903.5,3750C 6896.17,3750.5 6888.84,3750.67 6881.5,3750.5C 6881.5,3743.5 6881.5,3736.5 6881.5,3729.5 Z"/></g>
<g><path style="opacity:0.93" fill="#000000" d="M 6952.5,3716.5 C 6957.83,3716.5 6963.17,3716.5 6968.5,3716.5C 6968.5,3740.83 6968.5,3765.17 6968.5,3789.5C 6963.17,3789.5 6957.83,3789.5 6952.5,3789.5C 6952.5,3765.17 6952.5,3740.83 6952.5,3716.5 Z"/></g>
<g><path style="opacity:0.92" fill="#000000" d="M 6975.5,3716.5 C 6981.54,3716.17 6987.54,3716.5 6993.5,3717.5C 7003.58,3733.33 7013.42,3749.33 7023,3765.5C 7023.33,3749.5 7023.67,3733.5 7024,3717.5C 7028.74,3716.53 7033.57,3716.2 7038.5,3716.5C 7038.5,3740.83 7038.5,3765.17 7038.5,3789.5C 7032.24,3789.81 7026.08,3789.48 7020,3788.5C 7010.33,3772.5 7000.67,3756.5 6991,3740.5C 6990.5,3756.83 6990.33,3773.16 6990.5,3789.5C 6985.5,3789.5 6980.5,3789.5 6975.5,3789.5C 6975.5,3765.17 6975.5,3740.83 6975.5,3716.5 Z"/></g>
<g><path style="opacity:0.913" fill="#000000" d="M 7045.5,3716.5 C 7051.87,3716.17 7058.2,3716.5 7064.5,3717.5C 7074.14,3733.63 7083.97,3749.63 7094,3765.5C 7094.5,3749.17 7094.67,3732.84 7094.5,3716.5C 7099.5,3716.5 7104.5,3716.5 7109.5,3716.5C 7109.5,3740.83 7109.5,3765.17 7109.5,3789.5C 7103.24,3789.81 7097.08,3789.48 7091,3788.5C 7081.25,3772 7071.25,3755.67 7061,3739.5C 7060.5,3756.16 7060.33,3772.83 7060.5,3789.5C 7055.5,3789.5 7050.5,3789.5 7045.5,3789.5C 7045.5,3765.17 7045.5,3740.83 7045.5,3716.5 Z"/></g>
<g><path style="opacity:0.925" fill="#000000" d="M 7116.5,3716.5 C 7134.17,3716.33 7151.84,3716.5 7169.5,3717C 7170.46,3721.07 7170.8,3725.23 7170.5,3729.5C 7157.83,3729.5 7145.17,3729.5 7132.5,3729.5C 7132.5,3735.17 7132.5,3740.83 7132.5,3746.5C 7144.5,3746.5 7156.5,3746.5 7168.5,3746.5C 7168.5,3750.5 7168.5,3754.5 7168.5,3758.5C 7156.5,3758.5 7144.5,3758.5 7132.5,3758.5C 7132.5,3764.5 7132.5,3770.5 7132.5,3776.5C 7145.17,3776.5 7157.83,3776.5 7170.5,3776.5C 7170.5,3780.83 7170.5,3785.17 7170.5,3789.5C 7152.5,3789.5 7134.5,3789.5 7116.5,3789.5C 7116.5,3765.17 7116.5,3740.83 7116.5,3716.5 Z"/></g>
<g><path style="opacity:0.922" fill="#000000" d="M 7175.5,3716.5 C 7190.54,3716.12 7205.54,3716.62 7220.5,3718C 7231.8,3720.97 7237.47,3728.31 7237.5,3740C 7237.7,3750.96 7232.7,3758.29 7222.5,3762C 7228.17,3771 7233.83,3780 7239.5,3789C 7233.17,3789.67 7226.83,3789.67 7220.5,3789C 7215.5,3780.67 7210.5,3772.33 7205.5,3764C 7200.85,3763.5 7196.18,3763.33 7191.5,3763.5C 7191.5,3772.17 7191.5,3780.83 7191.5,3789.5C 7186.17,3789.5 7180.83,3789.5 7175.5,3789.5C 7175.5,3765.17 7175.5,3740.83 7175.5,3716.5 Z M 7191.5,3729.5 C 7199.23,3729.19 7206.89,3729.69 7214.5,3731C 7222.97,3736.04 7223.64,3742.04 7216.5,3749C 7208.25,3750.41 7199.92,3750.91 7191.5,3750.5C 7191.5,3743.5 7191.5,3736.5 7191.5,3729.5 Z"/></g>
<g><path style="opacity:0.892" fill="#000000" d="M 7262.5,3716.5 C 7280.5,3716.5 7298.5,3716.5 7316.5,3716.5C 7316.5,3720.83 7316.5,3725.17 7316.5,3729.5C 7304.17,3729.5 7291.83,3729.5 7279.5,3729.5C 7279.5,3735.5 7279.5,3741.5 7279.5,3747.5C 7291.17,3747.5 7302.83,3747.5 7314.5,3747.5C 7314.5,3751.83 7314.5,3756.17 7314.5,3760.5C 7302.83,3760.5 7291.17,3760.5 7279.5,3760.5C 7279.5,3770.17 7279.5,3779.83 7279.5,3789.5C 7273.83,3789.5 7268.17,3789.5 7262.5,3789.5C 7262.5,3765.17 7262.5,3740.83 7262.5,3716.5 Z"/></g>
<g><path style="opacity:0.922" fill="#000000" d="M 7321.5,3716.5 C 7326.83,3716.5 7332.17,3716.5 7337.5,3716.5C 7337.5,3740.83 7337.5,3765.17 7337.5,3789.5C 7332.17,3789.5 7326.83,3789.5 7321.5,3789.5C 7321.5,3765.17 7321.5,3740.83 7321.5,3716.5 Z"/></g>
<g><path style="opacity:0.923" fill="#000000" d="M 7344.5,3716.5 C 7359.87,3716.14 7375.2,3716.64 7390.5,3718C 7405.54,3724.07 7410.37,3734.9 7405,3750.5C 7402.34,3756.49 7397.84,3760.33 7391.5,3762C 7397.17,3771 7402.83,3780 7408.5,3789C 7402.17,3789.67 7395.83,3789.67 7389.5,3789C 7384.5,3780.67 7379.5,3772.33 7374.5,3764C 7369.85,3763.5 7365.18,3763.33 7360.5,3763.5C 7360.5,3772.17 7360.5,3780.83 7360.5,3789.5C 7355.17,3789.5 7349.83,3789.5 7344.5,3789.5C 7344.5,3765.17 7344.5,3740.83 7344.5,3716.5 Z M 7360.5,3729.5 C 7368.55,3729.23 7376.55,3729.73 7384.5,3731C 7391.02,3735.24 7392.18,3740.74 7388,3747.5C 7386.58,3748.46 7385.08,3749.29 7383.5,3750C 7375.84,3750.5 7368.17,3750.67 7360.5,3750.5C 7360.5,3743.5 7360.5,3736.5 7360.5,3729.5 Z"/></g>
<g><path style="opacity:0.925" fill="#000000" d="M 7412.5,3716.5 C 7430.17,3716.33 7447.84,3716.5 7465.5,3717C 7466.46,3721.07 7466.8,3725.23 7466.5,3729.5C 7453.83,3729.5 7441.17,3729.5 7428.5,3729.5C 7428.5,3735.17 7428.5,3740.83 7428.5,3746.5C 7440.5,3746.5 7452.5,3746.5 7464.5,3746.5C 7464.5,3750.5 7464.5,3754.5 7464.5,3758.5C 7452.5,3758.5 7440.5,3758.5 7428.5,3758.5C 7428.5,3764.5 7428.5,3770.5 7428.5,3776.5C 7441.17,3776.5 7453.83,3776.5 7466.5,3776.5C 7466.5,3780.83 7466.5,3785.17 7466.5,3789.5C 7448.5,3789.5 7430.5,3789.5 7412.5,3789.5C 7412.5,3765.17 7412.5,3740.83 7412.5,3716.5 Z"/></g>
<g><path style="opacity:0.871" fill="#000000" d="M 1220.5,3773.5 C 1226.17,3773.5 1231.83,3773.5 1237.5,3773.5C 1237.86,3781.24 1237.36,3788.9 1236,3796.5C 1233.32,3802.92 1228.49,3805.92 1221.5,3805.5C 1220.73,3801.17 1222.07,3797.84 1225.5,3795.5C 1226.35,3793.59 1226.68,3791.59 1226.5,3789.5C 1224.5,3789.5 1222.5,3789.5 1220.5,3789.5C 1220.5,3784.17 1220.5,3778.83 1220.5,3773.5 Z"/></g>
<g><path style="opacity:0.874" fill="#000000" d="M 2548.5,3773.5 C 2554.17,3773.5 2559.83,3773.5 2565.5,3773.5C 2566.16,3782.45 2564.99,3791.11 2562,3799.5C 2558.73,3804.1 2554.23,3806.1 2548.5,3805.5C 2548.5,3802.83 2548.5,3800.17 2548.5,3797.5C 2552.88,3796.78 2554.88,3794.11 2554.5,3789.5C 2552.5,3789.5 2550.5,3789.5 2548.5,3789.5C 2548.5,3784.17 2548.5,3778.83 2548.5,3773.5 Z"/></g>
<g><path style="opacity:0.871" fill="#000000" d="M 4779.5,3773.5 C 4785.17,3773.5 4790.83,3773.5 4796.5,3773.5C 4796.86,3781.24 4796.36,3788.9 4795,3796.5C 4792.32,3802.92 4787.49,3805.92 4780.5,3805.5C 4779.73,3801.17 4781.07,3797.84 4784.5,3795.5C 4785.35,3793.59 4785.68,3791.59 4785.5,3789.5C 4783.5,3789.5 4781.5,3789.5 4779.5,3789.5C 4779.5,3784.17 4779.5,3778.83 4779.5,3773.5 Z"/></g>
<g><path style="opacity:0.884" fill="#000000" d="M 7471.5,3773.5 C 7477.17,3773.5 7482.83,3773.5 7488.5,3773.5C 7488.5,3778.83 7488.5,3784.17 7488.5,3789.5C 7482.83,3789.5 7477.17,3789.5 7471.5,3789.5C 7471.5,3784.17 7471.5,3778.83 7471.5,3773.5 Z"/></g>
</svg>