<svg xmlns="http://www.w3.org/2000/svg" xmlns:xlink="http://www.w3.org/1999/xlink" version="1.1" style="shape-rendering:geometricPrecision; text-rendering:geometricPrecision; image-rendering:optimizeQuality; fill-rule:evenodd; clip-rule:evenodd" viewBox="69.42 3440.44 7404.08 661.13">
<g><path style="opacity:0.994" fill="#000000" d="M 298.5,3440.5 C 464.5,3440.33 630.5,3440.5 796.5,3441C 819.237,3445.7 839.237,3455.7 856.5,3471C 880.749,3492 897.583,3517.83 907,3548.5C 911.205,3563.42 911.538,3578.42 908,3593.5C 898.559,3647.15 889.225,3700.81 880,3754.5C 877.116,3770.26 871.45,3784.93 863,3798.5C 831.73,3846.44 789.23,3880.27 735.5,3900C 729.926,3901.71 724.26,3903.05 718.5,3904C 625.833,3904.67 533.167,3904.67 440.5,3904C 410.475,3902.77 383.142,3893.77 358.5,3877C 342.027,3862.56 332.527,3844.39 330,3822.5C 328.557,3810.53 328.223,3798.53 329,3786.5C 332.148,3760.91 339.481,3736.58 351,3713.5C 375.796,3674.41 411.13,3650.75 457,3642.5C 499.865,3634.67 542.365,3636.17 584.5,3647C 622.811,3657.97 644.644,3683.14 650,3722.5C 650.667,3733.5 650.667,3744.5 650,3755.5C 647.177,3772.48 643.51,3789.14 639,3805.5C 660.22,3802.57 675.553,3791.57 685,3772.5C 691.066,3758.63 695.733,3744.3 699,3729.5C 704.966,3699.54 709.466,3669.37 712.5,3639C 712.388,3624.32 707.388,3611.65 697.5,3601C 689.615,3595.82 680.949,3592.82 671.5,3592C 571.5,3591.33 471.5,3591.33 371.5,3592C 350.974,3592.67 335.141,3601.51 324,3618.5C 315.779,3632.16 310.112,3646.83 307,3662.5C 293.557,3739.49 280.223,3816.49 267,3893.5C 264.911,3907.96 267.244,3921.63 274,3934.5C 281.061,3943.95 290.561,3949.12 302.5,3950C 472.166,3950.5 641.833,3950.67 811.5,3950.5C 802.725,4000.81 794.059,4051.15 785.5,4101.5C 583.5,4101.67 381.5,4101.5 179.5,4101C 152.751,4095.04 129.917,4082.21 111,4062.5C 94.6166,4045.08 82.2833,4025.08 74,4002.5C 69.8555,3987.42 68.5221,3972.09 70,3956.5C 92.4105,3829.78 115.077,3703.11 138,3576.5C 145.518,3555.12 156.851,3536.12 172,3519.5C 200.031,3488.41 233.198,3464.58 271.5,3448C 280.497,3445 289.497,3442.5 298.5,3440.5 Z M 483.5,3734.5 C 496.482,3733.55 509.149,3735.05 521.5,3739C 527.34,3742.67 530.34,3748.01 530.5,3755C 529.686,3765.03 527.853,3774.87 525,3784.5C 522.041,3794.46 515.541,3800.63 505.5,3803C 489.83,3806.31 474.163,3806.31 458.5,3803C 451.178,3799.5 447.845,3793.66 448.5,3785.5C 449.376,3774.25 451.542,3763.25 455,3752.5C 456.979,3748.04 459.813,3744.21 463.5,3741C 469.979,3737.89 476.645,3735.72 483.5,3734.5 Z"/></g>
<g><path style="opacity:0.994" fill="#000000" d="M 2738.5,3505.5 C 2778.66,3504.14 2818.66,3505.98 2858.5,3511C 2896.41,3515.86 2932.08,3527.53 2965.5,3546C 3023.2,3583.73 3050.87,3637.39 3048.5,3707C 3047.64,3763.28 3035.8,3817.11 3013,3868.5C 2974.23,3945.92 2913.07,3996.42 2829.5,4020C 2753.76,4039.28 2677.09,4043.95 2599.5,4034C 2560.5,4029.42 2523.83,4017.75 2489.5,3999C 2435.93,3964.4 2408.43,3914.9 2407,3850.5C 2405.25,3792.59 2415.58,3736.93 2438,3683.5C 2477.22,3600.3 2541.38,3546.8 2630.5,3523C 2666.13,3514 2702.13,3508.17 2738.5,3505.5 Z M 2733.5,3662.5 C 2756.56,3661.59 2779.23,3664.09 2801.5,3670C 2824.33,3676.83 2839.17,3691.67 2846,3714.5C 2851.95,3754.17 2845.62,3791.84 2827,3827.5C 2810.12,3854.21 2785.95,3870.38 2754.5,3876C 2719.26,3882.75 2684.26,3881.75 2649.5,3873C 2617.62,3860.29 2602.96,3836.62 2605.5,3802C 2606.53,3770.38 2614.36,3740.55 2629,3712.5C 2648.27,3684.27 2675.11,3668.43 2709.5,3665C 2717.66,3664.23 2725.66,3663.4 2733.5,3662.5 Z"/></g>
<g><path style="opacity:0.994" fill="#000000" d="M 4045.5,3505.5 C 4095.27,3503.08 4144.61,3506.58 4193.5,3516C 4311.94,3543.13 4365.44,3617.3 4354,3738.5C 4349.13,3790.32 4334.8,3839.32 4311,3885.5C 4270.98,3953.48 4212.82,3998.31 4136.5,4020C 4058.04,4039.73 3978.71,4044.06 3898.5,4033C 3758.96,4011.1 3698.13,3929.93 3716,3789.5C 3738.68,3629.49 3829.84,3536.99 3989.5,3512C 4008.25,3509.27 4026.92,3507.1 4045.5,3505.5 Z M 4039.5,3662.5 C 4061.49,3661.64 4083.15,3663.8 4104.5,3669C 4138.54,3679.73 4155.87,3703.07 4156.5,3739C 4155.88,3774.18 4146.38,3806.68 4128,3836.5C 4114,3854.76 4095.83,3866.93 4073.5,3873C 4042.18,3880.88 4010.51,3882.55 3978.5,3878C 3957.73,3876.03 3940.23,3867.53 3926,3852.5C 3920.1,3844.37 3916.1,3835.37 3914,3825.5C 3909.88,3786.91 3916.54,3750.25 3934,3715.5C 3949.26,3690.26 3971.42,3674.43 4000.5,3668C 4013.53,3665.32 4026.53,3663.48 4039.5,3662.5 Z"/></g>
<g><path style="opacity:0.995" fill="#000000" d="M 986.5,3507.5 C 1132.5,3507.5 1278.5,3507.5 1424.5,3507.5C 1415.27,3560.52 1405.94,3613.52 1396.5,3666.5C 1314.5,3666.5 1232.5,3666.5 1150.5,3666.5C 1148.94,3678.18 1147.28,3689.85 1145.5,3701.5C 1219.83,3701.5 1294.17,3701.5 1368.5,3701.5C 1360.86,3748.82 1352.53,3795.98 1343.5,3843C 1268.93,3843.17 1194.43,3843.67 1120,3844.5C 1108.72,3907.83 1097.56,3971.16 1086.5,4034.5C 1022.17,4034.67 957.832,4034.5 893.5,4034C 924.873,3858.6 955.873,3683.1 986.5,3507.5 Z"/></g>
<g><path style="opacity:0.995" fill="#000000" d="M 1480.5,3507.5 C 1643.17,3507.5 1805.83,3507.5 1968.5,3507.5C 1959.76,3560.47 1950.42,3613.3 1940.5,3666C 1841.46,3665.84 1742.62,3666.67 1644,3668.5C 1642.49,3679.24 1640.65,3689.9 1638.5,3700.5C 1730.17,3701.17 1821.83,3701.83 1913.5,3702.5C 1904.84,3748.77 1896.51,3795.11 1888.5,3841.5C 1796.83,3841.5 1705.17,3841.5 1613.5,3841.5C 1611.62,3852.8 1609.95,3864.13 1608.5,3875.5C 1707.17,3875.5 1805.83,3875.5 1904.5,3875.5C 1895.06,3928.48 1885.73,3981.48 1876.5,4034.5C 1713.5,4034.5 1550.5,4034.5 1387.5,4034.5C 1418.12,3858.73 1449.12,3683.07 1480.5,3507.5 Z"/></g>
<g><path style="opacity:0.994" fill="#000000" d="M 2024.5,3507.5 C 2088.5,3507.5 2152.5,3507.5 2216.5,3507.5C 2195.38,3630.2 2174.05,3752.87 2152.5,3875.5C 2221.83,3875.5 2291.17,3875.5 2360.5,3875.5C 2351.42,3928.55 2342.09,3981.55 2332.5,4034.5C 2198.83,4034.83 2065.17,4034.5 1931.5,4033.5C 1962.72,3858.21 1993.72,3682.87 2024.5,3507.5 Z"/></g>
<g><path style="opacity:0.995" fill="#000000" d="M 3143.5,3507.5 C 3206.17,3507.17 3268.84,3507.5 3331.5,3508.5C 3380.2,3588.03 3428.7,3667.7 3477,3747.5C 3491.06,3667.47 3505.23,3587.47 3519.5,3507.5C 3583.5,3507.5 3647.5,3507.5 3711.5,3507.5C 3680.94,3683.18 3650.27,3858.85 3619.5,4034.5C 3556.83,4034.83 3494.16,4034.5 3431.5,4033.5C 3382.83,3954.17 3334.17,3874.83 3285.5,3795.5C 3271.17,3874.84 3256.83,3954.17 3242.5,4033.5C 3178.5,4034.5 3114.5,4034.83 3050.5,4034.5C 3081.12,3858.73 3112.12,3683.07 3143.5,3507.5 Z"/></g>
<g><path style="opacity:0.995" fill="#000000" d="M 4449.5,3507.5 C 4595.5,3507.5 4741.5,3507.5 4887.5,3507.5C 4878.6,3560.25 4869.26,3612.91 4859.5,3665.5C 4777.84,3666.33 4696.17,3666.83 4614.5,3667C 4612.13,3678.41 4610.13,3689.91 4608.5,3701.5C 4683.17,3701.17 4757.84,3701.5 4832.5,3702.5C 4823.63,3749.4 4815.29,3796.4 4807.5,3843.5C 4732.83,3843.17 4658.16,3843.5 4583.5,3844.5C 4571.95,3907.79 4560.62,3971.13 4549.5,4034.5C 4485.5,4034.5 4421.5,4034.5 4357.5,4034.5C 4388.06,3858.82 4418.73,3683.15 4449.5,3507.5 Z"/></g>
<g><path style="opacity:0.995" fill="#000000" d="M 4943.5,3507.5 C 5089.5,3507.17 5235.5,3507.5 5381.5,3508.5C 5371.74,3561.09 5362.4,3613.75 5353.5,3666.5C 5271.5,3666.5 5189.5,3666.5 5107.5,3666.5C 5105.51,3678.12 5103.84,3689.79 5102.5,3701.5C 5176.83,3701.5 5251.17,3701.5 5325.5,3701.5C 5317.49,3748.56 5309.16,3795.56 5300.5,3842.5C 5225.84,3843.5 5151.17,3843.83 5076.5,3843.5C 5065.37,3907.15 5054.37,3970.81 5043.5,4034.5C 4979.17,4034.5 4914.83,4034.5 4850.5,4034.5C 4881.39,3858.81 4912.39,3683.14 4943.5,3507.5 Z"/></g>
<g><path style="opacity:0.994" fill="#000000" d="M 5436.5,3507.5 C 5500.84,3507.17 5565.17,3507.5 5629.5,3508.5C 5598.28,3683.79 5567.28,3859.13 5536.5,4034.5C 5472.17,4034.67 5407.83,4034.5 5343.5,4034C 5374.94,3858.61 5405.94,3683.11 5436.5,3507.5 Z"/></g>
<g><path style="opacity:0.994" fill="#000000" d="M 5963.5,3507.5 C 6032.83,3507.33 6102.17,3507.5 6171.5,3508C 6162.07,3560.08 6152.9,3612.24 6144,3664.5C 6080.89,3665.06 6017.72,3665.89 5954.5,3667C 5881.21,3671.62 5840.38,3710.45 5832,3783.5C 5827.48,3825.99 5845.32,3854.16 5885.5,3868C 5897.01,3871.13 5908.68,3873.46 5920.5,3875C 5982.5,3875.5 6044.5,3875.67 6106.5,3875.5C 6097.17,3928.5 6087.83,3981.5 6078.5,4034.5C 6005.83,4034.67 5933.17,4034.5 5860.5,4034C 5817.41,4032.65 5775.75,4024.32 5735.5,4009C 5670.43,3980.08 5635.59,3929.91 5631,3858.5C 5628.43,3794.23 5639.77,3732.56 5665,3673.5C 5697.36,3607.14 5748.2,3560.98 5817.5,3535C 5864.98,3518.8 5913.65,3509.64 5963.5,3507.5 Z"/></g>
<g><path style="opacity:0.994" fill="#000000" d="M 6226.5,3507.5 C 6290.83,3507.33 6355.17,3507.5 6419.5,3508C 6388.13,3683.4 6357.13,3858.9 6326.5,4034.5C 6262.17,4034.67 6197.83,4034.5 6133.5,4034C 6164.87,3858.6 6195.87,3683.1 6226.5,3507.5 Z"/></g>
<g><path style="opacity:0.994" fill="#000000" d="M 6623.5,3507.5 C 6726.5,3507.5 6829.5,3507.5 6932.5,3507.5C 6956.08,3683.18 6979.75,3858.84 7003.5,4034.5C 6940.17,4034.5 6876.83,4034.5 6813.5,4034.5C 6809.5,4007.83 6805.5,3981.17 6801.5,3954.5C 6736.5,3954.33 6671.5,3954.5 6606.5,3955C 6592.5,3981.33 6578.5,4007.67 6564.5,4034C 6498.5,4034.67 6432.5,4034.67 6366.5,4034C 6452.58,3858.68 6538.24,3683.18 6623.5,3507.5 Z M 6756.5,3649.5 C 6757.12,3649.61 6757.62,3649.94 6758,3650.5C 6766.13,3704.44 6774.63,3758.27 6783.5,3812C 6747.16,3812.83 6710.83,3812.67 6674.5,3811.5C 6702.37,3757.76 6729.7,3703.76 6756.5,3649.5 Z"/></g>
<g><path style="opacity:0.994" fill="#000000" d="M 7136.5,3507.5 C 7200.84,3507.17 7265.17,3507.5 7329.5,3508.5C 7307.99,3630.72 7286.32,3752.89 7264.5,3875C 7333.83,3875.33 7403.17,3875.67 7472.5,3876C 7472.83,3876.33 7473.17,3876.67 7473.5,3877C 7463.47,3929.35 7454.14,3981.85 7445.5,4034.5C 7311.83,4034.5 7178.17,4034.5 7044.5,4034.5C 7075.06,3858.82 7105.73,3683.15 7136.5,3507.5 Z"/></g>
</svg>