<svg xmlns="http://www.w3.org/2000/svg" xmlns:xlink="http://www.w3.org/1999/xlink" version="1.1" style="shape-rendering:geometricPrecision; text-rendering:geometricPrecision; image-rendering:optimizeQuality; fill-rule:evenodd; clip-rule:evenodd" viewBox="35.49 3455.57 7422.01 773.27">
<g><path style="opacity:0.985" fill="#000000" d="M 415.5,3456.5 C 479.895,3453.34 542.562,3462.18 603.5,3483C 663.547,3504.58 715.047,3538.75 758,3585.5C 833.275,3674.55 852.942,3774.88 817,3886.5C 784.928,3970.79 724.762,4022.29 636.5,4041C 607.725,4047.19 579.058,4046.86 550.5,4040C 533.879,4035.62 520.712,4026.45 511,4012.5C 506.322,4004.45 503.822,3995.79 503.5,3986.5C 502.178,3986.33 501.011,3986.66 500,3987.5C 480.655,4014.14 454.822,4031.3 422.5,4039C 384.175,4048.82 346.509,4046.82 309.5,4033C 256.512,4006.97 226.346,3964.47 219,3905.5C 213.822,3841.21 228.822,3782.21 264,3728.5C 310.639,3666.59 372.806,3639.76 450.5,3648C 486.086,3653.68 512.919,3671.84 531,3702.5C 531.772,3702.36 532.439,3702.02 533,3701.5C 535.695,3688.52 538.195,3675.52 540.5,3662.5C 575.173,3662.17 609.84,3662.5 644.5,3663.5C 624.687,3755.42 605.187,3847.42 586,3939.5C 580.091,3970.6 593.091,3985.27 625,3983.5C 646.659,3983.39 666.159,3976.89 683.5,3964C 714.387,3940.42 736.053,3910.08 748.5,3873C 762.492,3828.23 765.326,3782.73 757,3736.5C 741.354,3666.99 703.854,3612.82 644.5,3574C 582.393,3536.43 514.893,3518.26 442,3519.5C 331.875,3522.41 243.542,3567.41 177,3654.5C 111.919,3746.96 92.9188,3848.29 120,3958.5C 140.662,4025.81 180.828,4077.98 240.5,4115C 295.876,4146.76 355.542,4164.1 419.5,4167C 488.473,4170.81 554.806,4159.48 618.5,4133C 631.064,4127.14 643.23,4120.64 655,4113.5C 665.292,4129.92 675.459,4146.42 685.5,4163C 636.872,4193.1 584.205,4212.77 527.5,4222C 435.388,4236.71 345.721,4227.71 258.5,4195C 170.077,4159.91 105.577,4099.41 65,4013.5C 45.0437,3966.05 35.2104,3916.55 35.5,3865C 36.6448,3740.41 83.3115,3636.74 175.5,3554C 244.859,3495.81 324.859,3463.31 415.5,3456.5 Z M 426.5,3727.5 C 475.167,3724 503.334,3746.34 511,3794.5C 516.447,3843.39 504.447,3887.39 475,3926.5C 445.127,3960.43 408.627,3970.59 365.5,3957C 343.597,3945.39 330.431,3927.23 326,3902.5C 318.118,3851.69 329.785,3806.03 361,3765.5C 378.093,3744.38 399.926,3731.71 426.5,3727.5 Z"/></g>
<g><path style="opacity:0.991" fill="#000000" d="M 2671.5,3456.5 C 2737.39,3451.98 2799.39,3465.14 2857.5,3496C 2915.46,3530.64 2955.96,3579.8 2979,3643.5C 3004.37,3721.04 3008.37,3799.7 2991,3879.5C 2957.21,4012.29 2872.38,4087.46 2736.5,4105C 2675.32,4111.59 2616.32,4103.26 2559.5,4080C 2493.8,4049.96 2446.63,4001.8 2418,3935.5C 2394.88,3877.02 2385.55,3816.36 2390,3753.5C 2392.85,3686.96 2412.85,3626.29 2450,3571.5C 2495,3512.05 2554.5,3475.55 2628.5,3462C 2642.95,3459.9 2657.28,3458.07 2671.5,3456.5 Z M 2685.5,3562.5 C 2765.81,3561.03 2820.98,3597.36 2851,3671.5C 2862.98,3707.33 2868.81,3744.16 2868.5,3782C 2869.3,3825.97 2861.14,3868.14 2844,3908.5C 2809.03,3974.75 2753.87,4005.25 2678.5,4000C 2611.39,3991.89 2565.56,3956.39 2541,3893.5C 2526.51,3849.99 2520.85,3805.33 2524,3759.5C 2524.99,3720.18 2533.99,3682.85 2551,3647.5C 2580.43,3594.92 2625.26,3566.59 2685.5,3562.5 Z"/></g>
<g><path style="opacity:0.991" fill="#000000" d="M 3937.5,3456.5 C 4003.39,3451.98 4065.39,3465.14 4123.5,3496C 4188.07,3535.28 4230.91,3591.45 4252,3664.5C 4270.34,3734.35 4272.34,3804.69 4258,3875.5C 4225.21,4010.29 4140.04,4086.79 4002.5,4105C 3949.98,4110.68 3898.64,4105.34 3848.5,4089C 3758.86,4056.03 3700.03,3993.86 3672,3902.5C 3652.66,3831.42 3650.33,3759.76 3665,3687.5C 3680.97,3613.32 3719.13,3553.82 3779.5,3509C 3827.47,3477.4 3880.14,3459.9 3937.5,3456.5 Z M 3951.5,3562.5 C 4031.81,3561.03 4086.98,3597.36 4117,3671.5C 4130.18,3711.09 4135.84,3751.76 4134,3793.5C 4133.71,3831.94 4126.38,3868.94 4112,3904.5C 4075.61,3976.96 4016.78,4008.46 3935.5,3999C 3875.06,3988.56 3832.89,3955.06 3809,3898.5C 3797.29,3867.58 3790.96,3835.58 3790,3802.5C 3787.42,3760.32 3792.08,3718.99 3804,3678.5C 3828.17,3607.81 3877.33,3569.15 3951.5,3562.5 Z"/></g>
<g><path style="opacity:0.99" fill="#000000" d="M 5801.5,3456.5 C 5886.64,3450.38 5961.64,3474.55 6026.5,3529C 6061.71,3561.57 6086.71,3600.73 6101.5,3646.5C 6058.21,3653.72 6014.87,3660.72 5971.5,3667.5C 5938.1,3586.45 5877.76,3552.61 5790.5,3566C 5744.95,3576.18 5710.45,3601.34 5687,3641.5C 5668.23,3677.49 5658.23,3715.83 5657,3756.5C 5653.51,3804.44 5659.51,3851.11 5675,3896.5C 5706.08,3969.85 5761.58,4004.35 5841.5,4000C 5893.07,3994.41 5931.24,3968.91 5956,3923.5C 5965.77,3904.69 5973.27,3885.02 5978.5,3864.5C 6022.11,3869.86 6065.78,3874.86 6109.5,3879.5C 6096.2,3946.63 6063.53,4002.13 6011.5,4046C 5964.3,4082.74 5910.63,4102.74 5850.5,4106C 5781.39,4111.58 5717.05,4096.91 5657.5,4062C 5603.68,4026.5 5565.85,3978.34 5544,3917.5C 5522.34,3850.88 5516.67,3782.88 5527,3713.5C 5537.19,3639.29 5569.35,3576.79 5623.5,3526C 5675.19,3483.71 5734.52,3460.54 5801.5,3456.5 Z"/></g>
<g><path style="opacity:0.993" fill="#000000" d="M 889.5,3470.5 C 1041.17,3470.5 1192.83,3470.5 1344.5,3470.5C 1344.5,3505.17 1344.5,3539.83 1344.5,3574.5C 1236.83,3574.5 1129.17,3574.5 1021.5,3574.5C 1021.5,3628.5 1021.5,3682.5 1021.5,3736.5C 1123.83,3736.5 1226.17,3736.5 1328.5,3736.5C 1328.5,3769.83 1328.5,3803.17 1328.5,3836.5C 1226.17,3836.5 1123.83,3836.5 1021.5,3836.5C 1021.5,3921.83 1021.5,4007.17 1021.5,4092.5C 977.5,4092.5 933.5,4092.5 889.5,4092.5C 889.5,3885.17 889.5,3677.83 889.5,3470.5 Z"/></g>
<g><path style="opacity:0.995" fill="#000000" d="M 1394.5,3470.5 C 1545.83,3470.5 1697.17,3470.5 1848.5,3470.5C 1848.5,3505.17 1848.5,3539.83 1848.5,3574.5C 1740.83,3574.5 1633.17,3574.5 1525.5,3574.5C 1525.5,3623.83 1525.5,3673.17 1525.5,3722.5C 1627.83,3722.5 1730.17,3722.5 1832.5,3722.5C 1832.5,3756.17 1832.5,3789.83 1832.5,3823.5C 1730.17,3823.5 1627.83,3823.5 1525.5,3823.5C 1525.5,3877.17 1525.5,3930.83 1525.5,3984.5C 1633.17,3984.5 1740.83,3984.5 1848.5,3984.5C 1848.5,4020.5 1848.5,4056.5 1848.5,4092.5C 1697.17,4092.5 1545.83,4092.5 1394.5,4092.5C 1394.5,3885.17 1394.5,3677.83 1394.5,3470.5 Z"/></g>
<g><path style="opacity:0.996" fill="#000000" d="M 1904.5,3470.5 C 1948.17,3470.5 1991.83,3470.5 2035.5,3470.5C 2035.5,3641.17 2035.5,3811.83 2035.5,3982.5C 2144.83,3982.5 2254.17,3982.5 2363.5,3982.5C 2363.5,4019.17 2363.5,4055.83 2363.5,4092.5C 2210.5,4092.5 2057.5,4092.5 1904.5,4092.5C 1904.5,3885.17 1904.5,3677.83 1904.5,3470.5 Z"/></g>
<g><path style="opacity:0.993" fill="#000000" d="M 3058.5,3470.5 C 3108.17,3470.17 3157.84,3470.5 3207.5,3471.5C 3296.83,3616.83 3386.17,3762.17 3475.5,3907.5C 3476.32,3908.39 3477.32,3908.72 3478.5,3908.5C 3478.5,3762.5 3478.5,3616.5 3478.5,3470.5C 3518.83,3470.5 3559.17,3470.5 3599.5,3470.5C 3599.5,3677.83 3599.5,3885.17 3599.5,4092.5C 3550.59,4092.83 3501.76,4092.5 3453,4091.5C 3362.83,3943.83 3272.67,3796.17 3182.5,3648.5C 3181.68,3647.61 3180.68,3647.28 3179.5,3647.5C 3179.5,3795.83 3179.5,3944.17 3179.5,4092.5C 3139.17,4092.5 3098.83,4092.5 3058.5,4092.5C 3058.5,3885.17 3058.5,3677.83 3058.5,3470.5 Z"/></g>
<g><path style="opacity:0.997" fill="#000000" d="M 4324.5,3470.5 C 4475.83,3470.5 4627.17,3470.5 4778.5,3470.5C 4778.5,3505.17 4778.5,3539.83 4778.5,3574.5C 4670.83,3574.5 4563.17,3574.5 4455.5,3574.5C 4455.5,3628.5 4455.5,3682.5 4455.5,3736.5C 4558.17,3736.5 4660.83,3736.5 4763.5,3736.5C 4763.5,3769.83 4763.5,3803.17 4763.5,3836.5C 4660.83,3836.5 4558.17,3836.5 4455.5,3836.5C 4455.5,3921.83 4455.5,4007.17 4455.5,4092.5C 4411.83,4092.5 4368.17,4092.5 4324.5,4092.5C 4324.5,3885.17 4324.5,3677.83 4324.5,3470.5 Z"/></g>
<g><path style="opacity:0.997" fill="#000000" d="M 4828.5,3470.5 C 4979.83,3470.5 5131.17,3470.5 5282.5,3470.5C 5282.5,3505.17 5282.5,3539.83 5282.5,3574.5C 5174.83,3574.5 5067.17,3574.5 4959.5,3574.5C 4959.5,3628.5 4959.5,3682.5 4959.5,3736.5C 5062.17,3736.5 5164.83,3736.5 5267.5,3736.5C 5267.5,3769.83 5267.5,3803.17 5267.5,3836.5C 5164.83,3836.5 5062.17,3836.5 4959.5,3836.5C 4959.5,3921.83 4959.5,4007.17 4959.5,4092.5C 4915.83,4092.5 4872.17,4092.5 4828.5,4092.5C 4828.5,3885.17 4828.5,3677.83 4828.5,3470.5 Z"/></g>
<g><path style="opacity:0.996" fill="#000000" d="M 5333.5,3470.5 C 5377.17,3470.5 5420.83,3470.5 5464.5,3470.5C 5464.5,3677.83 5464.5,3885.17 5464.5,4092.5C 5420.83,4092.5 5377.17,4092.5 5333.5,4092.5C 5333.5,3885.17 5333.5,3677.83 5333.5,3470.5 Z"/></g>
<g><path style="opacity:0.988" fill="#000000" d="M 6160.5,3470.5 C 6204.41,3470.17 6248.24,3470.5 6292,3471.5C 6292.5,3678.5 6292.67,3885.5 6292.5,4092.5C 6248.5,4092.5 6204.5,4092.5 6160.5,4092.5C 6160.5,3885.17 6160.5,3677.83 6160.5,3470.5 Z"/></g>
<g><path style="opacity:0.992" fill="#000000" d="M 6560.5,3470.5 C 6618.07,3470.17 6675.57,3470.5 6733,3471.5C 6810.31,3678.43 6887.81,3885.26 6965.5,4092C 6918.16,4092.83 6870.83,4092.67 6823.5,4091.5C 6806.26,4042.61 6788.93,3993.78 6771.5,3945C 6687.16,3944.17 6602.83,3944.33 6518.5,3945.5C 6501.43,3994.39 6484.76,4043.39 6468.5,4092.5C 6421.5,4092.67 6374.5,4092.5 6327.5,4092C 6404.88,3884.71 6482.54,3677.54 6560.5,3470.5 Z M 6643.5,3582.5 C 6645.12,3582.36 6646.29,3583.03 6647,3584.5C 6676.78,3671.17 6706.94,3757.67 6737.5,3844C 6675.83,3844.67 6614.17,3844.67 6552.5,3844C 6583.33,3757 6613.67,3669.84 6643.5,3582.5 Z"/></g>
<g><path style="opacity:0.997" fill="#000000" d="M 6999.5,3470.5 C 7043.17,3470.5 7086.83,3470.5 7130.5,3470.5C 7130.5,3641.17 7130.5,3811.83 7130.5,3982.5C 7239.5,3982.5 7348.5,3982.5 7457.5,3982.5C 7457.5,4019.17 7457.5,4055.83 7457.5,4092.5C 7304.83,4092.5 7152.17,4092.5 6999.5,4092.5C 6999.5,3885.17 6999.5,3677.83 6999.5,3470.5 Z"/></g>
</svg>