<svg xmlns="http://www.w3.org/2000/svg" xmlns:xlink="http://www.w3.org/1999/xlink" version="1.1" style="shape-rendering:geometricPrecision; text-rendering:geometricPrecision; image-rendering:optimizeQuality; fill-rule:evenodd; clip-rule:evenodd" viewBox="40.49 3468.35 7415.01 741.02">
<g><path style="opacity:0.988" fill="#000000" d="M 423.5,3469.5 C 519.568,3466.84 606.901,3492.67 685.5,3547C 793.009,3629.18 830.842,3736.34 799,3868.5C 780.78,3928.14 744.614,3973.31 690.5,4004C 660.174,4018.89 628.174,4027.89 594.5,4031C 567.667,4033.02 541.667,4029.36 516.5,4020C 502.889,4014.62 492.722,4005.45 486,3992.5C 484.252,3987.75 482.419,3983.08 480.5,3978.5C 453.459,4013.02 417.793,4030.52 373.5,4031C 300.119,4036.08 248.619,4005.25 219,3938.5C 207.854,3906.27 204.854,3873.27 210,3839.5C 215.44,3792.13 233.106,3750.13 263,3713.5C 305.084,3667.9 357.251,3648.07 419.5,3654C 449.162,3657.91 473.662,3671.08 493,3693.5C 494.833,3696.5 496.667,3699.5 498.5,3702.5C 499.689,3703.43 501.022,3703.76 502.5,3703.5C 504.261,3692.19 506.595,3681.03 509.5,3670C 551.499,3669.5 593.499,3669.33 635.5,3669.5C 619.323,3747.55 602.823,3825.55 586,3903.5C 582.763,3915.05 582.096,3926.72 584,3938.5C 586.072,3945.57 590.572,3950.41 597.5,3953C 617.261,3958.98 635.594,3955.98 652.5,3944C 670.146,3932.69 683.979,3917.86 694,3899.5C 708.854,3872.75 717.187,3844.09 719,3813.5C 726.203,3712.72 686.703,3636.89 600.5,3586C 533.162,3552.72 462.162,3540.72 387.5,3550C 292.217,3568.67 220.384,3619.83 172,3703.5C 134.411,3773.62 122.411,3847.95 136,3926.5C 151.366,3995.49 188.866,4048.66 248.5,4086C 294.542,4112.9 344.208,4128.57 397.5,4133C 479.036,4139.49 555.536,4122.99 627,4083.5C 640.123,4103.57 652.623,4124.07 664.5,4145C 664.355,4145.77 664.022,4146.44 663.5,4147C 579.076,4194.75 488.409,4215.09 391.5,4208C 311.45,4202.87 238.45,4177.87 172.5,4133C 83.888,4065.94 39.888,3976.44 40.5,3864.5C 42.7467,3725.48 100.08,3615.98 212.5,3536C 276.519,3493.83 346.852,3471.66 423.5,3469.5 Z M 416.5,3750.5 C 454.621,3748.45 475.788,3766.45 480,3804.5C 483.221,3841.48 473.888,3874.82 452,3904.5C 429.616,3931.06 401.782,3939.22 368.5,3929C 350.221,3918.64 340.388,3902.81 339,3881.5C 335.252,3843.82 344.585,3809.82 367,3779.5C 379.901,3763.47 396.401,3753.81 416.5,3750.5 Z"/></g>
<g><path style="opacity:0.993" fill="#000000" d="M 2624.5,3469.5 C 2690.38,3464.84 2753.05,3476.68 2812.5,3505C 2886.14,3545.37 2932.98,3606.54 2953,3688.5C 2966.84,3749.52 2966.84,3810.52 2953,3871.5C 2926.68,3974.82 2862.84,4042.99 2761.5,4076C 2676.11,4100.13 2592.11,4096.13 2509.5,4064C 2431.07,4028.9 2379.57,3970.06 2355,3887.5C 2337.78,3821.16 2336.45,3754.49 2351,3687.5C 2380.17,3578.33 2449.33,3509.17 2558.5,3480C 2580.37,3474.76 2602.37,3471.26 2624.5,3469.5 Z M 2637.5,3613.5 C 2686.83,3609.75 2725.33,3628.09 2753,3668.5C 2767.06,3696.45 2774.39,3726.12 2775,3757.5C 2776.71,3786.7 2775.04,3815.7 2770,3844.5C 2756.72,3908.79 2717.39,3943.12 2652,3947.5C 2584.21,3942.71 2544.54,3906.71 2533,3839.5C 2527.4,3801.89 2527.07,3764.22 2532,3726.5C 2535.34,3698.44 2545.68,3673.44 2563,3651.5C 2583.31,3629.93 2608.15,3617.26 2637.5,3613.5 Z"/></g>
<g><path style="opacity:0.993" fill="#000000" d="M 3879.5,3469.5 C 3937.91,3465.53 3994.24,3474.37 4048.5,3496C 4132.1,3534.29 4185.27,3598.12 4208,3687.5C 4222,3749.16 4222,3810.83 4208,3872.5C 4174.73,3992.76 4096.57,4063.92 3973.5,4086C 3901.75,4097.99 3832.08,4090.66 3764.5,4064C 3680.87,4025.27 3628.04,3961.1 3606,3871.5C 3593.34,3810.5 3593.34,3749.5 3606,3688.5C 3633,3583.17 3698.5,3514.67 3802.5,3483C 3827.87,3475.96 3853.53,3471.46 3879.5,3469.5 Z M 3892.5,3613.5 C 3944.61,3609.3 3984.11,3629.3 4011,3673.5C 4022.81,3699.53 4029.14,3726.86 4030,3755.5C 4031.54,3783.65 4030.21,3811.65 4026,3839.5C 4014.46,3906.71 3974.79,3942.71 3907,3947.5C 3862.79,3946.4 3828.79,3927.4 3805,3890.5C 3791.77,3862.7 3784.77,3833.36 3784,3802.5C 3782.56,3775.36 3783.9,3748.36 3788,3721.5C 3792.42,3688.49 3806.92,3660.99 3831.5,3639C 3849.54,3624.93 3869.88,3616.43 3892.5,3613.5 Z"/></g>
<g><path style="opacity:0.992" fill="#000000" d="M 5752.5,3469.5 C 5833.19,3463.17 5906.52,3483 5972.5,3529C 6023.09,3567.32 6055.76,3617.48 6070.5,3679.5C 6010.53,3685.98 5950.53,3692.31 5890.5,3698.5C 5888.83,3698.17 5887.17,3697.83 5885.5,3697.5C 5864.92,3634.04 5821.59,3606.88 5755.5,3616C 5707.52,3630.32 5678.68,3662.16 5669,3711.5C 5660.35,3757.17 5660.35,3802.83 5669,3848.5C 5682.24,3908.42 5719.24,3941.42 5780,3947.5C 5827.7,3944.64 5860.37,3920.98 5878,3876.5C 5881.88,3865.16 5885.04,3853.66 5887.5,3842C 5949.54,3845.81 6011.54,3850.31 6073.5,3855.5C 6055.94,3957.19 5999.94,4028.36 5905.5,4069C 5832.24,4095.13 5757.91,4098.46 5682.5,4079C 5583.28,4050.78 5518.78,3987.28 5489,3888.5C 5476.08,3838.9 5472.08,3788.57 5477,3737.5C 5482.48,3664.4 5510.31,3601.57 5560.5,3549C 5604.78,3508.53 5656.78,3483.53 5716.5,3474C 5728.63,3472.38 5740.63,3470.88 5752.5,3469.5 Z"/></g>
<g><path style="opacity:0.993" fill="#000000" d="M 844.5,3482.5 C 1001.17,3482.5 1157.83,3482.5 1314.5,3482.5C 1314.5,3528.5 1314.5,3574.5 1314.5,3620.5C 1219.5,3620.5 1124.5,3620.5 1029.5,3620.5C 1029.5,3656.83 1029.5,3693.17 1029.5,3729.5C 1118.83,3729.5 1208.17,3729.5 1297.5,3729.5C 1297.5,3773.5 1297.5,3817.5 1297.5,3861.5C 1208.17,3861.5 1118.83,3861.5 1029.5,3861.5C 1029.5,3933.5 1029.5,4005.5 1029.5,4077.5C 967.5,4077.5 905.5,4077.5 843.5,4077.5C 843.168,3879.1 843.501,3680.76 844.5,3482.5 Z"/></g>
<g><path style="opacity:0.996" fill="#000000" d="M 1346.5,3482.5 C 1503.17,3482.5 1659.83,3482.5 1816.5,3482.5C 1816.5,3528.5 1816.5,3574.5 1816.5,3620.5C 1721.5,3620.5 1626.5,3620.5 1531.5,3620.5C 1531.5,3649.83 1531.5,3679.17 1531.5,3708.5C 1620.83,3708.5 1710.17,3708.5 1799.5,3708.5C 1799.5,3752.5 1799.5,3796.5 1799.5,3840.5C 1710.17,3840.5 1620.83,3840.5 1531.5,3840.5C 1531.5,3872.17 1531.5,3903.83 1531.5,3935.5C 1626.5,3935.5 1721.5,3935.5 1816.5,3935.5C 1816.5,3982.83 1816.5,4030.17 1816.5,4077.5C 1659.83,4077.5 1503.17,4077.5 1346.5,4077.5C 1346.5,3879.17 1346.5,3680.83 1346.5,3482.5 Z"/></g>
<g><path style="opacity:0.996" fill="#000000" d="M 1851.5,3482.5 C 1913.17,3482.5 1974.83,3482.5 2036.5,3482.5C 2036.5,3630.83 2036.5,3779.17 2036.5,3927.5C 2133.83,3927.5 2231.17,3927.5 2328.5,3927.5C 2328.5,3977.5 2328.5,4027.5 2328.5,4077.5C 2169.5,4077.5 2010.5,4077.5 1851.5,4077.5C 1851.5,3879.17 1851.5,3680.83 1851.5,3482.5 Z"/></g>
<g><path style="opacity:0.995" fill="#000000" d="M 2997.5,3482.5 C 3068.17,3482.17 3138.84,3482.5 3209.5,3483.5C 3269.91,3599.32 3330.58,3714.99 3391.5,3830.5C 3392.32,3831.39 3393.32,3831.72 3394.5,3831.5C 3394.5,3715.17 3394.5,3598.83 3394.5,3482.5C 3450.17,3482.5 3505.83,3482.5 3561.5,3482.5C 3561.5,3680.83 3561.5,3879.17 3561.5,4077.5C 3492.17,4077.67 3422.83,4077.5 3353.5,4077C 3291.12,3958.4 3229.12,3839.57 3167.5,3720.5C 3166.68,3719.61 3165.68,3719.28 3164.5,3719.5C 3164.5,3838.83 3164.5,3958.17 3164.5,4077.5C 3108.5,4077.5 3052.5,4077.5 2996.5,4077.5C 2996.17,3879.1 2996.5,3680.76 2997.5,3482.5 Z"/></g>
<g><path style="opacity:0.996" fill="#000000" d="M 4252.5,3482.5 C 4409.17,3482.5 4565.83,3482.5 4722.5,3482.5C 4722.5,3528.5 4722.5,3574.5 4722.5,3620.5C 4627.5,3620.5 4532.5,3620.5 4437.5,3620.5C 4437.5,3656.83 4437.5,3693.17 4437.5,3729.5C 4526.83,3729.5 4616.17,3729.5 4705.5,3729.5C 4705.5,3773.5 4705.5,3817.5 4705.5,3861.5C 4616.17,3861.5 4526.83,3861.5 4437.5,3861.5C 4437.5,3933.5 4437.5,4005.5 4437.5,4077.5C 4375.83,4077.5 4314.17,4077.5 4252.5,4077.5C 4252.5,3879.17 4252.5,3680.83 4252.5,3482.5 Z"/></g>
<g><path style="opacity:0.996" fill="#000000" d="M 4754.5,3482.5 C 4911.17,3482.5 5067.83,3482.5 5224.5,3482.5C 5224.5,3528.5 5224.5,3574.5 5224.5,3620.5C 5129.5,3620.5 5034.5,3620.5 4939.5,3620.5C 4939.5,3656.83 4939.5,3693.17 4939.5,3729.5C 5028.83,3729.5 5118.17,3729.5 5207.5,3729.5C 5207.5,3773.5 5207.5,3817.5 5207.5,3861.5C 5118.17,3861.5 5028.83,3861.5 4939.5,3861.5C 4939.5,3933.5 4939.5,4005.5 4939.5,4077.5C 4877.83,4077.5 4816.17,4077.5 4754.5,4077.5C 4754.5,3879.17 4754.5,3680.83 4754.5,3482.5 Z"/></g>
<g><path style="opacity:0.996" fill="#000000" d="M 5256.5,3482.5 C 5317.83,3482.5 5379.17,3482.5 5440.5,3482.5C 5440.5,3680.83 5440.5,3879.17 5440.5,4077.5C 5379.17,4077.5 5317.83,4077.5 5256.5,4077.5C 5256.5,3879.17 5256.5,3680.83 5256.5,3482.5 Z"/></g>
<g><path style="opacity:0.991" fill="#000000" d="M 6102.5,3482.5 C 6164.17,3482.5 6225.83,3482.5 6287.5,3482.5C 6287.5,3680.83 6287.5,3879.17 6287.5,4077.5C 6225.83,4077.5 6164.17,4077.5 6102.5,4077.5C 6102.5,3879.17 6102.5,3680.83 6102.5,3482.5 Z"/></g>
<g><path style="opacity:0.994" fill="#000000" d="M 6507.5,3482.5 C 6591.4,3482.17 6675.24,3482.5 6759,3483.5C 6826.4,3681.21 6893.9,3878.88 6961.5,4076.5C 6896.17,4077.5 6830.84,4077.83 6765.5,4077.5C 6754.8,4040.57 6743.8,4003.74 6732.5,3967C 6664.83,3966.33 6597.17,3966.33 6529.5,3967C 6518.33,4003.68 6507.66,4040.51 6497.5,4077.5C 6433.16,4077.83 6368.83,4077.5 6304.5,4076.5C 6372.57,3878.63 6440.24,3680.63 6507.5,3482.5 Z M 6628.5,3630.5 C 6629.5,3630.5 6630.5,3630.5 6631.5,3630.5C 6652.17,3700.5 6672.83,3770.5 6693.5,3840.5C 6651.5,3840.5 6609.5,3840.5 6567.5,3840.5C 6587.83,3770.5 6608.17,3700.5 6628.5,3630.5 Z"/></g>
<g><path style="opacity:0.997" fill="#000000" d="M 6979.5,3482.5 C 7041.17,3482.5 7102.83,3482.5 7164.5,3482.5C 7164.5,3630.83 7164.5,3779.17 7164.5,3927.5C 7261.5,3927.5 7358.5,3927.5 7455.5,3927.5C 7455.5,3977.5 7455.5,4027.5 7455.5,4077.5C 7296.83,4077.5 7138.17,4077.5 6979.5,4077.5C 6979.5,3879.17 6979.5,3680.83 6979.5,3482.5 Z"/></g>
</svg>