<svg xmlns="http://www.w3.org/2000/svg" xmlns:xlink="http://www.w3.org/1999/xlink" version="1.1" style="shape-rendering:geometricPrecision; text-rendering:geometricPrecision; image-rendering:optimizeQuality; fill-rule:evenodd; clip-rule:evenodd" viewBox="25.5 3707.36 7435 96.16">
<g><path style="opacity:0.921" fill="#000000" d="M 174.5,3707.5 C 195.595,3706.52 208.928,3716.02 214.5,3736C 207.844,3736.71 201.178,3737.21 194.5,3737.5C 193.167,3730.67 189.167,3726.17 182.5,3724C 174.503,3721.96 167.669,3723.79 162,3729.5C 159.916,3735.22 161.749,3739.38 167.5,3742C 179.677,3744.71 191.677,3748.04 203.5,3752C 214.602,3758.72 218.769,3768.56 216,3781.5C 212.787,3791.71 205.954,3798.21 195.5,3801C 181.15,3804.48 167.15,3803.15 153.5,3797C 144.07,3791.12 139.403,3782.79 139.5,3772C 145.817,3771.23 152.151,3770.73 158.5,3770.5C 159.433,3779.6 164.433,3785.1 173.5,3787C 180.215,3788.25 186.548,3787.25 192.5,3784C 197.314,3779.27 197.647,3774.27 193.5,3769C 181.708,3764.72 169.708,3761.05 157.5,3758C 143.758,3752.35 138.591,3742.18 142,3727.5C 144.807,3719.36 150.307,3713.86 158.5,3711C 163.871,3709.36 169.204,3708.2 174.5,3707.5 Z"/></g>
<g><path style="opacity:0.921" fill="#000000" d="M 1473.5,3707.5 C 1494.9,3706.52 1509.9,3715.69 1518.5,3735C 1518.36,3735.77 1518.02,3736.44 1517.5,3737C 1511.45,3737.65 1505.45,3738.49 1499.5,3739.5C 1490.18,3723.27 1477.51,3720.1 1461.5,3730C 1450.17,3746.13 1449.67,3762.63 1460,3779.5C 1471.67,3788.83 1483.33,3788.83 1495,3779.5C 1497.36,3776.11 1499.19,3772.45 1500.5,3768.5C 1493.2,3767.5 1485.86,3767.17 1478.5,3767.5C 1478.5,3762.5 1478.5,3757.5 1478.5,3752.5C 1492.17,3752.5 1505.83,3752.5 1519.5,3752.5C 1519.5,3768.5 1519.5,3784.5 1519.5,3800.5C 1514.5,3800.5 1509.5,3800.5 1504.5,3800.5C 1504.66,3797.81 1504.5,3795.15 1504,3792.5C 1496.45,3799.68 1487.45,3803.35 1477,3803.5C 1451.7,3801.85 1437.04,3788.52 1433,3763.5C 1429.95,3743.64 1436.11,3727.47 1451.5,3715C 1458.45,3710.96 1465.78,3708.46 1473.5,3707.5 Z"/></g>
<g><path style="opacity:0.922" fill="#000000" d="M 1582.5,3707.5 C 1597.97,3706.37 1610.13,3712.03 1619,3724.5C 1620.88,3728.31 1622.05,3732.31 1622.5,3736.5C 1616.12,3736.99 1609.79,3736.99 1603.5,3736.5C 1599.03,3725.04 1590.69,3720.88 1578.5,3724C 1569.9,3727.17 1567.9,3732.5 1572.5,3740C 1585.81,3743.99 1599.14,3747.99 1612.5,3752C 1626.26,3762.24 1629.1,3775.07 1621,3790.5C 1611.84,3799.38 1600.84,3803.71 1588,3803.5C 1573.37,3803.85 1561.37,3798.52 1552,3787.5C 1548.67,3782.69 1547.5,3777.53 1548.5,3772C 1554.53,3770.96 1560.53,3770.79 1566.5,3771.5C 1569.38,3782.03 1576.38,3787.36 1587.5,3787.5C 1596.74,3788.4 1602.74,3784.56 1605.5,3776C 1605.09,3772.58 1603.43,3769.92 1600.5,3768C 1587.45,3764.15 1574.45,3760.15 1561.5,3756C 1553.47,3751.12 1549.47,3743.95 1549.5,3734.5C 1550.41,3722.76 1556.41,3714.93 1567.5,3711C 1572.55,3709.43 1577.55,3708.26 1582.5,3707.5 Z"/></g>
<g><path style="opacity:0.93" fill="#000000" d="M 2002.5,3707.5 C 2034.18,3707.85 2050.18,3723.85 2050.5,3755.5C 2050.44,3785.32 2035.61,3801.32 2006,3803.5C 1976.85,3800.85 1962.02,3784.85 1961.5,3755.5C 1961.65,3727.7 1975.32,3711.7 2002.5,3707.5 Z M 1999.5,3724.5 C 2016.52,3722.36 2026.69,3729.69 2030,3746.5C 2031.82,3757.44 2030.16,3767.77 2025,3777.5C 2016.45,3786.85 2006.28,3789.01 1994.5,3784C 1985.28,3776.88 1980.95,3767.38 1981.5,3755.5C 1980.63,3740.87 1986.63,3730.53 1999.5,3724.5 Z"/></g>
<g><path style="opacity:0.928" fill="#000000" d="M 2362.5,3707.5 C 2393.99,3707.99 2410.33,3723.99 2411.5,3755.5C 2410.79,3785.38 2395.62,3801.38 2366,3803.5C 2336.88,3800.88 2322.05,3784.88 2321.5,3755.5C 2321.69,3727.66 2335.36,3711.66 2362.5,3707.5 Z M 2359.5,3724.5 C 2376.1,3722.28 2386.27,3729.28 2390,3745.5C 2391.09,3754.66 2390.43,3763.66 2388,3772.5C 2379.82,3786.67 2368.32,3790.17 2353.5,3783C 2345.05,3775.93 2341.05,3766.76 2341.5,3755.5C 2341.53,3746.69 2344.03,3738.69 2349,3731.5C 2352.15,3728.49 2355.65,3726.16 2359.5,3724.5 Z"/></g>
<g><path style="opacity:0.922" fill="#000000" d="M 2450.5,3707.5 C 2471.29,3706.54 2484.62,3715.87 2490.5,3735.5C 2483.89,3736.71 2477.22,3737.37 2470.5,3737.5C 2468.79,3727.61 2462.79,3722.95 2452.5,3723.5C 2442.1,3722.74 2437.26,3727.41 2438,3737.5C 2439.17,3738.67 2440.33,3739.83 2441.5,3741C 2453.5,3744.33 2465.5,3747.67 2477.5,3751C 2490.76,3757.42 2495.59,3767.92 2492,3782.5C 2488.34,3792.16 2481.5,3798.33 2471.5,3801C 2457.15,3804.48 2443.15,3803.15 2429.5,3797C 2420.08,3791.14 2415.41,3782.8 2415.5,3772C 2421.82,3771.23 2428.15,3770.73 2434.5,3770.5C 2435.45,3779.62 2440.45,3785.12 2449.5,3787C 2456.21,3788.25 2462.55,3787.25 2468.5,3784C 2473.37,3779.28 2473.7,3774.28 2469.5,3769C 2455.51,3764.33 2441.51,3759.67 2427.5,3755C 2418.81,3748.28 2415.65,3739.44 2418,3728.5C 2420.44,3719.79 2425.94,3713.96 2434.5,3711C 2439.87,3709.36 2445.2,3708.2 2450.5,3707.5 Z"/></g>
<g><path style="opacity:0.93" fill="#000000" d="M 2842.5,3707.5 C 2874.18,3707.85 2890.18,3723.85 2890.5,3755.5C 2890.44,3785.32 2875.61,3801.32 2846,3803.5C 2816.85,3800.85 2802.02,3784.85 2801.5,3755.5C 2801.65,3727.7 2815.32,3711.7 2842.5,3707.5 Z M 2839.5,3724.5 C 2856.52,3722.36 2866.69,3729.69 2870,3746.5C 2871.82,3757.44 2870.16,3767.77 2865,3777.5C 2856.45,3786.85 2846.28,3789.01 2834.5,3784C 2825.28,3776.88 2820.95,3767.38 2821.5,3755.5C 2820.63,3740.87 2826.63,3730.53 2839.5,3724.5 Z"/></g>
<g><path style="opacity:0.922" fill="#000000" d="M 3298.5,3707.5 C 3313.97,3706.37 3326.13,3712.03 3335,3724.5C 3336.88,3728.31 3338.05,3732.31 3338.5,3736.5C 3332.12,3736.99 3325.79,3736.99 3319.5,3736.5C 3315.03,3725.04 3306.69,3720.88 3294.5,3724C 3285.9,3727.17 3283.9,3732.5 3288.5,3740C 3301.81,3743.99 3315.14,3747.99 3328.5,3752C 3342.26,3762.24 3345.1,3775.07 3337,3790.5C 3327.84,3799.38 3316.84,3803.71 3304,3803.5C 3289.37,3803.85 3277.37,3798.52 3268,3787.5C 3264.67,3782.69 3263.5,3777.53 3264.5,3772C 3270.53,3770.96 3276.53,3770.79 3282.5,3771.5C 3285.38,3782.03 3292.38,3787.36 3303.5,3787.5C 3312.74,3788.4 3318.74,3784.56 3321.5,3776C 3321.09,3772.58 3319.43,3769.92 3316.5,3768C 3303.45,3764.15 3290.45,3760.15 3277.5,3756C 3269.47,3751.12 3265.47,3743.95 3265.5,3734.5C 3266.41,3722.76 3272.41,3714.93 3283.5,3711C 3288.55,3709.43 3293.55,3708.26 3298.5,3707.5 Z"/></g>
<g><path style="opacity:0.926" fill="#000000" d="M 3387.5,3707.5 C 3418.99,3707.99 3435.32,3723.99 3436.5,3755.5C 3435.91,3785.09 3420.91,3801.09 3391.5,3803.5C 3361.88,3801.04 3346.88,3784.87 3346.5,3755C 3346.92,3727.43 3360.59,3711.6 3387.5,3707.5 Z M 3385.5,3724.5 C 3401.21,3722.73 3411.04,3729.4 3415,3744.5C 3418.04,3757.89 3415.54,3770.06 3407.5,3781C 3394.35,3789.53 3382.52,3788.03 3372,3776.5C 3370.07,3773.05 3368.74,3769.39 3368,3765.5C 3366.91,3756.34 3367.57,3747.34 3370,3738.5C 3373.49,3731.83 3378.66,3727.17 3385.5,3724.5 Z"/></g>
<g><path style="opacity:0.922" fill="#000000" d="M 3482.5,3707.5 C 3501.31,3706.85 3515.48,3714.52 3525,3730.5C 3525.81,3732.44 3526.31,3734.44 3526.5,3736.5C 3519.83,3737.5 3513.16,3738.5 3506.5,3739.5C 3501.35,3725.93 3491.68,3721.43 3477.5,3726C 3466.73,3732.54 3461.73,3742.21 3462.5,3755C 3461.66,3766.17 3465.33,3775.5 3473.5,3783C 3490.99,3791.01 3502.32,3785.85 3507.5,3767.5C 3514.62,3767.43 3521.62,3768.26 3528.5,3770C 3522.41,3790.91 3508.41,3802.08 3486.5,3803.5C 3462.59,3802.09 3448.09,3789.75 3443,3766.5C 3440.55,3751.95 3442.89,3738.29 3450,3725.5C 3458.34,3714.92 3469.17,3708.92 3482.5,3707.5 Z"/></g>
<g><path style="opacity:0.922" fill="#000000" d="M 4245.5,3707.5 C 4266.29,3706.54 4279.62,3715.87 4285.5,3735.5C 4278.89,3736.71 4272.22,3737.37 4265.5,3737.5C 4263.79,3727.61 4257.79,3722.95 4247.5,3723.5C 4237.1,3722.74 4232.26,3727.41 4233,3737.5C 4234.17,3738.67 4235.33,3739.83 4236.5,3741C 4248.5,3744.33 4260.5,3747.67 4272.5,3751C 4285.76,3757.42 4290.59,3767.92 4287,3782.5C 4283.34,3792.16 4276.5,3798.33 4266.5,3801C 4252.15,3804.48 4238.15,3803.15 4224.5,3797C 4215.08,3791.14 4210.41,3782.8 4210.5,3772C 4216.82,3771.23 4223.15,3770.73 4229.5,3770.5C 4230.45,3779.62 4235.45,3785.12 4244.5,3787C 4251.21,3788.25 4257.55,3787.25 4263.5,3784C 4268.37,3779.28 4268.7,3774.28 4264.5,3769C 4250.51,3764.33 4236.51,3759.67 4222.5,3755C 4213.81,3748.28 4210.65,3739.44 4213,3728.5C 4215.44,3719.79 4220.94,3713.96 4229.5,3711C 4234.87,3709.36 4240.2,3708.2 4245.5,3707.5 Z"/></g>
<g><path style="opacity:0.928" fill="#000000" d="M 4739.5,3707.5 C 4770.99,3707.99 4787.33,3723.99 4788.5,3755.5C 4787.79,3785.38 4772.62,3801.38 4743,3803.5C 4713.88,3800.88 4699.05,3784.88 4698.5,3755.5C 4698.69,3727.66 4712.36,3711.66 4739.5,3707.5 Z M 4736.5,3724.5 C 4753.1,3722.28 4763.27,3729.28 4767,3745.5C 4768.09,3754.66 4767.43,3763.66 4765,3772.5C 4756.82,3786.67 4745.32,3790.17 4730.5,3783C 4722.05,3775.93 4718.05,3766.76 4718.5,3755.5C 4718.53,3746.69 4721.03,3738.69 4726,3731.5C 4729.15,3728.49 4732.65,3726.16 4736.5,3724.5 Z"/></g>
<g><path style="opacity:0.921" fill="#000000" d="M 5016.5,3707.5 C 5037.59,3706.52 5050.93,3716.02 5056.5,3736C 5049.84,3736.71 5043.18,3737.21 5036.5,3737.5C 5035.17,3730.67 5031.17,3726.17 5024.5,3724C 5016.5,3721.96 5009.67,3723.79 5004,3729.5C 5001.92,3735.22 5003.75,3739.38 5009.5,3742C 5021.68,3744.71 5033.68,3748.04 5045.5,3752C 5056.6,3758.72 5060.77,3768.56 5058,3781.5C 5054.79,3791.71 5047.95,3798.21 5037.5,3801C 5023.15,3804.48 5009.15,3803.15 4995.5,3797C 4986.07,3791.12 4981.4,3782.79 4981.5,3772C 4987.82,3771.23 4994.15,3770.73 5000.5,3770.5C 5001.43,3779.6 5006.43,3785.1 5015.5,3787C 5022.21,3788.25 5028.55,3787.25 5034.5,3784C 5039.31,3779.27 5039.65,3774.27 5035.5,3769C 5023.71,3764.72 5011.71,3761.05 4999.5,3758C 4985.76,3752.35 4980.59,3742.18 4984,3727.5C 4986.81,3719.36 4992.31,3713.86 5000.5,3711C 5005.87,3709.36 5011.2,3708.2 5016.5,3707.5 Z"/></g>
<g><path style="opacity:0.93" fill="#000000" d="M 5208.5,3707.5 C 5239.49,3708.49 5255.49,3724.49 5256.5,3755.5C 5255.97,3784.87 5241.13,3800.87 5212,3803.5C 5182.39,3801.31 5167.55,3785.31 5167.5,3755.5C 5167.23,3727.29 5180.89,3711.29 5208.5,3707.5 Z M 5205.5,3724.5 C 5223.43,3722.6 5233.6,3730.6 5236,3748.5C 5238.12,3761.28 5234.95,3772.45 5226.5,3782C 5206.11,3791.56 5193.28,3785.39 5188,3763.5C 5186.28,3752.9 5187.95,3742.9 5193,3733.5C 5196.3,3729.12 5200.47,3726.12 5205.5,3724.5 Z"/></g>
<g><path style="opacity:0.922" fill="#000000" d="M 5716.5,3707.5 C 5731.39,3706.39 5743.22,3711.73 5752,3723.5C 5754.58,3727.48 5756.08,3731.81 5756.5,3736.5C 5750.15,3736.82 5743.82,3736.99 5737.5,3737C 5733.03,3725.6 5724.7,3721.26 5712.5,3724C 5705.07,3726.35 5702.57,3731.19 5705,3738.5C 5706.58,3740.04 5708.41,3741.21 5710.5,3742C 5721.57,3744.75 5732.57,3747.75 5743.5,3751C 5755.27,3756.38 5760.44,3765.54 5759,3778.5C 5758.02,3786.47 5754.19,3792.64 5747.5,3797C 5729.67,3805.85 5712.01,3805.52 5694.5,3796C 5686.94,3790.4 5682.27,3782.9 5680.5,3773.5C 5681.03,3772.81 5681.69,3772.31 5682.5,3772C 5688.49,3771.3 5694.49,3770.8 5700.5,3770.5C 5701.48,3779.65 5706.48,3785.15 5715.5,3787C 5721.69,3787.98 5727.69,3787.32 5733.5,3785C 5739.7,3779.63 5740.03,3773.96 5734.5,3768C 5722.22,3764.18 5709.89,3760.51 5697.5,3757C 5686.51,3751.52 5682.01,3742.68 5684,3730.5C 5685.81,3722.02 5690.64,3715.85 5698.5,3712C 5704.48,3709.84 5710.48,3708.34 5716.5,3707.5 Z"/></g>
<g><path style="opacity:0.921" fill="#000000" d="M 5798.5,3707.5 C 5819.59,3706.52 5832.93,3716.02 5838.5,3736C 5831.84,3736.71 5825.18,3737.21 5818.5,3737.5C 5817.17,3730.67 5813.17,3726.17 5806.5,3724C 5798.5,3721.96 5791.67,3723.79 5786,3729.5C 5783.92,3735.22 5785.75,3739.38 5791.5,3742C 5803.68,3744.71 5815.68,3748.04 5827.5,3752C 5838.6,3758.72 5842.77,3768.56 5840,3781.5C 5836.79,3791.71 5829.95,3798.21 5819.5,3801C 5805.15,3804.48 5791.15,3803.15 5777.5,3797C 5768.07,3791.12 5763.4,3782.79 5763.5,3772C 5769.82,3771.23 5776.15,3770.73 5782.5,3770.5C 5783.43,3779.6 5788.43,3785.1 5797.5,3787C 5804.21,3788.25 5810.55,3787.25 5816.5,3784C 5821.31,3779.27 5821.65,3774.27 5817.5,3769C 5805.71,3764.72 5793.71,3761.05 5781.5,3758C 5767.76,3752.35 5762.59,3742.18 5766,3727.5C 5768.81,3719.36 5774.31,3713.86 5782.5,3711C 5787.87,3709.36 5793.2,3708.2 5798.5,3707.5 Z"/></g>
<g><path style="opacity:0.922" fill="#000000" d="M 6906.5,3707.5 C 6927.93,3706.79 6942.6,3716.29 6950.5,3736C 6944.15,3737.17 6937.82,3738.34 6931.5,3739.5C 6923.58,3724.58 6911.91,3720.75 6896.5,3728C 6887.23,3737.62 6883.73,3749.12 6886,3762.5C 6888.96,3781.55 6899.8,3789.05 6918.5,3785C 6925.04,3781.12 6929.37,3775.45 6931.5,3768C 6937.52,3767.67 6943.52,3768 6949.5,3769C 6950.31,3769.31 6950.97,3769.81 6951.5,3770.5C 6945.51,3791.41 6931.68,3802.41 6910,3803.5C 6880.85,3800.85 6866.02,3784.85 6865.5,3755.5C 6865.72,3727.64 6879.38,3711.64 6906.5,3707.5 Z"/></g>
<g><path style="opacity:0.922" fill="#000000" d="M 7013.5,3707.5 C 7028.97,3706.37 7041.13,3712.03 7050,3724.5C 7051.88,3728.31 7053.05,3732.31 7053.5,3736.5C 7047.12,3736.99 7040.79,3736.99 7034.5,3736.5C 7030.03,3725.04 7021.69,3720.88 7009.5,3724C 7000.9,3727.17 6998.9,3732.5 7003.5,3740C 7016.81,3743.99 7030.14,3747.99 7043.5,3752C 7057.26,3762.24 7060.1,3775.07 7052,3790.5C 7042.84,3799.38 7031.84,3803.71 7019,3803.5C 7004.37,3803.85 6992.37,3798.52 6983,3787.5C 6979.67,3782.69 6978.5,3777.53 6979.5,3772C 6985.53,3770.96 6991.53,3770.79 6997.5,3771.5C 7000.38,3782.03 7007.38,3787.36 7018.5,3787.5C 7027.74,3788.4 7033.74,3784.56 7036.5,3776C 7036.09,3772.58 7034.43,3769.92 7031.5,3768C 7018.45,3764.15 7005.45,3760.15 6992.5,3756C 6984.47,3751.12 6980.47,3743.95 6980.5,3734.5C 6981.41,3722.76 6987.41,3714.93 6998.5,3711C 7003.55,3709.43 7008.55,3708.26 7013.5,3707.5 Z"/></g>
<g><path style="opacity:0.922" fill="#000000" d="M 7389.5,3707.5 C 7404.97,3706.37 7417.13,3712.03 7426,3724.5C 7427.88,3728.31 7429.05,3732.31 7429.5,3736.5C 7423.12,3736.99 7416.79,3736.99 7410.5,3736.5C 7406.03,3725.04 7397.69,3720.88 7385.5,3724C 7376.9,3727.17 7374.9,3732.5 7379.5,3740C 7392.81,3743.99 7406.14,3747.99 7419.5,3752C 7433.26,3762.24 7436.1,3775.07 7428,3790.5C 7418.84,3799.38 7407.84,3803.71 7395,3803.5C 7380.37,3803.85 7368.37,3798.52 7359,3787.5C 7355.67,3782.69 7354.5,3777.53 7355.5,3772C 7361.53,3770.96 7367.53,3770.79 7373.5,3771.5C 7376.38,3782.03 7383.38,3787.36 7394.5,3787.5C 7403.74,3788.4 7409.74,3784.56 7412.5,3776C 7412.09,3772.58 7410.43,3769.92 7407.5,3768C 7394.45,3764.15 7381.45,3760.15 7368.5,3756C 7360.47,3751.12 7356.47,3743.95 7356.5,3734.5C 7357.41,3722.76 7363.41,3714.93 7374.5,3711C 7379.55,3709.43 7384.55,3708.26 7389.5,3707.5 Z"/></g>
<g><path style="opacity:0.98" fill="#000000" d="M 25.5,3709.5 C 31.8333,3709.5 38.1667,3709.5 44.5,3709.5C 44.5,3739.83 44.5,3770.17 44.5,3800.5C 38.1667,3800.5 31.8333,3800.5 25.5,3800.5C 25.5,3770.17 25.5,3739.83 25.5,3709.5 Z"/></g>
<g><path style="opacity:0.942" fill="#000000" d="M 54.5,3709.5 C 62.0871,3709.19 69.5871,3709.52 77,3710.5C 89.6667,3731.17 102.333,3751.83 115,3772.5C 115.5,3751.5 115.667,3730.5 115.5,3709.5C 121.5,3709.5 127.5,3709.5 133.5,3709.5C 133.5,3739.83 133.5,3770.17 133.5,3800.5C 126.159,3800.67 118.826,3800.5 111.5,3800C 98.5413,3779.25 85.708,3758.42 73,3737.5C 72.5,3758.5 72.3334,3779.5 72.5,3800.5C 66.5,3800.5 60.5,3800.5 54.5,3800.5C 54.5,3770.17 54.5,3739.83 54.5,3709.5 Z"/></g>
<g><path style="opacity:0.931" fill="#000000" d="M 223.5,3709.5 C 241.534,3709.12 259.534,3709.62 277.5,3711C 294.103,3716.03 301.27,3727.19 299,3744.5C 297.202,3757.27 290.035,3765.11 277.5,3768C 266.21,3769.33 254.877,3769.83 243.5,3769.5C 243.5,3779.83 243.5,3790.17 243.5,3800.5C 236.833,3800.5 230.167,3800.5 223.5,3800.5C 223.5,3770.17 223.5,3739.83 223.5,3709.5 Z M 243.5,3725.5 C 252.552,3725.19 261.552,3725.69 270.5,3727C 276.053,3729.26 278.72,3733.43 278.5,3739.5C 278.72,3745.57 276.053,3749.74 270.5,3752C 261.559,3753.35 252.559,3753.85 243.5,3753.5C 243.5,3744.17 243.5,3734.83 243.5,3725.5 Z"/></g>
<g><path style="opacity:0.928" fill="#000000" d="M 306.5,3709.5 C 313.167,3709.5 319.833,3709.5 326.5,3709.5C 326.5,3739.83 326.5,3770.17 326.5,3800.5C 319.833,3800.5 313.167,3800.5 306.5,3800.5C 306.5,3770.17 306.5,3739.83 306.5,3709.5 Z"/></g>
<g><path style="opacity:0.938" fill="#000000" d="M 335.5,3709.5 C 353.867,3709.11 372.201,3709.61 390.5,3711C 405.314,3714.48 412.648,3723.81 412.5,3739C 412.901,3752.37 406.901,3761.53 394.5,3766.5C 400.915,3777.67 407.582,3788.67 414.5,3799.5C 406.855,3800.66 399.188,3800.83 391.5,3800C 385.122,3790.08 379.122,3779.91 373.5,3769.5C 367.537,3768.5 361.537,3768.17 355.5,3768.5C 355.5,3779.17 355.5,3789.83 355.5,3800.5C 348.833,3800.5 342.167,3800.5 335.5,3800.5C 335.5,3770.17 335.5,3739.83 335.5,3709.5 Z M 355.5,3725.5 C 365.972,3724.94 376.305,3725.78 386.5,3728C 394.5,3735.33 394.5,3742.67 386.5,3750C 376.305,3752.22 365.972,3753.06 355.5,3752.5C 355.5,3743.5 355.5,3734.5 355.5,3725.5 Z"/></g>
<g><path style="opacity:0.928" fill="#000000" d="M 419.5,3709.5 C 441.833,3709.5 464.167,3709.5 486.5,3709.5C 486.5,3714.83 486.5,3720.17 486.5,3725.5C 470.833,3725.5 455.167,3725.5 439.5,3725.5C 439.5,3732.5 439.5,3739.5 439.5,3746.5C 454.5,3746.5 469.5,3746.5 484.5,3746.5C 484.805,3751.76 484.471,3756.93 483.5,3762C 468.837,3762.5 454.17,3762.67 439.5,3762.5C 439.5,3769.83 439.5,3777.17 439.5,3784.5C 455.167,3784.5 470.833,3784.5 486.5,3784.5C 486.5,3789.83 486.5,3795.17 486.5,3800.5C 464.167,3800.5 441.833,3800.5 419.5,3800.5C 419.5,3770.17 419.5,3739.83 419.5,3709.5 Z"/></g>
<g><path style="opacity:0.934" fill="#000000" d="M 493.5,3709.5 C 506.504,3709.33 519.504,3709.5 532.5,3710C 560.674,3712.01 575.008,3727.18 575.5,3755.5C 576.358,3779.79 565.025,3794.63 541.5,3800C 525.503,3800.5 509.503,3800.67 493.5,3800.5C 493.5,3770.17 493.5,3739.83 493.5,3709.5 Z M 513.5,3725.5 C 546.999,3722.16 560.166,3736.83 553,3769.5C 550.002,3777.16 544.502,3782 536.5,3784C 528.841,3784.5 521.174,3784.67 513.5,3784.5C 513.5,3764.83 513.5,3745.17 513.5,3725.5 Z"/></g>
<g><path style="opacity:0.933" fill="#000000" d="M 605.5,3709.5 C 621.17,3709.33 636.837,3709.5 652.5,3710C 668.543,3710.55 677.21,3718.71 678.5,3734.5C 678.79,3742.59 675.457,3748.59 668.5,3752.5C 681.712,3761.07 685.212,3772.74 679,3787.5C 675.726,3792.77 671.226,3796.61 665.5,3799C 645.554,3800.45 625.554,3800.95 605.5,3800.5C 605.5,3770.17 605.5,3739.83 605.5,3709.5 Z M 625.5,3725.5 C 633.84,3725.33 642.173,3725.5 650.5,3726C 658.337,3729.18 660.504,3734.68 657,3742.5C 655.786,3744.05 654.286,3745.22 652.5,3746C 643.568,3747.38 634.568,3747.88 625.5,3747.5C 625.5,3740.17 625.5,3732.83 625.5,3725.5 Z M 625.5,3761.5 C 634.506,3761.33 643.506,3761.5 652.5,3762C 660.6,3765.27 663.1,3771.1 660,3779.5C 658.363,3781.81 656.196,3783.31 653.5,3784C 644.173,3784.5 634.839,3784.67 625.5,3784.5C 625.5,3776.83 625.5,3769.17 625.5,3761.5 Z"/></g>
<g><path style="opacity:0.918" fill="#000000" d="M 677.5,3709.5 C 684.508,3709.33 691.508,3709.5 698.5,3710C 705.793,3722.75 712.96,3735.59 720,3748.5C 726.579,3735.67 733.412,3723.01 740.5,3710.5C 747.468,3709.5 754.468,3709.17 761.5,3709.5C 751.803,3728.55 741.303,3747.22 730,3765.5C 729.5,3777.16 729.333,3788.83 729.5,3800.5C 722.833,3800.5 716.167,3800.5 709.5,3800.5C 709.667,3788.83 709.5,3777.16 709,3765.5C 697.697,3747.22 687.197,3728.55 677.5,3709.5 Z"/></g>
<g><path style="opacity:0.931" fill="#000000" d="M 787.5,3709.5 C 813.5,3709.5 839.5,3709.5 865.5,3709.5C 865.5,3715.17 865.5,3720.83 865.5,3726.5C 855.833,3726.5 846.167,3726.5 836.5,3726.5C 836.5,3751.17 836.5,3775.83 836.5,3800.5C 829.833,3800.5 823.167,3800.5 816.5,3800.5C 816.5,3775.83 816.5,3751.17 816.5,3726.5C 806.833,3726.5 797.167,3726.5 787.5,3726.5C 787.5,3720.83 787.5,3715.17 787.5,3709.5 Z"/></g>
<g><path style="opacity:0.928" fill="#000000" d="M 871.5,3709.5 C 878.167,3709.5 884.833,3709.5 891.5,3709.5C 891.5,3721.83 891.5,3734.17 891.5,3746.5C 904.5,3746.5 917.5,3746.5 930.5,3746.5C 930.5,3734.17 930.5,3721.83 930.5,3709.5C 937.167,3709.5 943.833,3709.5 950.5,3709.5C 950.5,3739.83 950.5,3770.17 950.5,3800.5C 943.833,3800.5 937.167,3800.5 930.5,3800.5C 930.5,3788.17 930.5,3775.83 930.5,3763.5C 917.5,3763.5 904.5,3763.5 891.5,3763.5C 891.5,3775.83 891.5,3788.17 891.5,3800.5C 884.833,3800.5 878.167,3800.5 871.5,3800.5C 871.5,3770.17 871.5,3739.83 871.5,3709.5 Z"/></g>
<g><path style="opacity:0.939" fill="#000000" d="M 959.5,3709.5 C 981.5,3709.5 1003.5,3709.5 1025.5,3709.5C 1025.5,3714.83 1025.5,3720.17 1025.5,3725.5C 1010.17,3725.5 994.833,3725.5 979.5,3725.5C 979.5,3732.5 979.5,3739.5 979.5,3746.5C 994.167,3746.5 1008.83,3746.5 1023.5,3746.5C 1023.5,3751.83 1023.5,3757.17 1023.5,3762.5C 1008.83,3762.5 994.167,3762.5 979.5,3762.5C 979.5,3769.83 979.5,3777.17 979.5,3784.5C 994.833,3784.5 1010.17,3784.5 1025.5,3784.5C 1025.5,3789.83 1025.5,3795.17 1025.5,3800.5C 1003.5,3800.5 981.5,3800.5 959.5,3800.5C 959.5,3770.17 959.5,3739.83 959.5,3709.5 Z"/></g>
<g><path style="opacity:0.932" fill="#000000" d="M 1056.5,3709.5 C 1072.86,3709.17 1089.2,3709.67 1105.5,3711C 1128.43,3716.79 1139.43,3731.62 1138.5,3755.5C 1139.31,3779.83 1127.98,3794.67 1104.5,3800C 1088.5,3800.5 1072.5,3800.67 1056.5,3800.5C 1056.5,3770.17 1056.5,3739.83 1056.5,3709.5 Z M 1076.5,3725.5 C 1111.91,3722.74 1124.75,3738.41 1115,3772.5C 1111.53,3778.64 1106.36,3782.47 1099.5,3784C 1091.84,3784.5 1084.17,3784.67 1076.5,3784.5C 1076.5,3764.83 1076.5,3745.17 1076.5,3725.5 Z"/></g>
<g><path style="opacity:0.934" fill="#000000" d="M 1168.5,3709.5 C 1177.19,3709.17 1185.86,3709.5 1194.5,3710.5C 1205.54,3740.47 1216.88,3770.3 1228.5,3800C 1221.14,3800.83 1213.81,3800.66 1206.5,3799.5C 1203.97,3793.24 1201.64,3786.91 1199.5,3780.5C 1187.51,3779.33 1175.51,3779.17 1163.5,3780C 1161.07,3786.45 1158.74,3792.95 1156.5,3799.5C 1149.19,3800.66 1141.86,3800.83 1134.5,3800C 1146.33,3770.02 1157.66,3739.85 1168.5,3709.5 Z M 1180.5,3728.5 C 1185.99,3739.95 1190.32,3751.95 1193.5,3764.5C 1185.16,3764.67 1176.83,3764.5 1168.5,3764C 1172.8,3752.26 1176.8,3740.43 1180.5,3728.5 Z"/></g>
<g><path style="opacity:0.938" fill="#000000" d="M 1232.5,3709.5 C 1250.87,3709.11 1269.2,3709.61 1287.5,3711C 1302.31,3714.48 1309.65,3723.81 1309.5,3739C 1309.9,3752.37 1303.9,3761.53 1291.5,3766.5C 1297.92,3777.67 1304.58,3788.67 1311.5,3799.5C 1303.85,3800.66 1296.19,3800.83 1288.5,3800C 1282.12,3790.08 1276.12,3779.91 1270.5,3769.5C 1264.54,3768.5 1258.54,3768.17 1252.5,3768.5C 1252.5,3779.17 1252.5,3789.83 1252.5,3800.5C 1245.83,3800.5 1239.17,3800.5 1232.5,3800.5C 1232.5,3770.17 1232.5,3739.83 1232.5,3709.5 Z M 1252.5,3725.5 C 1262.97,3724.94 1273.31,3725.78 1283.5,3728C 1291.5,3735.33 1291.5,3742.67 1283.5,3750C 1273.31,3752.22 1262.97,3753.06 1252.5,3752.5C 1252.5,3743.5 1252.5,3734.5 1252.5,3725.5 Z"/></g>
<g><path style="opacity:0.928" fill="#000000" d="M 1316.5,3709.5 C 1323.17,3709.5 1329.83,3709.5 1336.5,3709.5C 1336.5,3739.83 1336.5,3770.17 1336.5,3800.5C 1329.83,3800.5 1323.17,3800.5 1316.5,3800.5C 1316.5,3770.17 1316.5,3739.83 1316.5,3709.5 Z"/></g>
<g><path style="opacity:0.916" fill="#000000" d="M 1345.5,3709.5 C 1353.2,3709.17 1360.86,3709.5 1368.5,3710.5C 1381.2,3730.7 1393.7,3751.03 1406,3771.5C 1406.5,3750.84 1406.67,3730.17 1406.5,3709.5C 1412.83,3709.5 1419.17,3709.5 1425.5,3709.5C 1425.5,3739.83 1425.5,3770.17 1425.5,3800.5C 1417.8,3800.83 1410.14,3800.5 1402.5,3799.5C 1390,3779.17 1377.5,3758.83 1365,3738.5C 1364.5,3759.16 1364.33,3779.83 1364.5,3800.5C 1358.17,3800.5 1351.83,3800.5 1345.5,3800.5C 1345.5,3770.17 1345.5,3739.83 1345.5,3709.5 Z"/></g>
<g><path style="opacity:0.933" fill="#000000" d="M 1632.5,3709.5 C 1650.2,3709.12 1667.87,3709.62 1685.5,3711C 1703.53,3716.53 1710.69,3728.69 1707,3747.5C 1704.17,3758.33 1697.33,3765.17 1686.5,3768C 1675.21,3769.33 1663.88,3769.83 1652.5,3769.5C 1652.5,3779.83 1652.5,3790.17 1652.5,3800.5C 1645.83,3800.5 1639.17,3800.5 1632.5,3800.5C 1632.5,3770.17 1632.5,3739.83 1632.5,3709.5 Z M 1652.5,3725.5 C 1661.22,3725.2 1669.89,3725.7 1678.5,3727C 1687.68,3731.56 1689.85,3738.4 1685,3747.5C 1682.33,3750.84 1678.83,3752.67 1674.5,3753C 1667.17,3753.5 1659.84,3753.67 1652.5,3753.5C 1652.5,3744.17 1652.5,3734.83 1652.5,3725.5 Z"/></g>
<g><path style="opacity:0.928" fill="#000000" d="M 1714.5,3709.5 C 1721.17,3709.5 1727.83,3709.5 1734.5,3709.5C 1734.5,3739.83 1734.5,3770.17 1734.5,3800.5C 1727.83,3800.5 1721.17,3800.5 1714.5,3800.5C 1714.5,3770.17 1714.5,3739.83 1714.5,3709.5 Z"/></g>
<g><path style="opacity:0.933" fill="#000000" d="M 1743.5,3709.5 C 1762.2,3709.11 1780.87,3709.61 1799.5,3711C 1814.25,3714.51 1821.59,3723.84 1821.5,3739C 1821.56,3752.57 1815.22,3761.57 1802.5,3766C 1809.75,3777.17 1816.75,3788.5 1823.5,3800C 1815.48,3800.83 1807.48,3800.66 1799.5,3799.5C 1793.7,3789.2 1787.7,3779.04 1781.5,3769C 1775.51,3768.5 1769.51,3768.33 1763.5,3768.5C 1763.5,3779.17 1763.5,3789.83 1763.5,3800.5C 1756.83,3800.5 1750.17,3800.5 1743.5,3800.5C 1743.5,3770.17 1743.5,3739.83 1743.5,3709.5 Z M 1763.5,3725.5 C 1774.3,3724.93 1784.97,3725.77 1795.5,3728C 1803.49,3735.29 1803.49,3742.62 1795.5,3750C 1784.97,3752.23 1774.3,3753.07 1763.5,3752.5C 1763.5,3743.5 1763.5,3734.5 1763.5,3725.5 Z"/></g>
<g><path style="opacity:0.926" fill="#000000" d="M 1828.5,3709.5 C 1835.17,3709.5 1841.83,3709.5 1848.5,3709.5C 1848.5,3739.83 1848.5,3770.17 1848.5,3800.5C 1841.83,3800.5 1835.17,3800.5 1828.5,3800.5C 1828.5,3770.17 1828.5,3739.83 1828.5,3709.5 Z"/></g>
<g><path style="opacity:0.928" fill="#000000" d="M 1854.5,3709.5 C 1880.5,3709.5 1906.5,3709.5 1932.5,3709.5C 1932.5,3715.17 1932.5,3720.83 1932.5,3726.5C 1922.83,3726.5 1913.17,3726.5 1903.5,3726.5C 1903.5,3751.17 1903.5,3775.83 1903.5,3800.5C 1896.83,3800.5 1890.17,3800.5 1883.5,3800.5C 1883.5,3775.83 1883.5,3751.17 1883.5,3726.5C 1873.83,3726.5 1864.17,3726.5 1854.5,3726.5C 1854.5,3720.83 1854.5,3715.17 1854.5,3709.5 Z"/></g>
<g><path style="opacity:0.941" fill="#000000" d="M 2058.5,3709.5 C 2080.5,3709.5 2102.5,3709.5 2124.5,3709.5C 2124.5,3714.83 2124.5,3720.17 2124.5,3725.5C 2109.17,3725.5 2093.83,3725.5 2078.5,3725.5C 2078.5,3733.17 2078.5,3740.83 2078.5,3748.5C 2093.17,3748.5 2107.83,3748.5 2122.5,3748.5C 2122.5,3753.5 2122.5,3758.5 2122.5,3763.5C 2107.83,3763.5 2093.17,3763.5 2078.5,3763.5C 2078.5,3775.83 2078.5,3788.17 2078.5,3800.5C 2071.83,3800.5 2065.17,3800.5 2058.5,3800.5C 2058.5,3770.17 2058.5,3739.83 2058.5,3709.5 Z"/></g>
<g><path style="opacity:0.931" fill="#000000" d="M 2151.5,3709.5 C 2177.5,3709.5 2203.5,3709.5 2229.5,3709.5C 2229.5,3715.17 2229.5,3720.83 2229.5,3726.5C 2219.83,3726.5 2210.17,3726.5 2200.5,3726.5C 2200.5,3751.17 2200.5,3775.83 2200.5,3800.5C 2193.83,3800.5 2187.17,3800.5 2180.5,3800.5C 2180.5,3775.83 2180.5,3751.17 2180.5,3726.5C 2170.83,3726.5 2161.17,3726.5 2151.5,3726.5C 2151.5,3720.83 2151.5,3715.17 2151.5,3709.5 Z"/></g>
<g><path style="opacity:0.928" fill="#000000" d="M 2235.5,3709.5 C 2242.17,3709.5 2248.83,3709.5 2255.5,3709.5C 2255.5,3721.83 2255.5,3734.17 2255.5,3746.5C 2268.5,3746.5 2281.5,3746.5 2294.5,3746.5C 2294.5,3734.17 2294.5,3721.83 2294.5,3709.5C 2301.17,3709.5 2307.83,3709.5 2314.5,3709.5C 2314.5,3739.83 2314.5,3770.17 2314.5,3800.5C 2307.83,3800.5 2301.17,3800.5 2294.5,3800.5C 2294.5,3788.17 2294.5,3775.83 2294.5,3763.5C 2281.5,3763.5 2268.5,3763.5 2255.5,3763.5C 2255.5,3775.83 2255.5,3788.17 2255.5,3800.5C 2248.83,3800.5 2242.17,3800.5 2235.5,3800.5C 2235.5,3770.17 2235.5,3739.83 2235.5,3709.5 Z"/></g>
<g><path style="opacity:0.939" fill="#000000" d="M 2500.5,3709.5 C 2522.5,3709.5 2544.5,3709.5 2566.5,3709.5C 2566.5,3714.83 2566.5,3720.17 2566.5,3725.5C 2551.17,3725.5 2535.83,3725.5 2520.5,3725.5C 2520.5,3732.5 2520.5,3739.5 2520.5,3746.5C 2535.17,3746.5 2549.83,3746.5 2564.5,3746.5C 2564.5,3751.83 2564.5,3757.17 2564.5,3762.5C 2549.83,3762.5 2535.17,3762.5 2520.5,3762.5C 2520.5,3769.83 2520.5,3777.17 2520.5,3784.5C 2535.83,3784.5 2551.17,3784.5 2566.5,3784.5C 2566.5,3789.83 2566.5,3795.17 2566.5,3800.5C 2544.5,3800.5 2522.5,3800.5 2500.5,3800.5C 2500.5,3770.17 2500.5,3739.83 2500.5,3709.5 Z"/></g>
<g><path style="opacity:0.928" fill="#000000" d="M 2593.5,3709.5 C 2600.2,3709.17 2606.87,3709.5 2613.5,3710.5C 2618.19,3731.78 2622.69,3753.11 2627,3774.5C 2632.45,3753.09 2636.95,3731.43 2640.5,3709.5C 2648.17,3709.5 2655.83,3709.5 2663.5,3709.5C 2667.31,3731.37 2671.81,3753.04 2677,3774.5C 2681.69,3752.86 2686.19,3731.19 2690.5,3709.5C 2697.53,3709.17 2704.53,3709.5 2711.5,3710.5C 2704.02,3739.75 2696.85,3769.08 2690,3798.5C 2682.11,3800.45 2673.94,3801.12 2665.5,3800.5C 2661.19,3779.47 2656.69,3758.47 2652,3737.5C 2647.51,3758.45 2643.34,3779.45 2639.5,3800.5C 2631.17,3800.5 2622.83,3800.5 2614.5,3800.5C 2607.34,3770.2 2600.34,3739.87 2593.5,3709.5 Z"/></g>
<g><path style="opacity:0.928" fill="#000000" d="M 2715.5,3709.5 C 2722.17,3709.5 2728.83,3709.5 2735.5,3709.5C 2735.5,3721.83 2735.5,3734.17 2735.5,3746.5C 2748.5,3746.5 2761.5,3746.5 2774.5,3746.5C 2774.5,3734.17 2774.5,3721.83 2774.5,3709.5C 2781.17,3709.5 2787.83,3709.5 2794.5,3709.5C 2794.5,3739.83 2794.5,3770.17 2794.5,3800.5C 2787.83,3800.5 2781.17,3800.5 2774.5,3800.5C 2774.5,3788.17 2774.5,3775.83 2774.5,3763.5C 2761.5,3763.5 2748.5,3763.5 2735.5,3763.5C 2735.5,3775.83 2735.5,3788.17 2735.5,3800.5C 2728.83,3800.5 2722.17,3800.5 2715.5,3800.5C 2715.5,3770.17 2715.5,3739.83 2715.5,3709.5 Z"/></g>
<g><path style="opacity:0.932" fill="#000000" d="M 2922.5,3709.5 C 2938.86,3709.17 2955.2,3709.67 2971.5,3711C 2994.43,3716.79 3005.43,3731.62 3004.5,3755.5C 3005.31,3779.83 2993.98,3794.67 2970.5,3800C 2954.5,3800.5 2938.5,3800.67 2922.5,3800.5C 2922.5,3770.17 2922.5,3739.83 2922.5,3709.5 Z M 2942.5,3725.5 C 2977.91,3722.74 2990.75,3738.41 2981,3772.5C 2977.53,3778.64 2972.36,3782.47 2965.5,3784C 2957.84,3784.5 2950.17,3784.67 2942.5,3784.5C 2942.5,3764.83 2942.5,3745.17 2942.5,3725.5 Z"/></g>
<g><path style="opacity:0.928" fill="#000000" d="M 3011.5,3709.5 C 3033.83,3709.5 3056.17,3709.5 3078.5,3709.5C 3078.5,3714.83 3078.5,3720.17 3078.5,3725.5C 3062.83,3725.5 3047.17,3725.5 3031.5,3725.5C 3031.5,3732.5 3031.5,3739.5 3031.5,3746.5C 3046.5,3746.5 3061.5,3746.5 3076.5,3746.5C 3076.5,3751.83 3076.5,3757.17 3076.5,3762.5C 3061.5,3762.5 3046.5,3762.5 3031.5,3762.5C 3031.5,3769.83 3031.5,3777.17 3031.5,3784.5C 3047.17,3784.5 3062.83,3784.5 3078.5,3784.5C 3078.5,3789.83 3078.5,3795.17 3078.5,3800.5C 3056.17,3800.5 3033.83,3800.5 3011.5,3800.5C 3011.5,3770.17 3011.5,3739.83 3011.5,3709.5 Z"/></g>
<g><path style="opacity:0.933" fill="#000000" d="M 3085.5,3709.5 C 3107.83,3709.5 3130.17,3709.5 3152.5,3709.5C 3152.5,3714.83 3152.5,3720.17 3152.5,3725.5C 3136.83,3725.5 3121.17,3725.5 3105.5,3725.5C 3105.5,3733.17 3105.5,3740.83 3105.5,3748.5C 3120.5,3748.5 3135.5,3748.5 3150.5,3748.5C 3150.5,3753.5 3150.5,3758.5 3150.5,3763.5C 3135.5,3763.5 3120.5,3763.5 3105.5,3763.5C 3105.5,3775.83 3105.5,3788.17 3105.5,3800.5C 3098.83,3800.5 3092.17,3800.5 3085.5,3800.5C 3085.5,3770.17 3085.5,3739.83 3085.5,3709.5 Z"/></g>
<g><path style="opacity:0.918" fill="#000000" d="M 3154.5,3709.5 C 3161.51,3709.33 3168.51,3709.5 3175.5,3710C 3182.79,3722.75 3189.96,3735.59 3197,3748.5C 3203.58,3735.67 3210.41,3723.01 3217.5,3710.5C 3224.47,3709.5 3231.47,3709.17 3238.5,3709.5C 3228.8,3728.55 3218.3,3747.22 3207,3765.5C 3206.5,3777.16 3206.33,3788.83 3206.5,3800.5C 3199.83,3800.5 3193.17,3800.5 3186.5,3800.5C 3186.67,3788.83 3186.5,3777.16 3186,3765.5C 3174.7,3747.22 3164.2,3728.55 3154.5,3709.5 Z"/></g>
<g><path style="opacity:0.926" fill="#000000" d="M 3534.5,3709.5 C 3541.17,3709.5 3547.83,3709.5 3554.5,3709.5C 3554.5,3739.83 3554.5,3770.17 3554.5,3800.5C 3547.83,3800.5 3541.17,3800.5 3534.5,3800.5C 3534.5,3770.17 3534.5,3739.83 3534.5,3709.5 Z"/></g>
<g><path style="opacity:0.928" fill="#000000" d="M 3563.5,3709.5 C 3585.83,3709.5 3608.17,3709.5 3630.5,3709.5C 3630.5,3714.83 3630.5,3720.17 3630.5,3725.5C 3614.83,3725.5 3599.17,3725.5 3583.5,3725.5C 3583.5,3732.5 3583.5,3739.5 3583.5,3746.5C 3598.5,3746.5 3613.5,3746.5 3628.5,3746.5C 3628.8,3751.76 3628.47,3756.93 3627.5,3762C 3612.84,3762.5 3598.17,3762.67 3583.5,3762.5C 3583.5,3769.83 3583.5,3777.17 3583.5,3784.5C 3599.17,3784.5 3614.83,3784.5 3630.5,3784.5C 3630.5,3789.83 3630.5,3795.17 3630.5,3800.5C 3608.17,3800.5 3585.83,3800.5 3563.5,3800.5C 3563.5,3770.17 3563.5,3739.83 3563.5,3709.5 Z"/></g>
<g><path style="opacity:0.928" fill="#000000" d="M 3634.5,3709.5 C 3660.5,3709.5 3686.5,3709.5 3712.5,3709.5C 3712.5,3715.17 3712.5,3720.83 3712.5,3726.5C 3702.83,3726.5 3693.17,3726.5 3683.5,3726.5C 3683.5,3751.17 3683.5,3775.83 3683.5,3800.5C 3676.83,3800.5 3670.17,3800.5 3663.5,3800.5C 3663.5,3775.83 3663.5,3751.17 3663.5,3726.5C 3653.83,3726.5 3644.17,3726.5 3634.5,3726.5C 3634.5,3720.83 3634.5,3715.17 3634.5,3709.5 Z"/></g>
<g><path style="opacity:0.935" fill="#000000" d="M 3734.5,3709.5 C 3742.84,3709.33 3751.17,3709.5 3759.5,3710C 3770.96,3739.76 3782.3,3769.6 3793.5,3799.5C 3786.2,3800.5 3778.86,3800.83 3771.5,3800.5C 3769.86,3793.42 3767.53,3786.59 3764.5,3780C 3752.5,3779.5 3740.5,3779.33 3728.5,3779.5C 3726.47,3786.43 3724.14,3793.26 3721.5,3800C 3714.48,3800.83 3707.48,3800.66 3700.5,3799.5C 3711.85,3769.47 3723.18,3739.47 3734.5,3709.5 Z M 3746.5,3728.5 C 3751,3739.99 3755.33,3751.66 3759.5,3763.5C 3751.19,3764.5 3742.86,3764.83 3734.5,3764.5C 3738.3,3752.43 3742.3,3740.43 3746.5,3728.5 Z"/></g>
<g><path style="opacity:0.943" fill="#000000" d="M 3797.5,3709.5 C 3804.17,3709.5 3810.83,3709.5 3817.5,3709.5C 3817.5,3734.5 3817.5,3759.5 3817.5,3784.5C 3833.5,3784.5 3849.5,3784.5 3865.5,3784.5C 3865.5,3789.83 3865.5,3795.17 3865.5,3800.5C 3842.83,3800.5 3820.17,3800.5 3797.5,3800.5C 3797.5,3770.17 3797.5,3739.83 3797.5,3709.5 Z"/></g>
<g><path style="opacity:0.933" fill="#000000" d="M 3894.5,3709.5 C 3913.2,3709.11 3931.87,3709.61 3950.5,3711C 3965.25,3714.51 3972.59,3723.84 3972.5,3739C 3972.56,3752.57 3966.22,3761.57 3953.5,3766C 3960.75,3777.17 3967.75,3788.5 3974.5,3800C 3966.48,3800.83 3958.48,3800.66 3950.5,3799.5C 3944.7,3789.2 3938.7,3779.04 3932.5,3769C 3926.51,3768.5 3920.51,3768.33 3914.5,3768.5C 3914.5,3779.17 3914.5,3789.83 3914.5,3800.5C 3907.83,3800.5 3901.17,3800.5 3894.5,3800.5C 3894.5,3770.17 3894.5,3739.83 3894.5,3709.5 Z M 3914.5,3725.5 C 3925.3,3724.93 3935.97,3725.77 3946.5,3728C 3954.49,3735.29 3954.49,3742.62 3946.5,3750C 3935.97,3752.23 3925.3,3753.07 3914.5,3752.5C 3914.5,3743.5 3914.5,3734.5 3914.5,3725.5 Z"/></g>
<g><path style="opacity:0.925" fill="#000000" d="M 3979.5,3709.5 C 3986.17,3709.5 3992.83,3709.5 3999.5,3709.5C 3999.33,3730.5 3999.5,3751.5 4000,3772.5C 4002.48,3781.84 4008.65,3786.51 4018.5,3786.5C 4028.7,3786.47 4034.87,3781.47 4037,3771.5C 4037.5,3750.84 4037.67,3730.17 4037.5,3709.5C 4044.17,3709.5 4050.83,3709.5 4057.5,3709.5C 4057.67,3730.84 4057.5,3752.17 4057,3773.5C 4054.94,3787.56 4047.11,3796.73 4033.5,3801C 4019.3,3804.68 4005.63,3803.01 3992.5,3796C 3985.38,3790.55 3981.22,3783.38 3980,3774.5C 3979.5,3752.84 3979.33,3731.17 3979.5,3709.5 Z"/></g>
<g><path style="opacity:0.949" fill="#000000" d="M 4066.5,3709.5 C 4073.17,3709.5 4079.83,3709.5 4086.5,3709.5C 4086.5,3734.5 4086.5,3759.5 4086.5,3784.5C 4102.17,3784.5 4117.83,3784.5 4133.5,3784.5C 4133.5,3789.83 4133.5,3795.17 4133.5,3800.5C 4111.17,3800.5 4088.83,3800.5 4066.5,3800.5C 4066.5,3770.17 4066.5,3739.83 4066.5,3709.5 Z"/></g>
<g><path style="opacity:0.931" fill="#000000" d="M 4139.5,3709.5 C 4161.83,3709.5 4184.17,3709.5 4206.5,3709.5C 4206.5,3714.83 4206.5,3720.17 4206.5,3725.5C 4190.83,3725.5 4175.17,3725.5 4159.5,3725.5C 4159.5,3732.5 4159.5,3739.5 4159.5,3746.5C 4174.17,3746.5 4188.83,3746.5 4203.5,3746.5C 4203.5,3751.83 4203.5,3757.17 4203.5,3762.5C 4188.83,3762.5 4174.17,3762.5 4159.5,3762.5C 4159.5,3769.83 4159.5,3777.17 4159.5,3784.5C 4175.17,3784.5 4190.83,3784.5 4206.5,3784.5C 4206.5,3789.83 4206.5,3795.17 4206.5,3800.5C 4184.17,3800.5 4161.83,3800.5 4139.5,3800.5C 4139.5,3770.17 4139.5,3739.83 4139.5,3709.5 Z"/></g>
<g><path style="opacity:0.935" fill="#000000" d="M 4347.5,3709.5 C 4356.42,3709.18 4365.25,3709.52 4374,3710.5C 4384.98,3740.43 4396.14,3770.26 4407.5,3800C 4400.17,3800.5 4392.84,3800.67 4385.5,3800.5C 4383.47,3793.57 4381.14,3786.74 4378.5,3780C 4366.49,3779.17 4354.49,3779.33 4342.5,3780.5C 4340.36,3786.91 4338.03,3793.24 4335.5,3799.5C 4328.53,3800.5 4321.53,3800.83 4314.5,3800.5C 4325.7,3770.24 4336.7,3739.91 4347.5,3709.5 Z M 4360.5,3728.5 C 4364.71,3740.29 4369.04,3752.12 4373.5,3764C 4364.83,3764.67 4356.17,3764.67 4347.5,3764C 4351.94,3752.19 4356.27,3740.36 4360.5,3728.5 Z"/></g>
<g><path style="opacity:0.942" fill="#000000" d="M 4411.5,3709.5 C 4418.84,3709.33 4426.17,3709.5 4433.5,3710C 4446.46,3730.75 4459.29,3751.58 4472,3772.5C 4472.5,3751.5 4472.67,3730.5 4472.5,3709.5C 4478.5,3709.5 4484.5,3709.5 4490.5,3709.5C 4490.5,3739.83 4490.5,3770.17 4490.5,3800.5C 4482.91,3800.81 4475.41,3800.48 4468,3799.5C 4455.33,3778.83 4442.67,3758.17 4430,3737.5C 4429.5,3758.5 4429.33,3779.5 4429.5,3800.5C 4423.5,3800.5 4417.5,3800.5 4411.5,3800.5C 4411.5,3770.17 4411.5,3739.83 4411.5,3709.5 Z"/></g>
<g><path style="opacity:0.934" fill="#000000" d="M 4499.5,3709.5 C 4512.5,3709.33 4525.5,3709.5 4538.5,3710C 4566.67,3712.01 4581.01,3727.18 4581.5,3755.5C 4582.36,3779.79 4571.02,3794.63 4547.5,3800C 4531.5,3800.5 4515.5,3800.67 4499.5,3800.5C 4499.5,3770.17 4499.5,3739.83 4499.5,3709.5 Z M 4519.5,3725.5 C 4553,3722.16 4566.17,3736.83 4559,3769.5C 4556,3777.16 4550.5,3782 4542.5,3784C 4534.84,3784.5 4527.17,3784.67 4519.5,3784.5C 4519.5,3764.83 4519.5,3745.17 4519.5,3725.5 Z"/></g>
<g><path style="opacity:0.916" fill="#000000" d="M 4611.5,3709.5 C 4619.2,3709.17 4626.86,3709.5 4634.5,3710.5C 4647.2,3730.7 4659.7,3751.03 4672,3771.5C 4672.5,3750.84 4672.67,3730.17 4672.5,3709.5C 4678.83,3709.5 4685.17,3709.5 4691.5,3709.5C 4691.5,3739.83 4691.5,3770.17 4691.5,3800.5C 4683.8,3800.83 4676.14,3800.5 4668.5,3799.5C 4656,3779.17 4643.5,3758.83 4631,3738.5C 4630.5,3759.16 4630.33,3779.83 4630.5,3800.5C 4624.17,3800.5 4617.83,3800.5 4611.5,3800.5C 4611.5,3770.17 4611.5,3739.83 4611.5,3709.5 Z"/></g>
<g><path style="opacity:0.937" fill="#000000" d="M 4795.5,3709.5 C 4813.87,3709.11 4832.2,3709.61 4850.5,3711C 4865.12,3714.62 4872.79,3723.96 4873.5,3739C 4873,3752.17 4866.66,3761.34 4854.5,3766.5C 4861.17,3777.5 4867.83,3788.5 4874.5,3799.5C 4866.85,3800.66 4859.19,3800.83 4851.5,3800C 4845.63,3789.75 4839.63,3779.58 4833.5,3769.5C 4827.54,3768.5 4821.54,3768.17 4815.5,3768.5C 4815.5,3779.17 4815.5,3789.83 4815.5,3800.5C 4808.83,3800.5 4802.17,3800.5 4795.5,3800.5C 4795.5,3770.17 4795.5,3739.83 4795.5,3709.5 Z M 4815.5,3725.5 C 4825.22,3725.18 4834.88,3725.68 4844.5,3727C 4849.9,3729.13 4852.57,3733.13 4852.5,3739C 4852.57,3744.87 4849.9,3748.87 4844.5,3751C 4834.88,3752.29 4825.21,3752.79 4815.5,3752.5C 4815.5,3743.5 4815.5,3734.5 4815.5,3725.5 Z"/></g>
<g><path style="opacity:0.924" fill="#000000" d="M 4879.5,3709.5 C 4889.19,3709.17 4898.86,3709.5 4908.5,3710.5C 4914.71,3730.64 4921.21,3750.64 4928,3770.5C 4933.87,3750.4 4940.03,3730.4 4946.5,3710.5C 4956.14,3709.5 4965.81,3709.17 4975.5,3709.5C 4975.5,3739.83 4975.5,3770.17 4975.5,3800.5C 4969.17,3800.5 4962.83,3800.5 4956.5,3800.5C 4956.67,3779.16 4956.5,3757.83 4956,3736.5C 4948.66,3757.7 4941.82,3779.03 4935.5,3800.5C 4930.13,3800.83 4924.79,3800.49 4919.5,3799.5C 4912.37,3778.93 4905.53,3758.27 4899,3737.5C 4898.5,3758.5 4898.33,3779.5 4898.5,3800.5C 4892.17,3800.5 4885.83,3800.5 4879.5,3800.5C 4879.5,3770.17 4879.5,3739.83 4879.5,3709.5 Z"/></g>
<g><path style="opacity:0.931" fill="#000000" d="M 5086.5,3709.5 C 5112.5,3709.5 5138.5,3709.5 5164.5,3709.5C 5164.5,3715.17 5164.5,3720.83 5164.5,3726.5C 5154.83,3726.5 5145.17,3726.5 5135.5,3726.5C 5135.5,3751.17 5135.5,3775.83 5135.5,3800.5C 5128.83,3800.5 5122.17,3800.5 5115.5,3800.5C 5115.5,3775.83 5115.5,3751.17 5115.5,3726.5C 5105.83,3726.5 5096.17,3726.5 5086.5,3726.5C 5086.5,3720.83 5086.5,3715.17 5086.5,3709.5 Z"/></g>
<g><path style="opacity:0.928" fill="#000000" d="M 5287.5,3709.5 C 5309.83,3709.5 5332.17,3709.5 5354.5,3709.5C 5354.5,3714.83 5354.5,3720.17 5354.5,3725.5C 5338.83,3725.5 5323.17,3725.5 5307.5,3725.5C 5307.5,3732.5 5307.5,3739.5 5307.5,3746.5C 5322.5,3746.5 5337.5,3746.5 5352.5,3746.5C 5352.5,3751.83 5352.5,3757.17 5352.5,3762.5C 5337.5,3762.5 5322.5,3762.5 5307.5,3762.5C 5307.5,3769.83 5307.5,3777.17 5307.5,3784.5C 5323.17,3784.5 5338.83,3784.5 5354.5,3784.5C 5354.5,3789.83 5354.5,3795.17 5354.5,3800.5C 5332.17,3800.5 5309.83,3800.5 5287.5,3800.5C 5287.5,3770.17 5287.5,3739.83 5287.5,3709.5 Z"/></g>
<g><path style="opacity:0.918" fill="#000000" d="M 5359.5,3709.5 C 5366.84,3709.33 5374.17,3709.5 5381.5,3710C 5387.29,3719.08 5392.96,3728.25 5398.5,3737.5C 5404.4,3728.7 5410.07,3719.7 5415.5,3710.5C 5422.83,3709.17 5430.17,3709.17 5437.5,3710.5C 5428.24,3724.7 5419.24,3739.04 5410.5,3753.5C 5419.65,3769.13 5429.32,3784.47 5439.5,3799.5C 5431.83,3800.83 5424.17,3800.83 5416.5,3799.5C 5410.58,3789.33 5404.42,3779.33 5398,3769.5C 5391.83,3779.67 5385.67,3789.83 5379.5,3800C 5372.14,3800.83 5364.81,3800.66 5357.5,3799.5C 5367.05,3784.23 5376.71,3769.07 5386.5,3754C 5377.11,3739.38 5368.11,3724.54 5359.5,3709.5 Z"/></g>
<g><path style="opacity:0.931" fill="#000000" d="M 5443.5,3709.5 C 5461.53,3709.12 5479.53,3709.62 5497.5,3711C 5514.1,3716.03 5521.27,3727.19 5519,3744.5C 5517.2,3757.27 5510.03,3765.11 5497.5,3768C 5486.21,3769.33 5474.88,3769.83 5463.5,3769.5C 5463.5,3779.83 5463.5,3790.17 5463.5,3800.5C 5456.83,3800.5 5450.17,3800.5 5443.5,3800.5C 5443.5,3770.17 5443.5,3739.83 5443.5,3709.5 Z M 5463.5,3725.5 C 5472.55,3725.19 5481.55,3725.69 5490.5,3727C 5496.05,3729.26 5498.72,3733.43 5498.5,3739.5C 5498.72,3745.57 5496.05,3749.74 5490.5,3752C 5481.56,3753.35 5472.56,3753.85 5463.5,3753.5C 5463.5,3744.17 5463.5,3734.83 5463.5,3725.5 Z"/></g>
<g><path style="opacity:0.938" fill="#000000" d="M 5526.5,3709.5 C 5544.87,3709.11 5563.2,3709.61 5581.5,3711C 5596.31,3714.48 5603.65,3723.81 5603.5,3739C 5603.9,3752.37 5597.9,3761.53 5585.5,3766.5C 5591.92,3777.67 5598.58,3788.67 5605.5,3799.5C 5597.85,3800.66 5590.19,3800.83 5582.5,3800C 5576.12,3790.08 5570.12,3779.91 5564.5,3769.5C 5558.54,3768.5 5552.54,3768.17 5546.5,3768.5C 5546.5,3779.17 5546.5,3789.83 5546.5,3800.5C 5539.83,3800.5 5533.17,3800.5 5526.5,3800.5C 5526.5,3770.17 5526.5,3739.83 5526.5,3709.5 Z M 5546.5,3725.5 C 5556.97,3724.94 5567.31,3725.78 5577.5,3728C 5585.5,3735.33 5585.5,3742.67 5577.5,3750C 5567.31,3752.22 5556.97,3753.06 5546.5,3752.5C 5546.5,3743.5 5546.5,3734.5 5546.5,3725.5 Z"/></g>
<g><path style="opacity:0.928" fill="#000000" d="M 5610.5,3709.5 C 5632.83,3709.5 5655.17,3709.5 5677.5,3709.5C 5677.5,3714.83 5677.5,3720.17 5677.5,3725.5C 5661.83,3725.5 5646.17,3725.5 5630.5,3725.5C 5630.5,3732.5 5630.5,3739.5 5630.5,3746.5C 5645.5,3746.5 5660.5,3746.5 5675.5,3746.5C 5675.8,3751.76 5675.47,3756.93 5674.5,3762C 5659.84,3762.5 5645.17,3762.67 5630.5,3762.5C 5630.5,3769.83 5630.5,3777.17 5630.5,3784.5C 5646.17,3784.5 5661.83,3784.5 5677.5,3784.5C 5677.5,3789.83 5677.5,3795.17 5677.5,3800.5C 5655.17,3800.5 5632.83,3800.5 5610.5,3800.5C 5610.5,3770.17 5610.5,3739.83 5610.5,3709.5 Z"/></g>
<g><path style="opacity:0.931" fill="#000000" d="M 5868.5,3709.5 C 5894.5,3709.5 5920.5,3709.5 5946.5,3709.5C 5946.5,3715.17 5946.5,3720.83 5946.5,3726.5C 5936.83,3726.5 5927.17,3726.5 5917.5,3726.5C 5917.5,3751.17 5917.5,3775.83 5917.5,3800.5C 5910.83,3800.5 5904.17,3800.5 5897.5,3800.5C 5897.5,3775.83 5897.5,3751.17 5897.5,3726.5C 5887.83,3726.5 5878.17,3726.5 5868.5,3726.5C 5868.5,3720.83 5868.5,3715.17 5868.5,3709.5 Z"/></g>
<g><path style="opacity:0.928" fill="#000000" d="M 5952.5,3709.5 C 5959.17,3709.5 5965.83,3709.5 5972.5,3709.5C 5972.5,3721.83 5972.5,3734.17 5972.5,3746.5C 5985.5,3746.5 5998.5,3746.5 6011.5,3746.5C 6011.5,3734.17 6011.5,3721.83 6011.5,3709.5C 6018.17,3709.5 6024.83,3709.5 6031.5,3709.5C 6031.5,3739.83 6031.5,3770.17 6031.5,3800.5C 6024.83,3800.5 6018.17,3800.5 6011.5,3800.5C 6011.5,3788.17 6011.5,3775.83 6011.5,3763.5C 5998.5,3763.5 5985.5,3763.5 5972.5,3763.5C 5972.5,3775.83 5972.5,3788.17 5972.5,3800.5C 5965.83,3800.5 5959.17,3800.5 5952.5,3800.5C 5952.5,3770.17 5952.5,3739.83 5952.5,3709.5 Z"/></g>
<g><path style="opacity:0.939" fill="#000000" d="M 6040.5,3709.5 C 6062.5,3709.5 6084.5,3709.5 6106.5,3709.5C 6106.5,3714.83 6106.5,3720.17 6106.5,3725.5C 6091.17,3725.5 6075.83,3725.5 6060.5,3725.5C 6060.5,3732.5 6060.5,3739.5 6060.5,3746.5C 6075.17,3746.5 6089.83,3746.5 6104.5,3746.5C 6104.5,3751.83 6104.5,3757.17 6104.5,3762.5C 6089.83,3762.5 6075.17,3762.5 6060.5,3762.5C 6060.5,3769.83 6060.5,3777.17 6060.5,3784.5C 6075.83,3784.5 6091.17,3784.5 6106.5,3784.5C 6106.5,3789.83 6106.5,3795.17 6106.5,3800.5C 6084.5,3800.5 6062.5,3800.5 6040.5,3800.5C 6040.5,3770.17 6040.5,3739.83 6040.5,3709.5 Z"/></g>
<g><path style="opacity:0.928" fill="#000000" d="M 6114.5,3709.5 C 6121.17,3709.5 6127.83,3709.5 6134.5,3709.5C 6134.5,3739.83 6134.5,3770.17 6134.5,3800.5C 6127.83,3800.5 6121.17,3800.5 6114.5,3800.5C 6114.5,3770.17 6114.5,3739.83 6114.5,3709.5 Z"/></g>
<g><path style="opacity:0.937" fill="#000000" d="M 6143.5,3709.5 C 6161.87,3709.11 6180.2,3709.61 6198.5,3711C 6213.12,3714.62 6220.79,3723.96 6221.5,3739C 6221,3752.17 6214.66,3761.34 6202.5,3766.5C 6209.17,3777.5 6215.83,3788.5 6222.5,3799.5C 6214.85,3800.66 6207.19,3800.83 6199.5,3800C 6193.63,3789.75 6187.63,3779.58 6181.5,3769.5C 6175.54,3768.5 6169.54,3768.17 6163.5,3768.5C 6163.5,3779.17 6163.5,3789.83 6163.5,3800.5C 6156.83,3800.5 6150.17,3800.5 6143.5,3800.5C 6143.5,3770.17 6143.5,3739.83 6143.5,3709.5 Z M 6163.5,3725.5 C 6173.22,3725.18 6182.88,3725.68 6192.5,3727C 6197.9,3729.13 6200.57,3733.13 6200.5,3739C 6200.57,3744.87 6197.9,3748.87 6192.5,3751C 6182.88,3752.29 6173.21,3752.79 6163.5,3752.5C 6163.5,3743.5 6163.5,3734.5 6163.5,3725.5 Z"/></g>
<g><path style="opacity:0.935" fill="#000000" d="M 6280.5,3709.5 C 6289.42,3709.18 6298.25,3709.52 6307,3710.5C 6317.98,3740.43 6329.14,3770.26 6340.5,3800C 6333.17,3800.5 6325.84,3800.67 6318.5,3800.5C 6316.47,3793.57 6314.14,3786.74 6311.5,3780C 6299.49,3779.17 6287.49,3779.33 6275.5,3780.5C 6273.36,3786.91 6271.03,3793.24 6268.5,3799.5C 6261.53,3800.5 6254.53,3800.83 6247.5,3800.5C 6258.7,3770.24 6269.7,3739.91 6280.5,3709.5 Z M 6293.5,3728.5 C 6297.71,3740.29 6302.04,3752.12 6306.5,3764C 6297.83,3764.67 6289.17,3764.67 6280.5,3764C 6284.94,3752.19 6289.27,3740.36 6293.5,3728.5 Z"/></g>
<g><path style="opacity:0.925" fill="#000000" d="M 6339.5,3709.5 C 6346.17,3709.5 6352.83,3709.5 6359.5,3709.5C 6359.33,3730.17 6359.5,3750.84 6360,3771.5C 6362.14,3781.48 6368.31,3786.48 6378.5,3786.5C 6388.35,3786.51 6394.52,3781.84 6397,3772.5C 6397.5,3751.5 6397.67,3730.5 6397.5,3709.5C 6404.17,3709.5 6410.83,3709.5 6417.5,3709.5C 6417.67,3731.5 6417.5,3753.5 6417,3775.5C 6414.04,3788.46 6406.21,3796.96 6393.5,3801C 6380.12,3804.42 6367.12,3803.09 6354.5,3797C 6346.24,3791.31 6341.4,3783.48 6340,3773.5C 6339.5,3752.17 6339.33,3730.84 6339.5,3709.5 Z"/></g>
<g><path style="opacity:0.928" fill="#000000" d="M 6423.5,3709.5 C 6449.5,3709.5 6475.5,3709.5 6501.5,3709.5C 6501.5,3715.17 6501.5,3720.83 6501.5,3726.5C 6491.83,3726.5 6482.17,3726.5 6472.5,3726.5C 6472.5,3751.17 6472.5,3775.83 6472.5,3800.5C 6465.83,3800.5 6459.17,3800.5 6452.5,3800.5C 6452.5,3775.83 6452.5,3751.17 6452.5,3726.5C 6442.83,3726.5 6433.17,3726.5 6423.5,3726.5C 6423.5,3720.83 6423.5,3715.17 6423.5,3709.5 Z"/></g>
<g><path style="opacity:0.928" fill="#000000" d="M 6507.5,3709.5 C 6514.17,3709.5 6520.83,3709.5 6527.5,3709.5C 6527.5,3721.83 6527.5,3734.17 6527.5,3746.5C 6540.5,3746.5 6553.5,3746.5 6566.5,3746.5C 6566.5,3734.17 6566.5,3721.83 6566.5,3709.5C 6573.17,3709.5 6579.83,3709.5 6586.5,3709.5C 6586.5,3739.83 6586.5,3770.17 6586.5,3800.5C 6579.83,3800.5 6573.17,3800.5 6566.5,3800.5C 6566.5,3788.17 6566.5,3775.83 6566.5,3763.5C 6553.5,3763.5 6540.5,3763.5 6527.5,3763.5C 6527.5,3775.83 6527.5,3788.17 6527.5,3800.5C 6520.83,3800.5 6514.17,3800.5 6507.5,3800.5C 6507.5,3770.17 6507.5,3739.83 6507.5,3709.5 Z"/></g>
<g><path style="opacity:0.928" fill="#000000" d="M 6594.5,3709.5 C 6616.83,3709.5 6639.17,3709.5 6661.5,3709.5C 6661.5,3714.83 6661.5,3720.17 6661.5,3725.5C 6645.83,3725.5 6630.17,3725.5 6614.5,3725.5C 6614.5,3732.5 6614.5,3739.5 6614.5,3746.5C 6629.5,3746.5 6644.5,3746.5 6659.5,3746.5C 6659.5,3751.83 6659.5,3757.17 6659.5,3762.5C 6644.5,3762.5 6629.5,3762.5 6614.5,3762.5C 6614.5,3769.83 6614.5,3777.17 6614.5,3784.5C 6630.17,3784.5 6645.83,3784.5 6661.5,3784.5C 6661.5,3789.83 6661.5,3795.17 6661.5,3800.5C 6639.17,3800.5 6616.83,3800.5 6594.5,3800.5C 6594.5,3770.17 6594.5,3739.83 6594.5,3709.5 Z"/></g>
<g><path style="opacity:0.916" fill="#000000" d="M 6668.5,3709.5 C 6676.2,3709.17 6683.86,3709.5 6691.5,3710.5C 6704.2,3730.7 6716.7,3751.03 6729,3771.5C 6729.5,3750.84 6729.67,3730.17 6729.5,3709.5C 6735.83,3709.5 6742.17,3709.5 6748.5,3709.5C 6748.5,3739.83 6748.5,3770.17 6748.5,3800.5C 6740.8,3800.83 6733.14,3800.5 6725.5,3799.5C 6713,3779.17 6700.5,3758.83 6688,3738.5C 6687.5,3759.16 6687.33,3779.83 6687.5,3800.5C 6681.17,3800.5 6674.83,3800.5 6668.5,3800.5C 6668.5,3770.17 6668.5,3739.83 6668.5,3709.5 Z"/></g>
<g><path style="opacity:0.931" fill="#000000" d="M 6754.5,3709.5 C 6780.5,3709.5 6806.5,3709.5 6832.5,3709.5C 6832.5,3715.17 6832.5,3720.83 6832.5,3726.5C 6822.83,3726.5 6813.17,3726.5 6803.5,3726.5C 6803.5,3751.17 6803.5,3775.83 6803.5,3800.5C 6796.83,3800.5 6790.17,3800.5 6783.5,3800.5C 6783.5,3775.83 6783.5,3751.17 6783.5,3726.5C 6773.83,3726.5 6764.17,3726.5 6754.5,3726.5C 6754.5,3720.83 6754.5,3715.17 6754.5,3709.5 Z"/></g>
<g><path style="opacity:0.98" fill="#000000" d="M 6838.5,3709.5 C 6844.83,3709.5 6851.17,3709.5 6857.5,3709.5C 6857.5,3739.83 6857.5,3770.17 6857.5,3800.5C 6851.17,3800.5 6844.83,3800.5 6838.5,3800.5C 6838.5,3770.17 6838.5,3739.83 6838.5,3709.5 Z"/></g>
<g><path style="opacity:0.931" fill="#000000" d="M 7063.5,3709.5 C 7085.83,3709.5 7108.17,3709.5 7130.5,3709.5C 7130.5,3714.83 7130.5,3720.17 7130.5,3725.5C 7114.83,3725.5 7099.17,3725.5 7083.5,3725.5C 7083.5,3732.5 7083.5,3739.5 7083.5,3746.5C 7098.17,3746.5 7112.83,3746.5 7127.5,3746.5C 7127.5,3751.83 7127.5,3757.17 7127.5,3762.5C 7112.83,3762.5 7098.17,3762.5 7083.5,3762.5C 7083.5,3769.83 7083.5,3777.17 7083.5,3784.5C 7099.17,3784.5 7114.83,3784.5 7130.5,3784.5C 7130.5,3789.83 7130.5,3795.17 7130.5,3800.5C 7108.17,3800.5 7085.83,3800.5 7063.5,3800.5C 7063.5,3770.17 7063.5,3739.83 7063.5,3709.5 Z"/></g>
<g><path style="opacity:0.948" fill="#000000" d="M 7137.5,3709.5 C 7144.17,3709.5 7150.83,3709.5 7157.5,3709.5C 7157.5,3734.5 7157.5,3759.5 7157.5,3784.5C 7173.17,3784.5 7188.83,3784.5 7204.5,3784.5C 7204.5,3789.83 7204.5,3795.17 7204.5,3800.5C 7182.17,3800.5 7159.83,3800.5 7137.5,3800.5C 7137.5,3770.17 7137.5,3739.83 7137.5,3709.5 Z"/></g>
<g><path style="opacity:0.924" fill="#000000" d="M 7191.5,3709.5 C 7198.53,3709.17 7205.53,3709.5 7212.5,3710.5C 7219.97,3732.92 7227.64,3755.25 7235.5,3777.5C 7243.97,3755.1 7251.63,3732.44 7258.5,3709.5C 7265.5,3709.5 7272.5,3709.5 7279.5,3709.5C 7269.51,3739.3 7259.01,3768.97 7248,3798.5C 7244.09,3799.8 7239.92,3800.46 7235.5,3800.5C 7231.08,3800.46 7226.91,3799.8 7223,3798.5C 7211.99,3768.97 7201.49,3739.3 7191.5,3709.5 Z"/></g>
<g><path style="opacity:0.928" fill="#000000" d="M 7283.5,3709.5 C 7305.83,3709.5 7328.17,3709.5 7350.5,3709.5C 7350.5,3714.83 7350.5,3720.17 7350.5,3725.5C 7334.83,3725.5 7319.17,3725.5 7303.5,3725.5C 7303.5,3732.5 7303.5,3739.5 7303.5,3746.5C 7318.5,3746.5 7333.5,3746.5 7348.5,3746.5C 7348.5,3751.83 7348.5,3757.17 7348.5,3762.5C 7333.5,3762.5 7318.5,3762.5 7303.5,3762.5C 7303.5,3769.83 7303.5,3777.17 7303.5,3784.5C 7319.17,3784.5 7334.83,3784.5 7350.5,3784.5C 7350.5,3789.83 7350.5,3795.17 7350.5,3800.5C 7328.17,3800.5 7305.83,3800.5 7283.5,3800.5C 7283.5,3770.17 7283.5,3739.83 7283.5,3709.5 Z"/></g>
<g><path style="opacity:0.9" fill="#000000" d="M 7439.5,3780.5 C 7446.5,3780.5 7453.5,3780.5 7460.5,3780.5C 7460.5,3787.17 7460.5,3793.83 7460.5,3800.5C 7453.5,3800.5 7446.5,3800.5 7439.5,3800.5C 7439.5,3793.83 7439.5,3787.17 7439.5,3780.5 Z"/></g>
</svg>