<svg xmlns="http://www.w3.org/2000/svg" xmlns:xlink="http://www.w3.org/1999/xlink" version="1.1" style="shape-rendering:geometricPrecision; text-rendering:geometricPrecision; image-rendering:optimizeQuality; fill-rule:evenodd; clip-rule:evenodd" viewBox="199.5 3691.46 7086 133.6">
<g><path style="opacity:0.942" fill="#000000" d="M 398.5,3692.5 C 406.84,3692.33 415.173,3692.5 423.5,3693C 445.517,3696.85 458.85,3709.68 463.5,3731.5C 454.463,3731.84 445.463,3732.5 436.5,3733.5C 433.636,3719.8 425.136,3713.14 411,3713.5C 401.887,3712.56 394.887,3715.89 390,3723.5C 387.925,3730.51 390.092,3735.68 396.5,3739C 413.31,3743.16 429.976,3747.83 446.5,3753C 456.928,3757.09 463.428,3764.59 466,3775.5C 470.355,3799.64 460.855,3815.14 437.5,3822C 420.302,3825.83 403.302,3825.17 386.5,3820C 369.463,3812.79 359.796,3799.95 357.5,3781.5C 366.517,3780.86 375.517,3780.36 384.5,3780C 386.793,3792.96 394.46,3800.63 407.5,3803C 416.333,3804.53 424.666,3803.19 432.5,3799C 439.703,3792.3 440.37,3784.97 434.5,3777C 430.729,3774.78 426.729,3773.11 422.5,3772C 408.99,3768.96 395.657,3765.29 382.5,3761C 364.854,3752.54 358.354,3738.7 363,3719.5C 365.917,3711.25 371.083,3704.75 378.5,3700C 385.021,3696.78 391.688,3694.28 398.5,3692.5 Z"/></g>
<g><path style="opacity:0.944" fill="#000000" d="M 2220.5,3692.5 C 2245.52,3688.67 2266.02,3696.33 2282,3715.5C 2285.61,3720.71 2288.11,3726.38 2289.5,3732.5C 2280.48,3733.59 2271.48,3734.42 2262.5,3735C 2252.35,3715.72 2237.02,3710.06 2216.5,3718C 2206.85,3723.77 2201.02,3732.27 2199,3743.5C 2196.7,3755.99 2197.37,3768.33 2201,3780.5C 2210.15,3799.65 2224.98,3806.15 2245.5,3800C 2256.2,3795.14 2262.54,3786.97 2264.5,3775.5C 2254.17,3775.5 2243.83,3775.5 2233.5,3775.5C 2233.5,3768.5 2233.5,3761.5 2233.5,3754.5C 2252.5,3754.5 2271.5,3754.5 2290.5,3754.5C 2290.5,3776.83 2290.5,3799.17 2290.5,3821.5C 2283.83,3821.5 2277.17,3821.5 2270.5,3821.5C 2270.67,3817.49 2270.5,3813.49 2270,3809.5C 2256.43,3822.58 2240.26,3827.41 2221.5,3824C 2193.8,3818.63 2176.97,3802.13 2171,3774.5C 2165.94,3748.76 2172.1,3726.26 2189.5,3707C 2198.64,3699.43 2208.97,3694.59 2220.5,3692.5 Z"/></g>
<g><path style="opacity:0.943" fill="#000000" d="M 2371.5,3692.5 C 2389.28,3689.82 2405.61,3693.32 2420.5,3703C 2428.53,3710.55 2433.86,3719.72 2436.5,3730.5C 2428.02,3731.76 2419.52,3732.76 2411,3733.5C 2405.03,3716.76 2393.2,3710.26 2375.5,3714C 2363.86,3717.12 2360.03,3724.29 2364,3735.5C 2365.83,3736.67 2367.67,3737.83 2369.5,3739C 2386.26,3743.36 2402.93,3748.02 2419.5,3753C 2433.3,3759.59 2439.97,3770.59 2439.5,3786C 2439.59,3801.49 2432.59,3812.49 2418.5,3819C 2398.95,3825.89 2379.28,3826.22 2359.5,3820C 2342.2,3812.9 2332.54,3800.07 2330.5,3781.5C 2339.52,3781.03 2348.52,3780.37 2357.5,3779.5C 2359.49,3792.32 2366.82,3800.16 2379.5,3803C 2388.66,3804.56 2397.33,3803.22 2405.5,3799C 2413.45,3791.21 2413.45,3783.55 2405.5,3776C 2388.95,3770.69 2372.28,3765.69 2355.5,3761C 2341.39,3755.55 2334.39,3745.21 2334.5,3730C 2335.26,3713.16 2343.59,3701.83 2359.5,3696C 2363.62,3694.81 2367.62,3693.64 2371.5,3692.5 Z"/></g>
<g><path style="opacity:0.95" fill="#000000" d="M 2959.5,3692.5 C 2986.06,3688.4 3007.56,3696.73 3024,3717.5C 3034.71,3737.42 3037.38,3758.42 3032,3780.5C 3025.83,3802.67 3011.67,3816.83 2989.5,3823C 2964.14,3828.71 2942.31,3822.54 2924,3804.5C 2909.54,3782.64 2905.88,3758.98 2913,3733.5C 2920.58,3710.74 2936.08,3697.08 2959.5,3692.5 Z M 2965.5,3714.5 C 2989.01,3713.17 3002.51,3724.17 3006,3747.5C 3008.1,3761.5 3006.1,3774.83 3000,3787.5C 2990.34,3800.72 2977.51,3805.22 2961.5,3801C 2946.65,3794.51 2938.81,3783.01 2938,3766.5C 2936.35,3753.07 2938.68,3740.4 2945,3728.5C 2950.12,3721.2 2956.95,3716.53 2965.5,3714.5 Z"/></g>
<g><path style="opacity:0.949" fill="#000000" d="M 3464.5,3692.5 C 3492.06,3688.21 3513.9,3697.21 3530,3719.5C 3542.28,3744.67 3542.62,3770.01 3531,3795.5C 3522.48,3810.01 3509.98,3819.17 3493.5,3823C 3467.9,3828.65 3446.07,3822.15 3428,3803.5C 3413.97,3781.45 3410.64,3757.79 3418,3732.5C 3426.04,3710.28 3441.54,3696.95 3464.5,3692.5 Z M 3470.5,3714.5 C 3494.92,3713.42 3508.42,3725.09 3511,3749.5C 3512.87,3763.29 3510.54,3776.29 3504,3788.5C 3490.34,3804.08 3474.5,3806.58 3456.5,3796C 3448.41,3788.65 3443.91,3779.49 3443,3768.5C 3441,3754.84 3443,3741.84 3449,3729.5C 3454.44,3721.88 3461.61,3716.88 3470.5,3714.5 Z"/></g>
<g><path style="opacity:0.943" fill="#000000" d="M 3585.5,3692.5 C 3603.28,3689.82 3619.61,3693.32 3634.5,3703C 3642.53,3710.55 3647.86,3719.72 3650.5,3730.5C 3642.02,3731.76 3633.52,3732.76 3625,3733.5C 3619.03,3716.76 3607.2,3710.26 3589.5,3714C 3577.86,3717.12 3574.03,3724.29 3578,3735.5C 3579.83,3736.67 3581.67,3737.83 3583.5,3739C 3600.26,3743.36 3616.93,3748.02 3633.5,3753C 3647.3,3759.59 3653.97,3770.59 3653.5,3786C 3653.59,3801.49 3646.59,3812.49 3632.5,3819C 3612.95,3825.89 3593.28,3826.22 3573.5,3820C 3556.2,3812.9 3546.54,3800.07 3544.5,3781.5C 3553.52,3781.03 3562.52,3780.37 3571.5,3779.5C 3573.49,3792.32 3580.82,3800.16 3593.5,3803C 3602.66,3804.56 3611.33,3803.22 3619.5,3799C 3627.45,3791.21 3627.45,3783.55 3619.5,3776C 3602.95,3770.69 3586.28,3765.69 3569.5,3761C 3555.39,3755.55 3548.39,3745.21 3548.5,3730C 3549.26,3713.16 3557.59,3701.83 3573.5,3696C 3577.62,3694.81 3581.62,3693.64 3585.5,3692.5 Z"/></g>
<g><path style="opacity:0.95" fill="#000000" d="M 4136.5,3692.5 C 4163.06,3688.4 4184.56,3696.73 4201,3717.5C 4211.71,3737.42 4214.38,3758.42 4209,3780.5C 4202.83,3802.67 4188.67,3816.83 4166.5,3823C 4141.14,3828.71 4119.31,3822.54 4101,3804.5C 4086.54,3782.64 4082.88,3758.98 4090,3733.5C 4097.58,3710.74 4113.08,3697.08 4136.5,3692.5 Z M 4142.5,3714.5 C 4166.01,3713.17 4179.51,3724.17 4183,3747.5C 4185.1,3761.5 4183.1,3774.83 4177,3787.5C 4167.34,3800.72 4154.51,3805.22 4138.5,3801C 4123.65,3794.51 4115.81,3783.01 4115,3766.5C 4113.35,3753.07 4115.68,3740.4 4122,3728.5C 4127.12,3721.2 4133.95,3716.53 4142.5,3714.5 Z"/></g>
<g><path style="opacity:0.943" fill="#000000" d="M 4773.5,3692.5 C 4791.28,3689.82 4807.61,3693.32 4822.5,3703C 4830.53,3710.55 4835.86,3719.72 4838.5,3730.5C 4830.02,3731.76 4821.52,3732.76 4813,3733.5C 4807.03,3716.76 4795.2,3710.26 4777.5,3714C 4765.86,3717.12 4762.03,3724.29 4766,3735.5C 4767.83,3736.67 4769.67,3737.83 4771.5,3739C 4788.26,3743.36 4804.93,3748.02 4821.5,3753C 4835.3,3759.59 4841.97,3770.59 4841.5,3786C 4841.59,3801.49 4834.59,3812.49 4820.5,3819C 4800.95,3825.89 4781.28,3826.22 4761.5,3820C 4744.2,3812.9 4734.54,3800.07 4732.5,3781.5C 4741.52,3781.03 4750.52,3780.37 4759.5,3779.5C 4761.49,3792.32 4768.82,3800.16 4781.5,3803C 4790.66,3804.56 4799.33,3803.22 4807.5,3799C 4815.45,3791.21 4815.45,3783.55 4807.5,3776C 4790.95,3770.69 4774.28,3765.69 4757.5,3761C 4743.39,3755.55 4736.39,3745.21 4736.5,3730C 4737.26,3713.16 4745.59,3701.83 4761.5,3696C 4765.62,3694.81 4769.62,3693.64 4773.5,3692.5 Z"/></g>
<g><path style="opacity:0.948" fill="#000000" d="M 4899.5,3692.5 C 4921.76,3689.27 4941.26,3694.93 4958,3709.5C 4972.38,3727.68 4977.71,3748.34 4974,3771.5C 4970.22,3798.28 4955.38,3815.45 4929.5,3823C 4907.35,3827.97 4887.35,3823.64 4869.5,3810C 4852.53,3790.99 4846.37,3768.82 4851,3743.5C 4855.82,3715.52 4871.98,3698.52 4899.5,3692.5 Z M 4905.5,3714.5 C 4928.12,3712.96 4941.62,3723.29 4946,3745.5C 4948.39,3760.03 4946.39,3774.03 4940,3787.5C 4931.92,3799.29 4920.76,3804.12 4906.5,3802C 4890.7,3797.86 4881.53,3787.7 4879,3771.5C 4876.78,3758.91 4877.78,3746.58 4882,3734.5C 4886.99,3724.33 4894.82,3717.67 4905.5,3714.5 Z"/></g>
<g><path style="opacity:0.943" fill="#000000" d="M 5032.5,3692.5 C 5055.32,3689.07 5074.82,3695.4 5091,3711.5C 5095.53,3717.22 5099.03,3723.55 5101.5,3730.5C 5092.36,3733.02 5083.03,3734.69 5073.5,3735.5C 5067.45,3719.47 5055.79,3712.63 5038.5,3715C 5024.94,3718.9 5016.44,3727.73 5013,3741.5C 5011.47,3751.11 5011.14,3760.78 5012,3770.5C 5018.24,3798.37 5034.74,3807.53 5061.5,3798C 5069.14,3791.86 5074.14,3784.03 5076.5,3774.5C 5085.5,3775.75 5094.5,3777.08 5103.5,3778.5C 5092.91,3812.98 5069.57,3828.15 5033.5,3824C 5005.02,3817.85 4988.52,3800.35 4984,3771.5C 4981.37,3753.62 4984.04,3736.62 4992,3720.5C 5001.48,3705.34 5014.98,3696.01 5032.5,3692.5 Z"/></g>
<g><path style="opacity:0.943" fill="#000000" d="M 6098.5,3692.5 C 6116.28,3689.82 6132.61,3693.32 6147.5,3703C 6155.53,3710.55 6160.86,3719.72 6163.5,3730.5C 6155.02,3731.76 6146.52,3732.76 6138,3733.5C 6132.03,3716.76 6120.2,3710.26 6102.5,3714C 6090.86,3717.12 6087.03,3724.29 6091,3735.5C 6092.83,3736.67 6094.67,3737.83 6096.5,3739C 6113.26,3743.36 6129.93,3748.02 6146.5,3753C 6160.3,3759.59 6166.97,3770.59 6166.5,3786C 6166.59,3801.49 6159.59,3812.49 6145.5,3819C 6125.95,3825.89 6106.28,3826.22 6086.5,3820C 6069.2,3812.9 6059.54,3800.07 6057.5,3781.5C 6066.52,3781.03 6075.52,3780.37 6084.5,3779.5C 6086.49,3792.32 6093.82,3800.16 6106.5,3803C 6115.66,3804.56 6124.33,3803.22 6132.5,3799C 6140.45,3791.21 6140.45,3783.55 6132.5,3776C 6115.95,3770.69 6099.28,3765.69 6082.5,3761C 6068.39,3755.55 6061.39,3745.21 6061.5,3730C 6062.26,3713.16 6070.59,3701.83 6086.5,3696C 6090.62,3694.81 6094.62,3693.64 6098.5,3692.5 Z"/></g>
<g><path style="opacity:0.949" fill="#000000" d="M 6792.5,3692.5 C 6839.98,3688.98 6864.98,3710.98 6867.5,3758.5C 6865.07,3805.54 6840.41,3827.37 6793.5,3824C 6767.02,3819.19 6750.52,3803.69 6744,3777.5C 6740.18,3757.69 6742.51,3738.69 6751,3720.5C 6760.76,3705.04 6774.59,3695.71 6792.5,3692.5 Z M 6798.5,3714.5 C 6820.2,3713.37 6833.36,3723.37 6838,3744.5C 6841.14,3760.42 6838.8,3775.42 6831,3789.5C 6817.27,3804.17 6801.77,3806.34 6784.5,3796C 6776.98,3789.14 6772.48,3780.64 6771,3770.5C 6768.56,3755.33 6770.89,3740.99 6778,3727.5C 6783.42,3720.72 6790.25,3716.39 6798.5,3714.5 Z"/></g>
<g><path style="opacity:0.943" fill="#000000" d="M 7177.5,3692.5 C 7195.28,3689.82 7211.61,3693.32 7226.5,3703C 7234.53,3710.55 7239.86,3719.72 7242.5,3730.5C 7234.02,3731.76 7225.52,3732.76 7217,3733.5C 7211.03,3716.76 7199.2,3710.26 7181.5,3714C 7169.86,3717.12 7166.03,3724.29 7170,3735.5C 7171.83,3736.67 7173.67,3737.83 7175.5,3739C 7192.26,3743.36 7208.93,3748.02 7225.5,3753C 7239.3,3759.59 7245.97,3770.59 7245.5,3786C 7245.59,3801.49 7238.59,3812.49 7224.5,3819C 7204.95,3825.89 7185.28,3826.22 7165.5,3820C 7148.2,3812.9 7138.54,3800.07 7136.5,3781.5C 7145.52,3781.03 7154.52,3780.37 7163.5,3779.5C 7165.49,3792.32 7172.82,3800.16 7185.5,3803C 7194.66,3804.56 7203.33,3803.22 7211.5,3799C 7219.45,3791.21 7219.45,3783.55 7211.5,3776C 7194.95,3770.69 7178.28,3765.69 7161.5,3761C 7147.39,3755.55 7140.39,3745.21 7140.5,3730C 7141.26,3713.16 7149.59,3701.83 7165.5,3696C 7169.62,3694.81 7173.62,3693.64 7177.5,3692.5 Z"/></g>
<g><path style="opacity:0.968" fill="#000000" d="M 199.5,3694.5 C 208.5,3694.5 217.5,3694.5 226.5,3694.5C 226.5,3736.83 226.5,3779.17 226.5,3821.5C 217.5,3821.5 208.5,3821.5 199.5,3821.5C 199.5,3779.17 199.5,3736.83 199.5,3694.5 Z"/></g>
<g><path style="opacity:0.94" fill="#000000" d="M 239.5,3694.5 C 250.082,3694.18 260.582,3694.51 271,3695.5C 288.667,3724.17 306.333,3752.83 324,3781.5C 324.5,3752.5 324.667,3723.5 324.5,3694.5C 333.167,3694.5 341.833,3694.5 350.5,3694.5C 350.5,3736.83 350.5,3779.17 350.5,3821.5C 339.918,3821.82 329.418,3821.49 319,3820.5C 301.333,3791.5 283.667,3762.5 266,3733.5C 265.5,3762.83 265.333,3792.16 265.5,3821.5C 256.833,3821.5 248.167,3821.5 239.5,3821.5C 239.5,3779.17 239.5,3736.83 239.5,3694.5 Z"/></g>
<g><path style="opacity:0.958" fill="#000000" d="M 477.5,3694.5 C 498.503,3694.33 519.503,3694.5 540.5,3695C 573.198,3698.21 586.698,3716.05 581,3748.5C 575.35,3766.13 563.183,3775.63 544.5,3777C 531.171,3777.5 517.837,3777.67 504.5,3777.5C 504.5,3792.17 504.5,3806.83 504.5,3821.5C 495.5,3821.5 486.5,3821.5 477.5,3821.5C 477.5,3779.17 477.5,3736.83 477.5,3694.5 Z M 504.5,3716.5 C 514.506,3716.33 524.506,3716.5 534.5,3717C 551.991,3719.81 557.825,3729.64 552,3746.5C 548.456,3751.52 543.623,3754.36 537.5,3755C 526.505,3755.5 515.505,3755.67 504.5,3755.5C 504.5,3742.5 504.5,3729.5 504.5,3716.5 Z"/></g>
<g><path style="opacity:0.935" fill="#000000" d="M 592.5,3694.5 C 601.833,3694.5 611.167,3694.5 620.5,3694.5C 620.5,3736.83 620.5,3779.17 620.5,3821.5C 611.167,3821.5 601.833,3821.5 592.5,3821.5C 592.5,3779.17 592.5,3736.83 592.5,3694.5 Z"/></g>
<g><path style="opacity:0.958" fill="#000000" d="M 633.5,3694.5 C 655.503,3694.33 677.503,3694.5 699.5,3695C 733.994,3698.8 747.161,3717.63 739,3751.5C 734.234,3762.1 726.4,3769.43 715.5,3773.5C 725.041,3789.42 734.708,3805.25 744.5,3821C 733.833,3821.67 723.167,3821.67 712.5,3821C 703.5,3806 694.5,3791 685.5,3776C 677.173,3775.5 668.84,3775.33 660.5,3775.5C 660.5,3790.83 660.5,3806.17 660.5,3821.5C 651.5,3821.5 642.5,3821.5 633.5,3821.5C 633.5,3779.17 633.5,3736.83 633.5,3694.5 Z M 660.5,3716.5 C 671.838,3716.33 683.172,3716.5 694.5,3717C 706.617,3717.37 712.95,3723.53 713.5,3735.5C 713.658,3743.51 709.992,3749.01 702.5,3752C 688.573,3753.45 674.573,3753.95 660.5,3753.5C 660.5,3741.17 660.5,3728.83 660.5,3716.5 Z"/></g>
<g><path style="opacity:0.954" fill="#000000" d="M 751.5,3694.5 C 782.5,3694.5 813.5,3694.5 844.5,3694.5C 844.5,3701.83 844.5,3709.17 844.5,3716.5C 822.833,3716.5 801.167,3716.5 779.5,3716.5C 779.5,3726.5 779.5,3736.5 779.5,3746.5C 800.167,3746.5 820.833,3746.5 841.5,3746.5C 841.5,3753.5 841.5,3760.5 841.5,3767.5C 820.833,3767.5 800.167,3767.5 779.5,3767.5C 779.5,3778.17 779.5,3788.83 779.5,3799.5C 801.167,3799.5 822.833,3799.5 844.5,3799.5C 844.5,3806.83 844.5,3814.17 844.5,3821.5C 813.5,3821.5 782.5,3821.5 751.5,3821.5C 751.5,3779.17 751.5,3736.83 751.5,3694.5 Z"/></g>
<g><path style="opacity:0.958" fill="#000000" d="M 855.5,3694.5 C 877.193,3694.14 898.859,3694.64 920.5,3696C 945.165,3699.67 960.665,3713.5 967,3737.5C 970.577,3754.01 969.91,3770.34 965,3786.5C 956.418,3806.55 941.251,3818.05 919.5,3821C 898.169,3821.5 876.836,3821.67 855.5,3821.5C 855.5,3779.17 855.5,3736.83 855.5,3694.5 Z M 882.5,3716.5 C 931.705,3712.2 949.871,3733.87 937,3781.5C 931.742,3791.38 923.575,3797.21 912.5,3799C 902.506,3799.5 892.506,3799.67 882.5,3799.5C 882.5,3771.83 882.5,3744.17 882.5,3716.5 Z"/></g>
<g><path style="opacity:0.946" fill="#000000" d="M 1012.5,3694.5 C 1034.5,3694.33 1056.5,3694.5 1078.5,3695C 1105.85,3697.67 1117.35,3712.5 1113,3739.5C 1110.08,3745.92 1105.58,3750.92 1099.5,3754.5C 1116.85,3763.9 1122.69,3778.23 1117,3797.5C 1112.04,3810.79 1102.54,3818.62 1088.5,3821C 1063.17,3821.5 1037.84,3821.67 1012.5,3821.5C 1012.5,3779.17 1012.5,3736.83 1012.5,3694.5 Z M 1040.5,3716.5 C 1053.24,3716.06 1065.91,3716.56 1078.5,3718C 1084.52,3720.73 1087.19,3725.4 1086.5,3732C 1086.84,3739.34 1083.5,3744.01 1076.5,3746C 1064.5,3746.5 1052.5,3746.67 1040.5,3746.5C 1040.5,3736.5 1040.5,3726.5 1040.5,3716.5 Z M 1040.5,3766.5 C 1052.17,3766.33 1063.84,3766.5 1075.5,3767C 1087.66,3769.13 1092.49,3776.29 1090,3788.5C 1088.4,3794.44 1084.56,3797.94 1078.5,3799C 1065.84,3799.5 1053.17,3799.67 1040.5,3799.5C 1040.5,3788.5 1040.5,3777.5 1040.5,3766.5 Z"/></g>
<g><path style="opacity:0.944" fill="#000000" d="M 1112.5,3694.5 C 1122.51,3694.33 1132.51,3694.5 1142.5,3695C 1152.33,3712.83 1162.17,3730.67 1172,3748.5C 1181.96,3730.75 1191.79,3712.91 1201.5,3695C 1211.52,3694.17 1221.52,3694.33 1231.5,3695.5C 1216.33,3721.17 1201.17,3746.83 1186,3772.5C 1185.5,3788.83 1185.33,3805.16 1185.5,3821.5C 1176.5,3821.5 1167.5,3821.5 1158.5,3821.5C 1158.67,3805.5 1158.5,3789.5 1158,3773.5C 1142.3,3747.44 1127.14,3721.11 1112.5,3694.5 Z"/></g>
<g><path style="opacity:0.949" fill="#000000" d="M 1266.5,3694.5 C 1302.83,3694.5 1339.17,3694.5 1375.5,3694.5C 1375.5,3702.5 1375.5,3710.5 1375.5,3718.5C 1361.83,3718.5 1348.17,3718.5 1334.5,3718.5C 1334.5,3752.83 1334.5,3787.17 1334.5,3821.5C 1325.5,3821.5 1316.5,3821.5 1307.5,3821.5C 1307.5,3787.17 1307.5,3752.83 1307.5,3718.5C 1293.83,3718.5 1280.17,3718.5 1266.5,3718.5C 1266.5,3710.5 1266.5,3702.5 1266.5,3694.5 Z"/></g>
<g><path style="opacity:0.958" fill="#000000" d="M 1383.5,3694.5 C 1392.83,3694.5 1402.17,3694.5 1411.5,3694.5C 1411.5,3711.83 1411.5,3729.17 1411.5,3746.5C 1429.83,3746.5 1448.17,3746.5 1466.5,3746.5C 1466.5,3729.17 1466.5,3711.83 1466.5,3694.5C 1475.5,3694.5 1484.5,3694.5 1493.5,3694.5C 1493.5,3736.83 1493.5,3779.17 1493.5,3821.5C 1484.5,3821.5 1475.5,3821.5 1466.5,3821.5C 1466.5,3803.83 1466.5,3786.17 1466.5,3768.5C 1448.17,3768.5 1429.83,3768.5 1411.5,3768.5C 1411.5,3786.17 1411.5,3803.83 1411.5,3821.5C 1402.17,3821.5 1392.83,3821.5 1383.5,3821.5C 1383.5,3779.17 1383.5,3736.83 1383.5,3694.5 Z"/></g>
<g><path style="opacity:0.954" fill="#000000" d="M 1506.5,3694.5 C 1537.5,3694.5 1568.5,3694.5 1599.5,3694.5C 1599.5,3701.83 1599.5,3709.17 1599.5,3716.5C 1577.83,3716.5 1556.17,3716.5 1534.5,3716.5C 1534.5,3726.5 1534.5,3736.5 1534.5,3746.5C 1555.17,3746.5 1575.83,3746.5 1596.5,3746.5C 1596.5,3753.5 1596.5,3760.5 1596.5,3767.5C 1575.83,3767.5 1555.17,3767.5 1534.5,3767.5C 1534.5,3778.17 1534.5,3788.83 1534.5,3799.5C 1556.17,3799.5 1577.83,3799.5 1599.5,3799.5C 1599.5,3806.83 1599.5,3814.17 1599.5,3821.5C 1568.5,3821.5 1537.5,3821.5 1506.5,3821.5C 1506.5,3779.17 1506.5,3736.83 1506.5,3694.5 Z"/></g>
<g><path style="opacity:0.947" fill="#000000" d="M 1643.5,3694.5 C 1665.53,3694.13 1687.53,3694.63 1709.5,3696C 1742.88,3703.24 1758.88,3724.07 1757.5,3758.5C 1758.8,3793.34 1742.47,3814.18 1708.5,3821C 1686.84,3821.5 1665.17,3821.67 1643.5,3821.5C 1643.5,3779.17 1643.5,3736.83 1643.5,3694.5 Z M 1671.5,3716.5 C 1720.11,3711.94 1738.27,3733.27 1726,3780.5C 1720.91,3790.64 1712.74,3796.81 1701.5,3799C 1691.51,3799.5 1681.51,3799.67 1671.5,3799.5C 1671.5,3771.83 1671.5,3744.17 1671.5,3716.5 Z"/></g>
<g><path style="opacity:0.953" fill="#000000" d="M 1800.5,3694.5 C 1812.5,3694.5 1824.5,3694.5 1836.5,3694.5C 1851.74,3736.81 1867.41,3778.98 1883.5,3821C 1873.48,3821.83 1863.48,3821.67 1853.5,3820.5C 1849.97,3811.24 1846.64,3801.91 1843.5,3792.5C 1826.5,3791.17 1809.5,3791.17 1792.5,3792.5C 1789.26,3802.05 1785.93,3811.55 1782.5,3821C 1772.84,3821.5 1763.17,3821.67 1753.5,3821.5C 1768.97,3779.1 1784.63,3736.76 1800.5,3694.5 Z M 1817.5,3718.5 C 1824.07,3735.55 1830.07,3752.88 1835.5,3770.5C 1823.83,3770.5 1812.17,3770.5 1800.5,3770.5C 1806.17,3753.17 1811.83,3735.83 1817.5,3718.5 Z"/></g>
<g><path style="opacity:0.958" fill="#000000" d="M 1889.5,3694.5 C 1911.5,3694.33 1933.5,3694.5 1955.5,3695C 1989.99,3698.8 2003.16,3717.63 1995,3751.5C 1990.23,3762.1 1982.4,3769.43 1971.5,3773.5C 1981.04,3789.42 1990.71,3805.25 2000.5,3821C 1989.83,3821.67 1979.17,3821.67 1968.5,3821C 1959.5,3806 1950.5,3791 1941.5,3776C 1933.17,3775.5 1924.84,3775.33 1916.5,3775.5C 1916.5,3790.83 1916.5,3806.17 1916.5,3821.5C 1907.5,3821.5 1898.5,3821.5 1889.5,3821.5C 1889.5,3779.17 1889.5,3736.83 1889.5,3694.5 Z M 1916.5,3716.5 C 1927.84,3716.33 1939.17,3716.5 1950.5,3717C 1962.62,3717.37 1968.95,3723.53 1969.5,3735.5C 1969.66,3743.51 1965.99,3749.01 1958.5,3752C 1944.57,3753.45 1930.57,3753.95 1916.5,3753.5C 1916.5,3741.17 1916.5,3728.83 1916.5,3716.5 Z"/></g>
<g><path style="opacity:0.935" fill="#000000" d="M 2007.5,3694.5 C 2016.83,3694.5 2026.17,3694.5 2035.5,3694.5C 2035.5,3736.83 2035.5,3779.17 2035.5,3821.5C 2026.17,3821.5 2016.83,3821.5 2007.5,3821.5C 2007.5,3779.17 2007.5,3736.83 2007.5,3694.5 Z"/></g>
<g><path style="opacity:0.948" fill="#000000" d="M 2048.5,3694.5 C 2059.08,3694.18 2069.58,3694.51 2080,3695.5C 2097.67,3724.5 2115.33,3753.5 2133,3782.5C 2133.5,3753.17 2133.67,3723.84 2133.5,3694.5C 2142.17,3694.5 2150.83,3694.5 2159.5,3694.5C 2159.5,3736.83 2159.5,3779.17 2159.5,3821.5C 2148.92,3821.82 2138.42,3821.49 2128,3820.5C 2110,3791.17 2092,3761.83 2074,3732.5C 2073.5,3762.16 2073.33,3791.83 2073.5,3821.5C 2065.17,3821.5 2056.83,3821.5 2048.5,3821.5C 2048.5,3779.17 2048.5,3736.83 2048.5,3694.5 Z"/></g>
<g><path style="opacity:0.959" fill="#000000" d="M 2450.5,3694.5 C 2471.5,3694.33 2492.5,3694.5 2513.5,3695C 2539.96,3696.3 2553.96,3710.13 2555.5,3736.5C 2554.02,3760.48 2541.36,3773.98 2517.5,3777C 2504.17,3777.5 2490.84,3777.67 2477.5,3777.5C 2477.5,3792.17 2477.5,3806.83 2477.5,3821.5C 2468.5,3821.5 2459.5,3821.5 2450.5,3821.5C 2450.5,3779.17 2450.5,3736.83 2450.5,3694.5 Z M 2477.5,3716.5 C 2487.51,3716.33 2497.51,3716.5 2507.5,3717C 2519.71,3717.54 2526.38,3723.88 2527.5,3736C 2526.74,3746.76 2521.07,3753.09 2510.5,3755C 2499.51,3755.5 2488.51,3755.67 2477.5,3755.5C 2477.5,3742.5 2477.5,3729.5 2477.5,3716.5 Z"/></g>
<g><path style="opacity:0.966" fill="#000000" d="M 2565.5,3694.5 C 2574.5,3694.5 2583.5,3694.5 2592.5,3694.5C 2592.5,3736.83 2592.5,3779.17 2592.5,3821.5C 2583.5,3821.5 2574.5,3821.5 2565.5,3821.5C 2565.5,3779.17 2565.5,3736.83 2565.5,3694.5 Z"/></g>
<g><path style="opacity:0.959" fill="#000000" d="M 2606.5,3694.5 C 2628.5,3694.33 2650.5,3694.5 2672.5,3695C 2701.55,3697.05 2715.38,3712.55 2714,3741.5C 2712.21,3757.45 2703.71,3767.78 2688.5,3772.5C 2697.25,3789.15 2706.91,3805.31 2717.5,3821C 2706.48,3821.83 2695.48,3821.67 2684.5,3820.5C 2675.83,3805.83 2667.17,3791.17 2658.5,3776.5C 2650.19,3775.5 2641.86,3775.17 2633.5,3775.5C 2633.5,3790.83 2633.5,3806.17 2633.5,3821.5C 2624.5,3821.5 2615.5,3821.5 2606.5,3821.5C 2606.5,3779.17 2606.5,3736.83 2606.5,3694.5 Z M 2633.5,3716.5 C 2644.84,3716.33 2656.17,3716.5 2667.5,3717C 2684.47,3719.76 2689.97,3729.26 2684,3745.5C 2681.74,3748.43 2678.9,3750.6 2675.5,3752C 2661.57,3753.45 2647.57,3753.95 2633.5,3753.5C 2633.5,3741.17 2633.5,3728.83 2633.5,3716.5 Z"/></g>
<g><path style="opacity:0.936" fill="#000000" d="M 2724.5,3694.5 C 2733.83,3694.5 2743.17,3694.5 2752.5,3694.5C 2752.5,3736.83 2752.5,3779.17 2752.5,3821.5C 2743.17,3821.5 2733.83,3821.5 2724.5,3821.5C 2724.5,3779.17 2724.5,3736.83 2724.5,3694.5 Z"/></g>
<g><path style="opacity:0.934" fill="#000000" d="M 2760.5,3694.5 C 2796.83,3694.5 2833.17,3694.5 2869.5,3694.5C 2869.5,3702.5 2869.5,3710.5 2869.5,3718.5C 2856.17,3718.5 2842.83,3718.5 2829.5,3718.5C 2829.5,3752.83 2829.5,3787.17 2829.5,3821.5C 2820.17,3821.5 2810.83,3821.5 2801.5,3821.5C 2801.5,3787.17 2801.5,3752.83 2801.5,3718.5C 2787.83,3718.5 2774.17,3718.5 2760.5,3718.5C 2760.5,3710.5 2760.5,3702.5 2760.5,3694.5 Z"/></g>
<g><path style="opacity:0.949" fill="#000000" d="M 3045.5,3694.5 C 3076.5,3694.5 3107.5,3694.5 3138.5,3694.5C 3138.5,3701.83 3138.5,3709.17 3138.5,3716.5C 3116.5,3716.5 3094.5,3716.5 3072.5,3716.5C 3072.5,3727.17 3072.5,3737.83 3072.5,3748.5C 3093.5,3748.5 3114.5,3748.5 3135.5,3748.5C 3135.5,3755.83 3135.5,3763.17 3135.5,3770.5C 3114.5,3770.5 3093.5,3770.5 3072.5,3770.5C 3072.5,3787.5 3072.5,3804.5 3072.5,3821.5C 3063.5,3821.5 3054.5,3821.5 3045.5,3821.5C 3045.5,3779.17 3045.5,3736.83 3045.5,3694.5 Z"/></g>
<g><path style="opacity:0.949" fill="#000000" d="M 3176.5,3694.5 C 3212.83,3694.5 3249.17,3694.5 3285.5,3694.5C 3285.5,3702.5 3285.5,3710.5 3285.5,3718.5C 3271.83,3718.5 3258.17,3718.5 3244.5,3718.5C 3244.5,3752.83 3244.5,3787.17 3244.5,3821.5C 3235.5,3821.5 3226.5,3821.5 3217.5,3821.5C 3217.5,3787.17 3217.5,3752.83 3217.5,3718.5C 3203.83,3718.5 3190.17,3718.5 3176.5,3718.5C 3176.5,3710.5 3176.5,3702.5 3176.5,3694.5 Z"/></g>
<g><path style="opacity:0.958" fill="#000000" d="M 3293.5,3694.5 C 3302.83,3694.5 3312.17,3694.5 3321.5,3694.5C 3321.5,3711.83 3321.5,3729.17 3321.5,3746.5C 3339.83,3746.5 3358.17,3746.5 3376.5,3746.5C 3376.5,3729.17 3376.5,3711.83 3376.5,3694.5C 3385.5,3694.5 3394.5,3694.5 3403.5,3694.5C 3403.5,3736.83 3403.5,3779.17 3403.5,3821.5C 3394.5,3821.5 3385.5,3821.5 3376.5,3821.5C 3376.5,3803.83 3376.5,3786.17 3376.5,3768.5C 3358.17,3768.5 3339.83,3768.5 3321.5,3768.5C 3321.5,3786.17 3321.5,3803.83 3321.5,3821.5C 3312.17,3821.5 3302.83,3821.5 3293.5,3821.5C 3293.5,3779.17 3293.5,3736.83 3293.5,3694.5 Z"/></g>
<g><path style="opacity:0.964" fill="#000000" d="M 3664.5,3694.5 C 3695.5,3694.5 3726.5,3694.5 3757.5,3694.5C 3757.5,3701.83 3757.5,3709.17 3757.5,3716.5C 3735.5,3716.5 3713.5,3716.5 3691.5,3716.5C 3691.5,3726.5 3691.5,3736.5 3691.5,3746.5C 3712.17,3746.5 3732.83,3746.5 3753.5,3746.5C 3753.5,3753.5 3753.5,3760.5 3753.5,3767.5C 3732.83,3767.5 3712.17,3767.5 3691.5,3767.5C 3691.5,3778.17 3691.5,3788.83 3691.5,3799.5C 3713.5,3799.5 3735.5,3799.5 3757.5,3799.5C 3757.5,3806.83 3757.5,3814.17 3757.5,3821.5C 3726.5,3821.5 3695.5,3821.5 3664.5,3821.5C 3664.5,3779.17 3664.5,3736.83 3664.5,3694.5 Z"/></g>
<g><path style="opacity:0.948" fill="#000000" d="M 3795.5,3694.5 C 3804.83,3694.5 3814.17,3694.5 3823.5,3694.5C 3829.93,3725.83 3836.43,3757.17 3843,3788.5C 3849.33,3757.5 3855.67,3726.5 3862,3695.5C 3872.33,3694.17 3882.67,3694.17 3893,3695.5C 3899.08,3726.55 3905.41,3757.55 3912,3788.5C 3918.57,3757.17 3925.07,3725.83 3931.5,3694.5C 3940.83,3694.5 3950.17,3694.5 3959.5,3694.5C 3949.99,3736.55 3940.15,3778.55 3930,3820.5C 3918.91,3821.49 3907.75,3821.82 3896.5,3821.5C 3890.4,3791.83 3884.23,3762.17 3878,3732.5C 3871,3761.99 3864.84,3791.65 3859.5,3821.5C 3848.17,3821.5 3836.83,3821.5 3825.5,3821.5C 3815.34,3779.2 3805.34,3736.87 3795.5,3694.5 Z"/></g>
<g><path style="opacity:0.958" fill="#000000" d="M 3966.5,3694.5 C 3975.5,3694.5 3984.5,3694.5 3993.5,3694.5C 3993.5,3711.83 3993.5,3729.17 3993.5,3746.5C 4011.83,3746.5 4030.17,3746.5 4048.5,3746.5C 4048.5,3729.17 4048.5,3711.83 4048.5,3694.5C 4057.83,3694.5 4067.17,3694.5 4076.5,3694.5C 4076.5,3736.83 4076.5,3779.17 4076.5,3821.5C 4067.17,3821.5 4057.83,3821.5 4048.5,3821.5C 4048.5,3803.83 4048.5,3786.17 4048.5,3768.5C 4030.17,3768.5 4011.83,3768.5 3993.5,3768.5C 3993.5,3786.17 3993.5,3803.83 3993.5,3821.5C 3984.5,3821.5 3975.5,3821.5 3966.5,3821.5C 3966.5,3779.17 3966.5,3736.83 3966.5,3694.5 Z"/></g>
<g><path style="opacity:0.947" fill="#000000" d="M 4255.5,3694.5 C 4277.53,3694.13 4299.53,3694.63 4321.5,3696C 4354.88,3703.24 4370.88,3724.07 4369.5,3758.5C 4370.8,3793.34 4354.47,3814.18 4320.5,3821C 4298.84,3821.5 4277.17,3821.67 4255.5,3821.5C 4255.5,3779.17 4255.5,3736.83 4255.5,3694.5 Z M 4283.5,3716.5 C 4332.11,3711.94 4350.27,3733.27 4338,3780.5C 4332.91,3790.64 4324.74,3796.81 4313.5,3799C 4303.51,3799.5 4293.51,3799.67 4283.5,3799.5C 4283.5,3771.83 4283.5,3744.17 4283.5,3716.5 Z"/></g>
<g><path style="opacity:0.961" fill="#000000" d="M 4380.5,3694.5 C 4411.5,3694.5 4442.5,3694.5 4473.5,3694.5C 4473.5,3701.83 4473.5,3709.17 4473.5,3716.5C 4451.5,3716.5 4429.5,3716.5 4407.5,3716.5C 4407.5,3726.5 4407.5,3736.5 4407.5,3746.5C 4428.5,3746.5 4449.5,3746.5 4470.5,3746.5C 4470.5,3753.5 4470.5,3760.5 4470.5,3767.5C 4449.5,3767.5 4428.5,3767.5 4407.5,3767.5C 4407.5,3778.17 4407.5,3788.83 4407.5,3799.5C 4429.5,3799.5 4451.5,3799.5 4473.5,3799.5C 4473.5,3806.83 4473.5,3814.17 4473.5,3821.5C 4442.5,3821.5 4411.5,3821.5 4380.5,3821.5C 4380.5,3779.17 4380.5,3736.83 4380.5,3694.5 Z"/></g>
<g><path style="opacity:0.938" fill="#000000" d="M 4483.5,3694.5 C 4514.5,3694.5 4545.5,3694.5 4576.5,3694.5C 4576.5,3701.83 4576.5,3709.17 4576.5,3716.5C 4554.83,3716.5 4533.17,3716.5 4511.5,3716.5C 4511.5,3727.17 4511.5,3737.83 4511.5,3748.5C 4532.17,3748.5 4552.83,3748.5 4573.5,3748.5C 4573.5,3755.83 4573.5,3763.17 4573.5,3770.5C 4552.83,3770.5 4532.17,3770.5 4511.5,3770.5C 4511.5,3787.5 4511.5,3804.5 4511.5,3821.5C 4502.17,3821.5 4492.83,3821.5 4483.5,3821.5C 4483.5,3779.17 4483.5,3736.83 4483.5,3694.5 Z"/></g>
<g><path style="opacity:0.944" fill="#000000" d="M 4579.5,3694.5 C 4589.51,3694.33 4599.51,3694.5 4609.5,3695C 4619.33,3712.83 4629.17,3730.67 4639,3748.5C 4648.96,3730.75 4658.79,3712.91 4668.5,3695C 4678.52,3694.17 4688.52,3694.33 4698.5,3695.5C 4683.33,3721.17 4668.17,3746.83 4653,3772.5C 4652.5,3788.83 4652.33,3805.16 4652.5,3821.5C 4643.5,3821.5 4634.5,3821.5 4625.5,3821.5C 4625.67,3805.5 4625.5,3789.5 4625,3773.5C 4609.3,3747.44 4594.14,3721.11 4579.5,3694.5 Z"/></g>
<g><path style="opacity:0.936" fill="#000000" d="M 5112.5,3694.5 C 5121.83,3694.5 5131.17,3694.5 5140.5,3694.5C 5140.5,3736.83 5140.5,3779.17 5140.5,3821.5C 5131.17,3821.5 5121.83,3821.5 5112.5,3821.5C 5112.5,3779.17 5112.5,3736.83 5112.5,3694.5 Z"/></g>
<g><path style="opacity:0.964" fill="#000000" d="M 5153.5,3694.5 C 5184.5,3694.5 5215.5,3694.5 5246.5,3694.5C 5246.5,3701.83 5246.5,3709.17 5246.5,3716.5C 5224.5,3716.5 5202.5,3716.5 5180.5,3716.5C 5180.5,3726.5 5180.5,3736.5 5180.5,3746.5C 5201.17,3746.5 5221.83,3746.5 5242.5,3746.5C 5242.5,3753.5 5242.5,3760.5 5242.5,3767.5C 5221.83,3767.5 5201.17,3767.5 5180.5,3767.5C 5180.5,3778.17 5180.5,3788.83 5180.5,3799.5C 5202.5,3799.5 5224.5,3799.5 5246.5,3799.5C 5246.5,3806.83 5246.5,3814.17 5246.5,3821.5C 5215.5,3821.5 5184.5,3821.5 5153.5,3821.5C 5153.5,3779.17 5153.5,3736.83 5153.5,3694.5 Z"/></g>
<g><path style="opacity:0.949" fill="#000000" d="M 5252.5,3694.5 C 5288.83,3694.5 5325.17,3694.5 5361.5,3694.5C 5361.5,3702.5 5361.5,3710.5 5361.5,3718.5C 5347.83,3718.5 5334.17,3718.5 5320.5,3718.5C 5320.5,3752.83 5320.5,3787.17 5320.5,3821.5C 5311.5,3821.5 5302.5,3821.5 5293.5,3821.5C 5293.5,3787.17 5293.5,3752.83 5293.5,3718.5C 5279.83,3718.5 5266.17,3718.5 5252.5,3718.5C 5252.5,3710.5 5252.5,3702.5 5252.5,3694.5 Z"/></g>
<g><path style="opacity:0.952" fill="#000000" d="M 5391.5,3694.5 C 5403.75,3694.18 5415.91,3694.51 5428,3695.5C 5443.61,3737.5 5459.11,3779.5 5474.5,3821.5C 5464.83,3821.67 5455.16,3821.5 5445.5,3821C 5441.83,3811.33 5438.17,3801.67 5434.5,3792C 5417.83,3791.33 5401.17,3791.33 5384.5,3792C 5380.86,3801.74 5377.53,3811.57 5374.5,3821.5C 5364.49,3821.67 5354.49,3821.5 5344.5,3821C 5360.59,3778.98 5376.26,3736.81 5391.5,3694.5 Z M 5408.5,3720.5 C 5410.28,3721.57 5411.45,3723.24 5412,3725.5C 5417.04,3740.4 5422.2,3755.23 5427.5,3770C 5415.5,3770.67 5403.5,3770.67 5391.5,3770C 5397.66,3753.68 5403.33,3737.18 5408.5,3720.5 Z"/></g>
<g><path style="opacity:0.946" fill="#000000" d="M 5480.5,3694.5 C 5489.83,3694.5 5499.17,3694.5 5508.5,3694.5C 5508.5,3729.17 5508.5,3763.83 5508.5,3798.5C 5530.5,3798.5 5552.5,3798.5 5574.5,3798.5C 5574.5,3806.17 5574.5,3813.83 5574.5,3821.5C 5543.17,3821.5 5511.83,3821.5 5480.5,3821.5C 5480.5,3779.17 5480.5,3736.83 5480.5,3694.5 Z"/></g>
<g><path style="opacity:0.948" fill="#000000" d="M 5616.5,3694.5 C 5641.86,3694.09 5667.2,3694.59 5692.5,3696C 5714.09,3700.59 5725.09,3713.92 5725.5,3736C 5724.6,3754.55 5715.6,3767.21 5698.5,3774C 5708.54,3789.25 5718.21,3804.75 5727.5,3820.5C 5716.85,3821.67 5706.18,3821.83 5695.5,3821C 5686.96,3806.08 5678.29,3791.25 5669.5,3776.5C 5661.19,3775.5 5652.86,3775.17 5644.5,3775.5C 5644.5,3790.83 5644.5,3806.17 5644.5,3821.5C 5635.17,3821.5 5625.83,3821.5 5616.5,3821.5C 5616.5,3779.17 5616.5,3736.83 5616.5,3694.5 Z M 5644.5,3716.5 C 5655.51,3716.33 5666.51,3716.5 5677.5,3717C 5689.26,3717.43 5695.93,3723.43 5697.5,3735C 5697.34,3743.01 5693.67,3748.67 5686.5,3752C 5672.56,3753.43 5658.56,3753.93 5644.5,3753.5C 5644.5,3741.17 5644.5,3728.83 5644.5,3716.5 Z"/></g>
<g><path style="opacity:0.958" fill="#000000" d="M 5735.5,3694.5 C 5744.5,3694.5 5753.5,3694.5 5762.5,3694.5C 5762.05,3724.54 5762.55,3754.54 5764,3784.5C 5768.09,3796.48 5776.59,3802.48 5789.5,3802.5C 5802.41,3802.48 5810.91,3796.48 5815,3784.5C 5816.46,3754.54 5816.96,3724.54 5816.5,3694.5C 5825.5,3694.5 5834.5,3694.5 5843.5,3694.5C 5843.67,3725.17 5843.5,3755.84 5843,3786.5C 5838.5,3806.33 5826.33,3818.5 5806.5,3823C 5789.94,3826.26 5773.94,3824.59 5758.5,3818C 5745.94,3810.73 5738.44,3799.9 5736,3785.5C 5735.5,3755.17 5735.33,3724.84 5735.5,3694.5 Z"/></g>
<g><path style="opacity:0.946" fill="#000000" d="M 5856.5,3694.5 C 5865.83,3694.5 5875.17,3694.5 5884.5,3694.5C 5884.5,3729.17 5884.5,3763.83 5884.5,3798.5C 5906.5,3798.5 5928.5,3798.5 5950.5,3798.5C 5950.5,3806.17 5950.5,3813.83 5950.5,3821.5C 5919.17,3821.5 5887.83,3821.5 5856.5,3821.5C 5856.5,3779.17 5856.5,3736.83 5856.5,3694.5 Z"/></g>
<g><path style="opacity:0.961" fill="#000000" d="M 5959.5,3694.5 C 5990.5,3694.5 6021.5,3694.5 6052.5,3694.5C 6052.5,3701.83 6052.5,3709.17 6052.5,3716.5C 6030.5,3716.5 6008.5,3716.5 5986.5,3716.5C 5986.5,3726.5 5986.5,3736.5 5986.5,3746.5C 6007.5,3746.5 6028.5,3746.5 6049.5,3746.5C 6049.5,3753.5 6049.5,3760.5 6049.5,3767.5C 6028.5,3767.5 6007.5,3767.5 5986.5,3767.5C 5986.5,3778.17 5986.5,3788.83 5986.5,3799.5C 6008.5,3799.5 6030.5,3799.5 6052.5,3799.5C 6052.5,3806.83 6052.5,3814.17 6052.5,3821.5C 6021.5,3821.5 5990.5,3821.5 5959.5,3821.5C 5959.5,3779.17 5959.5,3736.83 5959.5,3694.5 Z"/></g>
<g><path style="opacity:0.953" fill="#000000" d="M 6250.5,3694.5 C 6262.5,3694.5 6274.5,3694.5 6286.5,3694.5C 6301.74,3736.81 6317.41,3778.98 6333.5,3821C 6323.48,3821.83 6313.48,3821.67 6303.5,3820.5C 6299.97,3811.24 6296.64,3801.91 6293.5,3792.5C 6276.5,3791.17 6259.5,3791.17 6242.5,3792.5C 6239.26,3802.05 6235.93,3811.55 6232.5,3821C 6222.84,3821.5 6213.17,3821.67 6203.5,3821.5C 6218.97,3779.1 6234.63,3736.76 6250.5,3694.5 Z M 6267.5,3718.5 C 6274.07,3735.55 6280.07,3752.88 6285.5,3770.5C 6273.83,3770.5 6262.17,3770.5 6250.5,3770.5C 6256.17,3753.17 6261.83,3735.83 6267.5,3718.5 Z"/></g>
<g><path style="opacity:0.948" fill="#000000" d="M 6339.5,3694.5 C 6350.08,3694.18 6360.58,3694.51 6371,3695.5C 6388.67,3724.5 6406.33,3753.5 6424,3782.5C 6424.5,3753.17 6424.67,3723.84 6424.5,3694.5C 6433.17,3694.5 6441.83,3694.5 6450.5,3694.5C 6450.5,3736.83 6450.5,3779.17 6450.5,3821.5C 6439.92,3821.82 6429.42,3821.49 6419,3820.5C 6401,3791.17 6383,3761.83 6365,3732.5C 6364.5,3762.16 6364.33,3791.83 6364.5,3821.5C 6356.17,3821.5 6347.83,3821.5 6339.5,3821.5C 6339.5,3779.17 6339.5,3736.83 6339.5,3694.5 Z"/></g>
<g><path style="opacity:0.947" fill="#000000" d="M 6462.5,3694.5 C 6484.53,3694.13 6506.53,3694.63 6528.5,3696C 6561.88,3703.24 6577.88,3724.07 6576.5,3758.5C 6577.8,3793.34 6561.47,3814.18 6527.5,3821C 6505.84,3821.5 6484.17,3821.67 6462.5,3821.5C 6462.5,3779.17 6462.5,3736.83 6462.5,3694.5 Z M 6490.5,3716.5 C 6539.11,3711.94 6557.27,3733.27 6545,3780.5C 6539.91,3790.64 6531.74,3796.81 6520.5,3799C 6510.51,3799.5 6500.51,3799.67 6490.5,3799.5C 6490.5,3771.83 6490.5,3744.17 6490.5,3716.5 Z"/></g>
<g><path style="opacity:0.948" fill="#000000" d="M 6620.5,3694.5 C 6630.84,3694.33 6641.17,3694.5 6651.5,3695C 6669.54,3724.25 6687.71,3753.42 6706,3782.5C 6706.5,3753.17 6706.67,3723.84 6706.5,3694.5C 6714.83,3694.5 6723.17,3694.5 6731.5,3694.5C 6731.5,3736.83 6731.5,3779.17 6731.5,3821.5C 6721.15,3821.83 6710.81,3821.5 6700.5,3820.5C 6682.67,3791.5 6664.83,3762.5 6647,3733.5C 6646.5,3762.83 6646.33,3792.16 6646.5,3821.5C 6637.83,3821.5 6629.17,3821.5 6620.5,3821.5C 6620.5,3779.17 6620.5,3736.83 6620.5,3694.5 Z"/></g>
<g><path style="opacity:0.948" fill="#000000" d="M 6877.5,3694.5 C 6902.86,3694.09 6928.2,3694.59 6953.5,3696C 6975.09,3700.59 6986.09,3713.92 6986.5,3736C 6985.6,3754.55 6976.6,3767.21 6959.5,3774C 6969.54,3789.25 6979.21,3804.75 6988.5,3820.5C 6977.85,3821.67 6967.18,3821.83 6956.5,3821C 6947.96,3806.08 6939.29,3791.25 6930.5,3776.5C 6922.19,3775.5 6913.86,3775.17 6905.5,3775.5C 6905.5,3790.83 6905.5,3806.17 6905.5,3821.5C 6896.17,3821.5 6886.83,3821.5 6877.5,3821.5C 6877.5,3779.17 6877.5,3736.83 6877.5,3694.5 Z M 6905.5,3716.5 C 6916.51,3716.33 6927.51,3716.5 6938.5,3717C 6950.26,3717.43 6956.93,3723.43 6958.5,3735C 6958.34,3743.01 6954.67,3748.67 6947.5,3752C 6933.56,3753.43 6919.56,3753.93 6905.5,3753.5C 6905.5,3741.17 6905.5,3728.83 6905.5,3716.5 Z"/></g>
<g><path style="opacity:0.955" fill="#000000" d="M 6996.5,3694.5 C 7009.83,3694.5 7023.17,3694.5 7036.5,3694.5C 7044.43,3723.47 7053.27,3752.14 7063,3780.5C 7071.73,3752.13 7080.57,3723.8 7089.5,3695.5C 7102.82,3694.5 7116.15,3694.17 7129.5,3694.5C 7129.5,3736.83 7129.5,3779.17 7129.5,3821.5C 7120.83,3821.5 7112.17,3821.5 7103.5,3821.5C 7103.67,3790.83 7103.5,3760.16 7103,3729.5C 7093.2,3759.9 7083.2,3790.23 7073,3820.5C 7065.92,3821.48 7058.75,3821.81 7051.5,3821.5C 7041.77,3791.15 7031.94,3760.82 7022,3730.5C 7021.5,3760.83 7021.33,3791.16 7021.5,3821.5C 7013.17,3821.5 7004.83,3821.5 6996.5,3821.5C 6996.5,3779.17 6996.5,3736.83 6996.5,3694.5 Z"/></g>
<g><path style="opacity:0.947" fill="#000000" d="M 7256.5,3794.5 C 7266.17,3794.5 7275.83,3794.5 7285.5,3794.5C 7285.5,3803.5 7285.5,3812.5 7285.5,3821.5C 7275.83,3821.5 7266.17,3821.5 7256.5,3821.5C 7256.5,3812.5 7256.5,3803.5 7256.5,3794.5 Z"/></g>
</svg>