<svg xmlns="http://www.w3.org/2000/svg" xmlns:xlink="http://www.w3.org/1999/xlink" version="1.1" style="shape-rendering:geometricPrecision; text-rendering:geometricPrecision; image-rendering:optimizeQuality; fill-rule:evenodd; clip-rule:evenodd" viewBox="219.5 3707.36 7055 96.16">
<g><path style="opacity:0.921" fill="#000000" d="M 368.5,3707.5 C 389.595,3706.52 402.928,3716.02 408.5,3736C 401.844,3736.71 395.178,3737.21 388.5,3737.5C 387.167,3730.67 383.167,3726.17 376.5,3724C 368.503,3721.96 361.669,3723.79 356,3729.5C 353.916,3735.22 355.749,3739.38 361.5,3742C 373.677,3744.71 385.677,3748.04 397.5,3752C 408.602,3758.72 412.769,3768.56 410,3781.5C 406.787,3791.71 399.954,3798.21 389.5,3801C 375.15,3804.48 361.15,3803.15 347.5,3797C 338.07,3791.12 333.403,3782.79 333.5,3772C 339.817,3771.23 346.151,3770.73 352.5,3770.5C 353.433,3779.6 358.433,3785.1 367.5,3787C 374.215,3788.25 380.548,3787.25 386.5,3784C 391.314,3779.27 391.647,3774.27 387.5,3769C 375.708,3764.72 363.708,3761.05 351.5,3758C 337.758,3752.35 332.591,3742.18 336,3727.5C 338.807,3719.36 344.307,3713.86 352.5,3711C 357.871,3709.36 363.204,3708.2 368.5,3707.5 Z"/></g>
<g><path style="opacity:0.921" fill="#000000" d="M 1667.5,3707.5 C 1688.9,3706.52 1703.9,3715.69 1712.5,3735C 1712.36,3735.77 1712.02,3736.44 1711.5,3737C 1705.45,3737.65 1699.45,3738.49 1693.5,3739.5C 1684.18,3723.27 1671.51,3720.1 1655.5,3730C 1644.17,3746.13 1643.67,3762.63 1654,3779.5C 1665.67,3788.83 1677.33,3788.83 1689,3779.5C 1691.36,3776.11 1693.19,3772.45 1694.5,3768.5C 1687.2,3767.5 1679.86,3767.17 1672.5,3767.5C 1672.5,3762.5 1672.5,3757.5 1672.5,3752.5C 1686.17,3752.5 1699.83,3752.5 1713.5,3752.5C 1713.5,3768.5 1713.5,3784.5 1713.5,3800.5C 1708.5,3800.5 1703.5,3800.5 1698.5,3800.5C 1698.66,3797.81 1698.5,3795.15 1698,3792.5C 1690.45,3799.68 1681.45,3803.35 1671,3803.5C 1645.7,3801.85 1631.04,3788.52 1627,3763.5C 1623.95,3743.64 1630.11,3727.47 1645.5,3715C 1652.45,3710.96 1659.78,3708.46 1667.5,3707.5 Z"/></g>
<g><path style="opacity:0.922" fill="#000000" d="M 1776.5,3707.5 C 1791.97,3706.37 1804.13,3712.03 1813,3724.5C 1814.88,3728.31 1816.05,3732.31 1816.5,3736.5C 1810.12,3736.99 1803.79,3736.99 1797.5,3736.5C 1793.03,3725.04 1784.69,3720.88 1772.5,3724C 1763.9,3727.17 1761.9,3732.5 1766.5,3740C 1779.81,3743.99 1793.14,3747.99 1806.5,3752C 1820.26,3762.24 1823.1,3775.07 1815,3790.5C 1805.84,3799.38 1794.84,3803.71 1782,3803.5C 1767.37,3803.85 1755.37,3798.52 1746,3787.5C 1742.67,3782.69 1741.5,3777.53 1742.5,3772C 1748.53,3770.96 1754.53,3770.79 1760.5,3771.5C 1763.38,3782.03 1770.38,3787.36 1781.5,3787.5C 1790.74,3788.4 1796.74,3784.56 1799.5,3776C 1799.09,3772.58 1797.43,3769.92 1794.5,3768C 1781.45,3764.15 1768.45,3760.15 1755.5,3756C 1747.47,3751.12 1743.47,3743.95 1743.5,3734.5C 1744.41,3722.76 1750.41,3714.93 1761.5,3711C 1766.55,3709.43 1771.55,3708.26 1776.5,3707.5 Z"/></g>
<g><path style="opacity:0.93" fill="#000000" d="M 2196.5,3707.5 C 2228.18,3707.85 2244.18,3723.85 2244.5,3755.5C 2244.44,3785.32 2229.61,3801.32 2200,3803.5C 2170.85,3800.85 2156.02,3784.85 2155.5,3755.5C 2155.65,3727.7 2169.32,3711.7 2196.5,3707.5 Z M 2193.5,3724.5 C 2210.52,3722.36 2220.69,3729.69 2224,3746.5C 2225.82,3757.44 2224.16,3767.77 2219,3777.5C 2210.45,3786.85 2200.28,3789.01 2188.5,3784C 2179.28,3776.88 2174.95,3767.38 2175.5,3755.5C 2174.63,3740.87 2180.63,3730.53 2193.5,3724.5 Z"/></g>
<g><path style="opacity:0.928" fill="#000000" d="M 2556.5,3707.5 C 2587.99,3707.99 2604.33,3723.99 2605.5,3755.5C 2604.79,3785.38 2589.62,3801.38 2560,3803.5C 2530.88,3800.88 2516.05,3784.88 2515.5,3755.5C 2515.69,3727.66 2529.36,3711.66 2556.5,3707.5 Z M 2553.5,3724.5 C 2570.1,3722.28 2580.27,3729.28 2584,3745.5C 2585.09,3754.66 2584.43,3763.66 2582,3772.5C 2573.82,3786.67 2562.32,3790.17 2547.5,3783C 2539.05,3775.93 2535.05,3766.76 2535.5,3755.5C 2535.53,3746.69 2538.03,3738.69 2543,3731.5C 2546.15,3728.49 2549.65,3726.16 2553.5,3724.5 Z"/></g>
<g><path style="opacity:0.922" fill="#000000" d="M 2644.5,3707.5 C 2665.29,3706.54 2678.62,3715.87 2684.5,3735.5C 2677.89,3736.71 2671.22,3737.37 2664.5,3737.5C 2662.79,3727.61 2656.79,3722.95 2646.5,3723.5C 2636.1,3722.74 2631.26,3727.41 2632,3737.5C 2633.17,3738.67 2634.33,3739.83 2635.5,3741C 2647.5,3744.33 2659.5,3747.67 2671.5,3751C 2684.76,3757.42 2689.59,3767.92 2686,3782.5C 2682.34,3792.16 2675.5,3798.33 2665.5,3801C 2651.15,3804.48 2637.15,3803.15 2623.5,3797C 2614.08,3791.14 2609.41,3782.8 2609.5,3772C 2615.82,3771.23 2622.15,3770.73 2628.5,3770.5C 2629.45,3779.62 2634.45,3785.12 2643.5,3787C 2650.21,3788.25 2656.55,3787.25 2662.5,3784C 2667.37,3779.28 2667.7,3774.28 2663.5,3769C 2649.51,3764.33 2635.51,3759.67 2621.5,3755C 2612.81,3748.28 2609.65,3739.44 2612,3728.5C 2614.44,3719.79 2619.94,3713.96 2628.5,3711C 2633.87,3709.36 2639.2,3708.2 2644.5,3707.5 Z"/></g>
<g><path style="opacity:0.93" fill="#000000" d="M 3036.5,3707.5 C 3068.18,3707.85 3084.18,3723.85 3084.5,3755.5C 3084.44,3785.32 3069.61,3801.32 3040,3803.5C 3010.85,3800.85 2996.02,3784.85 2995.5,3755.5C 2995.65,3727.7 3009.32,3711.7 3036.5,3707.5 Z M 3033.5,3724.5 C 3050.52,3722.36 3060.69,3729.69 3064,3746.5C 3065.82,3757.44 3064.16,3767.77 3059,3777.5C 3050.45,3786.85 3040.28,3789.01 3028.5,3784C 3019.28,3776.88 3014.95,3767.38 3015.5,3755.5C 3014.63,3740.87 3020.63,3730.53 3033.5,3724.5 Z"/></g>
<g><path style="opacity:0.922" fill="#000000" d="M 3492.5,3707.5 C 3507.97,3706.37 3520.13,3712.03 3529,3724.5C 3530.88,3728.31 3532.05,3732.31 3532.5,3736.5C 3526.12,3736.99 3519.79,3736.99 3513.5,3736.5C 3509.03,3725.04 3500.69,3720.88 3488.5,3724C 3479.9,3727.17 3477.9,3732.5 3482.5,3740C 3495.81,3743.99 3509.14,3747.99 3522.5,3752C 3536.26,3762.24 3539.1,3775.07 3531,3790.5C 3521.84,3799.38 3510.84,3803.71 3498,3803.5C 3483.37,3803.85 3471.37,3798.52 3462,3787.5C 3458.67,3782.69 3457.5,3777.53 3458.5,3772C 3464.53,3770.96 3470.53,3770.79 3476.5,3771.5C 3479.38,3782.03 3486.38,3787.36 3497.5,3787.5C 3506.74,3788.4 3512.74,3784.56 3515.5,3776C 3515.09,3772.58 3513.43,3769.92 3510.5,3768C 3497.45,3764.15 3484.45,3760.15 3471.5,3756C 3463.47,3751.12 3459.47,3743.95 3459.5,3734.5C 3460.41,3722.76 3466.41,3714.93 3477.5,3711C 3482.55,3709.43 3487.55,3708.26 3492.5,3707.5 Z"/></g>
<g><path style="opacity:0.926" fill="#000000" d="M 3581.5,3707.5 C 3612.99,3707.99 3629.32,3723.99 3630.5,3755.5C 3629.91,3785.09 3614.91,3801.09 3585.5,3803.5C 3555.88,3801.04 3540.88,3784.87 3540.5,3755C 3540.92,3727.43 3554.59,3711.6 3581.5,3707.5 Z M 3579.5,3724.5 C 3595.21,3722.73 3605.04,3729.4 3609,3744.5C 3612.04,3757.89 3609.54,3770.06 3601.5,3781C 3588.35,3789.53 3576.52,3788.03 3566,3776.5C 3564.07,3773.05 3562.74,3769.39 3562,3765.5C 3560.91,3756.34 3561.57,3747.34 3564,3738.5C 3567.49,3731.83 3572.66,3727.17 3579.5,3724.5 Z"/></g>
<g><path style="opacity:0.922" fill="#000000" d="M 3676.5,3707.5 C 3695.31,3706.85 3709.48,3714.52 3719,3730.5C 3719.81,3732.44 3720.31,3734.44 3720.5,3736.5C 3713.83,3737.5 3707.16,3738.5 3700.5,3739.5C 3695.35,3725.93 3685.68,3721.43 3671.5,3726C 3660.73,3732.54 3655.73,3742.21 3656.5,3755C 3655.66,3766.17 3659.33,3775.5 3667.5,3783C 3684.99,3791.01 3696.32,3785.85 3701.5,3767.5C 3708.62,3767.43 3715.62,3768.26 3722.5,3770C 3716.41,3790.91 3702.41,3802.08 3680.5,3803.5C 3656.59,3802.09 3642.09,3789.75 3637,3766.5C 3634.55,3751.95 3636.89,3738.29 3644,3725.5C 3652.34,3714.92 3663.17,3708.92 3676.5,3707.5 Z"/></g>
<g><path style="opacity:0.922" fill="#000000" d="M 4439.5,3707.5 C 4460.29,3706.54 4473.62,3715.87 4479.5,3735.5C 4472.89,3736.71 4466.22,3737.37 4459.5,3737.5C 4457.79,3727.61 4451.79,3722.95 4441.5,3723.5C 4431.1,3722.74 4426.26,3727.41 4427,3737.5C 4428.17,3738.67 4429.33,3739.83 4430.5,3741C 4442.5,3744.33 4454.5,3747.67 4466.5,3751C 4479.76,3757.42 4484.59,3767.92 4481,3782.5C 4477.34,3792.16 4470.5,3798.33 4460.5,3801C 4446.15,3804.48 4432.15,3803.15 4418.5,3797C 4409.08,3791.14 4404.41,3782.8 4404.5,3772C 4410.82,3771.23 4417.15,3770.73 4423.5,3770.5C 4424.45,3779.62 4429.45,3785.12 4438.5,3787C 4445.21,3788.25 4451.55,3787.25 4457.5,3784C 4462.37,3779.28 4462.7,3774.28 4458.5,3769C 4444.51,3764.33 4430.51,3759.67 4416.5,3755C 4407.81,3748.28 4404.65,3739.44 4407,3728.5C 4409.44,3719.79 4414.94,3713.96 4423.5,3711C 4428.87,3709.36 4434.2,3708.2 4439.5,3707.5 Z"/></g>
<g><path style="opacity:0.928" fill="#000000" d="M 4933.5,3707.5 C 4964.99,3707.99 4981.33,3723.99 4982.5,3755.5C 4981.79,3785.38 4966.62,3801.38 4937,3803.5C 4907.88,3800.88 4893.05,3784.88 4892.5,3755.5C 4892.69,3727.66 4906.36,3711.66 4933.5,3707.5 Z M 4930.5,3724.5 C 4947.1,3722.28 4957.27,3729.28 4961,3745.5C 4962.09,3754.66 4961.43,3763.66 4959,3772.5C 4950.82,3786.67 4939.32,3790.17 4924.5,3783C 4916.05,3775.93 4912.05,3766.76 4912.5,3755.5C 4912.53,3746.69 4915.03,3738.69 4920,3731.5C 4923.15,3728.49 4926.65,3726.16 4930.5,3724.5 Z"/></g>
<g><path style="opacity:0.921" fill="#000000" d="M 5210.5,3707.5 C 5231.59,3706.52 5244.93,3716.02 5250.5,3736C 5243.84,3736.71 5237.18,3737.21 5230.5,3737.5C 5229.17,3730.67 5225.17,3726.17 5218.5,3724C 5210.5,3721.96 5203.67,3723.79 5198,3729.5C 5195.92,3735.22 5197.75,3739.38 5203.5,3742C 5215.68,3744.71 5227.68,3748.04 5239.5,3752C 5250.6,3758.72 5254.77,3768.56 5252,3781.5C 5248.79,3791.71 5241.95,3798.21 5231.5,3801C 5217.15,3804.48 5203.15,3803.15 5189.5,3797C 5180.07,3791.12 5175.4,3782.79 5175.5,3772C 5181.82,3771.23 5188.15,3770.73 5194.5,3770.5C 5195.43,3779.6 5200.43,3785.1 5209.5,3787C 5216.21,3788.25 5222.55,3787.25 5228.5,3784C 5233.31,3779.27 5233.65,3774.27 5229.5,3769C 5217.71,3764.72 5205.71,3761.05 5193.5,3758C 5179.76,3752.35 5174.59,3742.18 5178,3727.5C 5180.81,3719.36 5186.31,3713.86 5194.5,3711C 5199.87,3709.36 5205.2,3708.2 5210.5,3707.5 Z"/></g>
<g><path style="opacity:0.93" fill="#000000" d="M 5402.5,3707.5 C 5433.49,3708.49 5449.49,3724.49 5450.5,3755.5C 5449.97,3784.87 5435.13,3800.87 5406,3803.5C 5376.39,3801.31 5361.55,3785.31 5361.5,3755.5C 5361.23,3727.29 5374.89,3711.29 5402.5,3707.5 Z M 5399.5,3724.5 C 5417.43,3722.6 5427.6,3730.6 5430,3748.5C 5432.12,3761.28 5428.95,3772.45 5420.5,3782C 5400.11,3791.56 5387.28,3785.39 5382,3763.5C 5380.28,3752.9 5381.95,3742.9 5387,3733.5C 5390.3,3729.12 5394.47,3726.12 5399.5,3724.5 Z"/></g>
<g><path style="opacity:0.922" fill="#000000" d="M 5910.5,3707.5 C 5925.39,3706.39 5937.22,3711.73 5946,3723.5C 5948.58,3727.48 5950.08,3731.81 5950.5,3736.5C 5944.15,3736.82 5937.82,3736.99 5931.5,3737C 5927.03,3725.6 5918.7,3721.26 5906.5,3724C 5899.07,3726.35 5896.57,3731.19 5899,3738.5C 5900.58,3740.04 5902.41,3741.21 5904.5,3742C 5915.57,3744.75 5926.57,3747.75 5937.5,3751C 5949.27,3756.38 5954.44,3765.54 5953,3778.5C 5952.02,3786.47 5948.19,3792.64 5941.5,3797C 5923.67,3805.85 5906.01,3805.52 5888.5,3796C 5880.94,3790.4 5876.27,3782.9 5874.5,3773.5C 5875.03,3772.81 5875.69,3772.31 5876.5,3772C 5882.49,3771.3 5888.49,3770.8 5894.5,3770.5C 5895.48,3779.65 5900.48,3785.15 5909.5,3787C 5915.69,3787.98 5921.69,3787.32 5927.5,3785C 5933.7,3779.63 5934.03,3773.96 5928.5,3768C 5916.22,3764.18 5903.89,3760.51 5891.5,3757C 5880.51,3751.52 5876.01,3742.68 5878,3730.5C 5879.81,3722.02 5884.64,3715.85 5892.5,3712C 5898.48,3709.84 5904.48,3708.34 5910.5,3707.5 Z"/></g>
<g><path style="opacity:0.921" fill="#000000" d="M 5992.5,3707.5 C 6013.59,3706.52 6026.93,3716.02 6032.5,3736C 6025.84,3736.71 6019.18,3737.21 6012.5,3737.5C 6011.17,3730.67 6007.17,3726.17 6000.5,3724C 5992.5,3721.96 5985.67,3723.79 5980,3729.5C 5977.92,3735.22 5979.75,3739.38 5985.5,3742C 5997.68,3744.71 6009.68,3748.04 6021.5,3752C 6032.6,3758.72 6036.77,3768.56 6034,3781.5C 6030.79,3791.71 6023.95,3798.21 6013.5,3801C 5999.15,3804.48 5985.15,3803.15 5971.5,3797C 5962.07,3791.12 5957.4,3782.79 5957.5,3772C 5963.82,3771.23 5970.15,3770.73 5976.5,3770.5C 5977.43,3779.6 5982.43,3785.1 5991.5,3787C 5998.21,3788.25 6004.55,3787.25 6010.5,3784C 6015.31,3779.27 6015.65,3774.27 6011.5,3769C 5999.71,3764.72 5987.71,3761.05 5975.5,3758C 5961.76,3752.35 5956.59,3742.18 5960,3727.5C 5962.81,3719.36 5968.31,3713.86 5976.5,3711C 5981.87,3709.36 5987.2,3708.2 5992.5,3707.5 Z"/></g>
<g><path style="opacity:0.922" fill="#000000" d="M 6827.5,3707.5 C 6842.97,3706.37 6855.13,3712.03 6864,3724.5C 6865.88,3728.31 6867.05,3732.31 6867.5,3736.5C 6861.12,3736.99 6854.79,3736.99 6848.5,3736.5C 6844.03,3725.04 6835.69,3720.88 6823.5,3724C 6814.9,3727.17 6812.9,3732.5 6817.5,3740C 6830.81,3743.99 6844.14,3747.99 6857.5,3752C 6871.26,3762.24 6874.1,3775.07 6866,3790.5C 6856.84,3799.38 6845.84,3803.71 6833,3803.5C 6818.37,3803.85 6806.37,3798.52 6797,3787.5C 6793.67,3782.69 6792.5,3777.53 6793.5,3772C 6799.53,3770.96 6805.53,3770.79 6811.5,3771.5C 6814.38,3782.03 6821.38,3787.36 6832.5,3787.5C 6841.74,3788.4 6847.74,3784.56 6850.5,3776C 6850.09,3772.58 6848.43,3769.92 6845.5,3768C 6832.45,3764.15 6819.45,3760.15 6806.5,3756C 6798.47,3751.12 6794.47,3743.95 6794.5,3734.5C 6795.41,3722.76 6801.41,3714.93 6812.5,3711C 6817.55,3709.43 6822.55,3708.26 6827.5,3707.5 Z"/></g>
<g><path style="opacity:0.922" fill="#000000" d="M 7203.5,3707.5 C 7218.97,3706.37 7231.13,3712.03 7240,3724.5C 7241.88,3728.31 7243.05,3732.31 7243.5,3736.5C 7237.12,3736.99 7230.79,3736.99 7224.5,3736.5C 7220.03,3725.04 7211.69,3720.88 7199.5,3724C 7190.9,3727.17 7188.9,3732.5 7193.5,3740C 7206.81,3743.99 7220.14,3747.99 7233.5,3752C 7247.26,3762.24 7250.1,3775.07 7242,3790.5C 7232.84,3799.38 7221.84,3803.71 7209,3803.5C 7194.37,3803.85 7182.37,3798.52 7173,3787.5C 7169.67,3782.69 7168.5,3777.53 7169.5,3772C 7175.53,3770.96 7181.53,3770.79 7187.5,3771.5C 7190.38,3782.03 7197.38,3787.36 7208.5,3787.5C 7217.74,3788.4 7223.74,3784.56 7226.5,3776C 7226.09,3772.58 7224.43,3769.92 7221.5,3768C 7208.45,3764.15 7195.45,3760.15 7182.5,3756C 7174.47,3751.12 7170.47,3743.95 7170.5,3734.5C 7171.41,3722.76 7177.41,3714.93 7188.5,3711C 7193.55,3709.43 7198.55,3708.26 7203.5,3707.5 Z"/></g>
<g><path style="opacity:0.98" fill="#000000" d="M 219.5,3709.5 C 225.833,3709.5 232.167,3709.5 238.5,3709.5C 238.5,3739.83 238.5,3770.17 238.5,3800.5C 232.167,3800.5 225.833,3800.5 219.5,3800.5C 219.5,3770.17 219.5,3739.83 219.5,3709.5 Z"/></g>
<g><path style="opacity:0.942" fill="#000000" d="M 248.5,3709.5 C 256.087,3709.19 263.587,3709.52 271,3710.5C 283.667,3731.17 296.333,3751.83 309,3772.5C 309.5,3751.5 309.667,3730.5 309.5,3709.5C 315.5,3709.5 321.5,3709.5 327.5,3709.5C 327.5,3739.83 327.5,3770.17 327.5,3800.5C 320.159,3800.67 312.826,3800.5 305.5,3800C 292.541,3779.25 279.708,3758.42 267,3737.5C 266.5,3758.5 266.333,3779.5 266.5,3800.5C 260.5,3800.5 254.5,3800.5 248.5,3800.5C 248.5,3770.17 248.5,3739.83 248.5,3709.5 Z"/></g>
<g><path style="opacity:0.931" fill="#000000" d="M 417.5,3709.5 C 435.534,3709.12 453.534,3709.62 471.5,3711C 488.103,3716.03 495.27,3727.19 493,3744.5C 491.202,3757.27 484.035,3765.11 471.5,3768C 460.21,3769.33 448.877,3769.83 437.5,3769.5C 437.5,3779.83 437.5,3790.17 437.5,3800.5C 430.833,3800.5 424.167,3800.5 417.5,3800.5C 417.5,3770.17 417.5,3739.83 417.5,3709.5 Z M 437.5,3725.5 C 446.552,3725.19 455.552,3725.69 464.5,3727C 470.053,3729.26 472.72,3733.43 472.5,3739.5C 472.72,3745.57 470.053,3749.74 464.5,3752C 455.559,3753.35 446.559,3753.85 437.5,3753.5C 437.5,3744.17 437.5,3734.83 437.5,3725.5 Z"/></g>
<g><path style="opacity:0.928" fill="#000000" d="M 500.5,3709.5 C 507.167,3709.5 513.833,3709.5 520.5,3709.5C 520.5,3739.83 520.5,3770.17 520.5,3800.5C 513.833,3800.5 507.167,3800.5 500.5,3800.5C 500.5,3770.17 500.5,3739.83 500.5,3709.5 Z"/></g>
<g><path style="opacity:0.938" fill="#000000" d="M 529.5,3709.5 C 547.867,3709.11 566.201,3709.61 584.5,3711C 599.314,3714.48 606.648,3723.81 606.5,3739C 606.901,3752.37 600.901,3761.53 588.5,3766.5C 594.915,3777.67 601.582,3788.67 608.5,3799.5C 600.855,3800.66 593.188,3800.83 585.5,3800C 579.122,3790.08 573.122,3779.91 567.5,3769.5C 561.537,3768.5 555.537,3768.17 549.5,3768.5C 549.5,3779.17 549.5,3789.83 549.5,3800.5C 542.833,3800.5 536.167,3800.5 529.5,3800.5C 529.5,3770.17 529.5,3739.83 529.5,3709.5 Z M 549.5,3725.5 C 559.972,3724.94 570.305,3725.78 580.5,3728C 588.5,3735.33 588.5,3742.67 580.5,3750C 570.305,3752.22 559.972,3753.06 549.5,3752.5C 549.5,3743.5 549.5,3734.5 549.5,3725.5 Z"/></g>
<g><path style="opacity:0.928" fill="#000000" d="M 613.5,3709.5 C 635.833,3709.5 658.167,3709.5 680.5,3709.5C 680.5,3714.83 680.5,3720.17 680.5,3725.5C 664.833,3725.5 649.167,3725.5 633.5,3725.5C 633.5,3732.5 633.5,3739.5 633.5,3746.5C 648.5,3746.5 663.5,3746.5 678.5,3746.5C 678.805,3751.76 678.471,3756.93 677.5,3762C 662.837,3762.5 648.17,3762.67 633.5,3762.5C 633.5,3769.83 633.5,3777.17 633.5,3784.5C 649.167,3784.5 664.833,3784.5 680.5,3784.5C 680.5,3789.83 680.5,3795.17 680.5,3800.5C 658.167,3800.5 635.833,3800.5 613.5,3800.5C 613.5,3770.17 613.5,3739.83 613.5,3709.5 Z"/></g>
<g><path style="opacity:0.934" fill="#000000" d="M 687.5,3709.5 C 700.504,3709.33 713.504,3709.5 726.5,3710C 754.674,3712.01 769.008,3727.18 769.5,3755.5C 770.358,3779.79 759.025,3794.63 735.5,3800C 719.503,3800.5 703.503,3800.67 687.5,3800.5C 687.5,3770.17 687.5,3739.83 687.5,3709.5 Z M 707.5,3725.5 C 740.999,3722.16 754.166,3736.83 747,3769.5C 744.002,3777.16 738.502,3782 730.5,3784C 722.841,3784.5 715.174,3784.67 707.5,3784.5C 707.5,3764.83 707.5,3745.17 707.5,3725.5 Z"/></g>
<g><path style="opacity:0.933" fill="#000000" d="M 799.5,3709.5 C 815.17,3709.33 830.837,3709.5 846.5,3710C 862.543,3710.55 871.21,3718.71 872.5,3734.5C 872.79,3742.59 869.457,3748.59 862.5,3752.5C 875.712,3761.07 879.212,3772.74 873,3787.5C 869.726,3792.77 865.226,3796.61 859.5,3799C 839.554,3800.45 819.554,3800.95 799.5,3800.5C 799.5,3770.17 799.5,3739.83 799.5,3709.5 Z M 819.5,3725.5 C 827.84,3725.33 836.173,3725.5 844.5,3726C 852.337,3729.18 854.504,3734.68 851,3742.5C 849.786,3744.05 848.286,3745.22 846.5,3746C 837.568,3747.38 828.568,3747.88 819.5,3747.5C 819.5,3740.17 819.5,3732.83 819.5,3725.5 Z M 819.5,3761.5 C 828.506,3761.33 837.506,3761.5 846.5,3762C 854.6,3765.27 857.1,3771.1 854,3779.5C 852.363,3781.81 850.196,3783.31 847.5,3784C 838.173,3784.5 828.839,3784.67 819.5,3784.5C 819.5,3776.83 819.5,3769.17 819.5,3761.5 Z"/></g>
<g><path style="opacity:0.918" fill="#000000" d="M 871.5,3709.5 C 878.508,3709.33 885.508,3709.5 892.5,3710C 899.793,3722.75 906.96,3735.59 914,3748.5C 920.579,3735.67 927.412,3723.01 934.5,3710.5C 941.468,3709.5 948.468,3709.17 955.5,3709.5C 945.803,3728.55 935.303,3747.22 924,3765.5C 923.5,3777.16 923.333,3788.83 923.5,3800.5C 916.833,3800.5 910.167,3800.5 903.5,3800.5C 903.667,3788.83 903.5,3777.16 903,3765.5C 891.697,3747.22 881.197,3728.55 871.5,3709.5 Z"/></g>
<g><path style="opacity:0.931" fill="#000000" d="M 981.5,3709.5 C 1007.5,3709.5 1033.5,3709.5 1059.5,3709.5C 1059.5,3715.17 1059.5,3720.83 1059.5,3726.5C 1049.83,3726.5 1040.17,3726.5 1030.5,3726.5C 1030.5,3751.17 1030.5,3775.83 1030.5,3800.5C 1023.83,3800.5 1017.17,3800.5 1010.5,3800.5C 1010.5,3775.83 1010.5,3751.17 1010.5,3726.5C 1000.83,3726.5 991.167,3726.5 981.5,3726.5C 981.5,3720.83 981.5,3715.17 981.5,3709.5 Z"/></g>
<g><path style="opacity:0.928" fill="#000000" d="M 1065.5,3709.5 C 1072.17,3709.5 1078.83,3709.5 1085.5,3709.5C 1085.5,3721.83 1085.5,3734.17 1085.5,3746.5C 1098.5,3746.5 1111.5,3746.5 1124.5,3746.5C 1124.5,3734.17 1124.5,3721.83 1124.5,3709.5C 1131.17,3709.5 1137.83,3709.5 1144.5,3709.5C 1144.5,3739.83 1144.5,3770.17 1144.5,3800.5C 1137.83,3800.5 1131.17,3800.5 1124.5,3800.5C 1124.5,3788.17 1124.5,3775.83 1124.5,3763.5C 1111.5,3763.5 1098.5,3763.5 1085.5,3763.5C 1085.5,3775.83 1085.5,3788.17 1085.5,3800.5C 1078.83,3800.5 1072.17,3800.5 1065.5,3800.5C 1065.5,3770.17 1065.5,3739.83 1065.5,3709.5 Z"/></g>
<g><path style="opacity:0.939" fill="#000000" d="M 1153.5,3709.5 C 1175.5,3709.5 1197.5,3709.5 1219.5,3709.5C 1219.5,3714.83 1219.5,3720.17 1219.5,3725.5C 1204.17,3725.5 1188.83,3725.5 1173.5,3725.5C 1173.5,3732.5 1173.5,3739.5 1173.5,3746.5C 1188.17,3746.5 1202.83,3746.5 1217.5,3746.5C 1217.5,3751.83 1217.5,3757.17 1217.5,3762.5C 1202.83,3762.5 1188.17,3762.5 1173.5,3762.5C 1173.5,3769.83 1173.5,3777.17 1173.5,3784.5C 1188.83,3784.5 1204.17,3784.5 1219.5,3784.5C 1219.5,3789.83 1219.5,3795.17 1219.5,3800.5C 1197.5,3800.5 1175.5,3800.5 1153.5,3800.5C 1153.5,3770.17 1153.5,3739.83 1153.5,3709.5 Z"/></g>
<g><path style="opacity:0.932" fill="#000000" d="M 1250.5,3709.5 C 1266.86,3709.17 1283.2,3709.67 1299.5,3711C 1322.43,3716.79 1333.43,3731.62 1332.5,3755.5C 1333.31,3779.83 1321.98,3794.67 1298.5,3800C 1282.5,3800.5 1266.5,3800.67 1250.5,3800.5C 1250.5,3770.17 1250.5,3739.83 1250.5,3709.5 Z M 1270.5,3725.5 C 1305.91,3722.74 1318.75,3738.41 1309,3772.5C 1305.53,3778.64 1300.36,3782.47 1293.5,3784C 1285.84,3784.5 1278.17,3784.67 1270.5,3784.5C 1270.5,3764.83 1270.5,3745.17 1270.5,3725.5 Z"/></g>
<g><path style="opacity:0.934" fill="#000000" d="M 1362.5,3709.5 C 1371.19,3709.17 1379.86,3709.5 1388.5,3710.5C 1399.54,3740.47 1410.88,3770.3 1422.5,3800C 1415.14,3800.83 1407.81,3800.66 1400.5,3799.5C 1397.97,3793.24 1395.64,3786.91 1393.5,3780.5C 1381.51,3779.33 1369.51,3779.17 1357.5,3780C 1355.07,3786.45 1352.74,3792.95 1350.5,3799.5C 1343.19,3800.66 1335.86,3800.83 1328.5,3800C 1340.33,3770.02 1351.66,3739.85 1362.5,3709.5 Z M 1374.5,3728.5 C 1379.99,3739.95 1384.32,3751.95 1387.5,3764.5C 1379.16,3764.67 1370.83,3764.5 1362.5,3764C 1366.8,3752.26 1370.8,3740.43 1374.5,3728.5 Z"/></g>
<g><path style="opacity:0.938" fill="#000000" d="M 1426.5,3709.5 C 1444.87,3709.11 1463.2,3709.61 1481.5,3711C 1496.31,3714.48 1503.65,3723.81 1503.5,3739C 1503.9,3752.37 1497.9,3761.53 1485.5,3766.5C 1491.92,3777.67 1498.58,3788.67 1505.5,3799.5C 1497.85,3800.66 1490.19,3800.83 1482.5,3800C 1476.12,3790.08 1470.12,3779.91 1464.5,3769.5C 1458.54,3768.5 1452.54,3768.17 1446.5,3768.5C 1446.5,3779.17 1446.5,3789.83 1446.5,3800.5C 1439.83,3800.5 1433.17,3800.5 1426.5,3800.5C 1426.5,3770.17 1426.5,3739.83 1426.5,3709.5 Z M 1446.5,3725.5 C 1456.97,3724.94 1467.31,3725.78 1477.5,3728C 1485.5,3735.33 1485.5,3742.67 1477.5,3750C 1467.31,3752.22 1456.97,3753.06 1446.5,3752.5C 1446.5,3743.5 1446.5,3734.5 1446.5,3725.5 Z"/></g>
<g><path style="opacity:0.928" fill="#000000" d="M 1510.5,3709.5 C 1517.17,3709.5 1523.83,3709.5 1530.5,3709.5C 1530.5,3739.83 1530.5,3770.17 1530.5,3800.5C 1523.83,3800.5 1517.17,3800.5 1510.5,3800.5C 1510.5,3770.17 1510.5,3739.83 1510.5,3709.5 Z"/></g>
<g><path style="opacity:0.916" fill="#000000" d="M 1539.5,3709.5 C 1547.2,3709.17 1554.86,3709.5 1562.5,3710.5C 1575.2,3730.7 1587.7,3751.03 1600,3771.5C 1600.5,3750.84 1600.67,3730.17 1600.5,3709.5C 1606.83,3709.5 1613.17,3709.5 1619.5,3709.5C 1619.5,3739.83 1619.5,3770.17 1619.5,3800.5C 1611.8,3800.83 1604.14,3800.5 1596.5,3799.5C 1584,3779.17 1571.5,3758.83 1559,3738.5C 1558.5,3759.16 1558.33,3779.83 1558.5,3800.5C 1552.17,3800.5 1545.83,3800.5 1539.5,3800.5C 1539.5,3770.17 1539.5,3739.83 1539.5,3709.5 Z"/></g>
<g><path style="opacity:0.933" fill="#000000" d="M 1826.5,3709.5 C 1844.2,3709.12 1861.87,3709.62 1879.5,3711C 1897.53,3716.53 1904.69,3728.69 1901,3747.5C 1898.17,3758.33 1891.33,3765.17 1880.5,3768C 1869.21,3769.33 1857.88,3769.83 1846.5,3769.5C 1846.5,3779.83 1846.5,3790.17 1846.5,3800.5C 1839.83,3800.5 1833.17,3800.5 1826.5,3800.5C 1826.5,3770.17 1826.5,3739.83 1826.5,3709.5 Z M 1846.5,3725.5 C 1855.22,3725.2 1863.89,3725.7 1872.5,3727C 1881.68,3731.56 1883.85,3738.4 1879,3747.5C 1876.33,3750.84 1872.83,3752.67 1868.5,3753C 1861.17,3753.5 1853.84,3753.67 1846.5,3753.5C 1846.5,3744.17 1846.5,3734.83 1846.5,3725.5 Z"/></g>
<g><path style="opacity:0.928" fill="#000000" d="M 1908.5,3709.5 C 1915.17,3709.5 1921.83,3709.5 1928.5,3709.5C 1928.5,3739.83 1928.5,3770.17 1928.5,3800.5C 1921.83,3800.5 1915.17,3800.5 1908.5,3800.5C 1908.5,3770.17 1908.5,3739.83 1908.5,3709.5 Z"/></g>
<g><path style="opacity:0.933" fill="#000000" d="M 1937.5,3709.5 C 1956.2,3709.11 1974.87,3709.61 1993.5,3711C 2008.25,3714.51 2015.59,3723.84 2015.5,3739C 2015.56,3752.57 2009.22,3761.57 1996.5,3766C 2003.75,3777.17 2010.75,3788.5 2017.5,3800C 2009.48,3800.83 2001.48,3800.66 1993.5,3799.5C 1987.7,3789.2 1981.7,3779.04 1975.5,3769C 1969.51,3768.5 1963.51,3768.33 1957.5,3768.5C 1957.5,3779.17 1957.5,3789.83 1957.5,3800.5C 1950.83,3800.5 1944.17,3800.5 1937.5,3800.5C 1937.5,3770.17 1937.5,3739.83 1937.5,3709.5 Z M 1957.5,3725.5 C 1968.3,3724.93 1978.97,3725.77 1989.5,3728C 1997.49,3735.29 1997.49,3742.62 1989.5,3750C 1978.97,3752.23 1968.3,3753.07 1957.5,3752.5C 1957.5,3743.5 1957.5,3734.5 1957.5,3725.5 Z"/></g>
<g><path style="opacity:0.926" fill="#000000" d="M 2022.5,3709.5 C 2029.17,3709.5 2035.83,3709.5 2042.5,3709.5C 2042.5,3739.83 2042.5,3770.17 2042.5,3800.5C 2035.83,3800.5 2029.17,3800.5 2022.5,3800.5C 2022.5,3770.17 2022.5,3739.83 2022.5,3709.5 Z"/></g>
<g><path style="opacity:0.928" fill="#000000" d="M 2048.5,3709.5 C 2074.5,3709.5 2100.5,3709.5 2126.5,3709.5C 2126.5,3715.17 2126.5,3720.83 2126.5,3726.5C 2116.83,3726.5 2107.17,3726.5 2097.5,3726.5C 2097.5,3751.17 2097.5,3775.83 2097.5,3800.5C 2090.83,3800.5 2084.17,3800.5 2077.5,3800.5C 2077.5,3775.83 2077.5,3751.17 2077.5,3726.5C 2067.83,3726.5 2058.17,3726.5 2048.5,3726.5C 2048.5,3720.83 2048.5,3715.17 2048.5,3709.5 Z"/></g>
<g><path style="opacity:0.941" fill="#000000" d="M 2252.5,3709.5 C 2274.5,3709.5 2296.5,3709.5 2318.5,3709.5C 2318.5,3714.83 2318.5,3720.17 2318.5,3725.5C 2303.17,3725.5 2287.83,3725.5 2272.5,3725.5C 2272.5,3733.17 2272.5,3740.83 2272.5,3748.5C 2287.17,3748.5 2301.83,3748.5 2316.5,3748.5C 2316.5,3753.5 2316.5,3758.5 2316.5,3763.5C 2301.83,3763.5 2287.17,3763.5 2272.5,3763.5C 2272.5,3775.83 2272.5,3788.17 2272.5,3800.5C 2265.83,3800.5 2259.17,3800.5 2252.5,3800.5C 2252.5,3770.17 2252.5,3739.83 2252.5,3709.5 Z"/></g>
<g><path style="opacity:0.931" fill="#000000" d="M 2345.5,3709.5 C 2371.5,3709.5 2397.5,3709.5 2423.5,3709.5C 2423.5,3715.17 2423.5,3720.83 2423.5,3726.5C 2413.83,3726.5 2404.17,3726.5 2394.5,3726.5C 2394.5,3751.17 2394.5,3775.83 2394.5,3800.5C 2387.83,3800.5 2381.17,3800.5 2374.5,3800.5C 2374.5,3775.83 2374.5,3751.17 2374.5,3726.5C 2364.83,3726.5 2355.17,3726.5 2345.5,3726.5C 2345.5,3720.83 2345.5,3715.17 2345.5,3709.5 Z"/></g>
<g><path style="opacity:0.928" fill="#000000" d="M 2429.5,3709.5 C 2436.17,3709.5 2442.83,3709.5 2449.5,3709.5C 2449.5,3721.83 2449.5,3734.17 2449.5,3746.5C 2462.5,3746.5 2475.5,3746.5 2488.5,3746.5C 2488.5,3734.17 2488.5,3721.83 2488.5,3709.5C 2495.17,3709.5 2501.83,3709.5 2508.5,3709.5C 2508.5,3739.83 2508.5,3770.17 2508.5,3800.5C 2501.83,3800.5 2495.17,3800.5 2488.5,3800.5C 2488.5,3788.17 2488.5,3775.83 2488.5,3763.5C 2475.5,3763.5 2462.5,3763.5 2449.5,3763.5C 2449.5,3775.83 2449.5,3788.17 2449.5,3800.5C 2442.83,3800.5 2436.17,3800.5 2429.5,3800.5C 2429.5,3770.17 2429.5,3739.83 2429.5,3709.5 Z"/></g>
<g><path style="opacity:0.939" fill="#000000" d="M 2694.5,3709.5 C 2716.5,3709.5 2738.5,3709.5 2760.5,3709.5C 2760.5,3714.83 2760.5,3720.17 2760.5,3725.5C 2745.17,3725.5 2729.83,3725.5 2714.5,3725.5C 2714.5,3732.5 2714.5,3739.5 2714.5,3746.5C 2729.17,3746.5 2743.83,3746.5 2758.5,3746.5C 2758.5,3751.83 2758.5,3757.17 2758.5,3762.5C 2743.83,3762.5 2729.17,3762.5 2714.5,3762.5C 2714.5,3769.83 2714.5,3777.17 2714.5,3784.5C 2729.83,3784.5 2745.17,3784.5 2760.5,3784.5C 2760.5,3789.83 2760.5,3795.17 2760.5,3800.5C 2738.5,3800.5 2716.5,3800.5 2694.5,3800.5C 2694.5,3770.17 2694.5,3739.83 2694.5,3709.5 Z"/></g>
<g><path style="opacity:0.928" fill="#000000" d="M 2787.5,3709.5 C 2794.2,3709.17 2800.87,3709.5 2807.5,3710.5C 2812.19,3731.78 2816.69,3753.11 2821,3774.5C 2826.45,3753.09 2830.95,3731.43 2834.5,3709.5C 2842.17,3709.5 2849.83,3709.5 2857.5,3709.5C 2861.31,3731.37 2865.81,3753.04 2871,3774.5C 2875.69,3752.86 2880.19,3731.19 2884.5,3709.5C 2891.53,3709.17 2898.53,3709.5 2905.5,3710.5C 2898.02,3739.75 2890.85,3769.08 2884,3798.5C 2876.11,3800.45 2867.94,3801.12 2859.5,3800.5C 2855.19,3779.47 2850.69,3758.47 2846,3737.5C 2841.51,3758.45 2837.34,3779.45 2833.5,3800.5C 2825.17,3800.5 2816.83,3800.5 2808.5,3800.5C 2801.34,3770.2 2794.34,3739.87 2787.5,3709.5 Z"/></g>
<g><path style="opacity:0.928" fill="#000000" d="M 2909.5,3709.5 C 2916.17,3709.5 2922.83,3709.5 2929.5,3709.5C 2929.5,3721.83 2929.5,3734.17 2929.5,3746.5C 2942.5,3746.5 2955.5,3746.5 2968.5,3746.5C 2968.5,3734.17 2968.5,3721.83 2968.5,3709.5C 2975.17,3709.5 2981.83,3709.5 2988.5,3709.5C 2988.5,3739.83 2988.5,3770.17 2988.5,3800.5C 2981.83,3800.5 2975.17,3800.5 2968.5,3800.5C 2968.5,3788.17 2968.5,3775.83 2968.5,3763.5C 2955.5,3763.5 2942.5,3763.5 2929.5,3763.5C 2929.5,3775.83 2929.5,3788.17 2929.5,3800.5C 2922.83,3800.5 2916.17,3800.5 2909.5,3800.5C 2909.5,3770.17 2909.5,3739.83 2909.5,3709.5 Z"/></g>
<g><path style="opacity:0.932" fill="#000000" d="M 3116.5,3709.5 C 3132.86,3709.17 3149.2,3709.67 3165.5,3711C 3188.43,3716.79 3199.43,3731.62 3198.5,3755.5C 3199.31,3779.83 3187.98,3794.67 3164.5,3800C 3148.5,3800.5 3132.5,3800.67 3116.5,3800.5C 3116.5,3770.17 3116.5,3739.83 3116.5,3709.5 Z M 3136.5,3725.5 C 3171.91,3722.74 3184.75,3738.41 3175,3772.5C 3171.53,3778.64 3166.36,3782.47 3159.5,3784C 3151.84,3784.5 3144.17,3784.67 3136.5,3784.5C 3136.5,3764.83 3136.5,3745.17 3136.5,3725.5 Z"/></g>
<g><path style="opacity:0.928" fill="#000000" d="M 3205.5,3709.5 C 3227.83,3709.5 3250.17,3709.5 3272.5,3709.5C 3272.5,3714.83 3272.5,3720.17 3272.5,3725.5C 3256.83,3725.5 3241.17,3725.5 3225.5,3725.5C 3225.5,3732.5 3225.5,3739.5 3225.5,3746.5C 3240.5,3746.5 3255.5,3746.5 3270.5,3746.5C 3270.5,3751.83 3270.5,3757.17 3270.5,3762.5C 3255.5,3762.5 3240.5,3762.5 3225.5,3762.5C 3225.5,3769.83 3225.5,3777.17 3225.5,3784.5C 3241.17,3784.5 3256.83,3784.5 3272.5,3784.5C 3272.5,3789.83 3272.5,3795.17 3272.5,3800.5C 3250.17,3800.5 3227.83,3800.5 3205.5,3800.5C 3205.5,3770.17 3205.5,3739.83 3205.5,3709.5 Z"/></g>
<g><path style="opacity:0.933" fill="#000000" d="M 3279.5,3709.5 C 3301.83,3709.5 3324.17,3709.5 3346.5,3709.5C 3346.5,3714.83 3346.5,3720.17 3346.5,3725.5C 3330.83,3725.5 3315.17,3725.5 3299.5,3725.5C 3299.5,3733.17 3299.5,3740.83 3299.5,3748.5C 3314.5,3748.5 3329.5,3748.5 3344.5,3748.5C 3344.5,3753.5 3344.5,3758.5 3344.5,3763.5C 3329.5,3763.5 3314.5,3763.5 3299.5,3763.5C 3299.5,3775.83 3299.5,3788.17 3299.5,3800.5C 3292.83,3800.5 3286.17,3800.5 3279.5,3800.5C 3279.5,3770.17 3279.5,3739.83 3279.5,3709.5 Z"/></g>
<g><path style="opacity:0.918" fill="#000000" d="M 3348.5,3709.5 C 3355.51,3709.33 3362.51,3709.5 3369.5,3710C 3376.79,3722.75 3383.96,3735.59 3391,3748.5C 3397.58,3735.67 3404.41,3723.01 3411.5,3710.5C 3418.47,3709.5 3425.47,3709.17 3432.5,3709.5C 3422.8,3728.55 3412.3,3747.22 3401,3765.5C 3400.5,3777.16 3400.33,3788.83 3400.5,3800.5C 3393.83,3800.5 3387.17,3800.5 3380.5,3800.5C 3380.67,3788.83 3380.5,3777.16 3380,3765.5C 3368.7,3747.22 3358.2,3728.55 3348.5,3709.5 Z"/></g>
<g><path style="opacity:0.926" fill="#000000" d="M 3728.5,3709.5 C 3735.17,3709.5 3741.83,3709.5 3748.5,3709.5C 3748.5,3739.83 3748.5,3770.17 3748.5,3800.5C 3741.83,3800.5 3735.17,3800.5 3728.5,3800.5C 3728.5,3770.17 3728.5,3739.83 3728.5,3709.5 Z"/></g>
<g><path style="opacity:0.928" fill="#000000" d="M 3757.5,3709.5 C 3779.83,3709.5 3802.17,3709.5 3824.5,3709.5C 3824.5,3714.83 3824.5,3720.17 3824.5,3725.5C 3808.83,3725.5 3793.17,3725.5 3777.5,3725.5C 3777.5,3732.5 3777.5,3739.5 3777.5,3746.5C 3792.5,3746.5 3807.5,3746.5 3822.5,3746.5C 3822.8,3751.76 3822.47,3756.93 3821.5,3762C 3806.84,3762.5 3792.17,3762.67 3777.5,3762.5C 3777.5,3769.83 3777.5,3777.17 3777.5,3784.5C 3793.17,3784.5 3808.83,3784.5 3824.5,3784.5C 3824.5,3789.83 3824.5,3795.17 3824.5,3800.5C 3802.17,3800.5 3779.83,3800.5 3757.5,3800.5C 3757.5,3770.17 3757.5,3739.83 3757.5,3709.5 Z"/></g>
<g><path style="opacity:0.928" fill="#000000" d="M 3828.5,3709.5 C 3854.5,3709.5 3880.5,3709.5 3906.5,3709.5C 3906.5,3715.17 3906.5,3720.83 3906.5,3726.5C 3896.83,3726.5 3887.17,3726.5 3877.5,3726.5C 3877.5,3751.17 3877.5,3775.83 3877.5,3800.5C 3870.83,3800.5 3864.17,3800.5 3857.5,3800.5C 3857.5,3775.83 3857.5,3751.17 3857.5,3726.5C 3847.83,3726.5 3838.17,3726.5 3828.5,3726.5C 3828.5,3720.83 3828.5,3715.17 3828.5,3709.5 Z"/></g>
<g><path style="opacity:0.935" fill="#000000" d="M 3928.5,3709.5 C 3936.84,3709.33 3945.17,3709.5 3953.5,3710C 3964.96,3739.76 3976.3,3769.6 3987.5,3799.5C 3980.2,3800.5 3972.86,3800.83 3965.5,3800.5C 3963.86,3793.42 3961.53,3786.59 3958.5,3780C 3946.5,3779.5 3934.5,3779.33 3922.5,3779.5C 3920.47,3786.43 3918.14,3793.26 3915.5,3800C 3908.48,3800.83 3901.48,3800.66 3894.5,3799.5C 3905.85,3769.47 3917.18,3739.47 3928.5,3709.5 Z M 3940.5,3728.5 C 3945,3739.99 3949.33,3751.66 3953.5,3763.5C 3945.19,3764.5 3936.86,3764.83 3928.5,3764.5C 3932.3,3752.43 3936.3,3740.43 3940.5,3728.5 Z"/></g>
<g><path style="opacity:0.943" fill="#000000" d="M 3991.5,3709.5 C 3998.17,3709.5 4004.83,3709.5 4011.5,3709.5C 4011.5,3734.5 4011.5,3759.5 4011.5,3784.5C 4027.5,3784.5 4043.5,3784.5 4059.5,3784.5C 4059.5,3789.83 4059.5,3795.17 4059.5,3800.5C 4036.83,3800.5 4014.17,3800.5 3991.5,3800.5C 3991.5,3770.17 3991.5,3739.83 3991.5,3709.5 Z"/></g>
<g><path style="opacity:0.933" fill="#000000" d="M 4088.5,3709.5 C 4107.2,3709.11 4125.87,3709.61 4144.5,3711C 4159.25,3714.51 4166.59,3723.84 4166.5,3739C 4166.56,3752.57 4160.22,3761.57 4147.5,3766C 4154.75,3777.17 4161.75,3788.5 4168.5,3800C 4160.48,3800.83 4152.48,3800.66 4144.5,3799.5C 4138.7,3789.2 4132.7,3779.04 4126.5,3769C 4120.51,3768.5 4114.51,3768.33 4108.5,3768.5C 4108.5,3779.17 4108.5,3789.83 4108.5,3800.5C 4101.83,3800.5 4095.17,3800.5 4088.5,3800.5C 4088.5,3770.17 4088.5,3739.83 4088.5,3709.5 Z M 4108.5,3725.5 C 4119.3,3724.93 4129.97,3725.77 4140.5,3728C 4148.49,3735.29 4148.49,3742.62 4140.5,3750C 4129.97,3752.23 4119.3,3753.07 4108.5,3752.5C 4108.5,3743.5 4108.5,3734.5 4108.5,3725.5 Z"/></g>
<g><path style="opacity:0.925" fill="#000000" d="M 4173.5,3709.5 C 4180.17,3709.5 4186.83,3709.5 4193.5,3709.5C 4193.33,3730.5 4193.5,3751.5 4194,3772.5C 4196.48,3781.84 4202.65,3786.51 4212.5,3786.5C 4222.7,3786.47 4228.87,3781.47 4231,3771.5C 4231.5,3750.84 4231.67,3730.17 4231.5,3709.5C 4238.17,3709.5 4244.83,3709.5 4251.5,3709.5C 4251.67,3730.84 4251.5,3752.17 4251,3773.5C 4248.94,3787.56 4241.11,3796.73 4227.5,3801C 4213.3,3804.68 4199.63,3803.01 4186.5,3796C 4179.38,3790.55 4175.22,3783.38 4174,3774.5C 4173.5,3752.84 4173.33,3731.17 4173.5,3709.5 Z"/></g>
<g><path style="opacity:0.949" fill="#000000" d="M 4260.5,3709.5 C 4267.17,3709.5 4273.83,3709.5 4280.5,3709.5C 4280.5,3734.5 4280.5,3759.5 4280.5,3784.5C 4296.17,3784.5 4311.83,3784.5 4327.5,3784.5C 4327.5,3789.83 4327.5,3795.17 4327.5,3800.5C 4305.17,3800.5 4282.83,3800.5 4260.5,3800.5C 4260.5,3770.17 4260.5,3739.83 4260.5,3709.5 Z"/></g>
<g><path style="opacity:0.931" fill="#000000" d="M 4333.5,3709.5 C 4355.83,3709.5 4378.17,3709.5 4400.5,3709.5C 4400.5,3714.83 4400.5,3720.17 4400.5,3725.5C 4384.83,3725.5 4369.17,3725.5 4353.5,3725.5C 4353.5,3732.5 4353.5,3739.5 4353.5,3746.5C 4368.17,3746.5 4382.83,3746.5 4397.5,3746.5C 4397.5,3751.83 4397.5,3757.17 4397.5,3762.5C 4382.83,3762.5 4368.17,3762.5 4353.5,3762.5C 4353.5,3769.83 4353.5,3777.17 4353.5,3784.5C 4369.17,3784.5 4384.83,3784.5 4400.5,3784.5C 4400.5,3789.83 4400.5,3795.17 4400.5,3800.5C 4378.17,3800.5 4355.83,3800.5 4333.5,3800.5C 4333.5,3770.17 4333.5,3739.83 4333.5,3709.5 Z"/></g>
<g><path style="opacity:0.935" fill="#000000" d="M 4541.5,3709.5 C 4550.42,3709.18 4559.25,3709.52 4568,3710.5C 4578.98,3740.43 4590.14,3770.26 4601.5,3800C 4594.17,3800.5 4586.84,3800.67 4579.5,3800.5C 4577.47,3793.57 4575.14,3786.74 4572.5,3780C 4560.49,3779.17 4548.49,3779.33 4536.5,3780.5C 4534.36,3786.91 4532.03,3793.24 4529.5,3799.5C 4522.53,3800.5 4515.53,3800.83 4508.5,3800.5C 4519.7,3770.24 4530.7,3739.91 4541.5,3709.5 Z M 4554.5,3728.5 C 4558.71,3740.29 4563.04,3752.12 4567.5,3764C 4558.83,3764.67 4550.17,3764.67 4541.5,3764C 4545.94,3752.19 4550.27,3740.36 4554.5,3728.5 Z"/></g>
<g><path style="opacity:0.942" fill="#000000" d="M 4605.5,3709.5 C 4612.84,3709.33 4620.17,3709.5 4627.5,3710C 4640.46,3730.75 4653.29,3751.58 4666,3772.5C 4666.5,3751.5 4666.67,3730.5 4666.5,3709.5C 4672.5,3709.5 4678.5,3709.5 4684.5,3709.5C 4684.5,3739.83 4684.5,3770.17 4684.5,3800.5C 4676.91,3800.81 4669.41,3800.48 4662,3799.5C 4649.33,3778.83 4636.67,3758.17 4624,3737.5C 4623.5,3758.5 4623.33,3779.5 4623.5,3800.5C 4617.5,3800.5 4611.5,3800.5 4605.5,3800.5C 4605.5,3770.17 4605.5,3739.83 4605.5,3709.5 Z"/></g>
<g><path style="opacity:0.934" fill="#000000" d="M 4693.5,3709.5 C 4706.5,3709.33 4719.5,3709.5 4732.5,3710C 4760.67,3712.01 4775.01,3727.18 4775.5,3755.5C 4776.36,3779.79 4765.02,3794.63 4741.5,3800C 4725.5,3800.5 4709.5,3800.67 4693.5,3800.5C 4693.5,3770.17 4693.5,3739.83 4693.5,3709.5 Z M 4713.5,3725.5 C 4747,3722.16 4760.17,3736.83 4753,3769.5C 4750,3777.16 4744.5,3782 4736.5,3784C 4728.84,3784.5 4721.17,3784.67 4713.5,3784.5C 4713.5,3764.83 4713.5,3745.17 4713.5,3725.5 Z"/></g>
<g><path style="opacity:0.916" fill="#000000" d="M 4805.5,3709.5 C 4813.2,3709.17 4820.86,3709.5 4828.5,3710.5C 4841.2,3730.7 4853.7,3751.03 4866,3771.5C 4866.5,3750.84 4866.67,3730.17 4866.5,3709.5C 4872.83,3709.5 4879.17,3709.5 4885.5,3709.5C 4885.5,3739.83 4885.5,3770.17 4885.5,3800.5C 4877.8,3800.83 4870.14,3800.5 4862.5,3799.5C 4850,3779.17 4837.5,3758.83 4825,3738.5C 4824.5,3759.16 4824.33,3779.83 4824.5,3800.5C 4818.17,3800.5 4811.83,3800.5 4805.5,3800.5C 4805.5,3770.17 4805.5,3739.83 4805.5,3709.5 Z"/></g>
<g><path style="opacity:0.937" fill="#000000" d="M 4989.5,3709.5 C 5007.87,3709.11 5026.2,3709.61 5044.5,3711C 5059.12,3714.62 5066.79,3723.96 5067.5,3739C 5067,3752.17 5060.66,3761.34 5048.5,3766.5C 5055.17,3777.5 5061.83,3788.5 5068.5,3799.5C 5060.85,3800.66 5053.19,3800.83 5045.5,3800C 5039.63,3789.75 5033.63,3779.58 5027.5,3769.5C 5021.54,3768.5 5015.54,3768.17 5009.5,3768.5C 5009.5,3779.17 5009.5,3789.83 5009.5,3800.5C 5002.83,3800.5 4996.17,3800.5 4989.5,3800.5C 4989.5,3770.17 4989.5,3739.83 4989.5,3709.5 Z M 5009.5,3725.5 C 5019.22,3725.18 5028.88,3725.68 5038.5,3727C 5043.9,3729.13 5046.57,3733.13 5046.5,3739C 5046.57,3744.87 5043.9,3748.87 5038.5,3751C 5028.88,3752.29 5019.21,3752.79 5009.5,3752.5C 5009.5,3743.5 5009.5,3734.5 5009.5,3725.5 Z"/></g>
<g><path style="opacity:0.924" fill="#000000" d="M 5073.5,3709.5 C 5083.19,3709.17 5092.86,3709.5 5102.5,3710.5C 5108.71,3730.64 5115.21,3750.64 5122,3770.5C 5127.87,3750.4 5134.03,3730.4 5140.5,3710.5C 5150.14,3709.5 5159.81,3709.17 5169.5,3709.5C 5169.5,3739.83 5169.5,3770.17 5169.5,3800.5C 5163.17,3800.5 5156.83,3800.5 5150.5,3800.5C 5150.67,3779.16 5150.5,3757.83 5150,3736.5C 5142.66,3757.7 5135.82,3779.03 5129.5,3800.5C 5124.13,3800.83 5118.79,3800.49 5113.5,3799.5C 5106.37,3778.93 5099.53,3758.27 5093,3737.5C 5092.5,3758.5 5092.33,3779.5 5092.5,3800.5C 5086.17,3800.5 5079.83,3800.5 5073.5,3800.5C 5073.5,3770.17 5073.5,3739.83 5073.5,3709.5 Z"/></g>
<g><path style="opacity:0.931" fill="#000000" d="M 5280.5,3709.5 C 5306.5,3709.5 5332.5,3709.5 5358.5,3709.5C 5358.5,3715.17 5358.5,3720.83 5358.5,3726.5C 5348.83,3726.5 5339.17,3726.5 5329.5,3726.5C 5329.5,3751.17 5329.5,3775.83 5329.5,3800.5C 5322.83,3800.5 5316.17,3800.5 5309.5,3800.5C 5309.5,3775.83 5309.5,3751.17 5309.5,3726.5C 5299.83,3726.5 5290.17,3726.5 5280.5,3726.5C 5280.5,3720.83 5280.5,3715.17 5280.5,3709.5 Z"/></g>
<g><path style="opacity:0.928" fill="#000000" d="M 5481.5,3709.5 C 5503.83,3709.5 5526.17,3709.5 5548.5,3709.5C 5548.5,3714.83 5548.5,3720.17 5548.5,3725.5C 5532.83,3725.5 5517.17,3725.5 5501.5,3725.5C 5501.5,3732.5 5501.5,3739.5 5501.5,3746.5C 5516.5,3746.5 5531.5,3746.5 5546.5,3746.5C 5546.5,3751.83 5546.5,3757.17 5546.5,3762.5C 5531.5,3762.5 5516.5,3762.5 5501.5,3762.5C 5501.5,3769.83 5501.5,3777.17 5501.5,3784.5C 5517.17,3784.5 5532.83,3784.5 5548.5,3784.5C 5548.5,3789.83 5548.5,3795.17 5548.5,3800.5C 5526.17,3800.5 5503.83,3800.5 5481.5,3800.5C 5481.5,3770.17 5481.5,3739.83 5481.5,3709.5 Z"/></g>
<g><path style="opacity:0.918" fill="#000000" d="M 5553.5,3709.5 C 5560.84,3709.33 5568.17,3709.5 5575.5,3710C 5581.29,3719.08 5586.96,3728.25 5592.5,3737.5C 5598.4,3728.7 5604.07,3719.7 5609.5,3710.5C 5616.83,3709.17 5624.17,3709.17 5631.5,3710.5C 5622.24,3724.7 5613.24,3739.04 5604.5,3753.5C 5613.65,3769.13 5623.32,3784.47 5633.5,3799.5C 5625.83,3800.83 5618.17,3800.83 5610.5,3799.5C 5604.58,3789.33 5598.42,3779.33 5592,3769.5C 5585.83,3779.67 5579.67,3789.83 5573.5,3800C 5566.14,3800.83 5558.81,3800.66 5551.5,3799.5C 5561.05,3784.23 5570.71,3769.07 5580.5,3754C 5571.11,3739.38 5562.11,3724.54 5553.5,3709.5 Z"/></g>
<g><path style="opacity:0.931" fill="#000000" d="M 5637.5,3709.5 C 5655.53,3709.12 5673.53,3709.62 5691.5,3711C 5708.1,3716.03 5715.27,3727.19 5713,3744.5C 5711.2,3757.27 5704.03,3765.11 5691.5,3768C 5680.21,3769.33 5668.88,3769.83 5657.5,3769.5C 5657.5,3779.83 5657.5,3790.17 5657.5,3800.5C 5650.83,3800.5 5644.17,3800.5 5637.5,3800.5C 5637.5,3770.17 5637.5,3739.83 5637.5,3709.5 Z M 5657.5,3725.5 C 5666.55,3725.19 5675.55,3725.69 5684.5,3727C 5690.05,3729.26 5692.72,3733.43 5692.5,3739.5C 5692.72,3745.57 5690.05,3749.74 5684.5,3752C 5675.56,3753.35 5666.56,3753.85 5657.5,3753.5C 5657.5,3744.17 5657.5,3734.83 5657.5,3725.5 Z"/></g>
<g><path style="opacity:0.938" fill="#000000" d="M 5720.5,3709.5 C 5738.87,3709.11 5757.2,3709.61 5775.5,3711C 5790.31,3714.48 5797.65,3723.81 5797.5,3739C 5797.9,3752.37 5791.9,3761.53 5779.5,3766.5C 5785.92,3777.67 5792.58,3788.67 5799.5,3799.5C 5791.85,3800.66 5784.19,3800.83 5776.5,3800C 5770.12,3790.08 5764.12,3779.91 5758.5,3769.5C 5752.54,3768.5 5746.54,3768.17 5740.5,3768.5C 5740.5,3779.17 5740.5,3789.83 5740.5,3800.5C 5733.83,3800.5 5727.17,3800.5 5720.5,3800.5C 5720.5,3770.17 5720.5,3739.83 5720.5,3709.5 Z M 5740.5,3725.5 C 5750.97,3724.94 5761.31,3725.78 5771.5,3728C 5779.5,3735.33 5779.5,3742.67 5771.5,3750C 5761.31,3752.22 5750.97,3753.06 5740.5,3752.5C 5740.5,3743.5 5740.5,3734.5 5740.5,3725.5 Z"/></g>
<g><path style="opacity:0.928" fill="#000000" d="M 5804.5,3709.5 C 5826.83,3709.5 5849.17,3709.5 5871.5,3709.5C 5871.5,3714.83 5871.5,3720.17 5871.5,3725.5C 5855.83,3725.5 5840.17,3725.5 5824.5,3725.5C 5824.5,3732.5 5824.5,3739.5 5824.5,3746.5C 5839.5,3746.5 5854.5,3746.5 5869.5,3746.5C 5869.8,3751.76 5869.47,3756.93 5868.5,3762C 5853.84,3762.5 5839.17,3762.67 5824.5,3762.5C 5824.5,3769.83 5824.5,3777.17 5824.5,3784.5C 5840.17,3784.5 5855.83,3784.5 5871.5,3784.5C 5871.5,3789.83 5871.5,3795.17 5871.5,3800.5C 5849.17,3800.5 5826.83,3800.5 5804.5,3800.5C 5804.5,3770.17 5804.5,3739.83 5804.5,3709.5 Z"/></g>
<g><path style="opacity:0.931" fill="#000000" d="M 6062.5,3709.5 C 6088.5,3709.5 6114.5,3709.5 6140.5,3709.5C 6140.5,3715.17 6140.5,3720.83 6140.5,3726.5C 6130.83,3726.5 6121.17,3726.5 6111.5,3726.5C 6111.5,3751.17 6111.5,3775.83 6111.5,3800.5C 6104.83,3800.5 6098.17,3800.5 6091.5,3800.5C 6091.5,3775.83 6091.5,3751.17 6091.5,3726.5C 6081.83,3726.5 6072.17,3726.5 6062.5,3726.5C 6062.5,3720.83 6062.5,3715.17 6062.5,3709.5 Z"/></g>
<g><path style="opacity:0.928" fill="#000000" d="M 6146.5,3709.5 C 6153.17,3709.5 6159.83,3709.5 6166.5,3709.5C 6166.5,3721.83 6166.5,3734.17 6166.5,3746.5C 6179.5,3746.5 6192.5,3746.5 6205.5,3746.5C 6205.5,3734.17 6205.5,3721.83 6205.5,3709.5C 6212.17,3709.5 6218.83,3709.5 6225.5,3709.5C 6225.5,3739.83 6225.5,3770.17 6225.5,3800.5C 6218.83,3800.5 6212.17,3800.5 6205.5,3800.5C 6205.5,3788.17 6205.5,3775.83 6205.5,3763.5C 6192.5,3763.5 6179.5,3763.5 6166.5,3763.5C 6166.5,3775.83 6166.5,3788.17 6166.5,3800.5C 6159.83,3800.5 6153.17,3800.5 6146.5,3800.5C 6146.5,3770.17 6146.5,3739.83 6146.5,3709.5 Z"/></g>
<g><path style="opacity:0.939" fill="#000000" d="M 6234.5,3709.5 C 6256.5,3709.5 6278.5,3709.5 6300.5,3709.5C 6300.5,3714.83 6300.5,3720.17 6300.5,3725.5C 6285.17,3725.5 6269.83,3725.5 6254.5,3725.5C 6254.5,3732.5 6254.5,3739.5 6254.5,3746.5C 6269.17,3746.5 6283.83,3746.5 6298.5,3746.5C 6298.5,3751.83 6298.5,3757.17 6298.5,3762.5C 6283.83,3762.5 6269.17,3762.5 6254.5,3762.5C 6254.5,3769.83 6254.5,3777.17 6254.5,3784.5C 6269.83,3784.5 6285.17,3784.5 6300.5,3784.5C 6300.5,3789.83 6300.5,3795.17 6300.5,3800.5C 6278.5,3800.5 6256.5,3800.5 6234.5,3800.5C 6234.5,3770.17 6234.5,3739.83 6234.5,3709.5 Z"/></g>
<g><path style="opacity:0.928" fill="#000000" d="M 6308.5,3709.5 C 6315.17,3709.5 6321.83,3709.5 6328.5,3709.5C 6328.5,3739.83 6328.5,3770.17 6328.5,3800.5C 6321.83,3800.5 6315.17,3800.5 6308.5,3800.5C 6308.5,3770.17 6308.5,3739.83 6308.5,3709.5 Z"/></g>
<g><path style="opacity:0.937" fill="#000000" d="M 6337.5,3709.5 C 6355.87,3709.11 6374.2,3709.61 6392.5,3711C 6407.12,3714.62 6414.79,3723.96 6415.5,3739C 6415,3752.17 6408.66,3761.34 6396.5,3766.5C 6403.17,3777.5 6409.83,3788.5 6416.5,3799.5C 6408.85,3800.66 6401.19,3800.83 6393.5,3800C 6387.63,3789.75 6381.63,3779.58 6375.5,3769.5C 6369.54,3768.5 6363.54,3768.17 6357.5,3768.5C 6357.5,3779.17 6357.5,3789.83 6357.5,3800.5C 6350.83,3800.5 6344.17,3800.5 6337.5,3800.5C 6337.5,3770.17 6337.5,3739.83 6337.5,3709.5 Z M 6357.5,3725.5 C 6367.22,3725.18 6376.88,3725.68 6386.5,3727C 6391.9,3729.13 6394.57,3733.13 6394.5,3739C 6394.57,3744.87 6391.9,3748.87 6386.5,3751C 6376.88,3752.29 6367.21,3752.79 6357.5,3752.5C 6357.5,3743.5 6357.5,3734.5 6357.5,3725.5 Z"/></g>
<g><path style="opacity:0.931" fill="#000000" d="M 6442.5,3709.5 C 6468.5,3709.5 6494.5,3709.5 6520.5,3709.5C 6520.5,3715.17 6520.5,3720.83 6520.5,3726.5C 6510.83,3726.5 6501.17,3726.5 6491.5,3726.5C 6491.5,3751.17 6491.5,3775.83 6491.5,3800.5C 6484.83,3800.5 6478.17,3800.5 6471.5,3800.5C 6471.5,3775.83 6471.5,3751.17 6471.5,3726.5C 6461.83,3726.5 6452.17,3726.5 6442.5,3726.5C 6442.5,3720.83 6442.5,3715.17 6442.5,3709.5 Z"/></g>
<g><path style="opacity:0.934" fill="#000000" d="M 6526.5,3709.5 C 6545.2,3709.11 6563.87,3709.61 6582.5,3711C 6601.92,3718.01 6608.42,3731.51 6602,3751.5C 6598.89,3759.11 6593.39,3764.11 6585.5,3766.5C 6592.37,3777.75 6599.37,3788.92 6606.5,3800C 6598.48,3800.83 6590.48,3800.66 6582.5,3799.5C 6576.37,3789.42 6570.37,3779.25 6564.5,3769C 6558.51,3768.5 6552.51,3768.33 6546.5,3768.5C 6546.5,3779.17 6546.5,3789.83 6546.5,3800.5C 6539.83,3800.5 6533.17,3800.5 6526.5,3800.5C 6526.5,3770.17 6526.5,3739.83 6526.5,3709.5 Z M 6546.5,3725.5 C 6556.22,3725.18 6565.88,3725.68 6575.5,3727C 6583.89,3731.39 6586.06,3737.89 6582,3746.5C 6580.27,3748.62 6578.1,3750.12 6575.5,3751C 6565.88,3752.32 6556.22,3752.82 6546.5,3752.5C 6546.5,3743.5 6546.5,3734.5 6546.5,3725.5 Z"/></g>
<g><path style="opacity:0.927" fill="#000000" d="M 6611.5,3709.5 C 6618.17,3709.5 6624.83,3709.5 6631.5,3709.5C 6631.33,3730.84 6631.5,3752.17 6632,3773.5C 6634.57,3782.46 6640.57,3786.79 6650,3786.5C 6658.93,3786.71 6664.93,3782.71 6668,3774.5C 6669.44,3752.88 6669.94,3731.21 6669.5,3709.5C 6676.17,3709.5 6682.83,3709.5 6689.5,3709.5C 6689.67,3730.17 6689.5,3750.84 6689,3771.5C 6687.21,3788.29 6678.05,3798.45 6661.5,3802C 6648.53,3804.4 6636.19,3802.4 6624.5,3796C 6617.92,3791 6613.75,3784.5 6612,3776.5C 6611.5,3754.17 6611.33,3731.84 6611.5,3709.5 Z"/></g>
<g><path style="opacity:0.939" fill="#000000" d="M 6698.5,3709.5 C 6720.5,3709.5 6742.5,3709.5 6764.5,3709.5C 6764.5,3714.83 6764.5,3720.17 6764.5,3725.5C 6749.17,3725.5 6733.83,3725.5 6718.5,3725.5C 6718.5,3732.5 6718.5,3739.5 6718.5,3746.5C 6733.17,3746.5 6747.83,3746.5 6762.5,3746.5C 6762.5,3751.83 6762.5,3757.17 6762.5,3762.5C 6747.83,3762.5 6733.17,3762.5 6718.5,3762.5C 6718.5,3769.83 6718.5,3777.17 6718.5,3784.5C 6733.83,3784.5 6749.17,3784.5 6764.5,3784.5C 6764.5,3789.83 6764.5,3795.17 6764.5,3800.5C 6742.5,3800.5 6720.5,3800.5 6698.5,3800.5C 6698.5,3770.17 6698.5,3739.83 6698.5,3709.5 Z"/></g>
<g><path style="opacity:0.931" fill="#000000" d="M 6877.5,3709.5 C 6899.83,3709.5 6922.17,3709.5 6944.5,3709.5C 6944.5,3714.83 6944.5,3720.17 6944.5,3725.5C 6928.83,3725.5 6913.17,3725.5 6897.5,3725.5C 6897.5,3732.5 6897.5,3739.5 6897.5,3746.5C 6912.17,3746.5 6926.83,3746.5 6941.5,3746.5C 6941.5,3751.83 6941.5,3757.17 6941.5,3762.5C 6926.83,3762.5 6912.17,3762.5 6897.5,3762.5C 6897.5,3769.83 6897.5,3777.17 6897.5,3784.5C 6913.17,3784.5 6928.83,3784.5 6944.5,3784.5C 6944.5,3789.83 6944.5,3795.17 6944.5,3800.5C 6922.17,3800.5 6899.83,3800.5 6877.5,3800.5C 6877.5,3770.17 6877.5,3739.83 6877.5,3709.5 Z"/></g>
<g><path style="opacity:0.948" fill="#000000" d="M 6951.5,3709.5 C 6958.17,3709.5 6964.83,3709.5 6971.5,3709.5C 6971.5,3734.5 6971.5,3759.5 6971.5,3784.5C 6987.17,3784.5 7002.83,3784.5 7018.5,3784.5C 7018.5,3789.83 7018.5,3795.17 7018.5,3800.5C 6996.17,3800.5 6973.83,3800.5 6951.5,3800.5C 6951.5,3770.17 6951.5,3739.83 6951.5,3709.5 Z"/></g>
<g><path style="opacity:0.924" fill="#000000" d="M 7005.5,3709.5 C 7012.53,3709.17 7019.53,3709.5 7026.5,3710.5C 7033.97,3732.92 7041.64,3755.25 7049.5,3777.5C 7057.97,3755.1 7065.63,3732.44 7072.5,3709.5C 7079.5,3709.5 7086.5,3709.5 7093.5,3709.5C 7083.51,3739.3 7073.01,3768.97 7062,3798.5C 7058.09,3799.8 7053.92,3800.46 7049.5,3800.5C 7045.08,3800.46 7040.91,3799.8 7037,3798.5C 7025.99,3768.97 7015.49,3739.3 7005.5,3709.5 Z"/></g>
<g><path style="opacity:0.928" fill="#000000" d="M 7097.5,3709.5 C 7119.83,3709.5 7142.17,3709.5 7164.5,3709.5C 7164.5,3714.83 7164.5,3720.17 7164.5,3725.5C 7148.83,3725.5 7133.17,3725.5 7117.5,3725.5C 7117.5,3732.5 7117.5,3739.5 7117.5,3746.5C 7132.5,3746.5 7147.5,3746.5 7162.5,3746.5C 7162.5,3751.83 7162.5,3757.17 7162.5,3762.5C 7147.5,3762.5 7132.5,3762.5 7117.5,3762.5C 7117.5,3769.83 7117.5,3777.17 7117.5,3784.5C 7133.17,3784.5 7148.83,3784.5 7164.5,3784.5C 7164.5,3789.83 7164.5,3795.17 7164.5,3800.5C 7142.17,3800.5 7119.83,3800.5 7097.5,3800.5C 7097.5,3770.17 7097.5,3739.83 7097.5,3709.5 Z"/></g>
<g><path style="opacity:0.9" fill="#000000" d="M 7253.5,3780.5 C 7260.5,3780.5 7267.5,3780.5 7274.5,3780.5C 7274.5,3787.17 7274.5,3793.83 7274.5,3800.5C 7267.5,3800.5 7260.5,3800.5 7253.5,3800.5C 7253.5,3793.83 7253.5,3787.17 7253.5,3780.5 Z"/></g>
</svg>