<svg xmlns="http://www.w3.org/2000/svg" xmlns:xlink="http://www.w3.org/1999/xlink" version="1.1" style="shape-rendering:geometricPrecision; text-rendering:geometricPrecision; image-rendering:optimizeQuality; fill-rule:evenodd; clip-rule:evenodd" viewBox="11.5 3707.36 7470 96.16">
<g><path style="opacity:0.921" fill="#000000" d="M 160.5,3707.5 C 181.595,3706.52 194.928,3716.02 200.5,3736C 193.844,3736.71 187.178,3737.21 180.5,3737.5C 179.167,3730.67 175.167,3726.17 168.5,3724C 160.503,3721.96 153.669,3723.79 148,3729.5C 145.916,3735.22 147.749,3739.38 153.5,3742C 165.677,3744.71 177.677,3748.04 189.5,3752C 200.602,3758.72 204.769,3768.56 202,3781.5C 198.787,3791.71 191.954,3798.21 181.5,3801C 167.15,3804.48 153.15,3803.15 139.5,3797C 130.07,3791.12 125.403,3782.79 125.5,3772C 131.817,3771.23 138.151,3770.73 144.5,3770.5C 145.433,3779.6 150.433,3785.1 159.5,3787C 166.215,3788.25 172.548,3787.25 178.5,3784C 183.314,3779.27 183.647,3774.27 179.5,3769C 167.708,3764.72 155.708,3761.05 143.5,3758C 129.758,3752.35 124.591,3742.18 128,3727.5C 130.807,3719.36 136.307,3713.86 144.5,3711C 149.871,3709.36 155.204,3708.2 160.5,3707.5 Z"/></g>
<g><path style="opacity:0.921" fill="#000000" d="M 1459.5,3707.5 C 1480.9,3706.52 1495.9,3715.69 1504.5,3735C 1504.36,3735.77 1504.02,3736.44 1503.5,3737C 1497.45,3737.65 1491.45,3738.49 1485.5,3739.5C 1476.18,3723.27 1463.51,3720.1 1447.5,3730C 1436.17,3746.13 1435.67,3762.63 1446,3779.5C 1457.67,3788.83 1469.33,3788.83 1481,3779.5C 1483.36,3776.11 1485.19,3772.45 1486.5,3768.5C 1479.2,3767.5 1471.86,3767.17 1464.5,3767.5C 1464.5,3762.5 1464.5,3757.5 1464.5,3752.5C 1478.17,3752.5 1491.83,3752.5 1505.5,3752.5C 1505.5,3768.5 1505.5,3784.5 1505.5,3800.5C 1500.5,3800.5 1495.5,3800.5 1490.5,3800.5C 1490.66,3797.81 1490.5,3795.15 1490,3792.5C 1482.45,3799.68 1473.45,3803.35 1463,3803.5C 1437.7,3801.85 1423.04,3788.52 1419,3763.5C 1415.95,3743.64 1422.11,3727.47 1437.5,3715C 1444.45,3710.96 1451.78,3708.46 1459.5,3707.5 Z"/></g>
<g><path style="opacity:0.922" fill="#000000" d="M 1568.5,3707.5 C 1583.97,3706.37 1596.13,3712.03 1605,3724.5C 1606.88,3728.31 1608.05,3732.31 1608.5,3736.5C 1602.12,3736.99 1595.79,3736.99 1589.5,3736.5C 1585.03,3725.04 1576.69,3720.88 1564.5,3724C 1555.9,3727.17 1553.9,3732.5 1558.5,3740C 1571.81,3743.99 1585.14,3747.99 1598.5,3752C 1612.26,3762.24 1615.1,3775.07 1607,3790.5C 1597.84,3799.38 1586.84,3803.71 1574,3803.5C 1559.37,3803.85 1547.37,3798.52 1538,3787.5C 1534.67,3782.69 1533.5,3777.53 1534.5,3772C 1540.53,3770.96 1546.53,3770.79 1552.5,3771.5C 1555.38,3782.03 1562.38,3787.36 1573.5,3787.5C 1582.74,3788.4 1588.74,3784.56 1591.5,3776C 1591.09,3772.58 1589.43,3769.92 1586.5,3768C 1573.45,3764.15 1560.45,3760.15 1547.5,3756C 1539.47,3751.12 1535.47,3743.95 1535.5,3734.5C 1536.41,3722.76 1542.41,3714.93 1553.5,3711C 1558.55,3709.43 1563.55,3708.26 1568.5,3707.5 Z"/></g>
<g><path style="opacity:0.93" fill="#000000" d="M 1988.5,3707.5 C 2020.18,3707.85 2036.18,3723.85 2036.5,3755.5C 2036.44,3785.32 2021.61,3801.32 1992,3803.5C 1962.85,3800.85 1948.02,3784.85 1947.5,3755.5C 1947.65,3727.7 1961.32,3711.7 1988.5,3707.5 Z M 1985.5,3724.5 C 2002.52,3722.36 2012.69,3729.69 2016,3746.5C 2017.82,3757.44 2016.16,3767.77 2011,3777.5C 2002.45,3786.85 1992.28,3789.01 1980.5,3784C 1971.28,3776.88 1966.95,3767.38 1967.5,3755.5C 1966.63,3740.87 1972.63,3730.53 1985.5,3724.5 Z"/></g>
<g><path style="opacity:0.928" fill="#000000" d="M 2348.5,3707.5 C 2379.99,3707.99 2396.33,3723.99 2397.5,3755.5C 2396.79,3785.38 2381.62,3801.38 2352,3803.5C 2322.88,3800.88 2308.05,3784.88 2307.5,3755.5C 2307.69,3727.66 2321.36,3711.66 2348.5,3707.5 Z M 2345.5,3724.5 C 2362.1,3722.28 2372.27,3729.28 2376,3745.5C 2377.09,3754.66 2376.43,3763.66 2374,3772.5C 2365.82,3786.67 2354.32,3790.17 2339.5,3783C 2331.05,3775.93 2327.05,3766.76 2327.5,3755.5C 2327.53,3746.69 2330.03,3738.69 2335,3731.5C 2338.15,3728.49 2341.65,3726.16 2345.5,3724.5 Z"/></g>
<g><path style="opacity:0.922" fill="#000000" d="M 2436.5,3707.5 C 2457.29,3706.54 2470.62,3715.87 2476.5,3735.5C 2469.89,3736.71 2463.22,3737.37 2456.5,3737.5C 2454.79,3727.61 2448.79,3722.95 2438.5,3723.5C 2428.1,3722.74 2423.26,3727.41 2424,3737.5C 2425.17,3738.67 2426.33,3739.83 2427.5,3741C 2439.5,3744.33 2451.5,3747.67 2463.5,3751C 2476.76,3757.42 2481.59,3767.92 2478,3782.5C 2474.34,3792.16 2467.5,3798.33 2457.5,3801C 2443.15,3804.48 2429.15,3803.15 2415.5,3797C 2406.08,3791.14 2401.41,3782.8 2401.5,3772C 2407.82,3771.23 2414.15,3770.73 2420.5,3770.5C 2421.45,3779.62 2426.45,3785.12 2435.5,3787C 2442.21,3788.25 2448.55,3787.25 2454.5,3784C 2459.37,3779.28 2459.7,3774.28 2455.5,3769C 2441.51,3764.33 2427.51,3759.67 2413.5,3755C 2404.81,3748.28 2401.65,3739.44 2404,3728.5C 2406.44,3719.79 2411.94,3713.96 2420.5,3711C 2425.87,3709.36 2431.2,3708.2 2436.5,3707.5 Z"/></g>
<g><path style="opacity:0.93" fill="#000000" d="M 2828.5,3707.5 C 2860.18,3707.85 2876.18,3723.85 2876.5,3755.5C 2876.44,3785.32 2861.61,3801.32 2832,3803.5C 2802.85,3800.85 2788.02,3784.85 2787.5,3755.5C 2787.65,3727.7 2801.32,3711.7 2828.5,3707.5 Z M 2825.5,3724.5 C 2842.52,3722.36 2852.69,3729.69 2856,3746.5C 2857.82,3757.44 2856.16,3767.77 2851,3777.5C 2842.45,3786.85 2832.28,3789.01 2820.5,3784C 2811.28,3776.88 2806.95,3767.38 2807.5,3755.5C 2806.63,3740.87 2812.63,3730.53 2825.5,3724.5 Z"/></g>
<g><path style="opacity:0.922" fill="#000000" d="M 3284.5,3707.5 C 3299.97,3706.37 3312.13,3712.03 3321,3724.5C 3322.88,3728.31 3324.05,3732.31 3324.5,3736.5C 3318.12,3736.99 3311.79,3736.99 3305.5,3736.5C 3301.03,3725.04 3292.69,3720.88 3280.5,3724C 3271.9,3727.17 3269.9,3732.5 3274.5,3740C 3287.81,3743.99 3301.14,3747.99 3314.5,3752C 3328.26,3762.24 3331.1,3775.07 3323,3790.5C 3313.84,3799.38 3302.84,3803.71 3290,3803.5C 3275.37,3803.85 3263.37,3798.52 3254,3787.5C 3250.67,3782.69 3249.5,3777.53 3250.5,3772C 3256.53,3770.96 3262.53,3770.79 3268.5,3771.5C 3271.38,3782.03 3278.38,3787.36 3289.5,3787.5C 3298.74,3788.4 3304.74,3784.56 3307.5,3776C 3307.09,3772.58 3305.43,3769.92 3302.5,3768C 3289.45,3764.15 3276.45,3760.15 3263.5,3756C 3255.47,3751.12 3251.47,3743.95 3251.5,3734.5C 3252.41,3722.76 3258.41,3714.93 3269.5,3711C 3274.55,3709.43 3279.55,3708.26 3284.5,3707.5 Z"/></g>
<g><path style="opacity:0.926" fill="#000000" d="M 3373.5,3707.5 C 3404.99,3707.99 3421.32,3723.99 3422.5,3755.5C 3421.91,3785.09 3406.91,3801.09 3377.5,3803.5C 3347.88,3801.04 3332.88,3784.87 3332.5,3755C 3332.92,3727.43 3346.59,3711.6 3373.5,3707.5 Z M 3371.5,3724.5 C 3387.21,3722.73 3397.04,3729.4 3401,3744.5C 3404.04,3757.89 3401.54,3770.06 3393.5,3781C 3380.35,3789.53 3368.52,3788.03 3358,3776.5C 3356.07,3773.05 3354.74,3769.39 3354,3765.5C 3352.91,3756.34 3353.57,3747.34 3356,3738.5C 3359.49,3731.83 3364.66,3727.17 3371.5,3724.5 Z"/></g>
<g><path style="opacity:0.922" fill="#000000" d="M 3468.5,3707.5 C 3487.31,3706.85 3501.48,3714.52 3511,3730.5C 3511.81,3732.44 3512.31,3734.44 3512.5,3736.5C 3505.83,3737.5 3499.16,3738.5 3492.5,3739.5C 3487.35,3725.93 3477.68,3721.43 3463.5,3726C 3452.73,3732.54 3447.73,3742.21 3448.5,3755C 3447.66,3766.17 3451.33,3775.5 3459.5,3783C 3476.99,3791.01 3488.32,3785.85 3493.5,3767.5C 3500.62,3767.43 3507.62,3768.26 3514.5,3770C 3508.41,3790.91 3494.41,3802.08 3472.5,3803.5C 3448.59,3802.09 3434.09,3789.75 3429,3766.5C 3426.55,3751.95 3428.89,3738.29 3436,3725.5C 3444.34,3714.92 3455.17,3708.92 3468.5,3707.5 Z"/></g>
<g><path style="opacity:0.922" fill="#000000" d="M 4231.5,3707.5 C 4252.29,3706.54 4265.62,3715.87 4271.5,3735.5C 4264.89,3736.71 4258.22,3737.37 4251.5,3737.5C 4249.79,3727.61 4243.79,3722.95 4233.5,3723.5C 4223.1,3722.74 4218.26,3727.41 4219,3737.5C 4220.17,3738.67 4221.33,3739.83 4222.5,3741C 4234.5,3744.33 4246.5,3747.67 4258.5,3751C 4271.76,3757.42 4276.59,3767.92 4273,3782.5C 4269.34,3792.16 4262.5,3798.33 4252.5,3801C 4238.15,3804.48 4224.15,3803.15 4210.5,3797C 4201.08,3791.14 4196.41,3782.8 4196.5,3772C 4202.82,3771.23 4209.15,3770.73 4215.5,3770.5C 4216.45,3779.62 4221.45,3785.12 4230.5,3787C 4237.21,3788.25 4243.55,3787.25 4249.5,3784C 4254.37,3779.28 4254.7,3774.28 4250.5,3769C 4236.51,3764.33 4222.51,3759.67 4208.5,3755C 4199.81,3748.28 4196.65,3739.44 4199,3728.5C 4201.44,3719.79 4206.94,3713.96 4215.5,3711C 4220.87,3709.36 4226.2,3708.2 4231.5,3707.5 Z"/></g>
<g><path style="opacity:0.928" fill="#000000" d="M 4725.5,3707.5 C 4756.99,3707.99 4773.33,3723.99 4774.5,3755.5C 4773.79,3785.38 4758.62,3801.38 4729,3803.5C 4699.88,3800.88 4685.05,3784.88 4684.5,3755.5C 4684.69,3727.66 4698.36,3711.66 4725.5,3707.5 Z M 4722.5,3724.5 C 4739.1,3722.28 4749.27,3729.28 4753,3745.5C 4754.09,3754.66 4753.43,3763.66 4751,3772.5C 4742.82,3786.67 4731.32,3790.17 4716.5,3783C 4708.05,3775.93 4704.05,3766.76 4704.5,3755.5C 4704.53,3746.69 4707.03,3738.69 4712,3731.5C 4715.15,3728.49 4718.65,3726.16 4722.5,3724.5 Z"/></g>
<g><path style="opacity:0.921" fill="#000000" d="M 5002.5,3707.5 C 5023.59,3706.52 5036.93,3716.02 5042.5,3736C 5035.84,3736.71 5029.18,3737.21 5022.5,3737.5C 5021.17,3730.67 5017.17,3726.17 5010.5,3724C 5002.5,3721.96 4995.67,3723.79 4990,3729.5C 4987.92,3735.22 4989.75,3739.38 4995.5,3742C 5007.68,3744.71 5019.68,3748.04 5031.5,3752C 5042.6,3758.72 5046.77,3768.56 5044,3781.5C 5040.79,3791.71 5033.95,3798.21 5023.5,3801C 5009.15,3804.48 4995.15,3803.15 4981.5,3797C 4972.07,3791.12 4967.4,3782.79 4967.5,3772C 4973.82,3771.23 4980.15,3770.73 4986.5,3770.5C 4987.43,3779.6 4992.43,3785.1 5001.5,3787C 5008.21,3788.25 5014.55,3787.25 5020.5,3784C 5025.31,3779.27 5025.65,3774.27 5021.5,3769C 5009.71,3764.72 4997.71,3761.05 4985.5,3758C 4971.76,3752.35 4966.59,3742.18 4970,3727.5C 4972.81,3719.36 4978.31,3713.86 4986.5,3711C 4991.87,3709.36 4997.2,3708.2 5002.5,3707.5 Z"/></g>
<g><path style="opacity:0.93" fill="#000000" d="M 5194.5,3707.5 C 5225.49,3708.49 5241.49,3724.49 5242.5,3755.5C 5241.97,3784.87 5227.13,3800.87 5198,3803.5C 5168.39,3801.31 5153.55,3785.31 5153.5,3755.5C 5153.23,3727.29 5166.89,3711.29 5194.5,3707.5 Z M 5191.5,3724.5 C 5209.43,3722.6 5219.6,3730.6 5222,3748.5C 5224.12,3761.28 5220.95,3772.45 5212.5,3782C 5192.11,3791.56 5179.28,3785.39 5174,3763.5C 5172.28,3752.9 5173.95,3742.9 5179,3733.5C 5182.3,3729.12 5186.47,3726.12 5191.5,3724.5 Z"/></g>
<g><path style="opacity:0.922" fill="#000000" d="M 5743.5,3707.5 C 5764.73,3706.77 5779.4,3716.1 5787.5,3735.5C 5781.42,3737.16 5775.26,3738.49 5769,3739.5C 5765.47,3732.97 5760.3,3728.13 5753.5,3725C 5734.16,3722.99 5723.99,3731.83 5723,3751.5C 5721.18,3764.78 5725.35,3775.62 5735.5,3784C 5751.89,3790.14 5762.89,3784.97 5768.5,3768.5C 5774.49,3767.66 5780.49,3767.83 5786.5,3769C 5787.43,3769.39 5788.09,3770.05 5788.5,3771C 5782.26,3791.54 5768.43,3802.37 5747,3803.5C 5717.91,3800.9 5703.07,3784.9 5702.5,3755.5C 5702.71,3727.65 5716.37,3711.65 5743.5,3707.5 Z"/></g>
<g><path style="opacity:0.922" fill="#000000" d="M 6927.5,3707.5 C 6948.93,3706.79 6963.6,3716.29 6971.5,3736C 6965.15,3737.17 6958.82,3738.34 6952.5,3739.5C 6944.58,3724.58 6932.91,3720.75 6917.5,3728C 6908.23,3737.62 6904.73,3749.12 6907,3762.5C 6909.96,3781.55 6920.8,3789.05 6939.5,3785C 6946.04,3781.12 6950.37,3775.45 6952.5,3768C 6958.52,3767.67 6964.52,3768 6970.5,3769C 6971.31,3769.31 6971.97,3769.81 6972.5,3770.5C 6966.51,3791.41 6952.68,3802.41 6931,3803.5C 6901.85,3800.85 6887.02,3784.85 6886.5,3755.5C 6886.72,3727.64 6900.38,3711.64 6927.5,3707.5 Z"/></g>
<g><path style="opacity:0.922" fill="#000000" d="M 7034.5,3707.5 C 7049.97,3706.37 7062.13,3712.03 7071,3724.5C 7072.88,3728.31 7074.05,3732.31 7074.5,3736.5C 7068.12,3736.99 7061.79,3736.99 7055.5,3736.5C 7051.03,3725.04 7042.69,3720.88 7030.5,3724C 7021.9,3727.17 7019.9,3732.5 7024.5,3740C 7037.81,3743.99 7051.14,3747.99 7064.5,3752C 7078.26,3762.24 7081.1,3775.07 7073,3790.5C 7063.84,3799.38 7052.84,3803.71 7040,3803.5C 7025.37,3803.85 7013.37,3798.52 7004,3787.5C 7000.67,3782.69 6999.5,3777.53 7000.5,3772C 7006.53,3770.96 7012.53,3770.79 7018.5,3771.5C 7021.38,3782.03 7028.38,3787.36 7039.5,3787.5C 7048.74,3788.4 7054.74,3784.56 7057.5,3776C 7057.09,3772.58 7055.43,3769.92 7052.5,3768C 7039.45,3764.15 7026.45,3760.15 7013.5,3756C 7005.47,3751.12 7001.47,3743.95 7001.5,3734.5C 7002.41,3722.76 7008.41,3714.93 7019.5,3711C 7024.55,3709.43 7029.55,3708.26 7034.5,3707.5 Z"/></g>
<g><path style="opacity:0.922" fill="#000000" d="M 7410.5,3707.5 C 7425.97,3706.37 7438.13,3712.03 7447,3724.5C 7448.88,3728.31 7450.05,3732.31 7450.5,3736.5C 7444.12,3736.99 7437.79,3736.99 7431.5,3736.5C 7427.03,3725.04 7418.69,3720.88 7406.5,3724C 7397.9,3727.17 7395.9,3732.5 7400.5,3740C 7413.81,3743.99 7427.14,3747.99 7440.5,3752C 7454.26,3762.24 7457.1,3775.07 7449,3790.5C 7439.84,3799.38 7428.84,3803.71 7416,3803.5C 7401.37,3803.85 7389.37,3798.52 7380,3787.5C 7376.67,3782.69 7375.5,3777.53 7376.5,3772C 7382.53,3770.96 7388.53,3770.79 7394.5,3771.5C 7397.38,3782.03 7404.38,3787.36 7415.5,3787.5C 7424.74,3788.4 7430.74,3784.56 7433.5,3776C 7433.09,3772.58 7431.43,3769.92 7428.5,3768C 7415.45,3764.15 7402.45,3760.15 7389.5,3756C 7381.47,3751.12 7377.47,3743.95 7377.5,3734.5C 7378.41,3722.76 7384.41,3714.93 7395.5,3711C 7400.55,3709.43 7405.55,3708.26 7410.5,3707.5 Z"/></g>
<g><path style="opacity:0.98" fill="#000000" d="M 11.5,3709.5 C 17.8333,3709.5 24.1667,3709.5 30.5,3709.5C 30.5,3739.83 30.5,3770.17 30.5,3800.5C 24.1667,3800.5 17.8333,3800.5 11.5,3800.5C 11.5,3770.17 11.5,3739.83 11.5,3709.5 Z"/></g>
<g><path style="opacity:0.942" fill="#000000" d="M 40.5,3709.5 C 48.0871,3709.19 55.5871,3709.52 63,3710.5C 75.6667,3731.17 88.3333,3751.83 101,3772.5C 101.5,3751.5 101.667,3730.5 101.5,3709.5C 107.5,3709.5 113.5,3709.5 119.5,3709.5C 119.5,3739.83 119.5,3770.17 119.5,3800.5C 112.159,3800.67 104.826,3800.5 97.5,3800C 84.5413,3779.25 71.708,3758.42 59,3737.5C 58.5,3758.5 58.3334,3779.5 58.5,3800.5C 52.5,3800.5 46.5,3800.5 40.5,3800.5C 40.5,3770.17 40.5,3739.83 40.5,3709.5 Z"/></g>
<g><path style="opacity:0.931" fill="#000000" d="M 209.5,3709.5 C 227.534,3709.12 245.534,3709.62 263.5,3711C 280.103,3716.03 287.27,3727.19 285,3744.5C 283.202,3757.27 276.035,3765.11 263.5,3768C 252.21,3769.33 240.877,3769.83 229.5,3769.5C 229.5,3779.83 229.5,3790.17 229.5,3800.5C 222.833,3800.5 216.167,3800.5 209.5,3800.5C 209.5,3770.17 209.5,3739.83 209.5,3709.5 Z M 229.5,3725.5 C 238.552,3725.19 247.552,3725.69 256.5,3727C 262.053,3729.26 264.72,3733.43 264.5,3739.5C 264.72,3745.57 262.053,3749.74 256.5,3752C 247.559,3753.35 238.559,3753.85 229.5,3753.5C 229.5,3744.17 229.5,3734.83 229.5,3725.5 Z"/></g>
<g><path style="opacity:0.928" fill="#000000" d="M 292.5,3709.5 C 299.167,3709.5 305.833,3709.5 312.5,3709.5C 312.5,3739.83 312.5,3770.17 312.5,3800.5C 305.833,3800.5 299.167,3800.5 292.5,3800.5C 292.5,3770.17 292.5,3739.83 292.5,3709.5 Z"/></g>
<g><path style="opacity:0.938" fill="#000000" d="M 321.5,3709.5 C 339.867,3709.11 358.201,3709.61 376.5,3711C 391.314,3714.48 398.648,3723.81 398.5,3739C 398.901,3752.37 392.901,3761.53 380.5,3766.5C 386.915,3777.67 393.582,3788.67 400.5,3799.5C 392.855,3800.66 385.188,3800.83 377.5,3800C 371.122,3790.08 365.122,3779.91 359.5,3769.5C 353.537,3768.5 347.537,3768.17 341.5,3768.5C 341.5,3779.17 341.5,3789.83 341.5,3800.5C 334.833,3800.5 328.167,3800.5 321.5,3800.5C 321.5,3770.17 321.5,3739.83 321.5,3709.5 Z M 341.5,3725.5 C 351.972,3724.94 362.305,3725.78 372.5,3728C 380.5,3735.33 380.5,3742.67 372.5,3750C 362.305,3752.22 351.972,3753.06 341.5,3752.5C 341.5,3743.5 341.5,3734.5 341.5,3725.5 Z"/></g>
<g><path style="opacity:0.928" fill="#000000" d="M 405.5,3709.5 C 427.833,3709.5 450.167,3709.5 472.5,3709.5C 472.5,3714.83 472.5,3720.17 472.5,3725.5C 456.833,3725.5 441.167,3725.5 425.5,3725.5C 425.5,3732.5 425.5,3739.5 425.5,3746.5C 440.5,3746.5 455.5,3746.5 470.5,3746.5C 470.805,3751.76 470.471,3756.93 469.5,3762C 454.837,3762.5 440.17,3762.67 425.5,3762.5C 425.5,3769.83 425.5,3777.17 425.5,3784.5C 441.167,3784.5 456.833,3784.5 472.5,3784.5C 472.5,3789.83 472.5,3795.17 472.5,3800.5C 450.167,3800.5 427.833,3800.5 405.5,3800.5C 405.5,3770.17 405.5,3739.83 405.5,3709.5 Z"/></g>
<g><path style="opacity:0.934" fill="#000000" d="M 479.5,3709.5 C 492.504,3709.33 505.504,3709.5 518.5,3710C 546.674,3712.01 561.008,3727.18 561.5,3755.5C 562.358,3779.79 551.025,3794.63 527.5,3800C 511.503,3800.5 495.503,3800.67 479.5,3800.5C 479.5,3770.17 479.5,3739.83 479.5,3709.5 Z M 499.5,3725.5 C 532.999,3722.16 546.166,3736.83 539,3769.5C 536.002,3777.16 530.502,3782 522.5,3784C 514.841,3784.5 507.174,3784.67 499.5,3784.5C 499.5,3764.83 499.5,3745.17 499.5,3725.5 Z"/></g>
<g><path style="opacity:0.933" fill="#000000" d="M 591.5,3709.5 C 607.17,3709.33 622.837,3709.5 638.5,3710C 654.543,3710.55 663.21,3718.71 664.5,3734.5C 664.79,3742.59 661.457,3748.59 654.5,3752.5C 667.712,3761.07 671.212,3772.74 665,3787.5C 661.726,3792.77 657.226,3796.61 651.5,3799C 631.554,3800.45 611.554,3800.95 591.5,3800.5C 591.5,3770.17 591.5,3739.83 591.5,3709.5 Z M 611.5,3725.5 C 619.84,3725.33 628.173,3725.5 636.5,3726C 644.337,3729.18 646.504,3734.68 643,3742.5C 641.786,3744.05 640.286,3745.22 638.5,3746C 629.568,3747.38 620.568,3747.88 611.5,3747.5C 611.5,3740.17 611.5,3732.83 611.5,3725.5 Z M 611.5,3761.5 C 620.506,3761.33 629.506,3761.5 638.5,3762C 646.6,3765.27 649.1,3771.1 646,3779.5C 644.363,3781.81 642.196,3783.31 639.5,3784C 630.173,3784.5 620.839,3784.67 611.5,3784.5C 611.5,3776.83 611.5,3769.17 611.5,3761.5 Z"/></g>
<g><path style="opacity:0.918" fill="#000000" d="M 663.5,3709.5 C 670.508,3709.33 677.508,3709.5 684.5,3710C 691.793,3722.75 698.96,3735.59 706,3748.5C 712.579,3735.67 719.412,3723.01 726.5,3710.5C 733.468,3709.5 740.468,3709.17 747.5,3709.5C 737.803,3728.55 727.303,3747.22 716,3765.5C 715.5,3777.16 715.333,3788.83 715.5,3800.5C 708.833,3800.5 702.167,3800.5 695.5,3800.5C 695.667,3788.83 695.5,3777.16 695,3765.5C 683.697,3747.22 673.197,3728.55 663.5,3709.5 Z"/></g>
<g><path style="opacity:0.931" fill="#000000" d="M 773.5,3709.5 C 799.5,3709.5 825.5,3709.5 851.5,3709.5C 851.5,3715.17 851.5,3720.83 851.5,3726.5C 841.833,3726.5 832.167,3726.5 822.5,3726.5C 822.5,3751.17 822.5,3775.83 822.5,3800.5C 815.833,3800.5 809.167,3800.5 802.5,3800.5C 802.5,3775.83 802.5,3751.17 802.5,3726.5C 792.833,3726.5 783.167,3726.5 773.5,3726.5C 773.5,3720.83 773.5,3715.17 773.5,3709.5 Z"/></g>
<g><path style="opacity:0.928" fill="#000000" d="M 857.5,3709.5 C 864.167,3709.5 870.833,3709.5 877.5,3709.5C 877.5,3721.83 877.5,3734.17 877.5,3746.5C 890.5,3746.5 903.5,3746.5 916.5,3746.5C 916.5,3734.17 916.5,3721.83 916.5,3709.5C 923.167,3709.5 929.833,3709.5 936.5,3709.5C 936.5,3739.83 936.5,3770.17 936.5,3800.5C 929.833,3800.5 923.167,3800.5 916.5,3800.5C 916.5,3788.17 916.5,3775.83 916.5,3763.5C 903.5,3763.5 890.5,3763.5 877.5,3763.5C 877.5,3775.83 877.5,3788.17 877.5,3800.5C 870.833,3800.5 864.167,3800.5 857.5,3800.5C 857.5,3770.17 857.5,3739.83 857.5,3709.5 Z"/></g>
<g><path style="opacity:0.939" fill="#000000" d="M 945.5,3709.5 C 967.5,3709.5 989.5,3709.5 1011.5,3709.5C 1011.5,3714.83 1011.5,3720.17 1011.5,3725.5C 996.167,3725.5 980.833,3725.5 965.5,3725.5C 965.5,3732.5 965.5,3739.5 965.5,3746.5C 980.167,3746.5 994.833,3746.5 1009.5,3746.5C 1009.5,3751.83 1009.5,3757.17 1009.5,3762.5C 994.833,3762.5 980.167,3762.5 965.5,3762.5C 965.5,3769.83 965.5,3777.17 965.5,3784.5C 980.833,3784.5 996.167,3784.5 1011.5,3784.5C 1011.5,3789.83 1011.5,3795.17 1011.5,3800.5C 989.5,3800.5 967.5,3800.5 945.5,3800.5C 945.5,3770.17 945.5,3739.83 945.5,3709.5 Z"/></g>
<g><path style="opacity:0.932" fill="#000000" d="M 1042.5,3709.5 C 1058.86,3709.17 1075.2,3709.67 1091.5,3711C 1114.43,3716.79 1125.43,3731.62 1124.5,3755.5C 1125.31,3779.83 1113.98,3794.67 1090.5,3800C 1074.5,3800.5 1058.5,3800.67 1042.5,3800.5C 1042.5,3770.17 1042.5,3739.83 1042.5,3709.5 Z M 1062.5,3725.5 C 1097.91,3722.74 1110.75,3738.41 1101,3772.5C 1097.53,3778.64 1092.36,3782.47 1085.5,3784C 1077.84,3784.5 1070.17,3784.67 1062.5,3784.5C 1062.5,3764.83 1062.5,3745.17 1062.5,3725.5 Z"/></g>
<g><path style="opacity:0.934" fill="#000000" d="M 1154.5,3709.5 C 1163.19,3709.17 1171.86,3709.5 1180.5,3710.5C 1191.54,3740.47 1202.88,3770.3 1214.5,3800C 1207.14,3800.83 1199.81,3800.66 1192.5,3799.5C 1189.97,3793.24 1187.64,3786.91 1185.5,3780.5C 1173.51,3779.33 1161.51,3779.17 1149.5,3780C 1147.07,3786.45 1144.74,3792.95 1142.5,3799.5C 1135.19,3800.66 1127.86,3800.83 1120.5,3800C 1132.33,3770.02 1143.66,3739.85 1154.5,3709.5 Z M 1166.5,3728.5 C 1171.99,3739.95 1176.32,3751.95 1179.5,3764.5C 1171.16,3764.67 1162.83,3764.5 1154.5,3764C 1158.8,3752.26 1162.8,3740.43 1166.5,3728.5 Z"/></g>
<g><path style="opacity:0.938" fill="#000000" d="M 1218.5,3709.5 C 1236.87,3709.11 1255.2,3709.61 1273.5,3711C 1288.31,3714.48 1295.65,3723.81 1295.5,3739C 1295.9,3752.37 1289.9,3761.53 1277.5,3766.5C 1283.92,3777.67 1290.58,3788.67 1297.5,3799.5C 1289.85,3800.66 1282.19,3800.83 1274.5,3800C 1268.12,3790.08 1262.12,3779.91 1256.5,3769.5C 1250.54,3768.5 1244.54,3768.17 1238.5,3768.5C 1238.5,3779.17 1238.5,3789.83 1238.5,3800.5C 1231.83,3800.5 1225.17,3800.5 1218.5,3800.5C 1218.5,3770.17 1218.5,3739.83 1218.5,3709.5 Z M 1238.5,3725.5 C 1248.97,3724.94 1259.31,3725.78 1269.5,3728C 1277.5,3735.33 1277.5,3742.67 1269.5,3750C 1259.31,3752.22 1248.97,3753.06 1238.5,3752.5C 1238.5,3743.5 1238.5,3734.5 1238.5,3725.5 Z"/></g>
<g><path style="opacity:0.928" fill="#000000" d="M 1302.5,3709.5 C 1309.17,3709.5 1315.83,3709.5 1322.5,3709.5C 1322.5,3739.83 1322.5,3770.17 1322.5,3800.5C 1315.83,3800.5 1309.17,3800.5 1302.5,3800.5C 1302.5,3770.17 1302.5,3739.83 1302.5,3709.5 Z"/></g>
<g><path style="opacity:0.916" fill="#000000" d="M 1331.5,3709.5 C 1339.2,3709.17 1346.86,3709.5 1354.5,3710.5C 1367.2,3730.7 1379.7,3751.03 1392,3771.5C 1392.5,3750.84 1392.67,3730.17 1392.5,3709.5C 1398.83,3709.5 1405.17,3709.5 1411.5,3709.5C 1411.5,3739.83 1411.5,3770.17 1411.5,3800.5C 1403.8,3800.83 1396.14,3800.5 1388.5,3799.5C 1376,3779.17 1363.5,3758.83 1351,3738.5C 1350.5,3759.16 1350.33,3779.83 1350.5,3800.5C 1344.17,3800.5 1337.83,3800.5 1331.5,3800.5C 1331.5,3770.17 1331.5,3739.83 1331.5,3709.5 Z"/></g>
<g><path style="opacity:0.933" fill="#000000" d="M 1618.5,3709.5 C 1636.2,3709.12 1653.87,3709.62 1671.5,3711C 1689.53,3716.53 1696.69,3728.69 1693,3747.5C 1690.17,3758.33 1683.33,3765.17 1672.5,3768C 1661.21,3769.33 1649.88,3769.83 1638.5,3769.5C 1638.5,3779.83 1638.5,3790.17 1638.5,3800.5C 1631.83,3800.5 1625.17,3800.5 1618.5,3800.5C 1618.5,3770.17 1618.5,3739.83 1618.5,3709.5 Z M 1638.5,3725.5 C 1647.22,3725.2 1655.89,3725.7 1664.5,3727C 1673.68,3731.56 1675.85,3738.4 1671,3747.5C 1668.33,3750.84 1664.83,3752.67 1660.5,3753C 1653.17,3753.5 1645.84,3753.67 1638.5,3753.5C 1638.5,3744.17 1638.5,3734.83 1638.5,3725.5 Z"/></g>
<g><path style="opacity:0.928" fill="#000000" d="M 1700.5,3709.5 C 1707.17,3709.5 1713.83,3709.5 1720.5,3709.5C 1720.5,3739.83 1720.5,3770.17 1720.5,3800.5C 1713.83,3800.5 1707.17,3800.5 1700.5,3800.5C 1700.5,3770.17 1700.5,3739.83 1700.5,3709.5 Z"/></g>
<g><path style="opacity:0.933" fill="#000000" d="M 1729.5,3709.5 C 1748.2,3709.11 1766.87,3709.61 1785.5,3711C 1800.25,3714.51 1807.59,3723.84 1807.5,3739C 1807.56,3752.57 1801.22,3761.57 1788.5,3766C 1795.75,3777.17 1802.75,3788.5 1809.5,3800C 1801.48,3800.83 1793.48,3800.66 1785.5,3799.5C 1779.7,3789.2 1773.7,3779.04 1767.5,3769C 1761.51,3768.5 1755.51,3768.33 1749.5,3768.5C 1749.5,3779.17 1749.5,3789.83 1749.5,3800.5C 1742.83,3800.5 1736.17,3800.5 1729.5,3800.5C 1729.5,3770.17 1729.5,3739.83 1729.5,3709.5 Z M 1749.5,3725.5 C 1760.3,3724.93 1770.97,3725.77 1781.5,3728C 1789.49,3735.29 1789.49,3742.62 1781.5,3750C 1770.97,3752.23 1760.3,3753.07 1749.5,3752.5C 1749.5,3743.5 1749.5,3734.5 1749.5,3725.5 Z"/></g>
<g><path style="opacity:0.926" fill="#000000" d="M 1814.5,3709.5 C 1821.17,3709.5 1827.83,3709.5 1834.5,3709.5C 1834.5,3739.83 1834.5,3770.17 1834.5,3800.5C 1827.83,3800.5 1821.17,3800.5 1814.5,3800.5C 1814.5,3770.17 1814.5,3739.83 1814.5,3709.5 Z"/></g>
<g><path style="opacity:0.928" fill="#000000" d="M 1840.5,3709.5 C 1866.5,3709.5 1892.5,3709.5 1918.5,3709.5C 1918.5,3715.17 1918.5,3720.83 1918.5,3726.5C 1908.83,3726.5 1899.17,3726.5 1889.5,3726.5C 1889.5,3751.17 1889.5,3775.83 1889.5,3800.5C 1882.83,3800.5 1876.17,3800.5 1869.5,3800.5C 1869.5,3775.83 1869.5,3751.17 1869.5,3726.5C 1859.83,3726.5 1850.17,3726.5 1840.5,3726.5C 1840.5,3720.83 1840.5,3715.17 1840.5,3709.5 Z"/></g>
<g><path style="opacity:0.941" fill="#000000" d="M 2044.5,3709.5 C 2066.5,3709.5 2088.5,3709.5 2110.5,3709.5C 2110.5,3714.83 2110.5,3720.17 2110.5,3725.5C 2095.17,3725.5 2079.83,3725.5 2064.5,3725.5C 2064.5,3733.17 2064.5,3740.83 2064.5,3748.5C 2079.17,3748.5 2093.83,3748.5 2108.5,3748.5C 2108.5,3753.5 2108.5,3758.5 2108.5,3763.5C 2093.83,3763.5 2079.17,3763.5 2064.5,3763.5C 2064.5,3775.83 2064.5,3788.17 2064.5,3800.5C 2057.83,3800.5 2051.17,3800.5 2044.5,3800.5C 2044.5,3770.17 2044.5,3739.83 2044.5,3709.5 Z"/></g>
<g><path style="opacity:0.931" fill="#000000" d="M 2137.5,3709.5 C 2163.5,3709.5 2189.5,3709.5 2215.5,3709.5C 2215.5,3715.17 2215.5,3720.83 2215.5,3726.5C 2205.83,3726.5 2196.17,3726.5 2186.5,3726.5C 2186.5,3751.17 2186.5,3775.83 2186.5,3800.5C 2179.83,3800.5 2173.17,3800.5 2166.5,3800.5C 2166.5,3775.83 2166.5,3751.17 2166.5,3726.5C 2156.83,3726.5 2147.17,3726.5 2137.5,3726.5C 2137.5,3720.83 2137.5,3715.17 2137.5,3709.5 Z"/></g>
<g><path style="opacity:0.928" fill="#000000" d="M 2221.5,3709.5 C 2228.17,3709.5 2234.83,3709.5 2241.5,3709.5C 2241.5,3721.83 2241.5,3734.17 2241.5,3746.5C 2254.5,3746.5 2267.5,3746.5 2280.5,3746.5C 2280.5,3734.17 2280.5,3721.83 2280.5,3709.5C 2287.17,3709.5 2293.83,3709.5 2300.5,3709.5C 2300.5,3739.83 2300.5,3770.17 2300.5,3800.5C 2293.83,3800.5 2287.17,3800.5 2280.5,3800.5C 2280.5,3788.17 2280.5,3775.83 2280.5,3763.5C 2267.5,3763.5 2254.5,3763.5 2241.5,3763.5C 2241.5,3775.83 2241.5,3788.17 2241.5,3800.5C 2234.83,3800.5 2228.17,3800.5 2221.5,3800.5C 2221.5,3770.17 2221.5,3739.83 2221.5,3709.5 Z"/></g>
<g><path style="opacity:0.939" fill="#000000" d="M 2486.5,3709.5 C 2508.5,3709.5 2530.5,3709.5 2552.5,3709.5C 2552.5,3714.83 2552.5,3720.17 2552.5,3725.5C 2537.17,3725.5 2521.83,3725.5 2506.5,3725.5C 2506.5,3732.5 2506.5,3739.5 2506.5,3746.5C 2521.17,3746.5 2535.83,3746.5 2550.5,3746.5C 2550.5,3751.83 2550.5,3757.17 2550.5,3762.5C 2535.83,3762.5 2521.17,3762.5 2506.5,3762.5C 2506.5,3769.83 2506.5,3777.17 2506.5,3784.5C 2521.83,3784.5 2537.17,3784.5 2552.5,3784.5C 2552.5,3789.83 2552.5,3795.17 2552.5,3800.5C 2530.5,3800.5 2508.5,3800.5 2486.5,3800.5C 2486.5,3770.17 2486.5,3739.83 2486.5,3709.5 Z"/></g>
<g><path style="opacity:0.928" fill="#000000" d="M 2579.5,3709.5 C 2586.2,3709.17 2592.87,3709.5 2599.5,3710.5C 2604.19,3731.78 2608.69,3753.11 2613,3774.5C 2618.45,3753.09 2622.95,3731.43 2626.5,3709.5C 2634.17,3709.5 2641.83,3709.5 2649.5,3709.5C 2653.31,3731.37 2657.81,3753.04 2663,3774.5C 2667.69,3752.86 2672.19,3731.19 2676.5,3709.5C 2683.53,3709.17 2690.53,3709.5 2697.5,3710.5C 2690.02,3739.75 2682.85,3769.08 2676,3798.5C 2668.11,3800.45 2659.94,3801.12 2651.5,3800.5C 2647.19,3779.47 2642.69,3758.47 2638,3737.5C 2633.51,3758.45 2629.34,3779.45 2625.5,3800.5C 2617.17,3800.5 2608.83,3800.5 2600.5,3800.5C 2593.34,3770.2 2586.34,3739.87 2579.5,3709.5 Z"/></g>
<g><path style="opacity:0.928" fill="#000000" d="M 2701.5,3709.5 C 2708.17,3709.5 2714.83,3709.5 2721.5,3709.5C 2721.5,3721.83 2721.5,3734.17 2721.5,3746.5C 2734.5,3746.5 2747.5,3746.5 2760.5,3746.5C 2760.5,3734.17 2760.5,3721.83 2760.5,3709.5C 2767.17,3709.5 2773.83,3709.5 2780.5,3709.5C 2780.5,3739.83 2780.5,3770.17 2780.5,3800.5C 2773.83,3800.5 2767.17,3800.5 2760.5,3800.5C 2760.5,3788.17 2760.5,3775.83 2760.5,3763.5C 2747.5,3763.5 2734.5,3763.5 2721.5,3763.5C 2721.5,3775.83 2721.5,3788.17 2721.5,3800.5C 2714.83,3800.5 2708.17,3800.5 2701.5,3800.5C 2701.5,3770.17 2701.5,3739.83 2701.5,3709.5 Z"/></g>
<g><path style="opacity:0.932" fill="#000000" d="M 2908.5,3709.5 C 2924.86,3709.17 2941.2,3709.67 2957.5,3711C 2980.43,3716.79 2991.43,3731.62 2990.5,3755.5C 2991.31,3779.83 2979.98,3794.67 2956.5,3800C 2940.5,3800.5 2924.5,3800.67 2908.5,3800.5C 2908.5,3770.17 2908.5,3739.83 2908.5,3709.5 Z M 2928.5,3725.5 C 2963.91,3722.74 2976.75,3738.41 2967,3772.5C 2963.53,3778.64 2958.36,3782.47 2951.5,3784C 2943.84,3784.5 2936.17,3784.67 2928.5,3784.5C 2928.5,3764.83 2928.5,3745.17 2928.5,3725.5 Z"/></g>
<g><path style="opacity:0.928" fill="#000000" d="M 2997.5,3709.5 C 3019.83,3709.5 3042.17,3709.5 3064.5,3709.5C 3064.5,3714.83 3064.5,3720.17 3064.5,3725.5C 3048.83,3725.5 3033.17,3725.5 3017.5,3725.5C 3017.5,3732.5 3017.5,3739.5 3017.5,3746.5C 3032.5,3746.5 3047.5,3746.5 3062.5,3746.5C 3062.5,3751.83 3062.5,3757.17 3062.5,3762.5C 3047.5,3762.5 3032.5,3762.5 3017.5,3762.5C 3017.5,3769.83 3017.5,3777.17 3017.5,3784.5C 3033.17,3784.5 3048.83,3784.5 3064.5,3784.5C 3064.5,3789.83 3064.5,3795.17 3064.5,3800.5C 3042.17,3800.5 3019.83,3800.5 2997.5,3800.5C 2997.5,3770.17 2997.5,3739.83 2997.5,3709.5 Z"/></g>
<g><path style="opacity:0.933" fill="#000000" d="M 3071.5,3709.5 C 3093.83,3709.5 3116.17,3709.5 3138.5,3709.5C 3138.5,3714.83 3138.5,3720.17 3138.5,3725.5C 3122.83,3725.5 3107.17,3725.5 3091.5,3725.5C 3091.5,3733.17 3091.5,3740.83 3091.5,3748.5C 3106.5,3748.5 3121.5,3748.5 3136.5,3748.5C 3136.5,3753.5 3136.5,3758.5 3136.5,3763.5C 3121.5,3763.5 3106.5,3763.5 3091.5,3763.5C 3091.5,3775.83 3091.5,3788.17 3091.5,3800.5C 3084.83,3800.5 3078.17,3800.5 3071.5,3800.5C 3071.5,3770.17 3071.5,3739.83 3071.5,3709.5 Z"/></g>
<g><path style="opacity:0.918" fill="#000000" d="M 3140.5,3709.5 C 3147.51,3709.33 3154.51,3709.5 3161.5,3710C 3168.79,3722.75 3175.96,3735.59 3183,3748.5C 3189.58,3735.67 3196.41,3723.01 3203.5,3710.5C 3210.47,3709.5 3217.47,3709.17 3224.5,3709.5C 3214.8,3728.55 3204.3,3747.22 3193,3765.5C 3192.5,3777.16 3192.33,3788.83 3192.5,3800.5C 3185.83,3800.5 3179.17,3800.5 3172.5,3800.5C 3172.67,3788.83 3172.5,3777.16 3172,3765.5C 3160.7,3747.22 3150.2,3728.55 3140.5,3709.5 Z"/></g>
<g><path style="opacity:0.926" fill="#000000" d="M 3520.5,3709.5 C 3527.17,3709.5 3533.83,3709.5 3540.5,3709.5C 3540.5,3739.83 3540.5,3770.17 3540.5,3800.5C 3533.83,3800.5 3527.17,3800.5 3520.5,3800.5C 3520.5,3770.17 3520.5,3739.83 3520.5,3709.5 Z"/></g>
<g><path style="opacity:0.928" fill="#000000" d="M 3549.5,3709.5 C 3571.83,3709.5 3594.17,3709.5 3616.5,3709.5C 3616.5,3714.83 3616.5,3720.17 3616.5,3725.5C 3600.83,3725.5 3585.17,3725.5 3569.5,3725.5C 3569.5,3732.5 3569.5,3739.5 3569.5,3746.5C 3584.5,3746.5 3599.5,3746.5 3614.5,3746.5C 3614.8,3751.76 3614.47,3756.93 3613.5,3762C 3598.84,3762.5 3584.17,3762.67 3569.5,3762.5C 3569.5,3769.83 3569.5,3777.17 3569.5,3784.5C 3585.17,3784.5 3600.83,3784.5 3616.5,3784.5C 3616.5,3789.83 3616.5,3795.17 3616.5,3800.5C 3594.17,3800.5 3571.83,3800.5 3549.5,3800.5C 3549.5,3770.17 3549.5,3739.83 3549.5,3709.5 Z"/></g>
<g><path style="opacity:0.928" fill="#000000" d="M 3620.5,3709.5 C 3646.5,3709.5 3672.5,3709.5 3698.5,3709.5C 3698.5,3715.17 3698.5,3720.83 3698.5,3726.5C 3688.83,3726.5 3679.17,3726.5 3669.5,3726.5C 3669.5,3751.17 3669.5,3775.83 3669.5,3800.5C 3662.83,3800.5 3656.17,3800.5 3649.5,3800.5C 3649.5,3775.83 3649.5,3751.17 3649.5,3726.5C 3639.83,3726.5 3630.17,3726.5 3620.5,3726.5C 3620.5,3720.83 3620.5,3715.17 3620.5,3709.5 Z"/></g>
<g><path style="opacity:0.935" fill="#000000" d="M 3720.5,3709.5 C 3728.84,3709.33 3737.17,3709.5 3745.5,3710C 3756.96,3739.76 3768.3,3769.6 3779.5,3799.5C 3772.2,3800.5 3764.86,3800.83 3757.5,3800.5C 3755.86,3793.42 3753.53,3786.59 3750.5,3780C 3738.5,3779.5 3726.5,3779.33 3714.5,3779.5C 3712.47,3786.43 3710.14,3793.26 3707.5,3800C 3700.48,3800.83 3693.48,3800.66 3686.5,3799.5C 3697.85,3769.47 3709.18,3739.47 3720.5,3709.5 Z M 3732.5,3728.5 C 3737,3739.99 3741.33,3751.66 3745.5,3763.5C 3737.19,3764.5 3728.86,3764.83 3720.5,3764.5C 3724.3,3752.43 3728.3,3740.43 3732.5,3728.5 Z"/></g>
<g><path style="opacity:0.943" fill="#000000" d="M 3783.5,3709.5 C 3790.17,3709.5 3796.83,3709.5 3803.5,3709.5C 3803.5,3734.5 3803.5,3759.5 3803.5,3784.5C 3819.5,3784.5 3835.5,3784.5 3851.5,3784.5C 3851.5,3789.83 3851.5,3795.17 3851.5,3800.5C 3828.83,3800.5 3806.17,3800.5 3783.5,3800.5C 3783.5,3770.17 3783.5,3739.83 3783.5,3709.5 Z"/></g>
<g><path style="opacity:0.933" fill="#000000" d="M 3880.5,3709.5 C 3899.2,3709.11 3917.87,3709.61 3936.5,3711C 3951.25,3714.51 3958.59,3723.84 3958.5,3739C 3958.56,3752.57 3952.22,3761.57 3939.5,3766C 3946.75,3777.17 3953.75,3788.5 3960.5,3800C 3952.48,3800.83 3944.48,3800.66 3936.5,3799.5C 3930.7,3789.2 3924.7,3779.04 3918.5,3769C 3912.51,3768.5 3906.51,3768.33 3900.5,3768.5C 3900.5,3779.17 3900.5,3789.83 3900.5,3800.5C 3893.83,3800.5 3887.17,3800.5 3880.5,3800.5C 3880.5,3770.17 3880.5,3739.83 3880.5,3709.5 Z M 3900.5,3725.5 C 3911.3,3724.93 3921.97,3725.77 3932.5,3728C 3940.49,3735.29 3940.49,3742.62 3932.5,3750C 3921.97,3752.23 3911.3,3753.07 3900.5,3752.5C 3900.5,3743.5 3900.5,3734.5 3900.5,3725.5 Z"/></g>
<g><path style="opacity:0.925" fill="#000000" d="M 3965.5,3709.5 C 3972.17,3709.5 3978.83,3709.5 3985.5,3709.5C 3985.33,3730.5 3985.5,3751.5 3986,3772.5C 3988.48,3781.84 3994.65,3786.51 4004.5,3786.5C 4014.7,3786.47 4020.87,3781.47 4023,3771.5C 4023.5,3750.84 4023.67,3730.17 4023.5,3709.5C 4030.17,3709.5 4036.83,3709.5 4043.5,3709.5C 4043.67,3730.84 4043.5,3752.17 4043,3773.5C 4040.94,3787.56 4033.11,3796.73 4019.5,3801C 4005.3,3804.68 3991.63,3803.01 3978.5,3796C 3971.38,3790.55 3967.22,3783.38 3966,3774.5C 3965.5,3752.84 3965.33,3731.17 3965.5,3709.5 Z"/></g>
<g><path style="opacity:0.949" fill="#000000" d="M 4052.5,3709.5 C 4059.17,3709.5 4065.83,3709.5 4072.5,3709.5C 4072.5,3734.5 4072.5,3759.5 4072.5,3784.5C 4088.17,3784.5 4103.83,3784.5 4119.5,3784.5C 4119.5,3789.83 4119.5,3795.17 4119.5,3800.5C 4097.17,3800.5 4074.83,3800.5 4052.5,3800.5C 4052.5,3770.17 4052.5,3739.83 4052.5,3709.5 Z"/></g>
<g><path style="opacity:0.931" fill="#000000" d="M 4125.5,3709.5 C 4147.83,3709.5 4170.17,3709.5 4192.5,3709.5C 4192.5,3714.83 4192.5,3720.17 4192.5,3725.5C 4176.83,3725.5 4161.17,3725.5 4145.5,3725.5C 4145.5,3732.5 4145.5,3739.5 4145.5,3746.5C 4160.17,3746.5 4174.83,3746.5 4189.5,3746.5C 4189.5,3751.83 4189.5,3757.17 4189.5,3762.5C 4174.83,3762.5 4160.17,3762.5 4145.5,3762.5C 4145.5,3769.83 4145.5,3777.17 4145.5,3784.5C 4161.17,3784.5 4176.83,3784.5 4192.5,3784.5C 4192.5,3789.83 4192.5,3795.17 4192.5,3800.5C 4170.17,3800.5 4147.83,3800.5 4125.5,3800.5C 4125.5,3770.17 4125.5,3739.83 4125.5,3709.5 Z"/></g>
<g><path style="opacity:0.935" fill="#000000" d="M 4333.5,3709.5 C 4342.42,3709.18 4351.25,3709.52 4360,3710.5C 4370.98,3740.43 4382.14,3770.26 4393.5,3800C 4386.17,3800.5 4378.84,3800.67 4371.5,3800.5C 4369.47,3793.57 4367.14,3786.74 4364.5,3780C 4352.49,3779.17 4340.49,3779.33 4328.5,3780.5C 4326.36,3786.91 4324.03,3793.24 4321.5,3799.5C 4314.53,3800.5 4307.53,3800.83 4300.5,3800.5C 4311.7,3770.24 4322.7,3739.91 4333.5,3709.5 Z M 4346.5,3728.5 C 4350.71,3740.29 4355.04,3752.12 4359.5,3764C 4350.83,3764.67 4342.17,3764.67 4333.5,3764C 4337.94,3752.19 4342.27,3740.36 4346.5,3728.5 Z"/></g>
<g><path style="opacity:0.942" fill="#000000" d="M 4397.5,3709.5 C 4404.84,3709.33 4412.17,3709.5 4419.5,3710C 4432.46,3730.75 4445.29,3751.58 4458,3772.5C 4458.5,3751.5 4458.67,3730.5 4458.5,3709.5C 4464.5,3709.5 4470.5,3709.5 4476.5,3709.5C 4476.5,3739.83 4476.5,3770.17 4476.5,3800.5C 4468.91,3800.81 4461.41,3800.48 4454,3799.5C 4441.33,3778.83 4428.67,3758.17 4416,3737.5C 4415.5,3758.5 4415.33,3779.5 4415.5,3800.5C 4409.5,3800.5 4403.5,3800.5 4397.5,3800.5C 4397.5,3770.17 4397.5,3739.83 4397.5,3709.5 Z"/></g>
<g><path style="opacity:0.934" fill="#000000" d="M 4485.5,3709.5 C 4498.5,3709.33 4511.5,3709.5 4524.5,3710C 4552.67,3712.01 4567.01,3727.18 4567.5,3755.5C 4568.36,3779.79 4557.02,3794.63 4533.5,3800C 4517.5,3800.5 4501.5,3800.67 4485.5,3800.5C 4485.5,3770.17 4485.5,3739.83 4485.5,3709.5 Z M 4505.5,3725.5 C 4539,3722.16 4552.17,3736.83 4545,3769.5C 4542,3777.16 4536.5,3782 4528.5,3784C 4520.84,3784.5 4513.17,3784.67 4505.5,3784.5C 4505.5,3764.83 4505.5,3745.17 4505.5,3725.5 Z"/></g>
<g><path style="opacity:0.916" fill="#000000" d="M 4597.5,3709.5 C 4605.2,3709.17 4612.86,3709.5 4620.5,3710.5C 4633.2,3730.7 4645.7,3751.03 4658,3771.5C 4658.5,3750.84 4658.67,3730.17 4658.5,3709.5C 4664.83,3709.5 4671.17,3709.5 4677.5,3709.5C 4677.5,3739.83 4677.5,3770.17 4677.5,3800.5C 4669.8,3800.83 4662.14,3800.5 4654.5,3799.5C 4642,3779.17 4629.5,3758.83 4617,3738.5C 4616.5,3759.16 4616.33,3779.83 4616.5,3800.5C 4610.17,3800.5 4603.83,3800.5 4597.5,3800.5C 4597.5,3770.17 4597.5,3739.83 4597.5,3709.5 Z"/></g>
<g><path style="opacity:0.937" fill="#000000" d="M 4781.5,3709.5 C 4799.87,3709.11 4818.2,3709.61 4836.5,3711C 4851.12,3714.62 4858.79,3723.96 4859.5,3739C 4859,3752.17 4852.66,3761.34 4840.5,3766.5C 4847.17,3777.5 4853.83,3788.5 4860.5,3799.5C 4852.85,3800.66 4845.19,3800.83 4837.5,3800C 4831.63,3789.75 4825.63,3779.58 4819.5,3769.5C 4813.54,3768.5 4807.54,3768.17 4801.5,3768.5C 4801.5,3779.17 4801.5,3789.83 4801.5,3800.5C 4794.83,3800.5 4788.17,3800.5 4781.5,3800.5C 4781.5,3770.17 4781.5,3739.83 4781.5,3709.5 Z M 4801.5,3725.5 C 4811.22,3725.18 4820.88,3725.68 4830.5,3727C 4835.9,3729.13 4838.57,3733.13 4838.5,3739C 4838.57,3744.87 4835.9,3748.87 4830.5,3751C 4820.88,3752.29 4811.21,3752.79 4801.5,3752.5C 4801.5,3743.5 4801.5,3734.5 4801.5,3725.5 Z"/></g>
<g><path style="opacity:0.924" fill="#000000" d="M 4865.5,3709.5 C 4875.19,3709.17 4884.86,3709.5 4894.5,3710.5C 4900.71,3730.64 4907.21,3750.64 4914,3770.5C 4919.87,3750.4 4926.03,3730.4 4932.5,3710.5C 4942.14,3709.5 4951.81,3709.17 4961.5,3709.5C 4961.5,3739.83 4961.5,3770.17 4961.5,3800.5C 4955.17,3800.5 4948.83,3800.5 4942.5,3800.5C 4942.67,3779.16 4942.5,3757.83 4942,3736.5C 4934.66,3757.7 4927.82,3779.03 4921.5,3800.5C 4916.13,3800.83 4910.79,3800.49 4905.5,3799.5C 4898.37,3778.93 4891.53,3758.27 4885,3737.5C 4884.5,3758.5 4884.33,3779.5 4884.5,3800.5C 4878.17,3800.5 4871.83,3800.5 4865.5,3800.5C 4865.5,3770.17 4865.5,3739.83 4865.5,3709.5 Z"/></g>
<g><path style="opacity:0.931" fill="#000000" d="M 5072.5,3709.5 C 5098.5,3709.5 5124.5,3709.5 5150.5,3709.5C 5150.5,3715.17 5150.5,3720.83 5150.5,3726.5C 5140.83,3726.5 5131.17,3726.5 5121.5,3726.5C 5121.5,3751.17 5121.5,3775.83 5121.5,3800.5C 5114.83,3800.5 5108.17,3800.5 5101.5,3800.5C 5101.5,3775.83 5101.5,3751.17 5101.5,3726.5C 5091.83,3726.5 5082.17,3726.5 5072.5,3726.5C 5072.5,3720.83 5072.5,3715.17 5072.5,3709.5 Z"/></g>
<g><path style="opacity:0.928" fill="#000000" d="M 5273.5,3709.5 C 5295.83,3709.5 5318.17,3709.5 5340.5,3709.5C 5340.5,3714.83 5340.5,3720.17 5340.5,3725.5C 5324.83,3725.5 5309.17,3725.5 5293.5,3725.5C 5293.5,3732.5 5293.5,3739.5 5293.5,3746.5C 5308.5,3746.5 5323.5,3746.5 5338.5,3746.5C 5338.5,3751.83 5338.5,3757.17 5338.5,3762.5C 5323.5,3762.5 5308.5,3762.5 5293.5,3762.5C 5293.5,3769.83 5293.5,3777.17 5293.5,3784.5C 5309.17,3784.5 5324.83,3784.5 5340.5,3784.5C 5340.5,3789.83 5340.5,3795.17 5340.5,3800.5C 5318.17,3800.5 5295.83,3800.5 5273.5,3800.5C 5273.5,3770.17 5273.5,3739.83 5273.5,3709.5 Z"/></g>
<g><path style="opacity:0.924" fill="#000000" d="M 5347.5,3709.5 C 5357.19,3709.17 5366.86,3709.5 5376.5,3710.5C 5382.71,3730.64 5389.21,3750.64 5396,3770.5C 5401.87,3750.4 5408.03,3730.4 5414.5,3710.5C 5424.14,3709.5 5433.81,3709.17 5443.5,3709.5C 5443.5,3739.83 5443.5,3770.17 5443.5,3800.5C 5437.17,3800.5 5430.83,3800.5 5424.5,3800.5C 5424.67,3779.16 5424.5,3757.83 5424,3736.5C 5416.66,3757.7 5409.82,3779.03 5403.5,3800.5C 5398.13,3800.83 5392.79,3800.49 5387.5,3799.5C 5380.37,3778.93 5373.53,3758.27 5367,3737.5C 5366.5,3758.5 5366.33,3779.5 5366.5,3800.5C 5360.17,3800.5 5353.83,3800.5 5347.5,3800.5C 5347.5,3770.17 5347.5,3739.83 5347.5,3709.5 Z"/></g>
<g><path style="opacity:0.933" fill="#000000" d="M 5451.5,3709.5 C 5467.17,3709.33 5482.84,3709.5 5498.5,3710C 5514.54,3710.55 5523.21,3718.71 5524.5,3734.5C 5524.79,3742.59 5521.46,3748.59 5514.5,3752.5C 5527.71,3761.07 5531.21,3772.74 5525,3787.5C 5521.73,3792.77 5517.23,3796.61 5511.5,3799C 5491.55,3800.45 5471.55,3800.95 5451.5,3800.5C 5451.5,3770.17 5451.5,3739.83 5451.5,3709.5 Z M 5471.5,3725.5 C 5479.84,3725.33 5488.17,3725.5 5496.5,3726C 5504.34,3729.18 5506.5,3734.68 5503,3742.5C 5501.79,3744.05 5500.29,3745.22 5498.5,3746C 5489.57,3747.38 5480.57,3747.88 5471.5,3747.5C 5471.5,3740.17 5471.5,3732.83 5471.5,3725.5 Z M 5471.5,3761.5 C 5480.51,3761.33 5489.51,3761.5 5498.5,3762C 5506.6,3765.27 5509.1,3771.1 5506,3779.5C 5504.36,3781.81 5502.2,3783.31 5499.5,3784C 5490.17,3784.5 5480.84,3784.67 5471.5,3784.5C 5471.5,3776.83 5471.5,3769.17 5471.5,3761.5 Z"/></g>
<g><path style="opacity:0.935" fill="#000000" d="M 5534.5,3709.5 C 5552.87,3709.11 5571.2,3709.61 5589.5,3711C 5607.99,3716.49 5615.15,3728.66 5611,3747.5C 5608.14,3756.53 5602.31,3762.86 5593.5,3766.5C 5599.8,3777.3 5606.3,3787.97 5613,3798.5C 5624.45,3769.32 5635.62,3739.98 5646.5,3710.5C 5655.17,3709.17 5663.83,3709.17 5672.5,3710.5C 5683.54,3740.47 5694.88,3770.3 5706.5,3800C 5699.14,3800.83 5691.81,3800.66 5684.5,3799.5C 5681.97,3793.24 5679.64,3786.91 5677.5,3780.5C 5665.51,3779.33 5653.51,3779.17 5641.5,3780C 5639.07,3786.45 5636.74,3792.95 5634.5,3799.5C 5619.84,3800.67 5605.18,3800.83 5590.5,3800C 5584.63,3789.75 5578.63,3779.58 5572.5,3769.5C 5566.54,3768.5 5560.54,3768.17 5554.5,3768.5C 5554.5,3779.17 5554.5,3789.83 5554.5,3800.5C 5547.83,3800.5 5541.17,3800.5 5534.5,3800.5C 5534.5,3770.17 5534.5,3739.83 5534.5,3709.5 Z M 5554.5,3725.5 C 5564.22,3725.18 5573.88,3725.68 5583.5,3727C 5588.9,3729.13 5591.57,3733.13 5591.5,3739C 5591.57,3744.87 5588.9,3748.87 5583.5,3751C 5573.88,3752.29 5564.21,3752.79 5554.5,3752.5C 5554.5,3743.5 5554.5,3734.5 5554.5,3725.5 Z M 5658.5,3728.5 C 5663.99,3739.95 5668.32,3751.95 5671.5,3764.5C 5663.16,3764.67 5654.83,3764.5 5646.5,3764C 5650.8,3752.26 5654.8,3740.43 5658.5,3728.5 Z"/></g>
<g><path style="opacity:0.928" fill="#000000" d="M 5794.5,3709.5 C 5816.83,3709.5 5839.17,3709.5 5861.5,3709.5C 5861.5,3714.83 5861.5,3720.17 5861.5,3725.5C 5845.83,3725.5 5830.17,3725.5 5814.5,3725.5C 5814.5,3732.5 5814.5,3739.5 5814.5,3746.5C 5829.5,3746.5 5844.5,3746.5 5859.5,3746.5C 5859.5,3751.83 5859.5,3757.17 5859.5,3762.5C 5844.5,3762.5 5829.5,3762.5 5814.5,3762.5C 5814.5,3769.83 5814.5,3777.17 5814.5,3784.5C 5830.17,3784.5 5845.83,3784.5 5861.5,3784.5C 5861.5,3789.83 5861.5,3795.17 5861.5,3800.5C 5839.17,3800.5 5816.83,3800.5 5794.5,3800.5C 5794.5,3770.17 5794.5,3739.83 5794.5,3709.5 Z"/></g>
<g><path style="opacity:0.931" fill="#000000" d="M 5889.5,3709.5 C 5915.5,3709.5 5941.5,3709.5 5967.5,3709.5C 5967.5,3715.17 5967.5,3720.83 5967.5,3726.5C 5957.83,3726.5 5948.17,3726.5 5938.5,3726.5C 5938.5,3751.17 5938.5,3775.83 5938.5,3800.5C 5931.83,3800.5 5925.17,3800.5 5918.5,3800.5C 5918.5,3775.83 5918.5,3751.17 5918.5,3726.5C 5908.83,3726.5 5899.17,3726.5 5889.5,3726.5C 5889.5,3720.83 5889.5,3715.17 5889.5,3709.5 Z"/></g>
<g><path style="opacity:0.928" fill="#000000" d="M 5973.5,3709.5 C 5980.17,3709.5 5986.83,3709.5 5993.5,3709.5C 5993.5,3721.83 5993.5,3734.17 5993.5,3746.5C 6006.5,3746.5 6019.5,3746.5 6032.5,3746.5C 6032.5,3734.17 6032.5,3721.83 6032.5,3709.5C 6039.17,3709.5 6045.83,3709.5 6052.5,3709.5C 6052.5,3739.83 6052.5,3770.17 6052.5,3800.5C 6045.83,3800.5 6039.17,3800.5 6032.5,3800.5C 6032.5,3788.17 6032.5,3775.83 6032.5,3763.5C 6019.5,3763.5 6006.5,3763.5 5993.5,3763.5C 5993.5,3775.83 5993.5,3788.17 5993.5,3800.5C 5986.83,3800.5 5980.17,3800.5 5973.5,3800.5C 5973.5,3770.17 5973.5,3739.83 5973.5,3709.5 Z"/></g>
<g><path style="opacity:0.939" fill="#000000" d="M 6061.5,3709.5 C 6083.5,3709.5 6105.5,3709.5 6127.5,3709.5C 6127.5,3714.83 6127.5,3720.17 6127.5,3725.5C 6112.17,3725.5 6096.83,3725.5 6081.5,3725.5C 6081.5,3732.5 6081.5,3739.5 6081.5,3746.5C 6096.17,3746.5 6110.83,3746.5 6125.5,3746.5C 6125.5,3751.83 6125.5,3757.17 6125.5,3762.5C 6110.83,3762.5 6096.17,3762.5 6081.5,3762.5C 6081.5,3769.83 6081.5,3777.17 6081.5,3784.5C 6096.83,3784.5 6112.17,3784.5 6127.5,3784.5C 6127.5,3789.83 6127.5,3795.17 6127.5,3800.5C 6105.5,3800.5 6083.5,3800.5 6061.5,3800.5C 6061.5,3770.17 6061.5,3739.83 6061.5,3709.5 Z"/></g>
<g><path style="opacity:0.928" fill="#000000" d="M 6135.5,3709.5 C 6142.17,3709.5 6148.83,3709.5 6155.5,3709.5C 6155.5,3739.83 6155.5,3770.17 6155.5,3800.5C 6148.83,3800.5 6142.17,3800.5 6135.5,3800.5C 6135.5,3770.17 6135.5,3739.83 6135.5,3709.5 Z"/></g>
<g><path style="opacity:0.937" fill="#000000" d="M 6164.5,3709.5 C 6182.87,3709.11 6201.2,3709.61 6219.5,3711C 6234.12,3714.62 6241.79,3723.96 6242.5,3739C 6242,3752.17 6235.66,3761.34 6223.5,3766.5C 6230.17,3777.5 6236.83,3788.5 6243.5,3799.5C 6235.85,3800.66 6228.19,3800.83 6220.5,3800C 6214.63,3789.75 6208.63,3779.58 6202.5,3769.5C 6196.54,3768.5 6190.54,3768.17 6184.5,3768.5C 6184.5,3779.17 6184.5,3789.83 6184.5,3800.5C 6177.83,3800.5 6171.17,3800.5 6164.5,3800.5C 6164.5,3770.17 6164.5,3739.83 6164.5,3709.5 Z M 6184.5,3725.5 C 6194.22,3725.18 6203.88,3725.68 6213.5,3727C 6218.9,3729.13 6221.57,3733.13 6221.5,3739C 6221.57,3744.87 6218.9,3748.87 6213.5,3751C 6203.88,3752.29 6194.21,3752.79 6184.5,3752.5C 6184.5,3743.5 6184.5,3734.5 6184.5,3725.5 Z"/></g>
<g><path style="opacity:0.935" fill="#000000" d="M 6301.5,3709.5 C 6310.42,3709.18 6319.25,3709.52 6328,3710.5C 6338.98,3740.43 6350.14,3770.26 6361.5,3800C 6354.17,3800.5 6346.84,3800.67 6339.5,3800.5C 6337.47,3793.57 6335.14,3786.74 6332.5,3780C 6320.49,3779.17 6308.49,3779.33 6296.5,3780.5C 6294.36,3786.91 6292.03,3793.24 6289.5,3799.5C 6282.53,3800.5 6275.53,3800.83 6268.5,3800.5C 6279.7,3770.24 6290.7,3739.91 6301.5,3709.5 Z M 6314.5,3728.5 C 6318.71,3740.29 6323.04,3752.12 6327.5,3764C 6318.83,3764.67 6310.17,3764.67 6301.5,3764C 6305.94,3752.19 6310.27,3740.36 6314.5,3728.5 Z"/></g>
<g><path style="opacity:0.925" fill="#000000" d="M 6360.5,3709.5 C 6367.17,3709.5 6373.83,3709.5 6380.5,3709.5C 6380.33,3730.17 6380.5,3750.84 6381,3771.5C 6383.14,3781.48 6389.31,3786.48 6399.5,3786.5C 6409.35,3786.51 6415.52,3781.84 6418,3772.5C 6418.5,3751.5 6418.67,3730.5 6418.5,3709.5C 6425.17,3709.5 6431.83,3709.5 6438.5,3709.5C 6438.67,3731.5 6438.5,3753.5 6438,3775.5C 6435.04,3788.46 6427.21,3796.96 6414.5,3801C 6401.12,3804.42 6388.12,3803.09 6375.5,3797C 6367.24,3791.31 6362.4,3783.48 6361,3773.5C 6360.5,3752.17 6360.33,3730.84 6360.5,3709.5 Z"/></g>
<g><path style="opacity:0.928" fill="#000000" d="M 6444.5,3709.5 C 6470.5,3709.5 6496.5,3709.5 6522.5,3709.5C 6522.5,3715.17 6522.5,3720.83 6522.5,3726.5C 6512.83,3726.5 6503.17,3726.5 6493.5,3726.5C 6493.5,3751.17 6493.5,3775.83 6493.5,3800.5C 6486.83,3800.5 6480.17,3800.5 6473.5,3800.5C 6473.5,3775.83 6473.5,3751.17 6473.5,3726.5C 6463.83,3726.5 6454.17,3726.5 6444.5,3726.5C 6444.5,3720.83 6444.5,3715.17 6444.5,3709.5 Z"/></g>
<g><path style="opacity:0.928" fill="#000000" d="M 6528.5,3709.5 C 6535.17,3709.5 6541.83,3709.5 6548.5,3709.5C 6548.5,3721.83 6548.5,3734.17 6548.5,3746.5C 6561.5,3746.5 6574.5,3746.5 6587.5,3746.5C 6587.5,3734.17 6587.5,3721.83 6587.5,3709.5C 6594.17,3709.5 6600.83,3709.5 6607.5,3709.5C 6607.5,3739.83 6607.5,3770.17 6607.5,3800.5C 6600.83,3800.5 6594.17,3800.5 6587.5,3800.5C 6587.5,3788.17 6587.5,3775.83 6587.5,3763.5C 6574.5,3763.5 6561.5,3763.5 6548.5,3763.5C 6548.5,3775.83 6548.5,3788.17 6548.5,3800.5C 6541.83,3800.5 6535.17,3800.5 6528.5,3800.5C 6528.5,3770.17 6528.5,3739.83 6528.5,3709.5 Z"/></g>
<g><path style="opacity:0.928" fill="#000000" d="M 6615.5,3709.5 C 6637.83,3709.5 6660.17,3709.5 6682.5,3709.5C 6682.5,3714.83 6682.5,3720.17 6682.5,3725.5C 6666.83,3725.5 6651.17,3725.5 6635.5,3725.5C 6635.5,3732.5 6635.5,3739.5 6635.5,3746.5C 6650.5,3746.5 6665.5,3746.5 6680.5,3746.5C 6680.5,3751.83 6680.5,3757.17 6680.5,3762.5C 6665.5,3762.5 6650.5,3762.5 6635.5,3762.5C 6635.5,3769.83 6635.5,3777.17 6635.5,3784.5C 6651.17,3784.5 6666.83,3784.5 6682.5,3784.5C 6682.5,3789.83 6682.5,3795.17 6682.5,3800.5C 6660.17,3800.5 6637.83,3800.5 6615.5,3800.5C 6615.5,3770.17 6615.5,3739.83 6615.5,3709.5 Z"/></g>
<g><path style="opacity:0.916" fill="#000000" d="M 6689.5,3709.5 C 6697.2,3709.17 6704.86,3709.5 6712.5,3710.5C 6725.2,3730.7 6737.7,3751.03 6750,3771.5C 6750.5,3750.84 6750.67,3730.17 6750.5,3709.5C 6756.83,3709.5 6763.17,3709.5 6769.5,3709.5C 6769.5,3739.83 6769.5,3770.17 6769.5,3800.5C 6761.8,3800.83 6754.14,3800.5 6746.5,3799.5C 6734,3779.17 6721.5,3758.83 6709,3738.5C 6708.5,3759.16 6708.33,3779.83 6708.5,3800.5C 6702.17,3800.5 6695.83,3800.5 6689.5,3800.5C 6689.5,3770.17 6689.5,3739.83 6689.5,3709.5 Z"/></g>
<g><path style="opacity:0.931" fill="#000000" d="M 6775.5,3709.5 C 6801.5,3709.5 6827.5,3709.5 6853.5,3709.5C 6853.5,3715.17 6853.5,3720.83 6853.5,3726.5C 6843.83,3726.5 6834.17,3726.5 6824.5,3726.5C 6824.5,3751.17 6824.5,3775.83 6824.5,3800.5C 6817.83,3800.5 6811.17,3800.5 6804.5,3800.5C 6804.5,3775.83 6804.5,3751.17 6804.5,3726.5C 6794.83,3726.5 6785.17,3726.5 6775.5,3726.5C 6775.5,3720.83 6775.5,3715.17 6775.5,3709.5 Z"/></g>
<g><path style="opacity:0.98" fill="#000000" d="M 6859.5,3709.5 C 6865.83,3709.5 6872.17,3709.5 6878.5,3709.5C 6878.5,3739.83 6878.5,3770.17 6878.5,3800.5C 6872.17,3800.5 6865.83,3800.5 6859.5,3800.5C 6859.5,3770.17 6859.5,3739.83 6859.5,3709.5 Z"/></g>
<g><path style="opacity:0.931" fill="#000000" d="M 7084.5,3709.5 C 7106.83,3709.5 7129.17,3709.5 7151.5,3709.5C 7151.5,3714.83 7151.5,3720.17 7151.5,3725.5C 7135.83,3725.5 7120.17,3725.5 7104.5,3725.5C 7104.5,3732.5 7104.5,3739.5 7104.5,3746.5C 7119.17,3746.5 7133.83,3746.5 7148.5,3746.5C 7148.5,3751.83 7148.5,3757.17 7148.5,3762.5C 7133.83,3762.5 7119.17,3762.5 7104.5,3762.5C 7104.5,3769.83 7104.5,3777.17 7104.5,3784.5C 7120.17,3784.5 7135.83,3784.5 7151.5,3784.5C 7151.5,3789.83 7151.5,3795.17 7151.5,3800.5C 7129.17,3800.5 7106.83,3800.5 7084.5,3800.5C 7084.5,3770.17 7084.5,3739.83 7084.5,3709.5 Z"/></g>
<g><path style="opacity:0.948" fill="#000000" d="M 7158.5,3709.5 C 7165.17,3709.5 7171.83,3709.5 7178.5,3709.5C 7178.5,3734.5 7178.5,3759.5 7178.5,3784.5C 7194.17,3784.5 7209.83,3784.5 7225.5,3784.5C 7225.5,3789.83 7225.5,3795.17 7225.5,3800.5C 7203.17,3800.5 7180.83,3800.5 7158.5,3800.5C 7158.5,3770.17 7158.5,3739.83 7158.5,3709.5 Z"/></g>
<g><path style="opacity:0.924" fill="#000000" d="M 7212.5,3709.5 C 7219.53,3709.17 7226.53,3709.5 7233.5,3710.5C 7240.97,3732.92 7248.64,3755.25 7256.5,3777.5C 7264.97,3755.1 7272.63,3732.44 7279.5,3709.5C 7286.5,3709.5 7293.5,3709.5 7300.5,3709.5C 7290.51,3739.3 7280.01,3768.97 7269,3798.5C 7265.09,3799.8 7260.92,3800.46 7256.5,3800.5C 7252.08,3800.46 7247.91,3799.8 7244,3798.5C 7232.99,3768.97 7222.49,3739.3 7212.5,3709.5 Z"/></g>
<g><path style="opacity:0.928" fill="#000000" d="M 7304.5,3709.5 C 7326.83,3709.5 7349.17,3709.5 7371.5,3709.5C 7371.5,3714.83 7371.5,3720.17 7371.5,3725.5C 7355.83,3725.5 7340.17,3725.5 7324.5,3725.5C 7324.5,3732.5 7324.5,3739.5 7324.5,3746.5C 7339.5,3746.5 7354.5,3746.5 7369.5,3746.5C 7369.5,3751.83 7369.5,3757.17 7369.5,3762.5C 7354.5,3762.5 7339.5,3762.5 7324.5,3762.5C 7324.5,3769.83 7324.5,3777.17 7324.5,3784.5C 7340.17,3784.5 7355.83,3784.5 7371.5,3784.5C 7371.5,3789.83 7371.5,3795.17 7371.5,3800.5C 7349.17,3800.5 7326.83,3800.5 7304.5,3800.5C 7304.5,3770.17 7304.5,3739.83 7304.5,3709.5 Z"/></g>
<g><path style="opacity:0.9" fill="#000000" d="M 7460.5,3780.5 C 7467.5,3780.5 7474.5,3780.5 7481.5,3780.5C 7481.5,3787.17 7481.5,3793.83 7481.5,3800.5C 7474.5,3800.5 7467.5,3800.5 7460.5,3800.5C 7460.5,3793.83 7460.5,3787.17 7460.5,3780.5 Z"/></g>
</svg>