<svg xmlns="http://www.w3.org/2000/svg" xmlns:xlink="http://www.w3.org/1999/xlink" version="1.1" style="shape-rendering:geometricPrecision; text-rendering:geometricPrecision; image-rendering:optimizeQuality; fill-rule:evenodd; clip-rule:evenodd" viewBox="58.44 3659.77 7370.06 209.06">
<g><path style="opacity:0.971" fill="#000000" d="M 143.5,3660.5 C 179.215,3657.01 209.048,3668.34 233,3694.5C 240.246,3703.33 245.08,3713.33 247.5,3724.5C 232.83,3726.41 218.163,3728.41 203.5,3730.5C 202.167,3730.17 200.833,3729.83 199.5,3729.5C 186.899,3702.38 166.233,3693.54 137.5,3703C 122.633,3711.2 113.466,3723.7 110,3740.5C 106.1,3760.1 107.1,3779.43 113,3798.5C 124.871,3824.46 144.705,3833.96 172.5,3827C 188.813,3819.22 198.48,3806.39 201.5,3788.5C 217.836,3790.2 234.17,3792.03 250.5,3794C 239.85,3838.98 211.517,3863.65 165.5,3868C 129.011,3871.41 99.5112,3858.91 77,3830.5C 64.31,3810.42 58.1433,3788.42 58.5,3764.5C 57.5577,3733.14 67.891,3706.3 89.5,3684C 105.292,3670.93 123.292,3663.1 143.5,3660.5 Z"/></g>
<g><path style="opacity:0.974" fill="#000000" d="M 352.5,3660.5 C 424.571,3657.91 462.571,3692.57 466.5,3764.5C 467.431,3800.79 453.764,3829.96 425.5,3852C 393.291,3870.51 359.625,3873.51 324.5,3861C 293.754,3847.24 275.254,3823.74 269,3790.5C 263.155,3759.93 267.488,3730.93 282,3703.5C 298.996,3678.58 322.496,3664.25 352.5,3660.5 Z M 355.5,3699.5 C 390.512,3696.67 410.679,3712.67 416,3747.5C 417.89,3762.27 417.223,3776.94 414,3791.5C 404.447,3821.02 384.28,3833.19 353.5,3828C 331.492,3820.86 319.325,3805.69 317,3782.5C 313.951,3762.94 315.951,3743.94 323,3725.5C 330.175,3712.15 341.008,3703.48 355.5,3699.5 Z"/></g>
<g><path style="opacity:0.974" fill="#000000" d="M 1571.5,3660.5 C 1597.22,3658.06 1621.22,3663.23 1643.5,3676C 1664.73,3691.25 1677.9,3711.75 1683,3737.5C 1689.08,3768.47 1684.75,3797.81 1670,3825.5C 1652.95,3850.84 1629.12,3865.01 1598.5,3868C 1526.64,3870.47 1488.97,3835.8 1485.5,3764C 1485.46,3736.44 1493.96,3711.94 1511,3690.5C 1527.81,3673.68 1547.98,3663.68 1571.5,3660.5 Z M 1575.5,3699.5 C 1609.15,3696.98 1628.98,3712.31 1635,3745.5C 1638.44,3766.22 1636.11,3786.22 1628,3805.5C 1613.86,3826.81 1594.36,3833.97 1569.5,3827C 1548.95,3818.46 1537.79,3802.96 1536,3780.5C 1535.33,3769.83 1535.33,3759.17 1536,3748.5C 1538.31,3723.11 1551.48,3706.78 1575.5,3699.5 Z"/></g>
<g><path style="opacity:0.971" fill="#000000" d="M 3069.5,3660.5 C 3107.66,3656.51 3138.82,3669.18 3163,3698.5C 3168.67,3706.34 3172.5,3715.01 3174.5,3724.5C 3159.83,3726.41 3145.16,3728.41 3130.5,3730.5C 3129.17,3730.17 3127.83,3729.83 3126.5,3729.5C 3116.67,3705.87 3099,3696.04 3073.5,3700C 3058.2,3703.9 3047.37,3713.07 3041,3727.5C 3032.07,3752.97 3032.41,3778.3 3042,3803.5C 3055.25,3825.59 3074.42,3833.42 3099.5,3827C 3115.79,3819.2 3125.46,3806.37 3128.5,3788.5C 3144.48,3790.3 3160.48,3791.96 3176.5,3793.5C 3166.89,3838.94 3138.89,3863.77 3092.5,3868C 3060.88,3870.82 3033.72,3861.32 3011,3839.5C 2993.26,3817.78 2984.76,3792.78 2985.5,3764.5C 2984.52,3732.59 2995.19,3705.42 3017.5,3683C 3032.88,3670.81 3050.21,3663.31 3069.5,3660.5 Z"/></g>
<g><path style="opacity:0.971" fill="#000000" d="M 3435.5,3660.5 C 3457.65,3658.35 3478.65,3662.19 3498.5,3672C 3517.3,3683.65 3528.3,3700.49 3531.5,3722.5C 3516.13,3723.31 3500.79,3724.15 3485.5,3725C 3482.17,3709.67 3472.83,3700.33 3457.5,3697C 3448.34,3695.91 3439.34,3696.57 3430.5,3699C 3417.96,3704.58 3414.12,3713.75 3419,3726.5C 3424.02,3731.09 3429.85,3734.26 3436.5,3736C 3459.9,3740.93 3482.9,3747.27 3505.5,3755C 3524.92,3763.44 3535.42,3778.27 3537,3799.5C 3539.72,3827.23 3528.55,3847.07 3503.5,3859C 3471.29,3871.25 3438.95,3871.58 3406.5,3860C 3380.32,3849.14 3365.66,3829.64 3362.5,3801.5C 3378.52,3799.96 3394.52,3798.3 3410.5,3796.5C 3411.98,3816.48 3422.65,3827.98 3442.5,3831C 3457.33,3834.13 3470.83,3831.3 3483,3822.5C 3492.55,3807.47 3489.05,3796.64 3472.5,3790C 3454.21,3784.84 3435.88,3779.84 3417.5,3775C 3373.85,3763.21 3359.69,3736.04 3375,3693.5C 3385.23,3678.13 3399.39,3668.29 3417.5,3664C 3423.63,3662.74 3429.63,3661.57 3435.5,3660.5 Z"/></g>
<g><path style="opacity:0.974" fill="#000000" d="M 3869.5,3660.5 C 3941.81,3657.98 3979.81,3692.81 3983.5,3765C 3983.92,3792.75 3975.42,3817.25 3958,3838.5C 3937.45,3858.85 3912.62,3868.85 3883.5,3868.5C 3828.55,3866.96 3795.72,3839.29 3785,3785.5C 3780.05,3753.81 3786.05,3724.48 3803,3697.5C 3820.31,3676.43 3842.48,3664.09 3869.5,3660.5 Z M 3872.5,3699.5 C 3907.51,3696.67 3927.68,3712.67 3933,3747.5C 3934.79,3762.25 3934.12,3776.92 3931,3791.5C 3921.45,3821.02 3901.28,3833.19 3870.5,3828C 3848.49,3820.85 3836.32,3805.69 3834,3782.5C 3830.95,3762.94 3832.95,3743.94 3840,3725.5C 3847.15,3712.18 3857.98,3703.51 3872.5,3699.5 Z"/></g>
<g><path style="opacity:0.974" fill="#000000" d="M 5172.5,3660.5 C 5199.6,3657.79 5224.6,3663.62 5247.5,3678C 5274.66,3700.24 5287.66,3729.08 5286.5,3764.5C 5287.89,3801.54 5273.89,3831.04 5244.5,3853C 5214.66,3869.72 5183.33,3873.05 5150.5,3863C 5115.83,3849.99 5095.33,3825.16 5089,3788.5C 5083.63,3758.1 5088.29,3729.43 5103,3702.5C 5119.83,3678.16 5143,3664.16 5172.5,3660.5 Z M 5176.5,3699.5 C 5204.63,3696.22 5223.63,3707.72 5233.5,3734C 5239.46,3756.78 5238.62,3779.28 5231,3801.5C 5217.55,3825.55 5197.38,3834.05 5170.5,3827C 5149.66,3818.2 5138.49,3802.37 5137,3779.5C 5134.86,3761.31 5136.86,3743.65 5143,3726.5C 5149.96,3712.12 5161.13,3703.12 5176.5,3699.5 Z"/></g>
<g><path style="opacity:0.971" fill="#000000" d="M 5596.5,3660.5 C 5634.09,3656.52 5664.93,3668.85 5689,3697.5C 5694.79,3705.75 5698.96,3714.75 5701.5,3724.5C 5685.54,3726.95 5669.54,3728.78 5653.5,3730C 5642.63,3704.73 5623.63,3695.06 5596.5,3701C 5579.01,3708.11 5568.18,3720.94 5564,3739.5C 5559.96,3759.77 5560.96,3779.77 5567,3799.5C 5577.05,3821.61 5594.21,3831.44 5618.5,3829C 5638.81,3824.02 5650.98,3811.18 5655,3790.5C 5655.39,3789.57 5656.05,3788.91 5657,3788.5C 5672.47,3790.4 5687.97,3792.06 5703.5,3793.5C 5696.18,3831.99 5673.51,3856.16 5635.5,3866C 5607.3,3871.88 5580.63,3867.88 5555.5,3854C 5531.66,3837.86 5517.83,3815.36 5514,3786.5C 5508.62,3754.1 5514.62,3724.1 5532,3696.5C 5548.91,3676.29 5570.41,3664.29 5596.5,3660.5 Z"/></g>
<g><path style="opacity:0.974" fill="#000000" d="M 5806.5,3660.5 C 5834.62,3657.78 5860.28,3664.28 5883.5,3680C 5908.78,3702.31 5920.78,3730.48 5919.5,3764.5C 5920.78,3798.52 5908.78,3826.69 5883.5,3849C 5851.4,3869.96 5817.07,3874.29 5780.5,3862C 5749.2,3848.93 5730.04,3825.76 5723,3792.5C 5716.47,3760.35 5721.14,3730.01 5737,3701.5C 5754.11,3677.56 5777.27,3663.89 5806.5,3660.5 Z M 5809.5,3699.5 C 5845.92,3697.08 5866.08,3714.08 5870,3750.5C 5872.89,3771.29 5869.56,3790.95 5860,3809.5C 5843.31,3829.11 5822.81,3834.28 5798.5,3825C 5782.64,3816.12 5773.47,3802.62 5771,3784.5C 5768.1,3765.83 5769.43,3747.5 5775,3729.5C 5781.85,3714.01 5793.35,3704.01 5809.5,3699.5 Z"/></g>
<g><path style="opacity:0.973" fill="#000000" d="M 6401.5,3660.5 C 6473.57,3657.91 6511.57,3692.57 6515.5,3764.5C 6516.02,3792.43 6507.52,3817.1 6490,3838.5C 6463.42,3863.69 6431.92,3873.19 6395.5,3867C 6350.67,3857.83 6324.5,3830.67 6317,3785.5C 6312.05,3753.81 6318.05,3724.48 6335,3697.5C 6352.31,3676.43 6374.48,3664.09 6401.5,3660.5 Z M 6404.5,3699.5 C 6439.98,3696.81 6460.15,3713.14 6465,3748.5C 6466.66,3762.9 6466,3777.23 6463,3791.5C 6453.45,3821.02 6433.28,3833.19 6402.5,3828C 6380.49,3820.85 6368.32,3805.69 6366,3782.5C 6362.95,3762.94 6364.95,3743.94 6372,3725.5C 6379.15,3712.18 6389.98,3703.51 6404.5,3699.5 Z"/></g>
<g><path style="opacity:0.97" fill="#000000" d="M 7120.5,3660.5 C 7142.65,3658.35 7163.65,3662.19 7183.5,3672C 7202.31,3683.66 7213.31,3700.49 7216.5,3722.5C 7201.13,3723.31 7185.79,3724.15 7170.5,3725C 7167.17,3709.67 7157.83,3700.33 7142.5,3697C 7128.85,3694.1 7116.68,3696.93 7106,3705.5C 7099.6,3714.15 7100.1,3722.32 7107.5,3730C 7111.93,3732.55 7116.6,3734.55 7121.5,3736C 7144.13,3740.91 7166.47,3746.91 7188.5,3754C 7208.21,3761.91 7219.37,3776.41 7222,3797.5C 7225.4,3831.2 7210.9,3853.04 7178.5,3863C 7151.06,3870.61 7123.72,3870.27 7096.5,3862C 7068.24,3851.91 7051.91,3832.08 7047.5,3802.5C 7063.42,3799.97 7079.42,3797.97 7095.5,3796.5C 7096.8,3813.95 7105.8,3825.11 7122.5,3830C 7134.28,3833.54 7145.95,3833.2 7157.5,3829C 7171.66,3823.52 7176.16,3813.68 7171,3799.5C 7168.72,3796.43 7165.88,3793.93 7162.5,3792C 7142.69,3785.71 7122.69,3780.05 7102.5,3775C 7062.66,3765.13 7047.49,3740.3 7057,3700.5C 7065.53,3681.98 7079.69,3670.14 7099.5,3665C 7106.57,3663.15 7113.57,3661.65 7120.5,3660.5 Z"/></g>
<g><path style="opacity:0.981" fill="#000000" d="M 490.5,3664.5 C 508.503,3664.33 526.503,3664.5 544.5,3665C 571.044,3708.59 597.211,3752.42 623,3796.5C 623.5,3752.5 623.667,3708.5 623.5,3664.5C 638.167,3664.5 652.833,3664.5 667.5,3664.5C 667.5,3730.83 667.5,3797.17 667.5,3863.5C 649.83,3863.67 632.164,3863.5 614.5,3863C 588,3818.5 561.5,3774 535,3729.5C 534.5,3774.17 534.333,3818.83 534.5,3863.5C 519.833,3863.5 505.167,3863.5 490.5,3863.5C 490.5,3797.17 490.5,3730.83 490.5,3664.5 Z"/></g>
<g><path style="opacity:0.973" fill="#000000" d="M 689.5,3664.5 C 747.167,3664.5 804.833,3664.5 862.5,3664.5C 862.5,3678.17 862.5,3691.83 862.5,3705.5C 841.5,3705.5 820.5,3705.5 799.5,3705.5C 799.5,3758.17 799.5,3810.83 799.5,3863.5C 783.5,3863.5 767.5,3863.5 751.5,3863.5C 751.5,3810.83 751.5,3758.17 751.5,3705.5C 730.831,3705.67 710.164,3705.5 689.5,3705C 688.175,3691.5 688.175,3678 689.5,3664.5 Z"/></g>
<g><path style="opacity:0.973" fill="#000000" d="M 883.5,3664.5 C 933.167,3664.5 982.833,3664.5 1032.5,3664.5C 1032.5,3677.17 1032.5,3689.83 1032.5,3702.5C 999.167,3702.5 965.833,3702.5 932.5,3702.5C 932.5,3716.17 932.5,3729.83 932.5,3743.5C 964.167,3743.5 995.833,3743.5 1027.5,3743.5C 1027.5,3755.83 1027.5,3768.17 1027.5,3780.5C 995.833,3780.5 964.167,3780.5 932.5,3780.5C 932.5,3795.5 932.5,3810.5 932.5,3825.5C 965.833,3825.5 999.167,3825.5 1032.5,3825.5C 1032.5,3838.17 1032.5,3850.83 1032.5,3863.5C 982.833,3863.5 933.167,3863.5 883.5,3863.5C 883.5,3797.17 883.5,3730.83 883.5,3664.5 Z"/></g>
<g><path style="opacity:0.98" fill="#000000" d="M 1057.5,3664.5 C 1081.07,3664.17 1104.57,3664.51 1128,3665.5C 1139.93,3707.96 1152.27,3750.3 1165,3792.5C 1177.28,3749.84 1189.44,3707.18 1201.5,3664.5C 1224.83,3664.5 1248.17,3664.5 1271.5,3664.5C 1271.5,3730.83 1271.5,3797.17 1271.5,3863.5C 1256.5,3863.5 1241.5,3863.5 1226.5,3863.5C 1226.67,3816.17 1226.5,3768.83 1226,3721.5C 1211.54,3768.56 1196.87,3815.56 1182,3862.5C 1170,3863.83 1158,3863.83 1146,3862.5C 1131.18,3815.55 1116.51,3768.55 1102,3721.5C 1101.5,3768.83 1101.33,3816.17 1101.5,3863.5C 1086.83,3863.5 1072.17,3863.5 1057.5,3863.5C 1057.5,3797.17 1057.5,3730.83 1057.5,3664.5 Z"/></g>
<g><path style="opacity:0.979" fill="#000000" d="M 1301.5,3664.5 C 1335.83,3664.33 1370.17,3664.5 1404.5,3665C 1427.18,3665.43 1445.68,3674.26 1460,3691.5C 1472.81,3715.3 1473.81,3739.63 1463,3764.5C 1452.29,3781.78 1436.79,3791.95 1416.5,3795C 1394.2,3796.41 1371.87,3796.91 1349.5,3796.5C 1349.5,3818.83 1349.5,3841.17 1349.5,3863.5C 1333.5,3863.5 1317.5,3863.5 1301.5,3863.5C 1301.5,3797.17 1301.5,3730.83 1301.5,3664.5 Z M 1349.5,3702.5 C 1364.84,3702.33 1380.17,3702.5 1395.5,3703C 1411.56,3705.22 1420.23,3714.39 1421.5,3730.5C 1421.32,3742.38 1415.99,3750.88 1405.5,3756C 1399.97,3757.73 1394.3,3758.73 1388.5,3759C 1375.5,3759.5 1362.5,3759.67 1349.5,3759.5C 1349.5,3740.5 1349.5,3721.5 1349.5,3702.5 Z"/></g>
<g><path style="opacity:0.977" fill="#000000" d="M 1709.5,3664.5 C 1748.86,3664.06 1788.19,3664.56 1827.5,3666C 1869.63,3674.71 1887.8,3700.54 1882,3743.5C 1877.28,3765.71 1864.45,3781.05 1843.5,3789.5C 1857.8,3813.63 1872.3,3837.63 1887,3861.5C 1911.38,3796.35 1935.38,3731.02 1959,3665.5C 1980.43,3664.17 2001.93,3664.17 2023.5,3665.5C 2047.5,3731.18 2071.5,3796.84 2095.5,3862.5C 2078.18,3863.5 2060.85,3863.83 2043.5,3863.5C 2039.03,3848.76 2034.36,3834.09 2029.5,3819.5C 2003.82,3819.17 1978.16,3819.5 1952.5,3820.5C 1947.43,3834.72 1942.76,3849.06 1938.5,3863.5C 1903.17,3863.67 1867.83,3863.5 1832.5,3863C 1819.3,3840.63 1806.3,3818.13 1793.5,3795.5C 1781.52,3794.5 1769.52,3794.17 1757.5,3794.5C 1757.5,3817.5 1757.5,3840.5 1757.5,3863.5C 1741.5,3863.5 1725.5,3863.5 1709.5,3863.5C 1709.5,3797.17 1709.5,3730.83 1709.5,3664.5 Z M 1757.5,3702.5 C 1774.5,3702.33 1791.5,3702.5 1808.5,3703C 1824.06,3705.06 1832.73,3713.89 1834.5,3729.5C 1832.75,3745.08 1824.09,3753.91 1808.5,3756C 1791.5,3756.5 1774.5,3756.67 1757.5,3756.5C 1757.5,3738.5 1757.5,3720.5 1757.5,3702.5 Z M 1990.5,3705.5 C 1999.57,3731.55 2008.57,3757.71 2017.5,3784C 1999.82,3784.83 1982.16,3784.67 1964.5,3783.5C 1973.37,3757.55 1982.04,3731.55 1990.5,3705.5 Z"/></g>
<g><path style="opacity:0.977" fill="#000000" d="M 2110.5,3664.5 C 2146.5,3664.33 2182.5,3664.5 2218.5,3665C 2266.58,3669.33 2288.08,3695.5 2283,3743.5C 2278.38,3765.77 2265.54,3781.1 2244.5,3789.5C 2259.37,3814.08 2274.37,3838.58 2289.5,3863C 2270.83,3863.67 2252.17,3863.67 2233.5,3863C 2220.37,3840.58 2207.37,3818.08 2194.5,3795.5C 2182.52,3794.5 2170.52,3794.17 2158.5,3794.5C 2158.5,3817.5 2158.5,3840.5 2158.5,3863.5C 2142.5,3863.5 2126.5,3863.5 2110.5,3863.5C 2110.5,3797.17 2110.5,3730.83 2110.5,3664.5 Z M 2158.5,3702.5 C 2175.84,3702.33 2193.17,3702.5 2210.5,3703C 2225.99,3704.82 2234.32,3713.49 2235.5,3729C 2234.92,3741.91 2228.59,3750.57 2216.5,3755C 2197.21,3756.42 2177.87,3756.92 2158.5,3756.5C 2158.5,3738.5 2158.5,3720.5 2158.5,3702.5 Z"/></g>
<g><path style="opacity:0.967" fill="#000000" d="M 2286.5,3664.5 C 2303.84,3664.33 2321.17,3664.5 2338.5,3665C 2352.71,3691.91 2367.04,3718.75 2381.5,3745.5C 2395.83,3718.83 2410.17,3692.17 2424.5,3665.5C 2441.83,3664.17 2459.17,3664.17 2476.5,3665.5C 2452.8,3706.04 2429.3,3746.7 2406,3787.5C 2405.5,3812.83 2405.33,3838.16 2405.5,3863.5C 2389.17,3863.5 2372.83,3863.5 2356.5,3863.5C 2356.67,3838.16 2356.5,3812.83 2356,3787.5C 2333.67,3748.83 2311.33,3710.17 2289,3671.5C 2287.59,3669.35 2286.76,3667.02 2286.5,3664.5 Z"/></g>
<g><path style="opacity:0.979" fill="#000000" d="M 2550.5,3664.5 C 2584.83,3664.33 2619.17,3664.5 2653.5,3665C 2702.81,3669.99 2724.31,3697.16 2718,3746.5C 2711.42,3774.41 2693.92,3790.58 2665.5,3795C 2643.2,3796.4 2620.86,3796.9 2598.5,3796.5C 2598.5,3818.83 2598.5,3841.17 2598.5,3863.5C 2582.5,3863.5 2566.5,3863.5 2550.5,3863.5C 2550.5,3797.17 2550.5,3730.83 2550.5,3664.5 Z M 2598.5,3702.5 C 2613.84,3702.33 2629.17,3702.5 2644.5,3703C 2660.55,3705.22 2669.22,3714.38 2670.5,3730.5C 2668.1,3749.73 2657.1,3759.23 2637.5,3759C 2624.5,3759.5 2611.5,3759.67 2598.5,3759.5C 2598.5,3740.5 2598.5,3721.5 2598.5,3702.5 Z"/></g>
<g><path style="opacity:0.961" fill="#000000" d="M 2741.5,3664.5 C 2757.5,3664.5 2773.5,3664.5 2789.5,3664.5C 2789.5,3730.83 2789.5,3797.17 2789.5,3863.5C 2773.17,3863.5 2756.83,3863.5 2740.5,3863.5C 2740.17,3797.1 2740.5,3730.76 2741.5,3664.5 Z"/></g>
<g><path style="opacity:0.971" fill="#000000" d="M 2819.5,3664.5 C 2868.83,3664.5 2918.17,3664.5 2967.5,3664.5C 2967.5,3677.17 2967.5,3689.83 2967.5,3702.5C 2934.17,3702.5 2900.83,3702.5 2867.5,3702.5C 2867.5,3716.17 2867.5,3729.83 2867.5,3743.5C 2899.17,3743.33 2930.84,3743.5 2962.5,3744C 2963.83,3756 2963.83,3768 2962.5,3780C 2930.84,3780.5 2899.17,3780.67 2867.5,3780.5C 2867.5,3795.5 2867.5,3810.5 2867.5,3825.5C 2900.83,3825.5 2934.17,3825.5 2967.5,3825.5C 2967.5,3838.17 2967.5,3850.83 2967.5,3863.5C 2917.83,3863.5 2868.17,3863.5 2818.5,3863.5C 2818.24,3797.09 2818.57,3730.76 2819.5,3664.5 Z"/></g>
<g><path style="opacity:0.977" fill="#000000" d="M 3199.5,3664.5 C 3248.83,3664.33 3298.17,3664.5 3347.5,3665C 3348.83,3677.33 3348.83,3689.67 3347.5,3702C 3314.17,3702.5 3280.83,3702.67 3247.5,3702.5C 3247.5,3716.17 3247.5,3729.83 3247.5,3743.5C 3279.17,3743.33 3310.84,3743.5 3342.5,3744C 3343.83,3756 3343.83,3768 3342.5,3780C 3310.84,3780.5 3279.17,3780.67 3247.5,3780.5C 3247.5,3795.5 3247.5,3810.5 3247.5,3825.5C 3280.83,3825.33 3314.17,3825.5 3347.5,3826C 3348.49,3838.42 3348.82,3850.92 3348.5,3863.5C 3298.83,3863.5 3249.17,3863.5 3199.5,3863.5C 3199.5,3797.17 3199.5,3730.83 3199.5,3664.5 Z"/></g>
<g><path style="opacity:0.975" fill="#000000" d="M 3619.5,3664.5 C 3669.17,3664.5 3718.83,3664.5 3768.5,3664.5C 3768.5,3677.17 3768.5,3689.83 3768.5,3702.5C 3734.83,3702.5 3701.17,3702.5 3667.5,3702.5C 3667.5,3717.83 3667.5,3733.17 3667.5,3748.5C 3699.5,3748.5 3731.5,3748.5 3763.5,3748.5C 3763.5,3760.83 3763.5,3773.17 3763.5,3785.5C 3731.5,3785.5 3699.5,3785.5 3667.5,3785.5C 3667.5,3811.5 3667.5,3837.5 3667.5,3863.5C 3651.5,3863.5 3635.5,3863.5 3619.5,3863.5C 3619.5,3797.17 3619.5,3730.83 3619.5,3664.5 Z"/></g>
<g><path style="opacity:0.979" fill="#000000" d="M 4007.5,3664.5 C 4043.17,3664.33 4078.83,3664.5 4114.5,3665C 4161.87,3668.7 4183.71,3694.2 4180,3741.5C 4176.26,3765.23 4163.09,3781.07 4140.5,3789C 4155.63,3813.42 4170.63,3837.92 4185.5,3862.5C 4166.83,3863.83 4148.17,3863.83 4129.5,3862.5C 4116.63,3839.92 4103.63,3817.42 4090.5,3795C 4078.84,3794.5 4067.17,3794.33 4055.5,3794.5C 4055.5,3817.5 4055.5,3840.5 4055.5,3863.5C 4039.5,3863.5 4023.5,3863.5 4007.5,3863.5C 4007.5,3797.17 4007.5,3730.83 4007.5,3664.5 Z M 4055.5,3702.5 C 4072.5,3702.33 4089.5,3702.5 4106.5,3703C 4125.75,3706 4133.92,3717.16 4131,3736.5C 4128.19,3745.97 4122.03,3752.14 4112.5,3755C 4093.54,3756.42 4074.54,3756.92 4055.5,3756.5C 4055.5,3738.5 4055.5,3720.5 4055.5,3702.5 Z"/></g>
<g><path style="opacity:0.973" fill="#000000" d="M 4252.5,3664.5 C 4310.5,3664.5 4368.5,3664.5 4426.5,3664.5C 4426.5,3678.17 4426.5,3691.83 4426.5,3705.5C 4405.5,3705.5 4384.5,3705.5 4363.5,3705.5C 4363.5,3758.17 4363.5,3810.83 4363.5,3863.5C 4347.5,3863.5 4331.5,3863.5 4315.5,3863.5C 4315.5,3810.83 4315.5,3758.17 4315.5,3705.5C 4294.5,3705.5 4273.5,3705.5 4252.5,3705.5C 4252.5,3691.83 4252.5,3678.17 4252.5,3664.5 Z"/></g>
<g><path style="opacity:0.982" fill="#000000" d="M 4447.5,3664.5 C 4463.5,3664.5 4479.5,3664.5 4495.5,3664.5C 4495.5,3690.83 4495.5,3717.17 4495.5,3743.5C 4522.5,3743.5 4549.5,3743.5 4576.5,3743.5C 4576.5,3717.17 4576.5,3690.83 4576.5,3664.5C 4592.5,3664.5 4608.5,3664.5 4624.5,3664.5C 4624.5,3730.83 4624.5,3797.17 4624.5,3863.5C 4608.5,3863.5 4592.5,3863.5 4576.5,3863.5C 4576.5,3836.5 4576.5,3809.5 4576.5,3782.5C 4549.5,3782.5 4522.5,3782.5 4495.5,3782.5C 4495.5,3809.5 4495.5,3836.5 4495.5,3863.5C 4479.5,3863.5 4463.5,3863.5 4447.5,3863.5C 4447.5,3797.17 4447.5,3730.83 4447.5,3664.5 Z"/></g>
<g><path style="opacity:0.973" fill="#000000" d="M 4653.5,3664.5 C 4703.17,3664.5 4752.83,3664.5 4802.5,3664.5C 4802.5,3677.17 4802.5,3689.83 4802.5,3702.5C 4769.17,3702.5 4735.83,3702.5 4702.5,3702.5C 4702.5,3716.17 4702.5,3729.83 4702.5,3743.5C 4734.17,3743.5 4765.83,3743.5 4797.5,3743.5C 4797.5,3755.83 4797.5,3768.17 4797.5,3780.5C 4765.83,3780.5 4734.17,3780.5 4702.5,3780.5C 4702.5,3795.5 4702.5,3810.5 4702.5,3825.5C 4735.83,3825.5 4769.17,3825.5 4802.5,3825.5C 4802.5,3838.17 4802.5,3850.83 4802.5,3863.5C 4752.83,3863.5 4703.17,3863.5 4653.5,3863.5C 4653.5,3797.17 4653.5,3730.83 4653.5,3664.5 Z"/></g>
<g><path style="opacity:0.974" fill="#000000" d="M 4885.5,3664.5 C 4903.85,3664.17 4922.18,3664.5 4940.5,3665.5C 4966.33,3709.17 4992.17,3752.83 5018,3796.5C 5018.5,3752.5 5018.67,3708.5 5018.5,3664.5C 5033.41,3664.18 5048.24,3664.51 5063,3665.5C 5063.5,3731.5 5063.67,3797.5 5063.5,3863.5C 5045.5,3863.67 5027.5,3863.5 5009.5,3863C 4982.87,3818.25 4956.37,3773.42 4930,3728.5C 4929.5,3773.5 4929.33,3818.5 4929.5,3863.5C 4914.83,3863.5 4900.17,3863.5 4885.5,3863.5C 4885.5,3797.17 4885.5,3730.83 4885.5,3664.5 Z"/></g>
<g><path style="opacity:0.979" fill="#000000" d="M 5310.5,3664.5 C 5328.84,3664.33 5347.17,3664.5 5365.5,3665C 5391.67,3709.17 5417.83,3753.33 5444,3797.5C 5444.5,3753.17 5444.67,3708.83 5444.5,3664.5C 5459.17,3664.5 5473.83,3664.5 5488.5,3664.5C 5488.5,3730.83 5488.5,3797.17 5488.5,3863.5C 5470.26,3863.83 5452.09,3863.49 5434,3862.5C 5407.67,3817.83 5381.33,3773.17 5355,3728.5C 5354.5,3773.5 5354.33,3818.5 5354.5,3863.5C 5339.83,3863.5 5325.17,3863.5 5310.5,3863.5C 5310.5,3797.17 5310.5,3730.83 5310.5,3664.5 Z"/></g>
<g><path style="opacity:0.974" fill="#000000" d="M 5943.5,3664.5 C 5961.84,3664.33 5980.17,3664.5 5998.5,3665C 6024.79,3709.08 6050.96,3753.25 6077,3797.5C 6077.5,3753.17 6077.67,3708.83 6077.5,3664.5C 6092.17,3664.5 6106.83,3664.5 6121.5,3664.5C 6121.5,3730.83 6121.5,3797.17 6121.5,3863.5C 6103.49,3863.83 6085.49,3863.5 6067.5,3862.5C 6041.33,3818.17 6015.17,3773.83 5989,3729.5C 5988.5,3774.17 5988.33,3818.83 5988.5,3863.5C 5973.5,3863.5 5958.5,3863.5 5943.5,3863.5C 5943.5,3797.17 5943.5,3730.83 5943.5,3664.5 Z"/></g>
<g><path style="opacity:0.975" fill="#000000" d="M 6151.5,3664.5 C 6201.17,3664.5 6250.83,3664.5 6300.5,3664.5C 6300.5,3677.17 6300.5,3689.83 6300.5,3702.5C 6266.83,3702.5 6233.17,3702.5 6199.5,3702.5C 6199.5,3717.83 6199.5,3733.17 6199.5,3748.5C 6231.5,3748.5 6263.5,3748.5 6295.5,3748.5C 6295.5,3760.83 6295.5,3773.17 6295.5,3785.5C 6263.5,3785.5 6231.5,3785.5 6199.5,3785.5C 6199.5,3811.5 6199.5,3837.5 6199.5,3863.5C 6183.5,3863.5 6167.5,3863.5 6151.5,3863.5C 6151.5,3797.17 6151.5,3730.83 6151.5,3664.5 Z"/></g>
<g><path style="opacity:0.979" fill="#000000" d="M 6539.5,3664.5 C 6575.17,3664.33 6610.83,3664.5 6646.5,3665C 6693.87,3668.7 6715.7,3694.2 6712,3741.5C 6708.26,3765.23 6695.09,3781.07 6672.5,3789C 6687.63,3813.42 6702.63,3837.92 6717.5,3862.5C 6698.83,3863.83 6680.17,3863.83 6661.5,3862.5C 6648.63,3839.92 6635.63,3817.42 6622.5,3795C 6610.84,3794.5 6599.17,3794.33 6587.5,3794.5C 6587.5,3817.5 6587.5,3840.5 6587.5,3863.5C 6571.5,3863.5 6555.5,3863.5 6539.5,3863.5C 6539.5,3797.17 6539.5,3730.83 6539.5,3664.5 Z M 6587.5,3702.5 C 6604.5,3702.33 6621.5,3702.5 6638.5,3703C 6659.03,3706.87 6666.86,3719.04 6662,3739.5C 6658.7,3747.47 6652.87,3752.63 6644.5,3755C 6625.54,3756.42 6606.54,3756.92 6587.5,3756.5C 6587.5,3738.5 6587.5,3720.5 6587.5,3702.5 Z"/></g>
<g><path style="opacity:0.98" fill="#000000" d="M 6735.5,3664.5 C 6758.84,3664.17 6782.18,3664.5 6805.5,3665.5C 6817.53,3707.61 6829.86,3749.61 6842.5,3791.5C 6854.83,3749.51 6867.17,3707.51 6879.5,3665.5C 6902.82,3664.5 6926.16,3664.17 6949.5,3664.5C 6949.5,3730.83 6949.5,3797.17 6949.5,3863.5C 6934.5,3863.5 6919.5,3863.5 6904.5,3863.5C 6904.67,3816.17 6904.5,3768.83 6904,3721.5C 6889.27,3768.54 6874.43,3815.54 6859.5,3862.5C 6847.52,3863.5 6835.52,3863.83 6823.5,3863.5C 6809.47,3816.39 6794.97,3769.39 6780,3722.5C 6779.5,3769.5 6779.33,3816.5 6779.5,3863.5C 6764.83,3863.5 6750.17,3863.5 6735.5,3863.5C 6735.5,3797.17 6735.5,3730.83 6735.5,3664.5 Z"/></g>
<g><path style="opacity:0.981" fill="#000000" d="M 6979.5,3664.5 C 6995.5,3664.5 7011.5,3664.5 7027.5,3664.5C 7027.5,3730.83 7027.5,3797.17 7027.5,3863.5C 7011.5,3863.5 6995.5,3863.5 6979.5,3863.5C 6979.5,3797.17 6979.5,3730.83 6979.5,3664.5 Z"/></g>
<g><path style="opacity:0.973" fill="#000000" d="M 7230.5,3664.5 C 7288.5,3664.5 7346.5,3664.5 7404.5,3664.5C 7404.5,3678.17 7404.5,3691.83 7404.5,3705.5C 7383.5,3705.5 7362.5,3705.5 7341.5,3705.5C 7341.5,3758.17 7341.5,3810.83 7341.5,3863.5C 7325.5,3863.5 7309.5,3863.5 7293.5,3863.5C 7293.5,3810.83 7293.5,3758.17 7293.5,3705.5C 7272.5,3705.5 7251.5,3705.5 7230.5,3705.5C 7230.5,3691.83 7230.5,3678.17 7230.5,3664.5 Z"/></g>
<g><path style="opacity:0.977" fill="#000000" d="M 7378.5,3817.5 C 7395.17,3817.5 7411.83,3817.5 7428.5,3817.5C 7428.5,3832.83 7428.5,3848.17 7428.5,3863.5C 7411.83,3863.5 7395.17,3863.5 7378.5,3863.5C 7378.5,3848.17 7378.5,3832.83 7378.5,3817.5 Z"/></g>
</svg>