<svg xmlns="http://www.w3.org/2000/svg" xmlns:xlink="http://www.w3.org/1999/xlink" version="1.1" style="shape-rendering:geometricPrecision; text-rendering:geometricPrecision; image-rendering:optimizeQuality; fill-rule:evenodd; clip-rule:evenodd" viewBox="27.5 2795.5 7436 1915">
<g><path style="opacity:1" fill="#0000de" d="M 27.5,2795.5 C 2506.17,2795.5 4984.83,2795.5 7463.5,2795.5C 7463.5,3433.83 7463.5,4072.17 7463.5,4710.5C 4984.83,4710.5 2506.17,4710.5 27.5,4710.5C 27.5,4072.17 27.5,3433.83 27.5,2795.5 Z"/></g>
<g><path style="opacity:1" fill="#fefefe" d="M 2007.5,3551.5 C 2043.46,3548.89 2078.46,3553.39 2112.5,3565C 2164.83,3587.5 2196.83,3626.67 2208.5,3682.5C 2178.85,3684.68 2149.18,3686.68 2119.5,3688.5C 2112.97,3651.64 2091.3,3629.47 2054.5,3622C 2027.05,3616.06 2001.05,3619.73 1976.5,3633C 1953.22,3649.96 1947.72,3671.46 1960,3697.5C 1972.07,3708.79 1986.24,3716.29 2002.5,3720C 2029.1,3726.65 2055.76,3732.98 2082.5,3739C 2109.45,3745.87 2135.78,3754.54 2161.5,3765C 2202.06,3787.79 2221.73,3822.63 2220.5,3869.5C 2219.94,3924.8 2194.27,3963.3 2143.5,3985C 2080.6,4007.93 2017.27,4009.26 1953.5,3989C 1893.15,3966.48 1858.48,3923.31 1849.5,3859.5C 1879.53,3856.72 1909.53,3853.72 1939.5,3850.5C 1944.91,3896.08 1970.25,3923.25 2015.5,3932C 2042.17,3936.8 2068.17,3934.47 2093.5,3925C 2121.74,3912.01 2132.58,3890.18 2126,3859.5C 2120.53,3846.03 2111.03,3836.53 2097.5,3831C 2088.91,3827.8 2080.24,3824.8 2071.5,3822C 2038.47,3813.83 2005.47,3805.49 1972.5,3797C 1951.31,3791.16 1930.97,3783.16 1911.5,3773C 1881.64,3753.8 1865.8,3726.3 1864,3690.5C 1860.08,3649.23 1873.91,3615.4 1905.5,3589C 1936.06,3567.22 1970.06,3554.72 2007.5,3551.5 Z"/></g>
<g><path style="opacity:1" fill="#fefefe" d="M 3037.5,3551.5 C 3083.04,3548.31 3126.04,3557.14 3166.5,3578C 3212.7,3605.56 3243.2,3645.4 3258,3697.5C 3267.02,3732.29 3270.02,3767.62 3267,3803.5C 3263.83,3862.32 3241.33,3912.16 3199.5,3953C 3164.89,3982 3124.89,3998.33 3079.5,4002C 3030.99,4007.1 2985.32,3998.1 2942.5,3975C 2893.47,3944.25 2862.63,3900.42 2850,3843.5C 2843.84,3812.12 2841.84,3780.46 2844,3748.5C 2848.14,3690.41 2870.97,3641.24 2912.5,3601C 2948.66,3570.67 2990.33,3554.17 3037.5,3551.5 Z"/></g>
<g><path style="opacity:1" fill="#fefefe" d="M 4766.5,3551.5 C 4813.54,3548.05 4857.87,3557.21 4899.5,3579C 4944.34,3606.54 4974.17,3645.7 4989,3696.5C 5001.48,3744.82 5002.81,3793.49 4993,3842.5C 4969.15,3938.02 4908.32,3991.19 4810.5,4002C 4763.62,4007.02 4719.28,3998.69 4677.5,3977C 4630.22,3948.69 4599.05,3907.85 4584,3854.5C 4572.58,3807.06 4571.58,3759.39 4581,3711.5C 4606,3615.32 4667.84,3561.99 4766.5,3551.5 Z"/></g>
<g><path style="opacity:1" fill="#7f7fed" d="M 5554.5,3561.5 C 5585.67,3560.17 5617,3560.17 5648.5,3561.5C 5648.38,3562.11 5648.04,3562.44 5647.5,3562.5C 5616.67,3561.5 5585.67,3561.17 5554.5,3561.5 Z"/></g>
<g><path style="opacity:1" fill="#fefefe" d="M 2344.5,3561.5 C 2374.5,3561.5 2404.5,3561.5 2434.5,3561.5C 2434.17,3620.34 2434.5,3679 2435.5,3737.5C 2499.17,3737.5 2562.83,3737.5 2626.5,3737.5C 2627.5,3679 2627.83,3620.34 2627.5,3561.5C 2657.5,3561.5 2687.5,3561.5 2717.5,3561.5C 2717.5,3705.5 2717.5,3849.5 2717.5,3993.5C 2687.17,3993.5 2656.83,3993.5 2626.5,3993.5C 2626.5,3932.83 2626.5,3872.17 2626.5,3811.5C 2562.83,3811.5 2499.17,3811.5 2435.5,3811.5C 2435.5,3872.17 2435.5,3932.83 2435.5,3993.5C 2405.17,3993.5 2374.83,3993.5 2344.5,3993.5C 2344.5,3849.5 2344.5,3705.5 2344.5,3561.5 Z"/></g>
<g><path style="opacity:1" fill="#bebcf6" d="M 2344.5,3561.5 C 2374.66,3560.5 2405,3560.17 2435.5,3560.5C 2435.5,3619.5 2435.5,3678.5 2435.5,3737.5C 2434.5,3679 2434.17,3620.34 2434.5,3561.5C 2404.5,3561.5 2374.5,3561.5 2344.5,3561.5 Z"/></g>
<g><path style="opacity:1" fill="#bebbf6" d="M 2717.5,3561.5 C 2687.5,3561.5 2657.5,3561.5 2627.5,3561.5C 2627.83,3620.34 2627.5,3679 2626.5,3737.5C 2626.5,3678.5 2626.5,3619.5 2626.5,3560.5C 2657,3560.17 2687.34,3560.5 2717.5,3561.5 Z"/></g>
<g><path style="opacity:1" fill="#fefefe" d="M 3393.5,3561.5 C 3467.17,3561.33 3540.83,3561.5 3614.5,3562C 3648.97,3563.48 3679.64,3574.82 3706.5,3596C 3736.2,3623.76 3750.54,3658.09 3749.5,3699C 3747.76,3781.08 3706.1,3827.75 3624.5,3839C 3577.86,3840.45 3531.19,3840.95 3484.5,3840.5C 3484.5,3891.5 3484.5,3942.5 3484.5,3993.5C 3454.17,3993.5 3423.83,3993.5 3393.5,3993.5C 3393.5,3849.5 3393.5,3705.5 3393.5,3561.5 Z"/></g>
<g><path style="opacity:1" fill="#fdfdfe" d="M 4073.5,3561.5 C 4108.41,3561.17 4143.24,3561.5 4178,3562.5C 4239.67,3663.17 4301.33,3763.83 4363,3864.5C 4364.01,3865.34 4365.18,3865.67 4366.5,3865.5C 4366.5,3764.17 4366.5,3662.83 4366.5,3561.5C 4394.5,3561.5 4422.5,3561.5 4450.5,3561.5C 4450.5,3705.5 4450.5,3849.5 4450.5,3993.5C 4416.83,3993.67 4383.17,3993.5 4349.5,3993C 4286.87,3890.92 4224.37,3788.75 4162,3686.5C 4161.09,3684.56 4159.59,3683.56 4157.5,3683.5C 4157.5,3786.83 4157.5,3890.17 4157.5,3993.5C 4129.5,3993.5 4101.5,3993.5 4073.5,3993.5C 4073.5,3849.5 4073.5,3705.5 4073.5,3561.5 Z"/></g>
<g><path style="opacity:1" fill="#fefefe" d="M 5554.5,3561.5 C 5585.67,3561.17 5616.67,3561.5 5647.5,3562.5C 5612.69,3706.06 5578.36,3849.72 5544.5,3993.5C 5507.83,3993.5 5471.17,3993.5 5434.5,3993.5C 5412.62,3888.89 5390.95,3784.22 5369.5,3679.5C 5368.18,3679.33 5367.01,3679.66 5366,3680.5C 5344.43,3784.83 5322.93,3889.17 5301.5,3993.5C 5264.83,3993.5 5228.17,3993.5 5191.5,3993.5C 5156.83,3849.83 5122.17,3706.17 5087.5,3562.5C 5118.73,3561.17 5149.9,3561.17 5181,3562.5C 5203.36,3669.82 5225.53,3777.15 5247.5,3884.5C 5248.5,3884.5 5249.5,3884.5 5250.5,3884.5C 5272.07,3776.82 5293.74,3669.15 5315.5,3561.5C 5349.83,3561.5 5384.17,3561.5 5418.5,3561.5C 5440.27,3669.15 5461.94,3776.81 5483.5,3884.5C 5485.12,3884.64 5486.29,3883.97 5487,3882.5C 5508.95,3775.24 5531.45,3668.24 5554.5,3561.5 Z"/></g>
<g><path style="opacity:1" fill="#0201de" d="M 3041.5,3624.5 C 3105.9,3621.43 3148.07,3650.43 3168,3711.5C 3175.13,3740.42 3177.46,3769.75 3175,3799.5C 3173.54,3824.35 3167.54,3848.01 3157,3870.5C 3130.27,3915.11 3090.77,3934.61 3038.5,3929C 2994.28,3921.78 2964.11,3897.28 2948,3855.5C 2931.33,3803.15 2931.33,3750.81 2948,3698.5C 2965.24,3656.09 2996.4,3631.42 3041.5,3624.5 Z"/></g>
<g><path style="opacity:1" fill="#0100de" d="M 4772.5,3624.5 C 4838,3621.48 4880.5,3651.15 4900,3713.5C 4910.27,3756.89 4909.93,3800.22 4899,3843.5C 4884.38,3893.12 4851.55,3921.62 4800.5,3929C 4735.62,3932.78 4693.79,3903.61 4675,3841.5C 4667.46,3808.19 4665.46,3774.53 4669,3740.5C 4671.96,3712.28 4681.96,3686.94 4699,3664.5C 4718.58,3642.13 4743.08,3628.79 4772.5,3624.5 Z"/></g>
<g><path style="opacity:1" fill="#0402de" d="M 3484.5,3632.5 C 3519.17,3632.33 3553.83,3632.5 3588.5,3633C 3639.04,3638.2 3661.54,3666.03 3656,3716.5C 3649.89,3743.83 3633.06,3760.33 3605.5,3766C 3600.86,3766.83 3596.19,3767.5 3591.5,3768C 3555.83,3768.5 3520.17,3768.67 3484.5,3768.5C 3484.5,3723.17 3484.5,3677.83 3484.5,3632.5 Z"/></g>
</svg>