<svg xmlns="http://www.w3.org/2000/svg" xmlns:xlink="http://www.w3.org/1999/xlink" version="1.1" style="shape-rendering:geometricPrecision; text-rendering:geometricPrecision; image-rendering:optimizeQuality; fill-rule:evenodd; clip-rule:evenodd" viewBox="108.5 3201.77 7320.85 891.22">
<g><path style="opacity:0.99" fill="#000000" d="M 3753.5,3202.5 C 3800.93,3198.96 3845.6,3208.29 3887.5,3230.5C 3888.8,3269.45 3888.64,3308.12 3887,3346.5C 3869.82,3332.99 3850.98,3322.15 3830.5,3314C 3789.5,3300.6 3752.83,3307.93 3720.5,3336C 3695.29,3364.3 3684.46,3397.46 3688,3435.5C 3690.1,3457.47 3696.43,3478.13 3707,3497.5C 3714.89,3510.72 3723.55,3523.38 3733,3535.5C 3743.62,3547.95 3754.78,3559.95 3766.5,3571.5C 3792.51,3596.68 3818.01,3622.35 3843,3648.5C 3868.41,3676.6 3889.08,3707.94 3905,3742.5C 3928.18,3799.33 3934.51,3858 3924,3918.5C 3914.45,3969.45 3890.95,4012.61 3853.5,4048C 3811.09,4082.45 3762.42,4097.12 3707.5,4092C 3667.45,4089.1 3631.62,4075.6 3600,4051.5C 3599.17,4012.5 3599.33,3973.5 3600.5,3934.5C 3615.32,3945.08 3630.66,3954.92 3646.5,3964C 3674.73,3978.08 3704.4,3982.75 3735.5,3978C 3773.35,3968.48 3797.85,3944.98 3809,3907.5C 3821.24,3857.16 3813.9,3809.83 3787,3765.5C 3773.58,3744.9 3758.08,3725.9 3740.5,3708.5C 3710.49,3679.99 3680.99,3650.99 3652,3621.5C 3582.7,3545.98 3558.36,3457.65 3579,3356.5C 3600.28,3263.03 3658.45,3211.7 3753.5,3202.5 Z"/></g>
<g><path style="opacity:0.989" fill="#000000" d="M 4156.5,3202.5 C 4203.94,3198.96 4248.61,3208.29 4290.5,3230.5C 4291.92,3269.18 4291.59,3307.85 4289.5,3346.5C 4267.06,3327.61 4241.39,3315.11 4212.5,3309C 4152.58,3303.62 4113.41,3329.45 4095,3386.5C 4085.84,3425.4 4090.84,3462.4 4110,3497.5C 4121.47,3517.44 4135.14,3535.77 4151,3552.5C 4182.97,3584.14 4214.64,3616.14 4246,3648.5C 4271.44,3676.62 4292.11,3707.96 4308,3742.5C 4334.03,3806.66 4338.69,3872.32 4322,3939.5C 4309.32,3988.13 4283.16,4027.63 4243.5,4058C 4203.42,4085.16 4159.09,4096.49 4110.5,4092C 4070.52,4089.12 4034.69,4075.62 4003,4051.5C 4002.17,4012.5 4002.33,3973.5 4003.5,3934.5C 4024.96,3952.07 4048.96,3965.24 4075.5,3974C 4108.02,3984.55 4139.35,3981.88 4169.5,3966C 4190.59,3951.57 4204.76,3932.07 4212,3907.5C 4224.44,3855.79 4216.44,3807.45 4188,3762.5C 4174.2,3742.52 4158.7,3723.85 4141.5,3706.5C 4109.13,3675.96 4077.63,3644.63 4047,3612.5C 3985.75,3541.54 3963.42,3459.54 3980,3366.5C 3988.25,3315.65 4011.75,3273.48 4050.5,3240C 4082.23,3217.26 4117.56,3204.76 4156.5,3202.5 Z"/></g>
<g><path style="opacity:0.991" fill="#000000" d="M 6701.5,3202.5 C 6809.27,3197.42 6880.1,3245.75 6914,3347.5C 6925.84,3386.04 6933.84,3425.37 6938,3465.5C 6941.45,3495.75 6943.79,3526.08 6945,3556.5C 6948.7,3637.56 6947.7,3718.56 6942,3799.5C 6938.51,3855.62 6927.84,3910.29 6910,3963.5C 6882.15,4043.33 6825.99,4086.17 6741.5,4092C 6631.55,4097.48 6560.05,4047.98 6527,3943.5C 6516.55,3907.13 6509.22,3870.13 6505,3832.5C 6501.01,3797.94 6498.34,3763.27 6497,3728.5C 6493.3,3647.18 6494.3,3565.18 6500,3482.5C 6503.76,3430.35 6514.43,3379.68 6532,3330.5C 6560.58,3250.74 6617.08,3208.08 6701.5,3202.5 Z M 6719.5,3308.5 C 6748.93,3308.34 6771.76,3320.34 6788,3344.5C 6794.36,3355.56 6799.36,3367.22 6803,3379.5C 6815.9,3434.06 6822.57,3489.39 6823,3545.5C 6823.67,3609.83 6823.67,3674.17 6823,3738.5C 6822.34,3785.41 6818.67,3832.08 6812,3878.5C 6808.71,3903.03 6801.05,3926.03 6789,3947.5C 6766.34,3978.39 6736.18,3989.56 6698.5,3981C 6678.29,3975.13 6663.13,3962.96 6653,3944.5C 6641.17,3921.51 6633.5,3897.18 6630,3871.5C 6623.69,3830.07 6620.02,3788.4 6619,3746.5C 6618.33,3673.17 6618.33,3599.83 6619,3526.5C 6619.93,3493.69 6622.6,3461.02 6627,3428.5C 6630.11,3402.38 6637.11,3377.38 6648,3353.5C 6657.28,3335.56 6671.11,3322.39 6689.5,3314C 6699.4,3310.78 6709.4,3308.95 6719.5,3308.5 Z"/></g>
<g><path style="opacity:0.992" fill="#000000" d="M 108.5,3213.5 C 145.406,3213.17 182.239,3213.5 219,3214.5C 262.204,3339.44 304.204,3464.78 345,3590.5C 372.841,3678.69 397.841,3767.69 420,3857.5C 414.677,3812.24 409.677,3766.91 405,3721.5C 401.386,3684.23 398.719,3646.9 397,3609.5C 395.555,3477.51 395.055,3345.51 395.5,3213.5C 434.833,3213.5 474.167,3213.5 513.5,3213.5C 513.5,3502.5 513.5,3791.5 513.5,4080.5C 476.594,4080.83 439.761,4080.5 403,4079.5C 347.393,3917.35 293.393,3754.68 241,3591.5C 234.71,3570.34 229.043,3549.01 224,3527.5C 217.474,3494.4 210.474,3461.4 203,3428.5C 212.73,3562.62 218.73,3696.96 221,3831.5C 222.6,3914.49 223.767,3997.49 224.5,4080.5C 185.833,4080.5 147.167,4080.5 108.5,4080.5C 108.5,3791.5 108.5,3502.5 108.5,3213.5 Z"/></g>
<g><path style="opacity:0.994" fill="#000000" d="M 645.5,3213.5 C 749.167,3213.5 852.833,3213.5 956.5,3213.5C 956.5,3246.5 956.5,3279.5 956.5,3312.5C 892.167,3312.5 827.833,3312.5 763.5,3312.5C 763.5,3404.17 763.5,3495.83 763.5,3587.5C 820.5,3587.5 877.5,3587.5 934.5,3587.5C 934.5,3620.83 934.5,3654.17 934.5,3687.5C 877.5,3687.5 820.5,3687.5 763.5,3687.5C 763.5,3785.5 763.5,3883.5 763.5,3981.5C 827.833,3981.5 892.167,3981.5 956.5,3981.5C 956.5,4014.5 956.5,4047.5 956.5,4080.5C 852.833,4080.5 749.167,4080.5 645.5,4080.5C 645.5,3791.5 645.5,3502.5 645.5,3213.5 Z"/></g>
<g><path style="opacity:0.99" fill="#000000" d="M 993.5,3213.5 C 1032.5,3213.5 1071.5,3213.5 1110.5,3213.5C 1145.31,3427.33 1178.47,3641.33 1210,3855.5C 1211.85,3833.4 1214.51,3811.4 1218,3789.5C 1229.87,3718.97 1240.87,3648.3 1251,3577.5C 1272.06,3456.14 1293.23,3334.8 1314.5,3213.5C 1351.17,3213.5 1387.83,3213.5 1424.5,3213.5C 1368.09,3502.55 1311.42,3791.55 1254.5,4080.5C 1223.17,4080.5 1191.83,4080.5 1160.5,4080.5C 1105.22,3791.43 1049.55,3502.43 993.5,3213.5 Z"/></g>
<g><path style="opacity:0.993" fill="#000000" d="M 1487.5,3213.5 C 1591.5,3213.5 1695.5,3213.5 1799.5,3213.5C 1799.5,3246.5 1799.5,3279.5 1799.5,3312.5C 1734.83,3312.5 1670.17,3312.5 1605.5,3312.5C 1605.5,3404.17 1605.5,3495.83 1605.5,3587.5C 1662.5,3587.5 1719.5,3587.5 1776.5,3587.5C 1776.5,3620.83 1776.5,3654.17 1776.5,3687.5C 1719.5,3687.5 1662.5,3687.5 1605.5,3687.5C 1605.5,3785.5 1605.5,3883.5 1605.5,3981.5C 1670.17,3981.5 1734.83,3981.5 1799.5,3981.5C 1799.5,4014.5 1799.5,4047.5 1799.5,4080.5C 1695.5,4080.5 1591.5,4080.5 1487.5,4080.5C 1487.5,3791.5 1487.5,3502.5 1487.5,3213.5 Z"/></g>
<g><path style="opacity:0.991" fill="#000000" d="M 1904.5,3213.5 C 1968.17,3213.33 2031.83,3213.5 2095.5,3214C 2165.41,3218.86 2213.58,3253.7 2240,3318.5C 2255.99,3363.79 2262.66,3410.46 2260,3458.5C 2258.86,3497.22 2251.19,3534.55 2237,3570.5C 2223.32,3603.5 2201.16,3629 2170.5,3647C 2159.63,3652.46 2148.3,3656.62 2136.5,3659.5C 2190.59,3799.69 2245.26,3939.69 2300.5,4079.5C 2260.17,4080.83 2219.83,4080.83 2179.5,4079.5C 2127.43,3946.13 2075.26,3812.79 2023,3679.5C 2022.5,3813.17 2022.33,3946.83 2022.5,4080.5C 1983.17,4080.5 1943.83,4080.5 1904.5,4080.5C 1904.5,3791.5 1904.5,3502.5 1904.5,3213.5 Z M 2022.5,3310.5 C 2036.17,3310.33 2049.84,3310.5 2063.5,3311C 2092.03,3312.84 2112.87,3326.34 2126,3351.5C 2140.42,3386.51 2147.25,3423.01 2146.5,3461C 2147.32,3493.59 2140.48,3524.42 2126,3553.5C 2110.4,3579.06 2087.57,3593.22 2057.5,3596C 2045.87,3597.23 2034.2,3597.73 2022.5,3597.5C 2022.5,3501.83 2022.5,3406.17 2022.5,3310.5 Z"/></g>
<g><path style="opacity:0.991" fill="#000000" d="M 2733.5,3213.5 C 2767.5,3213.5 2801.5,3213.5 2835.5,3213.5C 2864.83,3354.66 2895,3495.66 2926,3636.5C 2937.73,3701.57 2947.73,3766.9 2956,3832.5C 2968.85,3761.04 2980.52,3689.38 2991,3617.5C 3018.33,3482.99 3044.83,3348.33 3070.5,3213.5C 3104.89,3212.84 3139.06,3213.51 3173,3215.5C 3199.8,3503.84 3226.64,3792.18 3253.5,4080.5C 3215.5,4080.5 3177.5,4080.5 3139.5,4080.5C 3127.38,3919.34 3118.22,3758.01 3112,3596.5C 3111.87,3573.79 3112.04,3551.29 3112.5,3529C 3111.72,3515.86 3110.55,3502.69 3109,3489.5C 3096.85,3561.58 3084.18,3633.58 3071,3705.5C 3047.13,3829.86 3023.13,3954.19 2999,4078.5C 2972.73,4080.49 2946.23,4081.15 2919.5,4080.5C 2892.38,3956.39 2866.21,3832.05 2841,3707.5C 2826.95,3635.22 2815.29,3562.55 2806,3489.5C 2794.91,3686.51 2783.74,3883.51 2772.5,4080.5C 2735.83,4080.5 2699.17,4080.5 2662.5,4080.5C 2686.44,3791.52 2710.11,3502.52 2733.5,3213.5 Z"/></g>
<g><path style="opacity:0.992" fill="#000000" d="M 3347.5,3213.5 C 3386.83,3213.5 3426.17,3213.5 3465.5,3213.5C 3465.5,3502.5 3465.5,3791.5 3465.5,4080.5C 3426.17,4080.5 3386.83,4080.5 3347.5,4080.5C 3347.5,3791.5 3347.5,3502.5 3347.5,3213.5 Z"/></g>
<g><path style="opacity:0.99" fill="#000000" d="M 4855.5,3213.5 C 4886.83,3213.5 4918.17,3213.5 4949.5,3213.5C 5010.45,3502.25 5071.78,3790.91 5133.5,4079.5C 5094.51,4080.5 5055.51,4080.83 5016.5,4080.5C 5006.28,4024.55 4995.61,3968.72 4984.5,3913C 4927.5,3912.5 4870.5,3912.33 4813.5,3912.5C 4802.96,3968.52 4792.3,4024.52 4781.5,4080.5C 4743.5,4080.5 4705.5,4080.5 4667.5,4080.5C 4730.17,3791.5 4792.83,3502.5 4855.5,3213.5 Z M 4899.5,3390.5 C 4917.81,3534.35 4940.47,3677.68 4967.5,3820.5C 4921.84,3821.67 4876.17,3821.83 4830.5,3821C 4854.17,3704.14 4874.34,3586.64 4891,3468.5C 4894.66,3442.58 4897.49,3416.58 4899.5,3390.5 Z"/></g>
<g><path style="opacity:0.992" fill="#000000" d="M 5503.5,3213.5 C 5564.17,3213.33 5624.83,3213.5 5685.5,3214C 5744.08,3214.61 5793.24,3236.11 5833,3278.5C 5858.38,3306.91 5877.38,3339.25 5890,3375.5C 5905.14,3421.66 5914.47,3468.99 5918,3517.5C 5921.61,3564.26 5923.11,3611.1 5922.5,3658C 5923.83,3716.42 5920.66,3774.59 5913,3832.5C 5907.61,3872.66 5896.95,3911.32 5881,3948.5C 5856.36,4006.14 5814.19,4044.64 5754.5,4064C 5721.51,4073.52 5687.84,4078.86 5653.5,4080C 5603.5,4080.5 5553.5,4080.67 5503.5,4080.5C 5503.5,3791.5 5503.5,3502.5 5503.5,3213.5 Z M 5621.5,3312.5 C 5707.6,3307.46 5760.44,3346.8 5780,3430.5C 5786.72,3458.49 5791.39,3486.82 5794,3515.5C 5796.48,3544.69 5798.32,3573.85 5799.5,3603C 5799.65,3641.63 5799.49,3680.46 5799,3719.5C 5798.35,3767.38 5793.01,3814.71 5783,3861.5C 5776.66,3888.85 5764.99,3913.51 5748,3935.5C 5726.18,3958.66 5699.35,3972.16 5667.5,3976C 5652.24,3978.07 5636.9,3978.9 5621.5,3978.5C 5621.5,3756.5 5621.5,3534.5 5621.5,3312.5 Z"/></g>
<g><path style="opacity:0.992" fill="#000000" d="M 6037.5,3213.5 C 6101.17,3213.33 6164.83,3213.5 6228.5,3214C 6297.39,3218.85 6345.22,3253.02 6372,3316.5C 6387.07,3357.62 6394.23,3400.12 6393.5,3444C 6393.58,3487.68 6385.75,3529.85 6370,3570.5C 6355.94,3604.22 6333.11,3630.05 6301.5,3648C 6290.87,3652.99 6279.87,3656.99 6268.5,3660C 6323.63,3799.76 6378.63,3939.6 6433.5,4079.5C 6393.17,4080.83 6352.83,4080.83 6312.5,4079.5C 6260.33,3946.5 6208.17,3813.5 6156,3680.5C 6155.5,3813.83 6155.33,3947.17 6155.5,4080.5C 6116.17,4080.5 6076.83,4080.5 6037.5,4080.5C 6037.5,3791.5 6037.5,3502.5 6037.5,3213.5 Z M 6155.5,3310.5 C 6169.17,3310.33 6182.84,3310.5 6196.5,3311C 6227.85,3313.68 6249.68,3329.51 6262,3358.5C 6273.92,3391.41 6279.75,3425.41 6279.5,3460.5C 6279.75,3487.66 6275.25,3514 6266,3539.5C 6252,3573.16 6226.83,3591.99 6190.5,3596C 6178.87,3597.23 6167.2,3597.73 6155.5,3597.5C 6155.5,3501.83 6155.5,3406.17 6155.5,3310.5 Z"/></g>
<g><path style="opacity:0.992" fill="#000000" d="M 7061.5,3213.5 C 7126.83,3213.33 7192.17,3213.5 7257.5,3214C 7346.05,3222.22 7399.89,3269.72 7419,3356.5C 7433.44,3423.02 7432.78,3489.35 7417,3555.5C 7394.35,3638.47 7340.19,3684.31 7254.5,3693C 7229.56,3695.51 7204.56,3696.68 7179.5,3696.5C 7179.5,3824.5 7179.5,3952.5 7179.5,4080.5C 7140.17,4080.5 7100.83,4080.5 7061.5,4080.5C 7061.5,3791.5 7061.5,3502.5 7061.5,3213.5 Z M 7179.5,3312.5 C 7255.78,3308.27 7297.28,3344.27 7304,3420.5C 7308.3,3456.87 7306.3,3492.87 7298,3528.5C 7283.95,3569.51 7255.12,3591.35 7211.5,3594C 7200.86,3595.04 7190.19,3595.54 7179.5,3595.5C 7179.5,3501.17 7179.5,3406.83 7179.5,3312.5 Z"/></g>
</svg>