<svg xmlns="http://www.w3.org/2000/svg" xmlns:xlink="http://www.w3.org/1999/xlink" version="1.1" style="shape-rendering:geometricPrecision; text-rendering:geometricPrecision; image-rendering:optimizeQuality; fill-rule:evenodd; clip-rule:evenodd" viewBox="89.5 3309.28 7338.98 739.82">
<g><path style="opacity:0.991" fill="#000000" d="M 3789.5,3309.5 C 3837.95,3307.53 3882.95,3318.86 3924.5,3343.5C 3925.67,3390.16 3925.83,3436.83 3925,3483.5C 3906.91,3467.42 3886.75,3454.58 3864.5,3445C 3841.78,3436.37 3818.78,3435.37 3795.5,3442C 3772,3451.81 3758.17,3469.31 3754,3494.5C 3750.92,3524.25 3759.25,3550.25 3779,3572.5C 3787.2,3581.03 3795.7,3589.2 3804.5,3597C 3833.12,3617.95 3861.45,3639.28 3889.5,3661C 3946.71,3708.97 3972.54,3770.47 3967,3845.5C 3964.52,3896.29 3947.85,3941.63 3917,3981.5C 3881.42,4021.87 3836.59,4044.04 3782.5,4048C 3730.83,4052.27 3683.33,4040.44 3640,4012.5C 3639.17,3967.16 3639.33,3921.83 3640.5,3876.5C 3662.5,3892 3686.5,3903.5 3712.5,3911C 3735.05,3916.25 3757.38,3915.59 3779.5,3909C 3814.95,3893.64 3831.11,3866.48 3828,3827.5C 3826.68,3810.86 3820.68,3796.19 3810,3783.5C 3799.38,3772.54 3787.88,3762.71 3775.5,3754C 3749.62,3737.56 3724.62,3719.9 3700.5,3701C 3626.79,3641.24 3598.96,3564.41 3617,3470.5C 3626.38,3417.2 3652.21,3374.03 3694.5,3341C 3723.32,3321.72 3754.99,3311.22 3789.5,3309.5 Z"/></g>
<g><path style="opacity:0.991" fill="#000000" d="M 4186.5,3309.5 C 4234.86,3307.73 4279.86,3319.07 4321.5,3343.5C 4322.67,3390.16 4322.83,3436.83 4322,3483.5C 4303.93,3467.45 4283.77,3454.61 4261.5,3445C 4236.88,3435.56 4212.21,3435.22 4187.5,3444C 4167.19,3454.44 4155.02,3470.94 4151,3493.5C 4147.52,3527.9 4158.35,3556.9 4183.5,3580.5C 4189.68,3586.52 4196.02,3592.35 4202.5,3598C 4230.86,3618.51 4258.86,3639.51 4286.5,3661C 4343.03,3708.52 4368.86,3769.35 4364,3843.5C 4361.92,3903.12 4340.42,3954.29 4299.5,3997C 4254.12,4036.79 4201.12,4053.79 4140.5,4048C 4102.82,4045.11 4068.32,4033.27 4037,4012.5C 4036.17,3967.16 4036.33,3921.83 4037.5,3876.5C 4059.5,3892 4083.5,3903.5 4109.5,3911C 4137.22,3917.92 4163.89,3915.25 4189.5,3903C 4213.15,3886.88 4225.15,3864.38 4225.5,3835.5C 4225.34,3810.18 4215.68,3789.34 4196.5,3773C 4188.5,3766.67 4180.5,3760.33 4172.5,3754C 4144.78,3736.47 4118.11,3717.47 4092.5,3697C 4063.9,3673.41 4041.73,3644.91 4026,3611.5C 4007.9,3562.21 4004.57,3511.88 4016,3460.5C 4027.42,3407.1 4055.58,3365.27 4100.5,3335C 4127.28,3319.97 4155.95,3311.47 4186.5,3309.5 Z"/></g>
<g><path style="opacity:0.993" fill="#000000" d="M 6682.5,3309.5 C 6763.67,3310.67 6828.83,3343.33 6878,3407.5C 6902.93,3443.25 6919.93,3482.58 6929,3525.5C 6939.48,3577.8 6944.32,3630.63 6943.5,3684C 6944.17,3736.83 6938.67,3789 6927,3840.5C 6915.8,3887.9 6894.8,3930.23 6864,3967.5C 6825.23,4010.81 6777.06,4037.31 6719.5,4047C 6660.89,4053.1 6607.89,4038.76 6560.5,4004C 6511.68,3966.91 6478.85,3918.74 6462,3859.5C 6452.77,3827.43 6446.77,3794.77 6444,3761.5C 6438.82,3699.76 6439.48,3638.1 6446,3576.5C 6451.87,3521.56 6468.54,3470.22 6496,3422.5C 6539.82,3354.83 6601.99,3317.16 6682.5,3309.5 Z M 6687.5,3440.5 C 6713.93,3440.46 6734.76,3451.13 6750,3472.5C 6769.2,3503.44 6780.87,3537.11 6785,3573.5C 6794.9,3642.17 6794.9,3710.84 6785,3779.5C 6781.11,3805.71 6774.11,3831.05 6764,3855.5C 6756.91,3872.25 6746.41,3886.42 6732.5,3898C 6713.26,3911.82 6692.26,3915.15 6669.5,3908C 6651.63,3900.47 6637.8,3888.3 6628,3871.5C 6611,3838.16 6600.67,3802.82 6597,3765.5C 6589.35,3703.12 6589.68,3640.79 6598,3578.5C 6602.18,3544.29 6612.18,3511.96 6628,3481.5C 6641.23,3458.08 6661.06,3444.42 6687.5,3440.5 Z"/></g>
<g><path style="opacity:0.993" fill="#000000" d="M 89.5,3320.5 C 134.739,3320.17 179.905,3320.5 225,3321.5C 282.333,3462.17 339.667,3602.83 397,3743.5C 394.019,3723.63 391.686,3703.63 390,3683.5C 389.5,3562.5 389.333,3441.5 389.5,3320.5C 437.5,3320.5 485.5,3320.5 533.5,3320.5C 533.5,3559.17 533.5,3797.83 533.5,4036.5C 488.828,4036.83 444.162,4036.5 399.5,4035.5C 341.724,3894.95 284.224,3754.28 227,3613.5C 229.545,3632.04 231.212,3650.7 232,3669.5C 232.5,3791.83 232.667,3914.17 232.5,4036.5C 184.833,4036.5 137.167,4036.5 89.5,4036.5C 89.5,3797.83 89.5,3559.17 89.5,3320.5 Z"/></g>
<g><path style="opacity:0.994" fill="#000000" d="M 644.5,3320.5 C 739.5,3320.5 834.5,3320.5 929.5,3320.5C 929.5,3365.17 929.5,3409.83 929.5,3454.5C 882.167,3454.5 834.833,3454.5 787.5,3454.5C 787.5,3505.83 787.5,3557.17 787.5,3608.5C 829.167,3608.5 870.833,3608.5 912.5,3608.5C 912.5,3653.83 912.5,3699.17 912.5,3744.5C 870.833,3744.5 829.167,3744.5 787.5,3744.5C 787.5,3797.83 787.5,3851.17 787.5,3904.5C 835.5,3904.5 883.5,3904.5 931.5,3904.5C 931.5,3948.5 931.5,3992.5 931.5,4036.5C 835.833,4036.5 740.167,4036.5 644.5,4036.5C 644.5,3797.83 644.5,3559.17 644.5,3320.5 Z"/></g>
<g><path style="opacity:0.992" fill="#000000" d="M 969.5,3320.5 C 1020.74,3320.17 1071.91,3320.5 1123,3321.5C 1150.33,3421.5 1177.67,3521.5 1205,3621.5C 1217.38,3675.05 1227.04,3729.05 1234,3783.5C 1237.83,3728.54 1245.83,3674.21 1258,3620.5C 1286.01,3520.78 1314.18,3421.12 1342.5,3321.5C 1392.16,3320.5 1441.83,3320.17 1491.5,3320.5C 1425.98,3558.57 1360.14,3796.57 1294,4034.5C 1274.55,4035.83 1254.88,4036.49 1235,4036.5C 1215.26,4036.5 1195.59,4036.16 1176,4035.5C 1107.01,3797.19 1038.17,3558.86 969.5,3320.5 Z"/></g>
<g><path style="opacity:0.994" fill="#000000" d="M 1546.5,3320.5 C 1641.5,3320.5 1736.5,3320.5 1831.5,3320.5C 1831.5,3365.17 1831.5,3409.83 1831.5,3454.5C 1784.17,3454.5 1736.83,3454.5 1689.5,3454.5C 1689.5,3505.83 1689.5,3557.17 1689.5,3608.5C 1731.17,3608.5 1772.83,3608.5 1814.5,3608.5C 1814.5,3653.83 1814.5,3699.17 1814.5,3744.5C 1772.83,3744.5 1731.17,3744.5 1689.5,3744.5C 1689.5,3797.83 1689.5,3851.17 1689.5,3904.5C 1737.5,3904.5 1785.5,3904.5 1833.5,3904.5C 1833.5,3948.5 1833.5,3992.5 1833.5,4036.5C 1737.83,4036.5 1642.17,4036.5 1546.5,4036.5C 1546.5,3797.83 1546.5,3559.17 1546.5,3320.5 Z"/></g>
<g><path style="opacity:0.995" fill="#000000" d="M 1927.5,3320.5 C 1988.5,3320.33 2049.5,3320.5 2110.5,3321C 2152.56,3321.1 2192.23,3330.77 2229.5,3350C 2270.02,3375.46 2297.18,3411.29 2311,3457.5C 2322.58,3498.01 2324.58,3539.01 2317,3580.5C 2308.11,3623.12 2287.28,3658.62 2254.5,3687C 2243.28,3695.72 2231.95,3704.22 2220.5,3712.5C 2261.7,3820.4 2303.04,3928.24 2344.5,4036C 2294.26,4036.83 2244.1,4036.66 2194,4035.5C 2152.47,3927.24 2111.14,3818.91 2070,3710.5C 2069.5,3819.17 2069.33,3927.83 2069.5,4036.5C 2022.17,4036.5 1974.83,4036.5 1927.5,4036.5C 1927.5,3797.83 1927.5,3559.17 1927.5,3320.5 Z M 2069.5,3432.5 C 2086.24,3432.01 2102.91,3432.85 2119.5,3435C 2148.36,3440.87 2167.53,3457.7 2177,3485.5C 2185.98,3515.63 2185.65,3545.63 2176,3575.5C 2163.06,3607.77 2139.22,3625.6 2104.5,3629C 2092.81,3629.72 2081.14,3629.55 2069.5,3628.5C 2069.5,3563.17 2069.5,3497.83 2069.5,3432.5 Z"/></g>
<g><path style="opacity:0.993" fill="#000000" d="M 2719.5,3320.5 C 2782.07,3320.17 2844.57,3320.5 2907,3321.5C 2929.89,3461.18 2952.89,3600.85 2976,3740.5C 2994.7,3600.47 3013.53,3460.47 3032.5,3320.5C 3096.5,3320.5 3160.5,3320.5 3224.5,3320.5C 3248.9,3559.2 3273.57,3797.86 3298.5,4036.5C 3249.83,4036.5 3201.17,4036.5 3152.5,4036.5C 3141,3868.84 3129.5,3701.17 3118,3533.5C 3112.91,3586.47 3105.58,3639.14 3096,3691.5C 3075.1,3806.5 3054.27,3921.5 3033.5,4036.5C 2996.83,4036.5 2960.17,4036.5 2923.5,4036.5C 2898.99,3914.78 2874.16,3793.11 2849,3671.5C 2845.77,3654.92 2843.11,3638.26 2841,3621.5C 2838,3592.5 2835,3563.5 2832,3534.5C 2823.68,3701.76 2816.18,3869.09 2809.5,4036.5C 2758.83,4036.5 2708.17,4036.5 2657.5,4036.5C 2677.63,3797.77 2698.29,3559.1 2719.5,3320.5 Z"/></g>
<g><path style="opacity:0.99" fill="#000000" d="M 3376.5,3320.5 C 3424.17,3320.5 3471.83,3320.5 3519.5,3320.5C 3519.5,3559.17 3519.5,3797.83 3519.5,4036.5C 3471.83,4036.5 3424.17,4036.5 3376.5,4036.5C 3376.5,3797.83 3376.5,3559.17 3376.5,3320.5 Z"/></g>
<g><path style="opacity:0.993" fill="#000000" d="M 4811.5,3320.5 C 4861.41,3320.17 4911.24,3320.5 4961,3321.5C 5017.94,3559.76 5075.11,3797.93 5132.5,4036C 5081.83,4036.5 5031.17,4036.67 4980.5,4036.5C 4971.83,3996.5 4963.17,3956.5 4954.5,3916.5C 4907.16,3916.17 4859.83,3916.5 4812.5,3917.5C 4803.89,3957.04 4795.23,3996.54 4786.5,4036C 4739.17,4036.5 4691.83,4036.67 4644.5,4036.5C 4699.85,3797.76 4755.52,3559.09 4811.5,3320.5 Z M 4880.5,3513.5 C 4885.76,3558.54 4892.26,3603.54 4900,3648.5C 4910.05,3701.01 4920.88,3753.35 4932.5,3805.5C 4899.83,3805.5 4867.17,3805.5 4834.5,3805.5C 4846.29,3747.36 4857.13,3689.03 4867,3630.5C 4873.22,3591.69 4877.72,3552.69 4880.5,3513.5 Z"/></g>
<g><path style="opacity:0.992" fill="#000000" d="M 5439.5,3320.5 C 5490.5,3320.33 5541.5,3320.5 5592.5,3321C 5713.03,3325.66 5794.87,3384.16 5838,3496.5C 5859.38,3558 5869.55,3621.33 5868.5,3686.5C 5869.34,3746.76 5860.18,3805.43 5841,3862.5C 5800.56,3970.18 5722.73,4028.01 5607.5,4036C 5551.5,4036.5 5495.5,4036.67 5439.5,4036.5C 5439.5,3797.83 5439.5,3559.17 5439.5,3320.5 Z M 5582.5,3447.5 C 5610.36,3446.39 5634.69,3454.89 5655.5,3473C 5677.53,3493.54 5693.7,3518.04 5704,3546.5C 5724.44,3607.71 5730.77,3670.38 5723,3734.5C 5718.9,3773.47 5707.56,3810.14 5689,3844.5C 5665.1,3884.87 5629.6,3905.2 5582.5,3905.5C 5582.5,3752.83 5582.5,3600.17 5582.5,3447.5 Z"/></g>
<g><path style="opacity:0.995" fill="#000000" d="M 5963.5,3320.5 C 6024.5,3320.33 6085.5,3320.5 6146.5,3321C 6188.56,3321.1 6228.23,3330.77 6265.5,3350C 6306.02,3375.46 6333.18,3411.29 6347,3457.5C 6358.58,3498.01 6360.58,3539.01 6353,3580.5C 6344.11,3623.12 6323.28,3658.62 6290.5,3687C 6279.28,3695.72 6267.95,3704.22 6256.5,3712.5C 6297.7,3820.4 6339.04,3928.24 6380.5,4036C 6330.26,4036.83 6280.1,4036.66 6230,4035.5C 6188.47,3927.24 6147.14,3818.91 6106,3710.5C 6105.5,3819.17 6105.33,3927.83 6105.5,4036.5C 6058.17,4036.5 6010.83,4036.5 5963.5,4036.5C 5963.5,3797.83 5963.5,3559.17 5963.5,3320.5 Z M 6105.5,3432.5 C 6122.24,3432.01 6138.91,3432.85 6155.5,3435C 6184.36,3440.87 6203.53,3457.7 6213,3485.5C 6221.98,3515.63 6221.65,3545.63 6212,3575.5C 6199.06,3607.77 6175.22,3625.6 6140.5,3629C 6128.81,3629.72 6117.14,3629.55 6105.5,3628.5C 6105.5,3563.17 6105.5,3497.83 6105.5,3432.5 Z"/></g>
<g><path style="opacity:0.995" fill="#000000" d="M 7038.5,3320.5 C 7106.17,3320.33 7173.83,3320.5 7241.5,3321C 7309.94,3322.62 7361.77,3352.45 7397,3410.5C 7427.51,3468.37 7435.84,3529.37 7422,3593.5C 7402.33,3670.95 7353.49,3718.78 7275.5,3737C 7244.13,3743.45 7212.46,3745.61 7180.5,3743.5C 7180.5,3841.17 7180.5,3938.83 7180.5,4036.5C 7133.17,4036.5 7085.83,4036.5 7038.5,4036.5C 7038.5,3797.83 7038.5,3559.17 7038.5,3320.5 Z M 7180.5,3436.5 C 7252.6,3428.44 7287.94,3460.61 7286.5,3533C 7287.33,3552.18 7283.5,3570.35 7275,3587.5C 7264.27,3604.2 7249.11,3614.7 7229.5,3619C 7213.31,3622 7196.98,3623.5 7180.5,3623.5C 7180.5,3561.17 7180.5,3498.83 7180.5,3436.5 Z"/></g>
</svg>