<svg xmlns="http://www.w3.org/2000/svg" xmlns:xlink="http://www.w3.org/1999/xlink" version="1.1" style="shape-rendering:geometricPrecision; text-rendering:geometricPrecision; image-rendering:optimizeQuality; fill-rule:evenodd; clip-rule:evenodd" viewBox="62.5 3409.44 7369.25 764.23">
<g><path style="opacity:0.993" fill="#000000" d="M 3951.5,3410.5 C 4008.09,3406.32 4062.76,3414.49 4115.5,3435C 4167.14,3457.64 4206.31,3493.81 4233,3543.5C 4255.21,3586.65 4269.54,3632.32 4276,3680.5C 4285.99,3754.5 4285.99,3828.5 4276,3902.5C 4269.44,3955.17 4253.11,4004.5 4227,4050.5C 4185.43,4116.33 4125.93,4155.49 4048.5,4168C 3992,4177.17 3936,4174.84 3880.5,4161C 3794.37,4135.18 3735.87,4080.01 3705,3995.5C 3687.35,3942.96 3677.69,3888.96 3676,3833.5C 3672.4,3768.21 3677.07,3703.54 3690,3639.5C 3700.22,3589.42 3720.88,3544.42 3752,3504.5C 3793.84,3456.49 3846.34,3426.99 3909.5,3416C 3923.59,3413.7 3937.59,3411.86 3951.5,3410.5 Z M 3970.5,3537.5 C 4000.3,3535.94 4026.96,3544.1 4050.5,3562C 4065.6,3578.02 4076.77,3596.52 4084,3617.5C 4093.31,3643.76 4099.31,3670.76 4102,3698.5C 4108.25,3764.54 4107.92,3830.54 4101,3896.5C 4098.06,3925.22 4091.06,3952.89 4080,3979.5C 4053.11,4031.2 4010.94,4052.36 3953.5,4043C 3933.83,4037.92 3917,4028.09 3903,4013.5C 3889.44,3999.06 3879.44,3982.39 3873,3963.5C 3860.89,3921.38 3854.55,3878.38 3854,3834.5C 3852.44,3788.41 3853.78,3742.41 3858,3696.5C 3861.54,3656.89 3872.54,3619.55 3891,3584.5C 3901.92,3565.91 3917.42,3552.75 3937.5,3545C 3948.39,3541.36 3959.39,3538.86 3970.5,3537.5 Z"/></g>
<g><path style="opacity:0.993" fill="#000000" d="M 5440.5,3410.5 C 5496.29,3406.45 5550.29,3414.28 5602.5,3434C 5666.36,3462.53 5711.2,3509.37 5737,3574.5C 5759.21,3633.78 5770.88,3695.12 5772,3758.5C 5774.89,3820.1 5770.23,3881.1 5758,3941.5C 5723.63,4095.87 5627.29,4173.2 5469,4173.5C 5415.39,4174.71 5364.55,4163.55 5316.5,4140C 5251.52,4103.65 5208.69,4049.49 5188,3977.5C 5174.04,3929.5 5166.37,3880.5 5165,3830.5C 5161.52,3764.82 5166.52,3699.82 5180,3635.5C 5212.7,3497.63 5299.53,3422.63 5440.5,3410.5 Z M 5459.5,3537.5 C 5516.11,3535.54 5553.61,3561.2 5572,3614.5C 5581.9,3641.34 5588.24,3669.01 5591,3697.5C 5596.59,3758.13 5596.93,3818.8 5592,3879.5C 5589.71,3913.34 5582.37,3946.01 5570,3977.5C 5540.57,4034.63 5494.74,4055.47 5432.5,4040C 5406.07,4029.21 5385.9,4011.38 5372,3986.5C 5362.32,3966.47 5355.66,3945.47 5352,3923.5C 5346.8,3893.05 5343.8,3862.39 5343,3831.5C 5341.74,3790.11 5342.74,3748.77 5346,3707.5C 5348.16,3677.37 5354.16,3648.03 5364,3619.5C 5371.24,3596.51 5383.4,3576.67 5400.5,3560C 5418.16,3547.06 5437.83,3539.56 5459.5,3537.5 Z"/></g>
<g><path style="opacity:0.993" fill="#000000" d="M 821.5,3411.5 C 865.206,3409.45 908.206,3413.95 950.5,3425C 1068.71,3460.62 1121.54,3540.12 1109,3663.5C 1103.2,3723.94 1077.7,3774.11 1032.5,3814C 1023.68,3820.91 1014.68,3827.58 1005.5,3834C 956.338,3865.75 906.671,3896.75 856.5,3927C 828.399,3944.08 802.899,3964.58 780,3988.5C 774.947,3994.55 770.281,4000.89 766,4007.5C 764.241,4011.01 763.074,4014.68 762.5,4018.5C 878.167,4018.5 993.833,4018.5 1109.5,4018.5C 1109.5,4065.17 1109.5,4111.83 1109.5,4158.5C 926.167,4158.5 742.833,4158.5 559.5,4158.5C 557.627,4111.67 562.793,4065.67 575,4020.5C 591.528,3969.34 619.361,3925.51 658.5,3889C 686.757,3865.07 716.424,3843.07 747.5,3823C 782.167,3801.67 816.833,3780.33 851.5,3759C 875.396,3743.78 896.896,3725.61 916,3704.5C 940.033,3671.12 945.367,3634.78 932,3595.5C 919.82,3566.34 897.986,3549.5 866.5,3545C 806.929,3536.02 766.095,3559.18 744,3614.5C 737.278,3633.94 733.445,3653.94 732.5,3674.5C 676.501,3672.5 620.501,3670.5 564.5,3668.5C 566.039,3591.28 595.039,3526.78 651.5,3475C 687.217,3445.85 727.884,3426.85 773.5,3418C 789.544,3415.02 805.544,3412.85 821.5,3411.5 Z"/></g>
<g><path style="opacity:0.992" fill="#000000" d="M 4598.5,3411.5 C 4659.21,3407.92 4717.88,3417.09 4774.5,3439C 4816.22,3456.39 4849.06,3484.23 4873,3522.5C 4894.17,3563.69 4900.17,3607.02 4891,3652.5C 4879.06,3697.11 4852.89,3730.61 4812.5,3753C 4805.04,3757.07 4797.37,3760.57 4789.5,3763.5C 4789.29,3765.14 4789.62,3766.64 4790.5,3768C 4871.97,3803.06 4912.97,3865.22 4913.5,3954.5C 4913.57,4036.48 4877.57,4096.32 4805.5,4134C 4755.46,4158.76 4702.46,4171.76 4646.5,4173C 4595.55,4175.51 4545.55,4169.84 4496.5,4156C 4369.11,4116.09 4317.28,4030.25 4341,3898.5C 4358.07,3835.09 4397.24,3791.59 4458.5,3768C 4459.75,3766.51 4459.75,3765.01 4458.5,3763.5C 4375.24,3725.99 4341.74,3661.99 4358,3571.5C 4366.94,3531.11 4387.44,3497.95 4419.5,3472C 4458.95,3442.46 4503.28,3424.13 4552.5,3417C 4567.92,3414.59 4583.25,3412.75 4598.5,3411.5 Z M 4609.5,3525.5 C 4650.04,3521.74 4685.2,3533.41 4715,3560.5C 4735.94,3585.92 4742.94,3614.92 4736,3647.5C 4730.31,3673.18 4716.15,3692.68 4693.5,3706C 4653.23,3726.57 4611.9,3728.9 4569.5,3713C 4525.13,3692.24 4505.96,3657.41 4512,3608.5C 4516.51,3579 4531.68,3556.83 4557.5,3542C 4573.91,3533.14 4591.24,3527.64 4609.5,3525.5 Z M 4623.5,3826.5 C 4665.38,3826.36 4699.88,3842.03 4727,3873.5C 4740.7,3893.47 4747.2,3915.63 4746.5,3940C 4746.02,3992.8 4721.02,4028.13 4671.5,4046C 4630.33,4058.2 4590.66,4054.53 4552.5,4035C 4517.59,4013.04 4500.59,3981.2 4501.5,3939.5C 4502.14,3888.7 4526.14,3854.2 4573.5,3836C 4589.81,3830.17 4606.47,3827 4623.5,3826.5 Z"/></g>
<g><path style="opacity:0.992" fill="#000000" d="M 6106.5,3411.5 C 6156.84,3408.52 6205.51,3416.02 6252.5,3434C 6326.25,3465.75 6373.58,3520.42 6394.5,3598C 6394.09,3598.95 6393.43,3599.61 6392.5,3600C 6340.16,3606.42 6287.82,3612.92 6235.5,3619.5C 6234.5,3619.17 6233.5,3618.83 6232.5,3618.5C 6210.44,3545.62 6162.44,3518.46 6088.5,3537C 6044.68,3555.16 6016.85,3587.33 6005,3633.5C 5996.65,3669 5992.82,3705 5993.5,3741.5C 5994.87,3741.66 5996.21,3741.49 5997.5,3741C 6025.75,3711.37 6060.09,3692.37 6100.5,3684C 6175.67,3668.22 6245.34,3681.22 6309.5,3723C 6380.83,3775.53 6413.33,3846.36 6407,3935.5C 6400.11,4035.34 6351.28,4105.84 6260.5,4147C 6183.69,4177.5 6105.35,4181.84 6025.5,4160C 5951.98,4137.99 5899.15,4092.16 5867,4022.5C 5848.13,3978.37 5836.47,3932.37 5832,3884.5C 5825.76,3817.8 5826.09,3751.13 5833,3684.5C 5837.21,3646.44 5845.88,3609.44 5859,3573.5C 5876.39,3526.52 5906.23,3489.69 5948.5,3463C 5996.64,3431.9 6049.31,3414.73 6106.5,3411.5 Z M 6111.5,3794.5 C 6159.12,3791.4 6196.62,3809.06 6224,3847.5C 6237.38,3871.01 6243.88,3896.34 6243.5,3923.5C 6244.75,3964.14 6230.75,3998.31 6201.5,4026C 6162.93,4054.73 6120.93,4060.73 6075.5,4044C 6024.73,4020.52 5999.4,3980.52 5999.5,3924C 5999.28,3871.32 6021.94,3832.32 6067.5,3807C 6081.67,3800.66 6096.34,3796.49 6111.5,3794.5 Z"/></g>
<g><path style="opacity:0.992" fill="#000000" d="M 7116.5,3411.5 C 7178.33,3407.83 7238,3417.33 7295.5,3440C 7381.91,3478.96 7420.74,3545.79 7412,3640.5C 7403.64,3687.08 7379.47,3722.91 7339.5,3748C 7329.94,3753.95 7319.94,3759.11 7309.5,3763.5C 7308.25,3765.01 7308.25,3766.51 7309.5,3768C 7382.97,3798.82 7423.47,3853.99 7431,3933.5C 7438.17,4036.72 7394,4107.55 7298.5,4146C 7248.68,4165.3 7197.01,4174.47 7143.5,4173.5C 7081.96,4174.83 7023.29,4162.66 6967.5,4137C 6891.79,4100.29 6853.79,4039.62 6853.5,3955C 6852.4,3910.56 6864.23,3870.06 6889,3833.5C 6911.94,3802.9 6941.44,3781.07 6977.5,3768C 6978.38,3766.64 6978.71,3765.14 6978.5,3763.5C 6934.15,3746.75 6902.32,3716.75 6883,3673.5C 6868.39,3628.84 6869.39,3584.5 6886,3540.5C 6903.38,3503.11 6929.88,3473.95 6965.5,3453C 6998.46,3435.23 7033.46,3423.23 7070.5,3417C 7085.93,3414.69 7101.26,3412.86 7116.5,3411.5 Z M 7128.5,3525.5 C 7171.62,3521.33 7208.12,3534.66 7238,3565.5C 7253.76,3587.28 7259.76,3611.61 7256,3638.5C 7251.16,3673.34 7232.66,3697.84 7200.5,3712C 7155.34,3729.81 7111.68,3726.81 7069.5,3703C 7039.43,3681.33 7026.26,3651.83 7030,3614.5C 7031.78,3589.77 7041.95,3569.27 7060.5,3553C 7080.57,3537.26 7103.24,3528.09 7128.5,3525.5 Z M 7142.5,3826.5 C 7183.88,3826.33 7218.05,3841.66 7245,3872.5C 7262.67,3898.54 7269.01,3927.21 7264,3958.5C 7257.83,4000.34 7235,4028.84 7195.5,4044C 7154.2,4058.09 7113.86,4055.75 7074.5,4037C 7037.3,4015.61 7019.3,3983.28 7020.5,3940C 7019.59,3897.14 7037.59,3865.14 7074.5,3844C 7095.92,3832.81 7118.58,3826.98 7142.5,3826.5 Z"/></g>
<g><path style="opacity:0.992" fill="#000000" d="M 1162.5,3424.5 C 1343.83,3424.5 1525.17,3424.5 1706.5,3424.5C 1706.92,3458.19 1706.42,3491.86 1705,3525.5C 1701.21,3557.88 1691.21,3588.22 1675,3616.5C 1646.49,3666.2 1615.49,3714.2 1582,3760.5C 1558.46,3795.57 1537.46,3832.24 1519,3870.5C 1479.84,3962.44 1462.34,4058.44 1466.5,4158.5C 1406.17,4158.5 1345.83,4158.5 1285.5,4158.5C 1281.15,4055.62 1299.31,3956.95 1340,3862.5C 1357.04,3821.08 1377.71,3781.75 1402,3744.5C 1440.34,3685.5 1481,3628.17 1524,3572.5C 1524.49,3571.21 1524.66,3569.87 1524.5,3568.5C 1403.83,3568.5 1283.17,3568.5 1162.5,3568.5C 1162.5,3520.5 1162.5,3472.5 1162.5,3424.5 Z"/></g>
<g><path style="opacity:0.991" fill="#000000" d="M 1942.5,3424.5 C 2123.83,3424.5 2305.17,3424.5 2486.5,3424.5C 2486.91,3457.52 2486.41,3490.52 2485,3523.5C 2481.07,3559.36 2469.73,3592.7 2451,3623.5C 2442.67,3637.5 2434.33,3651.5 2426,3665.5C 2402.25,3701.34 2378.25,3737.01 2354,3772.5C 2289.59,3867.07 2254.25,3971.74 2248,4086.5C 2246.85,4110.49 2246.35,4134.49 2246.5,4158.5C 2186.17,4158.5 2125.83,4158.5 2065.5,4158.5C 2060.95,4054.49 2079.45,3954.82 2121,3859.5C 2137.15,3821.53 2156.15,3785.19 2178,3750.5C 2217.54,3689.41 2259.54,3630.08 2304,3572.5C 2304.49,3571.21 2304.66,3569.87 2304.5,3568.5C 2183.83,3568.67 2063.17,3568.5 1942.5,3568C 1941.17,3520.17 1941.17,3472.33 1942.5,3424.5 Z"/></g>
<g><path style="opacity:0.993" fill="#000000" d="M 2701.5,3424.5 C 2748.83,3424.5 2796.17,3424.5 2843.5,3424.5C 2843.5,3669.17 2843.5,3913.83 2843.5,4158.5C 2786.5,4158.5 2729.5,4158.5 2672.5,4158.5C 2672.5,3993.17 2672.5,3827.83 2672.5,3662.5C 2623.5,3662.5 2574.5,3662.5 2525.5,3662.5C 2525.5,3624.17 2525.5,3585.83 2525.5,3547.5C 2557.53,3549.67 2588.53,3545.17 2618.5,3534C 2662.96,3510.36 2690.62,3473.86 2701.5,3424.5 Z"/></g>
<g><path style="opacity:0.991" fill="#000000" d="M 3117.5,3424.5 C 3298.83,3424.5 3480.17,3424.5 3661.5,3424.5C 3661.91,3457.52 3661.41,3490.52 3660,3523.5C 3656.07,3559.36 3644.73,3592.7 3626,3623.5C 3617.67,3637.5 3609.33,3651.5 3601,3665.5C 3577.25,3701.34 3553.25,3737.01 3529,3772.5C 3464.59,3867.07 3429.25,3971.74 3423,4086.5C 3421.85,4110.49 3421.35,4134.49 3421.5,4158.5C 3361.17,4158.5 3300.83,4158.5 3240.5,4158.5C 3235.95,4054.49 3254.45,3954.82 3296,3859.5C 3312.15,3821.53 3331.15,3785.19 3353,3750.5C 3392.54,3689.41 3434.54,3630.08 3479,3572.5C 3479.49,3571.21 3479.66,3569.87 3479.5,3568.5C 3358.83,3568.67 3238.17,3568.5 3117.5,3568C 3116.17,3520.17 3116.17,3472.33 3117.5,3424.5 Z"/></g>
<g><path style="opacity:0.992" fill="#000000" d="M 6631.5,3424.5 C 6679.07,3424.17 6726.57,3424.5 6774,3425.5C 6774.5,3669.83 6774.67,3914.17 6774.5,4158.5C 6717.5,4158.5 6660.5,4158.5 6603.5,4158.5C 6603.5,3993.17 6603.5,3827.83 6603.5,3662.5C 6554.17,3662.5 6504.83,3662.5 6455.5,3662.5C 6455.5,3624.17 6455.5,3585.83 6455.5,3547.5C 6486.73,3549.49 6517.07,3545.33 6546.5,3535C 6592.49,3511.91 6620.82,3475.08 6631.5,3424.5 Z"/></g>
<g><path style="opacity:0.987" fill="#000000" d="M 230.5,3581.5 C 269.5,3581.5 308.5,3581.5 347.5,3581.5C 347.5,3641.5 347.5,3701.5 347.5,3761.5C 403.167,3761.5 458.833,3761.5 514.5,3761.5C 514.5,3799.17 514.5,3836.83 514.5,3874.5C 458.833,3874.5 403.167,3874.5 347.5,3874.5C 347.5,3934.5 347.5,3994.5 347.5,4054.5C 308.261,4054.83 269.094,4054.5 230,4053.5C 229.5,3993.83 229.333,3934.17 229.5,3874.5C 173.833,3874.5 118.167,3874.5 62.5,3874.5C 62.5,3836.83 62.5,3799.17 62.5,3761.5C 118.167,3761.5 173.833,3761.5 229.5,3761.5C 229.171,3701.43 229.504,3641.43 230.5,3581.5 Z"/></g>
</svg>