<svg xmlns="http://www.w3.org/2000/svg" xmlns:xlink="http://www.w3.org/1999/xlink" version="1.1" style="shape-rendering:geometricPrecision; text-rendering:geometricPrecision; image-rendering:optimizeQuality; fill-rule:evenodd; clip-rule:evenodd" viewBox="87.5 3240.65 7401 1099.97">
<g><path style="opacity:0.992" fill="#000000" d="M 1310.5,3241.5 C 1349.14,3239.59 1387.47,3242.09 1425.5,3249C 1517.53,3269.37 1559.03,3326.54 1550,3420.5C 1545.92,3470.76 1529.58,3516.43 1501,3557.5C 1462.06,3605.24 1411.89,3633.74 1350.5,3643C 1311.73,3649.15 1272.73,3651.15 1233.5,3649C 1201.74,3647.18 1171.08,3640.52 1141.5,3629C 1088.71,3604.97 1061.21,3563.81 1059,3505.5C 1057.08,3450.17 1069.75,3398.5 1097,3350.5C 1128.25,3303.08 1171.42,3271.58 1226.5,3256C 1254.21,3248.66 1282.21,3243.83 1310.5,3241.5 Z M 1312.5,3361.5 C 1329.45,3361.54 1346.12,3363.7 1362.5,3368C 1385.96,3376.98 1397.96,3394.15 1398.5,3419.5C 1398,3446.5 1390.84,3471.5 1377,3494.5C 1361.06,3514.39 1340.22,3525.22 1314.5,3527C 1220,3538.48 1189.83,3499.65 1224,3410.5C 1234.43,3388.07 1251.6,3373.57 1275.5,3367C 1287.84,3364.25 1300.18,3362.42 1312.5,3361.5 Z"/></g>
<g><path style="opacity:0.992" fill="#000000" d="M 2529.5,3241.5 C 2573.78,3238.77 2617.45,3242.61 2660.5,3253C 2732.74,3273.07 2769.41,3320.57 2770.5,3395.5C 2769.73,3437.18 2761.23,3477.18 2745,3515.5C 2716.26,3576.47 2669.43,3616.31 2604.5,3635C 2545.56,3650.06 2485.9,3653.73 2425.5,3646C 2390.41,3642.42 2358.41,3630.75 2329.5,3611C 2298.95,3587.08 2282.11,3555.58 2279,3516.5C 2274.92,3458.24 2286.92,3403.57 2315,3352.5C 2345.96,3303.73 2389.46,3271.57 2445.5,3256C 2473.21,3248.66 2501.21,3243.83 2529.5,3241.5 Z M 2532.5,3361.5 C 2546.95,3361.82 2561.29,3363.32 2575.5,3366C 2603.68,3373.69 2617.68,3392.19 2617.5,3421.5C 2616.88,3447.32 2610.05,3471.32 2597,3493.5C 2585.26,3509.29 2569.76,3519.46 2550.5,3524C 2524.57,3529.6 2498.57,3529.93 2472.5,3525C 2448.42,3520.25 2434.59,3505.75 2431,3481.5C 2429.45,3455.35 2434.12,3430.35 2445,3406.5C 2457.66,3383.23 2477.16,3369.4 2503.5,3365C 2513.27,3363.46 2522.94,3362.29 2532.5,3361.5 Z"/></g>
<g><path style="opacity:0.992" fill="#000000" d="M 308.5,3242.5 C 398.833,3242.5 489.167,3242.5 579.5,3242.5C 572.716,3283.2 565.716,3323.87 558.5,3364.5C 500.166,3364.33 441.832,3364.5 383.5,3365C 399.283,3386.45 415.45,3407.62 432,3428.5C 447.198,3448.21 459.865,3469.55 470,3492.5C 482.231,3524.06 482.564,3555.73 471,3587.5C 456.623,3619.77 432.123,3639.27 397.5,3646C 294.167,3646.5 190.834,3646.67 87.5,3646.5C 94.7165,3605.87 101.716,3565.2 108.5,3524.5C 174.837,3524.83 241.17,3524.5 307.5,3523.5C 291.522,3503.69 275.356,3484.02 259,3464.5C 241.849,3442.31 227.516,3418.31 216,3392.5C 198.834,3336 214.667,3291.16 263.5,3258C 277.638,3249.9 292.638,3244.73 308.5,3242.5 Z"/></g>
<g><path style="opacity:0.992" fill="#000000" d="M 622.5,3242.5 C 671.5,3242.5 720.5,3242.5 769.5,3242.5C 761.314,3291.12 752.648,3339.62 743.5,3388C 790.499,3388.5 837.499,3388.67 884.5,3388.5C 892.91,3340.12 901.576,3291.79 910.5,3243.5C 959.495,3242.5 1008.5,3242.17 1057.5,3242.5C 1034.33,3376.88 1010.83,3511.21 987,3645.5C 937.905,3646.5 888.739,3646.83 839.5,3646.5C 848.05,3597.2 856.383,3547.87 864.5,3498.5C 817.833,3498.5 771.167,3498.5 724.5,3498.5C 716.09,3547.55 707.424,3596.55 698.5,3645.5C 649.505,3646.5 600.505,3646.83 551.5,3646.5C 574.658,3511.71 598.325,3377.05 622.5,3242.5 Z"/></g>
<g><path style="opacity:0.993" fill="#000000" d="M 1623.5,3242.5 C 1729.5,3242.33 1835.5,3242.5 1941.5,3243C 1970.08,3245.87 1993.58,3258.37 2012,3280.5C 2032.56,3305.18 2041.22,3333.51 2038,3365.5C 2034.64,3386.3 2030.64,3406.97 2026,3427.5C 2019.55,3444.41 2010.55,3459.75 1999,3473.5C 1982.48,3492.31 1963.65,3508.14 1942.5,3521C 1928.68,3528.72 1914.02,3534.05 1898.5,3537C 1838.85,3538.13 1779.19,3538.96 1719.5,3539.5C 1712.84,3575.11 1706.51,3610.77 1700.5,3646.5C 1651.16,3646.83 1601.83,3646.5 1552.5,3645.5C 1576.81,3511.28 1600.48,3376.95 1623.5,3242.5 Z M 1749.5,3364.5 C 1787.53,3364.06 1825.53,3364.56 1863.5,3366C 1881.88,3370.26 1887.38,3381.09 1880,3398.5C 1876.49,3408.18 1869.65,3414.01 1859.5,3416C 1853.22,3417.09 1846.88,3417.76 1840.5,3418C 1807.17,3418.5 1773.83,3418.67 1740.5,3418.5C 1743.72,3400.54 1746.72,3382.54 1749.5,3364.5 Z"/></g>
<g><path style="opacity:0.993" fill="#000000" d="M 2843.5,3242.5 C 2891.5,3242.17 2939.5,3242.5 2987.5,3243.5C 3024.26,3304.04 3061.26,3364.37 3098.5,3424.5C 3109.63,3364.19 3120.63,3303.86 3131.5,3243.5C 3180.5,3242.5 3229.5,3242.17 3278.5,3242.5C 3255.41,3377.13 3231.74,3511.63 3207.5,3646C 3159.83,3646.67 3112.17,3646.67 3064.5,3646C 3026.87,3585.25 2989.37,3524.42 2952,3463.5C 2941.27,3524.2 2930.44,3584.87 2919.5,3645.5C 2870.5,3646.5 2821.5,3646.83 2772.5,3646.5C 2795.66,3511.71 2819.32,3377.05 2843.5,3242.5 Z"/></g>
<g><path style="opacity:0.993" fill="#000000" d="M 3526.5,3242.5 C 3575.17,3242.5 3623.83,3242.5 3672.5,3242.5C 3679.78,3292.86 3687.28,3343.19 3695,3393.5C 3721.37,3343.25 3747.87,3293.09 3774.5,3243C 3817.84,3242.17 3861.17,3242.33 3904.5,3243.5C 3912.56,3293.45 3920.4,3343.45 3928,3393.5C 3954.55,3343.57 3980.72,3293.4 4006.5,3243C 4057.17,3242.17 4107.84,3242.33 4158.5,3243.5C 4092.69,3377.62 4027.02,3511.79 3961.5,3646C 3912.5,3646.67 3863.5,3646.67 3814.5,3646C 3809.11,3594.24 3803.94,3542.41 3799,3490.5C 3775.15,3542.21 3751.99,3594.21 3729.5,3646.5C 3680.17,3646.5 3630.83,3646.5 3581.5,3646.5C 3563.35,3511.8 3545.02,3377.14 3526.5,3242.5 Z"/></g>
<g><path style="opacity:0.992" fill="#000000" d="M 4188.5,3242.5 C 4237.83,3242.5 4287.17,3242.5 4336.5,3242.5C 4328.09,3290.88 4319.42,3339.21 4310.5,3387.5C 4357.5,3388.5 4404.5,3388.83 4451.5,3388.5C 4459.69,3339.88 4468.35,3291.38 4477.5,3243C 4526.5,3242.5 4575.5,3242.33 4624.5,3242.5C 4601.16,3376.89 4577.49,3511.23 4553.5,3645.5C 4504.5,3646.5 4455.5,3646.83 4406.5,3646.5C 4414.62,3597.13 4422.95,3547.8 4431.5,3498.5C 4384.83,3498.33 4338.17,3498.5 4291.5,3499C 4282.57,3548.09 4273.9,3597.26 4265.5,3646.5C 4216.16,3646.83 4166.83,3646.5 4117.5,3645.5C 4141.71,3511.26 4165.37,3376.93 4188.5,3242.5 Z"/></g>
<g><path style="opacity:0.993" fill="#000000" d="M 4781.5,3242.5 C 4860.17,3242.5 4938.83,3242.5 5017.5,3242.5C 5035.42,3376.9 5053.76,3511.23 5072.5,3645.5C 5023.84,3646.5 4975.17,3646.83 4926.5,3646.5C 4923.49,3626.11 4920.16,3605.77 4916.5,3585.5C 4866.83,3584.17 4817.17,3584.17 4767.5,3585.5C 4757.17,3605.5 4746.83,3625.5 4736.5,3645.5C 4685.83,3646.83 4635.17,3646.83 4584.5,3645.5C 4649.92,3510.99 4715.59,3376.65 4781.5,3242.5 Z M 4882.5,3352.5 C 4884.07,3354.81 4884.9,3357.48 4885,3360.5C 4891.16,3399.13 4896.99,3437.8 4902.5,3476.5C 4875.16,3476.83 4847.83,3476.5 4820.5,3475.5C 4841.45,3434.6 4862.12,3393.6 4882.5,3352.5 Z"/></g>
<g><path style="opacity:0.992" fill="#000000" d="M 5102.5,3242.5 C 5239.83,3242.5 5377.17,3242.5 5514.5,3242.5C 5507.93,3283.24 5500.93,3323.9 5493.5,3364.5C 5449.17,3364.5 5404.83,3364.5 5360.5,3364.5C 5344.71,3458.26 5328.37,3551.93 5311.5,3645.5C 5262.5,3646.5 5213.5,3646.83 5164.5,3646.5C 5180.62,3552.46 5196.95,3458.46 5213.5,3364.5C 5169.5,3364.5 5125.5,3364.5 5081.5,3364.5C 5088.5,3323.83 5095.5,3283.17 5102.5,3242.5 Z"/></g>
<g><path style="opacity:0.992" fill="#000000" d="M 5636.5,3242.5 C 5726.83,3242.5 5817.17,3242.5 5907.5,3242.5C 5900.5,3283.17 5893.5,3323.83 5886.5,3364.5C 5828.17,3364.33 5769.83,3364.5 5711.5,3365C 5726.95,3386.12 5742.78,3406.95 5759,3427.5C 5773.93,3447.01 5786.6,3468.01 5797,3490.5C 5811.86,3526.66 5810.86,3562.33 5794,3597.5C 5778.41,3623.74 5755.57,3639.91 5725.5,3646C 5622.17,3646.5 5518.83,3646.67 5415.5,3646.5C 5422.5,3605.83 5429.5,3565.17 5436.5,3524.5C 5502.83,3524.67 5569.17,3524.5 5635.5,3524C 5613.91,3498.41 5593.07,3472.24 5573,3445.5C 5559.99,3426.49 5549.33,3406.16 5541,3384.5C 5528.61,3330.66 5545.45,3288.49 5591.5,3258C 5605.64,3249.9 5620.64,3244.73 5636.5,3242.5 Z"/></g>
<g><path style="opacity:0.993" fill="#000000" d="M 6008.5,3242.5 C 6087.17,3242.17 6165.84,3242.5 6244.5,3243.5C 6263.11,3377.78 6281.45,3512.12 6299.5,3646.5C 6250.83,3646.5 6202.17,3646.5 6153.5,3646.5C 6150.69,3625.81 6147.69,3605.14 6144.5,3584.5C 6094.83,3584.33 6045.17,3584.5 5995.5,3585C 5984.83,3605.33 5974.17,3625.67 5963.5,3646C 5912.83,3646.67 5862.17,3646.67 5811.5,3646C 5877.31,3511.55 5942.97,3377.05 6008.5,3242.5 Z M 6110.5,3351.5 C 6117.47,3392.99 6124.14,3434.66 6130.5,3476.5C 6102.83,3476.67 6075.16,3476.5 6047.5,3476C 6068.91,3434.68 6089.91,3393.18 6110.5,3351.5 Z"/></g>
<g><path style="opacity:0.993" fill="#000000" d="M 6401.5,3242.5 C 6510.85,3242.02 6620.18,3242.52 6729.5,3244C 6770.82,3254.98 6798.32,3280.82 6812,3321.5C 6815.96,3333.89 6817.29,3346.56 6816,3359.5C 6813.21,3379.25 6809.87,3398.92 6806,3418.5C 6799.55,3440.25 6788.89,3459.58 6774,3476.5C 6753.47,3499.38 6729.3,3517.21 6701.5,3530C 6693.38,3533.11 6685.05,3535.45 6676.5,3537C 6616.52,3538.46 6556.52,3538.96 6496.5,3538.5C 6490.65,3574.45 6484.31,3610.28 6477.5,3646C 6428.5,3646.5 6379.5,3646.67 6330.5,3646.5C 6353.95,3511.79 6377.62,3377.13 6401.5,3242.5 Z M 6527.5,3364.5 C 6565.52,3364.06 6603.52,3364.56 6641.5,3366C 6655.53,3368.22 6661.69,3376.39 6660,3390.5C 6657.02,3405.82 6647.85,3414.65 6632.5,3417C 6594.52,3418.4 6556.52,3418.9 6518.5,3418.5C 6521.07,3400.42 6524.07,3382.42 6527.5,3364.5 Z"/></g>
<g><path style="opacity:0.993" fill="#000000" d="M 6879.5,3242.5 C 6988.85,3242.02 7098.18,3242.52 7207.5,3244C 7248.82,3254.98 7276.32,3280.82 7290,3321.5C 7293.96,3333.89 7295.29,3346.56 7294,3359.5C 7291.09,3380.63 7287.42,3401.63 7283,3422.5C 7276.26,3442.66 7265.93,3460.66 7252,3476.5C 7231.49,3499.35 7207.32,3517.18 7179.5,3530C 7171.38,3533.11 7163.05,3535.45 7154.5,3537C 7094.52,3538.46 7034.52,3538.96 6974.5,3538.5C 6968.65,3574.45 6962.31,3610.28 6955.5,3646C 6906.5,3646.5 6857.5,3646.67 6808.5,3646.5C 6831.95,3511.79 6855.62,3377.12 6879.5,3242.5 Z M 7005.5,3364.5 C 7043.52,3364.06 7081.52,3364.56 7119.5,3366C 7133.53,3368.22 7139.69,3376.39 7138,3390.5C 7135.02,3405.82 7125.85,3414.65 7110.5,3417C 7072.52,3418.4 7034.52,3418.9 6996.5,3418.5C 6999.07,3400.42 7002.07,3382.42 7005.5,3364.5 Z"/></g>
<g><path style="opacity:0.987" fill="#000000" d="M 7340.5,3336.5 C 7389.83,3336.5 7439.17,3336.5 7488.5,3336.5C 7481.28,3377.13 7474.28,3417.8 7467.5,3458.5C 7418.16,3458.83 7368.83,3458.5 7319.5,3457.5C 7326.89,3417.24 7333.89,3376.9 7340.5,3336.5 Z"/></g>
<g><path style="opacity:0.987" fill="#000000" d="M 7308.5,3524.5 C 7357.5,3524.5 7406.5,3524.5 7455.5,3524.5C 7448.43,3565.08 7441.1,3605.58 7433.5,3646C 7384.5,3646.5 7335.5,3646.67 7286.5,3646.5C 7293.41,3605.72 7300.74,3565.06 7308.5,3524.5 Z"/></g>
<g><path style="opacity:0.994" fill="#000000" d="M 2231.5,3879.5 C 2319.2,3879.02 2406.86,3879.52 2494.5,3881C 2525.49,3890.91 2549.99,3909.41 2568,3936.5C 2582.69,3957.56 2589.02,3980.9 2587,4006.5C 2575.44,4074.18 2563.77,4141.85 2552,4209.5C 2548.35,4227.8 2540.68,4244.13 2529,4258.5C 2505.05,4291.11 2474.55,4315.61 2437.5,4332C 2429.08,4335.47 2420.41,4338.14 2411.5,4340C 2323.83,4340.67 2236.17,4340.67 2148.5,4340C 2130.15,4335.99 2113.82,4327.99 2099.5,4316C 2076.28,4295.73 2061.11,4270.57 2054,4240.5C 2052.62,4231.54 2052.28,4222.54 2053,4213.5C 2065.32,4145.23 2077.32,4076.89 2089,4008.5C 2092.35,3992.8 2098.68,3978.47 2108,3965.5C 2136.2,3926.96 2172.7,3899.46 2217.5,3883C 2222.3,3881.8 2226.96,3880.63 2231.5,3879.5 Z M 2301.5,4018.5 C 2327.2,4018.07 2352.87,4018.57 2378.5,4020C 2395.35,4023.85 2404.85,4034.35 2407,4051.5C 2407.67,4057.5 2407.67,4063.5 2407,4069.5C 2402.43,4096.91 2397.43,4124.25 2392,4151.5C 2387.97,4169.16 2378.8,4183.32 2364.5,4194C 2357.97,4197.77 2350.97,4200.1 2343.5,4201C 2315.81,4201.93 2288.14,4201.6 2260.5,4200C 2247.25,4198.09 2239.08,4190.59 2236,4177.5C 2233.08,4165.91 2232.74,4154.25 2235,4142.5C 2238.95,4118.43 2243.28,4094.43 2248,4070.5C 2251.46,4054.4 2258.96,4040.57 2270.5,4029C 2280.15,4023.17 2290.48,4019.67 2301.5,4018.5 Z"/></g>
<g><path style="opacity:0.994" fill="#000000" d="M 2896.5,3879.5 C 2982.17,3879.33 3067.83,3879.5 3153.5,3880C 3145.06,3925.73 3137.06,3971.56 3129.5,4017.5C 3057.83,4017.33 2986.17,4017.5 2914.5,4018C 2887.57,4017.43 2861.9,4022.77 2837.5,4034C 2824.64,4041.19 2813.97,4050.86 2805.5,4063C 2882.17,4063.33 2958.83,4063.67 3035.5,4064C 3055.7,4068.18 3072.2,4078.35 3085,4094.5C 3096.96,4111.21 3103.46,4129.88 3104.5,4150.5C 3100.05,4180.94 3094.88,4211.27 3089,4241.5C 3079.18,4276.67 3059.01,4304.17 3028.5,4324C 3015,4332.5 3000.34,4337.83 2984.5,4340C 2926.5,4340.67 2868.5,4340.67 2810.5,4340C 2778.03,4338.75 2746.36,4333.09 2715.5,4323C 2642.57,4295.55 2607.57,4242.55 2610.5,4164C 2612.49,4116.03 2622.66,4069.86 2641,4025.5C 2673.4,3959.11 2725.24,3915.94 2796.5,3896C 2829.46,3887.34 2862.79,3881.84 2896.5,3879.5 Z M 2793.5,4170.5 C 2835.33,4169.34 2877.33,4169.17 2919.5,4170C 2924.44,4172.95 2927.94,4177.11 2930,4182.5C 2930.44,4188.85 2930.28,4195.18 2929.5,4201.5C 2902.83,4201.67 2876.16,4201.5 2849.5,4201C 2825.93,4199.39 2807.27,4189.22 2793.5,4170.5 Z"/></g>
<g><path style="opacity:0.994" fill="#000000" d="M 3321.5,3879.5 C 3409.2,3879.02 3496.86,3879.52 3584.5,3881C 3611.58,3889.41 3633.75,3904.91 3651,3927.5C 3671.47,3952.23 3679.8,3980.57 3676,4012.5C 3664.56,4077.48 3653.23,4142.48 3642,4207.5C 3639.51,4221.48 3634.51,4234.48 3627,4246.5C 3598.79,4290.52 3559.96,4321.02 3510.5,4338C 3507.17,4338.67 3503.83,4339.33 3500.5,4340C 3412.83,4340.67 3325.17,4340.67 3237.5,4340C 3220.09,4335.79 3204.42,4328.13 3190.5,4317C 3166.97,4296.77 3151.47,4271.6 3144,4241.5C 3142.51,4231.88 3142.18,4222.21 3143,4212.5C 3155.34,4141.44 3168.01,4070.44 3181,3999.5C 3187.67,3980.49 3197.67,3963.49 3211,3948.5C 3233.15,3924 3258.98,3904.5 3288.5,3890C 3299.27,3885.35 3310.27,3881.85 3321.5,3879.5 Z M 3391.5,4018.5 C 3416.87,4018.07 3442.2,4018.57 3467.5,4020C 3485.52,4023.85 3495.36,4035.01 3497,4053.5C 3497.67,4058.5 3497.67,4063.5 3497,4068.5C 3492.39,4095.91 3487.39,4123.24 3482,4150.5C 3478.4,4166.54 3470.57,4180.04 3458.5,4191C 3450.77,4196.69 3442.1,4200.02 3432.5,4201C 3404.81,4201.93 3377.14,4201.6 3349.5,4200C 3337.22,4197.72 3329.38,4190.55 3326,4178.5C 3323.04,4165.92 3322.71,4153.25 3325,4140.5C 3328.87,4118.14 3332.87,4095.81 3337,4073.5C 3340.08,4055.5 3348.25,4040.33 3361.5,4028C 3371.01,4022.88 3381.01,4019.72 3391.5,4018.5 Z"/></g>
<g><path style="opacity:0.994" fill="#000000" d="M 4073.5,3879.5 C 4208.17,3879.5 4342.83,3879.5 4477.5,3879.5C 4469.54,3925.76 4461.21,3971.93 4452.5,4018C 4386.17,4018.33 4319.83,4018.67 4253.5,4019C 4271.57,4044.4 4290.4,4069.23 4310,4093.5C 4326.86,4115.88 4341.2,4139.88 4353,4165.5C 4371.36,4213.24 4366.36,4258.24 4338,4300.5C 4320.72,4323.89 4297.55,4337.06 4268.5,4340C 4150.5,4340.83 4032.5,4340.67 3914.5,4339.5C 3923.09,4293.55 3931.42,4247.55 3939.5,4201.5C 4015.5,4201.67 4091.5,4201.5 4167.5,4201C 4143.73,4172.62 4120.57,4143.79 4098,4114.5C 4081.02,4091.22 4067.69,4065.89 4058,4038.5C 4053.7,4024.12 4052.04,4009.45 4053,3994.5C 4059.62,3956.08 4066.46,3917.75 4073.5,3879.5 Z"/></g>
<g><path style="opacity:0.994" fill="#000000" d="M 4638.5,3879.5 C 4726.2,3879.02 4813.86,3879.52 4901.5,3881C 4930.92,3890.09 4954.42,3907.25 4972,3932.5C 4988.41,3954.08 4995.75,3978.41 4994,4005.5C 4982.03,4078.7 4969.03,4151.7 4955,4224.5C 4931.71,4274.12 4894.88,4309.96 4844.5,4332C 4836.08,4335.47 4827.41,4338.14 4818.5,4340C 4730.83,4340.67 4643.17,4340.67 4555.5,4340C 4537.16,4335.99 4520.82,4327.99 4506.5,4316C 4483.28,4295.72 4468.11,4270.56 4461,4240.5C 4459.57,4231.54 4459.24,4222.54 4460,4213.5C 4471.88,4146.87 4483.55,4080.21 4495,4013.5C 4498.27,3994.68 4505.6,3977.68 4517,3962.5C 4545.03,3925.41 4580.86,3898.91 4624.5,3883C 4629.3,3881.8 4633.96,3880.63 4638.5,3879.5 Z M 4708.5,4018.5 C 4734.2,4018.07 4759.87,4018.57 4785.5,4020C 4800.23,4023.06 4809.4,4031.9 4813,4046.5C 4814.48,4054.11 4814.81,4061.78 4814,4069.5C 4809.55,4095.54 4804.88,4121.54 4800,4147.5C 4788.36,4192.94 4759.19,4210.94 4712.5,4201.5C 4697.14,4201.6 4681.8,4201.1 4666.5,4200C 4653.77,4197.61 4645.94,4190.11 4643,4177.5C 4640.01,4165.58 4639.67,4153.58 4642,4141.5C 4645.89,4119.15 4649.89,4096.81 4654,4074.5C 4657.23,4056.87 4665.06,4041.7 4677.5,4029C 4687.15,4023.17 4697.48,4019.67 4708.5,4018.5 Z"/></g>
<g><path style="opacity:0.994" fill="#000000" d="M 5058.5,3879.5 C 5131.5,3879.5 5204.5,3879.5 5277.5,3879.5C 5250.39,4033.15 5223.39,4186.81 5196.5,4340.5C 5140.16,4340.83 5083.83,4340.5 5027.5,4339.5C 5046.56,4232.65 5065.56,4125.82 5084.5,4019C 5067.5,4018.5 5050.5,4018.33 5033.5,4018.5C 5041.51,3972.08 5049.85,3925.74 5058.5,3879.5 Z"/></g>
<g><path style="opacity:0.995" fill="#000000" d="M 5700.5,3879.5 C 5821.17,3879.33 5941.83,3879.5 6062.5,3880C 6035.18,4033.1 6008.01,4186.26 5981,4339.5C 5924.9,4340.5 5868.74,4340.83 5812.5,4340.5C 5819.58,4299.45 5826.91,4258.45 5834.5,4217.5C 5770.84,4216.67 5707.17,4216.17 5643.5,4216C 5625.47,4213.44 5609.14,4206.77 5594.5,4196C 5562.51,4172.85 5543.67,4141.69 5538,4102.5C 5537.33,4094.83 5537.33,4087.17 5538,4079.5C 5542.22,4057.54 5546.22,4035.54 5550,4013.5C 5555.64,3992.89 5564.97,3974.22 5578,3957.5C 5602.23,3926.48 5632.39,3903.32 5668.5,3888C 5679.05,3884.2 5689.72,3881.36 5700.5,3879.5 Z M 5757.5,4018.5 C 5794.5,4018.5 5831.5,4018.5 5868.5,4018.5C 5865.27,4038.85 5861.94,4059.19 5858.5,4079.5C 5820.17,4079.67 5781.83,4079.5 5743.5,4079C 5733.96,4079.09 5725.79,4075.92 5719,4069.5C 5713.75,4055.48 5715.75,4042.48 5725,4030.5C 5727.89,4027.64 5731.06,4025.14 5734.5,4023C 5742.15,4020.66 5749.82,4019.16 5757.5,4018.5 Z"/></g>
<g><path style="opacity:0.994" fill="#000000" d="M 6110.5,3879.5 C 6245.5,3879.33 6380.5,3879.5 6515.5,3880C 6508.96,3915.06 6502.8,3950.22 6497,3985.5C 6492.08,4006 6483.42,4024.66 6471,4041.5C 6440.54,4079.63 6406.37,4114.13 6368.5,4145C 6348.5,4161 6328.5,4177 6308.5,4193C 6295.25,4205.66 6285.08,4220.5 6278,4237.5C 6264.36,4270.58 6254.52,4304.74 6248.5,4340C 6192.5,4340.67 6136.5,4340.67 6080.5,4340C 6087.27,4302.86 6094.11,4265.7 6101,4228.5C 6106.39,4209.39 6114.72,4191.72 6126,4175.5C 6142.69,4152.48 6161.19,4130.98 6181.5,4111C 6216.13,4080.7 6250.46,4050.04 6284.5,4019C 6218.5,4018.5 6152.5,4018.33 6086.5,4018.5C 6094.18,3972.11 6102.18,3925.78 6110.5,3879.5 Z"/></g>
<g><path style="opacity:0.993" fill="#000000" d="M 6563.5,3879.5 C 6663.17,3879.33 6762.83,3879.5 6862.5,3880C 6895.93,3885.3 6922.77,3901.46 6943,3928.5C 6973.57,3972.53 6976.24,4018.19 6951,4065.5C 6941.38,4080.73 6929.88,4094.4 6916.5,4106.5C 6940.2,4144.47 6944.03,4184.47 6928,4226.5C 6901.48,4279.51 6860.31,4316.01 6804.5,4336C 6798.62,4337.84 6792.62,4339.18 6786.5,4340C 6685.17,4340.5 6583.83,4340.67 6482.5,4340.5C 6490.46,4294.24 6498.79,4248.07 6507.5,4202C 6586.17,4201.67 6664.83,4201.33 6743.5,4201C 6758.72,4200.13 6765.56,4192.3 6764,4177.5C 6758.96,4172.37 6752.79,4170.21 6745.5,4171C 6673.83,4170.5 6602.17,4170.33 6530.5,4170.5C 6537.61,4130.19 6544.61,4089.85 6551.5,4049.5C 6624.83,4049.67 6698.17,4049.5 6771.5,4049C 6785.13,4048.04 6791.63,4040.87 6791,4027.5C 6790.22,4025.71 6789.05,4024.21 6787.5,4023C 6781.01,4020.9 6774.34,4019.57 6767.5,4019C 6691.17,4018.67 6614.83,4018.33 6538.5,4018C 6547.21,3971.93 6555.54,3925.76 6563.5,3879.5 Z"/></g>
<g><path style="opacity:0.994" fill="#000000" d="M 7029.5,3879.5 C 7133.83,3879.33 7238.17,3879.5 7342.5,3880C 7383.49,3886.32 7408.32,3909.82 7417,3950.5C 7419.95,3979.33 7413.62,4006 7398,4030.5C 7386.7,4048.76 7373.7,4065.76 7359,4081.5C 7343.14,4097.7 7326.97,4113.53 7310.5,4129C 7282.65,4152.76 7254.98,4176.76 7227.5,4201C 7303.5,4201.33 7379.5,4201.67 7455.5,4202C 7446.98,4248.1 7438.65,4294.27 7430.5,4340.5C 7312.5,4340.67 7194.5,4340.5 7076.5,4340C 7041.25,4334.42 7021.08,4313.92 7016,4278.5C 7013.98,4249.93 7019.65,4222.93 7033,4197.5C 7050.61,4168.55 7071.27,4141.88 7095,4117.5C 7131.2,4084.3 7167.7,4051.46 7204.5,4019C 7138.17,4018.5 7071.83,4018.33 7005.5,4018.5C 7013.76,3972.21 7021.76,3925.88 7029.5,3879.5 Z"/></g>
</svg>