<svg xmlns="http://www.w3.org/2000/svg" xmlns:xlink="http://www.w3.org/1999/xlink" version="1.1" style="shape-rendering:geometricPrecision; text-rendering:geometricPrecision; image-rendering:optimizeQuality; fill-rule:evenodd; clip-rule:evenodd" viewBox="87.5 3240.65 7401 1043.97">
<g><path style="opacity:0.992" fill="#000000" d="M 1310.5,3241.5 C 1349.14,3239.59 1387.47,3242.09 1425.5,3249C 1517.53,3269.37 1559.03,3326.54 1550,3420.5C 1545.92,3470.76 1529.58,3516.43 1501,3557.5C 1462.06,3605.24 1411.89,3633.74 1350.5,3643C 1311.73,3649.15 1272.73,3651.15 1233.5,3649C 1201.74,3647.18 1171.08,3640.52 1141.5,3629C 1088.71,3604.97 1061.21,3563.81 1059,3505.5C 1057.08,3450.17 1069.75,3398.5 1097,3350.5C 1128.25,3303.08 1171.42,3271.58 1226.5,3256C 1254.21,3248.66 1282.21,3243.83 1310.5,3241.5 Z M 1312.5,3361.5 C 1329.45,3361.54 1346.12,3363.7 1362.5,3368C 1385.96,3376.98 1397.96,3394.15 1398.5,3419.5C 1398,3446.5 1390.84,3471.5 1377,3494.5C 1361.06,3514.39 1340.22,3525.22 1314.5,3527C 1220,3538.48 1189.83,3499.65 1224,3410.5C 1234.43,3388.07 1251.6,3373.57 1275.5,3367C 1287.84,3364.25 1300.18,3362.42 1312.5,3361.5 Z"/></g>
<g><path style="opacity:0.992" fill="#000000" d="M 2529.5,3241.5 C 2573.78,3238.77 2617.45,3242.61 2660.5,3253C 2732.74,3273.07 2769.41,3320.57 2770.5,3395.5C 2769.73,3437.18 2761.23,3477.18 2745,3515.5C 2716.26,3576.47 2669.43,3616.31 2604.5,3635C 2545.56,3650.06 2485.9,3653.73 2425.5,3646C 2390.41,3642.42 2358.41,3630.75 2329.5,3611C 2298.95,3587.08 2282.11,3555.58 2279,3516.5C 2274.92,3458.24 2286.92,3403.57 2315,3352.5C 2345.96,3303.73 2389.46,3271.57 2445.5,3256C 2473.21,3248.66 2501.21,3243.83 2529.5,3241.5 Z M 2532.5,3361.5 C 2546.95,3361.82 2561.29,3363.32 2575.5,3366C 2603.68,3373.69 2617.68,3392.19 2617.5,3421.5C 2616.88,3447.32 2610.05,3471.32 2597,3493.5C 2585.26,3509.29 2569.76,3519.46 2550.5,3524C 2524.57,3529.6 2498.57,3529.93 2472.5,3525C 2448.42,3520.25 2434.59,3505.75 2431,3481.5C 2429.45,3455.35 2434.12,3430.35 2445,3406.5C 2457.66,3383.23 2477.16,3369.4 2503.5,3365C 2513.27,3363.46 2522.94,3362.29 2532.5,3361.5 Z"/></g>
<g><path style="opacity:0.992" fill="#000000" d="M 308.5,3242.5 C 398.833,3242.5 489.167,3242.5 579.5,3242.5C 572.716,3283.2 565.716,3323.87 558.5,3364.5C 500.166,3364.33 441.832,3364.5 383.5,3365C 399.283,3386.45 415.45,3407.62 432,3428.5C 447.198,3448.21 459.865,3469.55 470,3492.5C 482.231,3524.06 482.564,3555.73 471,3587.5C 456.623,3619.77 432.123,3639.27 397.5,3646C 294.167,3646.5 190.834,3646.67 87.5,3646.5C 94.7165,3605.87 101.716,3565.2 108.5,3524.5C 174.837,3524.83 241.17,3524.5 307.5,3523.5C 291.522,3503.69 275.356,3484.02 259,3464.5C 241.849,3442.31 227.516,3418.31 216,3392.5C 198.834,3336 214.667,3291.16 263.5,3258C 277.638,3249.9 292.638,3244.73 308.5,3242.5 Z"/></g>
<g><path style="opacity:0.992" fill="#000000" d="M 622.5,3242.5 C 671.5,3242.5 720.5,3242.5 769.5,3242.5C 761.314,3291.12 752.648,3339.62 743.5,3388C 790.499,3388.5 837.499,3388.67 884.5,3388.5C 892.91,3340.12 901.576,3291.79 910.5,3243.5C 959.495,3242.5 1008.5,3242.17 1057.5,3242.5C 1034.33,3376.88 1010.83,3511.21 987,3645.5C 937.905,3646.5 888.739,3646.83 839.5,3646.5C 848.05,3597.2 856.383,3547.87 864.5,3498.5C 817.833,3498.5 771.167,3498.5 724.5,3498.5C 716.09,3547.55 707.424,3596.55 698.5,3645.5C 649.505,3646.5 600.505,3646.83 551.5,3646.5C 574.658,3511.71 598.325,3377.05 622.5,3242.5 Z"/></g>
<g><path style="opacity:0.993" fill="#000000" d="M 1623.5,3242.5 C 1729.5,3242.33 1835.5,3242.5 1941.5,3243C 1970.08,3245.87 1993.58,3258.37 2012,3280.5C 2032.56,3305.18 2041.22,3333.51 2038,3365.5C 2034.64,3386.3 2030.64,3406.97 2026,3427.5C 2019.55,3444.41 2010.55,3459.75 1999,3473.5C 1982.48,3492.31 1963.65,3508.14 1942.5,3521C 1928.68,3528.72 1914.02,3534.05 1898.5,3537C 1838.85,3538.13 1779.19,3538.96 1719.5,3539.5C 1712.84,3575.11 1706.51,3610.77 1700.5,3646.5C 1651.16,3646.83 1601.83,3646.5 1552.5,3645.5C 1576.81,3511.28 1600.48,3376.95 1623.5,3242.5 Z M 1749.5,3364.5 C 1787.53,3364.06 1825.53,3364.56 1863.5,3366C 1881.88,3370.26 1887.38,3381.09 1880,3398.5C 1876.49,3408.18 1869.65,3414.01 1859.5,3416C 1853.22,3417.09 1846.88,3417.76 1840.5,3418C 1807.17,3418.5 1773.83,3418.67 1740.5,3418.5C 1743.72,3400.54 1746.72,3382.54 1749.5,3364.5 Z"/></g>
<g><path style="opacity:0.993" fill="#000000" d="M 2843.5,3242.5 C 2891.5,3242.17 2939.5,3242.5 2987.5,3243.5C 3024.26,3304.04 3061.26,3364.37 3098.5,3424.5C 3109.63,3364.19 3120.63,3303.86 3131.5,3243.5C 3180.5,3242.5 3229.5,3242.17 3278.5,3242.5C 3255.41,3377.13 3231.74,3511.63 3207.5,3646C 3159.83,3646.67 3112.17,3646.67 3064.5,3646C 3026.87,3585.25 2989.37,3524.42 2952,3463.5C 2941.27,3524.2 2930.44,3584.87 2919.5,3645.5C 2870.5,3646.5 2821.5,3646.83 2772.5,3646.5C 2795.66,3511.71 2819.32,3377.05 2843.5,3242.5 Z"/></g>
<g><path style="opacity:0.993" fill="#000000" d="M 3526.5,3242.5 C 3575.17,3242.5 3623.83,3242.5 3672.5,3242.5C 3679.78,3292.86 3687.28,3343.19 3695,3393.5C 3721.37,3343.25 3747.87,3293.09 3774.5,3243C 3817.84,3242.17 3861.17,3242.33 3904.5,3243.5C 3912.56,3293.45 3920.4,3343.45 3928,3393.5C 3954.55,3343.57 3980.72,3293.4 4006.5,3243C 4057.17,3242.17 4107.84,3242.33 4158.5,3243.5C 4092.69,3377.62 4027.02,3511.79 3961.5,3646C 3912.5,3646.67 3863.5,3646.67 3814.5,3646C 3809.11,3594.24 3803.94,3542.41 3799,3490.5C 3775.15,3542.21 3751.99,3594.21 3729.5,3646.5C 3680.17,3646.5 3630.83,3646.5 3581.5,3646.5C 3563.35,3511.8 3545.02,3377.14 3526.5,3242.5 Z"/></g>
<g><path style="opacity:0.992" fill="#000000" d="M 4188.5,3242.5 C 4237.83,3242.5 4287.17,3242.5 4336.5,3242.5C 4328.09,3290.88 4319.42,3339.21 4310.5,3387.5C 4357.5,3388.5 4404.5,3388.83 4451.5,3388.5C 4459.69,3339.88 4468.35,3291.38 4477.5,3243C 4526.5,3242.5 4575.5,3242.33 4624.5,3242.5C 4601.16,3376.89 4577.49,3511.23 4553.5,3645.5C 4504.5,3646.5 4455.5,3646.83 4406.5,3646.5C 4414.62,3597.13 4422.95,3547.8 4431.5,3498.5C 4384.83,3498.33 4338.17,3498.5 4291.5,3499C 4282.57,3548.09 4273.9,3597.26 4265.5,3646.5C 4216.16,3646.83 4166.83,3646.5 4117.5,3645.5C 4141.71,3511.26 4165.37,3376.93 4188.5,3242.5 Z"/></g>
<g><path style="opacity:0.993" fill="#000000" d="M 4781.5,3242.5 C 4860.17,3242.5 4938.83,3242.5 5017.5,3242.5C 5035.42,3376.9 5053.76,3511.23 5072.5,3645.5C 5023.84,3646.5 4975.17,3646.83 4926.5,3646.5C 4923.49,3626.11 4920.16,3605.77 4916.5,3585.5C 4866.83,3584.17 4817.17,3584.17 4767.5,3585.5C 4757.17,3605.5 4746.83,3625.5 4736.5,3645.5C 4685.83,3646.83 4635.17,3646.83 4584.5,3645.5C 4649.92,3510.99 4715.59,3376.65 4781.5,3242.5 Z M 4882.5,3352.5 C 4884.07,3354.81 4884.9,3357.48 4885,3360.5C 4891.16,3399.13 4896.99,3437.8 4902.5,3476.5C 4875.16,3476.83 4847.83,3476.5 4820.5,3475.5C 4841.45,3434.6 4862.12,3393.6 4882.5,3352.5 Z"/></g>
<g><path style="opacity:0.992" fill="#000000" d="M 5102.5,3242.5 C 5239.83,3242.5 5377.17,3242.5 5514.5,3242.5C 5507.93,3283.24 5500.93,3323.9 5493.5,3364.5C 5449.17,3364.5 5404.83,3364.5 5360.5,3364.5C 5344.71,3458.26 5328.37,3551.93 5311.5,3645.5C 5262.5,3646.5 5213.5,3646.83 5164.5,3646.5C 5180.62,3552.46 5196.95,3458.46 5213.5,3364.5C 5169.5,3364.5 5125.5,3364.5 5081.5,3364.5C 5088.5,3323.83 5095.5,3283.17 5102.5,3242.5 Z"/></g>
<g><path style="opacity:0.992" fill="#000000" d="M 5636.5,3242.5 C 5726.83,3242.5 5817.17,3242.5 5907.5,3242.5C 5900.5,3283.17 5893.5,3323.83 5886.5,3364.5C 5828.17,3364.33 5769.83,3364.5 5711.5,3365C 5726.95,3386.12 5742.78,3406.95 5759,3427.5C 5773.93,3447.01 5786.6,3468.01 5797,3490.5C 5811.86,3526.66 5810.86,3562.33 5794,3597.5C 5778.41,3623.74 5755.57,3639.91 5725.5,3646C 5622.17,3646.5 5518.83,3646.67 5415.5,3646.5C 5422.5,3605.83 5429.5,3565.17 5436.5,3524.5C 5502.83,3524.67 5569.17,3524.5 5635.5,3524C 5613.91,3498.41 5593.07,3472.24 5573,3445.5C 5559.99,3426.49 5549.33,3406.16 5541,3384.5C 5528.61,3330.66 5545.45,3288.49 5591.5,3258C 5605.64,3249.9 5620.64,3244.73 5636.5,3242.5 Z"/></g>
<g><path style="opacity:0.993" fill="#000000" d="M 6008.5,3242.5 C 6087.17,3242.17 6165.84,3242.5 6244.5,3243.5C 6263.11,3377.78 6281.45,3512.12 6299.5,3646.5C 6250.83,3646.5 6202.17,3646.5 6153.5,3646.5C 6150.69,3625.81 6147.69,3605.14 6144.5,3584.5C 6094.83,3584.33 6045.17,3584.5 5995.5,3585C 5984.83,3605.33 5974.17,3625.67 5963.5,3646C 5912.83,3646.67 5862.17,3646.67 5811.5,3646C 5877.31,3511.55 5942.97,3377.05 6008.5,3242.5 Z M 6110.5,3351.5 C 6117.47,3392.99 6124.14,3434.66 6130.5,3476.5C 6102.83,3476.67 6075.16,3476.5 6047.5,3476C 6068.91,3434.68 6089.91,3393.18 6110.5,3351.5 Z"/></g>
<g><path style="opacity:0.993" fill="#000000" d="M 6401.5,3242.5 C 6510.85,3242.02 6620.18,3242.52 6729.5,3244C 6770.82,3254.98 6798.32,3280.82 6812,3321.5C 6815.96,3333.89 6817.29,3346.56 6816,3359.5C 6813.21,3379.25 6809.87,3398.92 6806,3418.5C 6799.55,3440.25 6788.89,3459.58 6774,3476.5C 6753.47,3499.38 6729.3,3517.21 6701.5,3530C 6693.38,3533.11 6685.05,3535.45 6676.5,3537C 6616.52,3538.46 6556.52,3538.96 6496.5,3538.5C 6490.65,3574.45 6484.31,3610.28 6477.5,3646C 6428.5,3646.5 6379.5,3646.67 6330.5,3646.5C 6353.95,3511.79 6377.62,3377.13 6401.5,3242.5 Z M 6527.5,3364.5 C 6565.52,3364.06 6603.52,3364.56 6641.5,3366C 6655.53,3368.22 6661.69,3376.39 6660,3390.5C 6657.02,3405.82 6647.85,3414.65 6632.5,3417C 6594.52,3418.4 6556.52,3418.9 6518.5,3418.5C 6521.07,3400.42 6524.07,3382.42 6527.5,3364.5 Z"/></g>
<g><path style="opacity:0.993" fill="#000000" d="M 6879.5,3242.5 C 6988.85,3242.02 7098.18,3242.52 7207.5,3244C 7248.82,3254.98 7276.32,3280.82 7290,3321.5C 7293.96,3333.89 7295.29,3346.56 7294,3359.5C 7291.09,3380.63 7287.42,3401.63 7283,3422.5C 7276.26,3442.66 7265.93,3460.66 7252,3476.5C 7231.49,3499.35 7207.32,3517.18 7179.5,3530C 7171.38,3533.11 7163.05,3535.45 7154.5,3537C 7094.52,3538.46 7034.52,3538.96 6974.5,3538.5C 6968.65,3574.45 6962.31,3610.28 6955.5,3646C 6906.5,3646.5 6857.5,3646.67 6808.5,3646.5C 6831.95,3511.79 6855.62,3377.12 6879.5,3242.5 Z M 7005.5,3364.5 C 7043.52,3364.06 7081.52,3364.56 7119.5,3366C 7133.53,3368.22 7139.69,3376.39 7138,3390.5C 7135.02,3405.82 7125.85,3414.65 7110.5,3417C 7072.52,3418.4 7034.52,3418.9 6996.5,3418.5C 6999.07,3400.42 7002.07,3382.42 7005.5,3364.5 Z"/></g>
<g><path style="opacity:0.987" fill="#000000" d="M 7340.5,3336.5 C 7389.83,3336.5 7439.17,3336.5 7488.5,3336.5C 7481.28,3377.13 7474.28,3417.8 7467.5,3458.5C 7418.16,3458.83 7368.83,3458.5 7319.5,3457.5C 7326.89,3417.24 7333.89,3376.9 7340.5,3336.5 Z"/></g>
<g><path style="opacity:0.987" fill="#000000" d="M 7308.5,3524.5 C 7357.5,3524.5 7406.5,3524.5 7455.5,3524.5C 7448.43,3565.08 7441.1,3605.58 7433.5,3646C 7384.5,3646.5 7335.5,3646.67 7286.5,3646.5C 7293.41,3605.72 7300.74,3565.06 7308.5,3524.5 Z"/></g>
<g><path style="opacity:0.993" fill="#000000" d="M 2887.5,3880.5 C 2960.17,3880.33 3032.83,3880.5 3105.5,3881C 3116.52,3882.12 3126.86,3885.45 3136.5,3891C 3167.88,3909.72 3187.71,3936.88 3196,3972.5C 3196.67,3979.17 3196.67,3985.83 3196,3992.5C 3185.77,4052.18 3175.44,4111.85 3165,4171.5C 3161.42,4185.65 3155.42,4198.65 3147,4210.5C 3120.72,4247.11 3085.89,4271.61 3042.5,4284C 2965.17,4284.67 2887.83,4284.67 2810.5,4284C 2796.01,4280.59 2783.01,4274.25 2771.5,4265C 2749.24,4245.98 2735.07,4222.15 2729,4193.5C 2728.33,4186.17 2728.33,4178.83 2729,4171.5C 2739.59,4112.55 2749.92,4053.55 2760,3994.5C 2764.38,3976.06 2772.72,3959.73 2785,3945.5C 2805.75,3921.75 2830.25,3902.92 2858.5,3889C 2868.06,3885.36 2877.73,3882.53 2887.5,3880.5 Z M 2952.5,4002.5 C 2972.19,4002.15 2991.86,4002.65 3011.5,4004C 3026.54,4006.04 3035.38,4014.54 3038,4029.5C 3038.67,4036.17 3038.67,4042.83 3038,4049.5C 3033.98,4074.29 3029.31,4098.96 3024,4123.5C 3019.07,4142.1 3007.57,4154.6 2989.5,4161C 2975.71,4162.11 2961.87,4162.61 2948,4162.5C 2934.46,4162.62 2920.96,4162.12 2907.5,4161C 2896.39,4157.55 2889.89,4150.05 2888,4138.5C 2887.33,4129.5 2887.33,4120.5 2888,4111.5C 2891.57,4089.42 2895.57,4067.42 2900,4045.5C 2906.42,4017.22 2923.92,4002.88 2952.5,4002.5 Z"/></g>
<g><path style="opacity:0.992" fill="#000000" d="M 3480.5,3880.5 C 3550.83,3880.5 3621.17,3880.5 3691.5,3880.5C 3684.5,3921.17 3677.5,3961.83 3670.5,4002.5C 3599.48,4002.04 3528.48,4002.54 3457.5,4004C 3428.66,4006.41 3405.33,4018.75 3387.5,4041C 3453.83,4041.33 3520.17,4041.67 3586.5,4042C 3613.48,4047.96 3632.31,4063.8 3643,4089.5C 3646.56,4098.84 3648.39,4108.51 3648.5,4118.5C 3645.05,4143.93 3640.88,4169.27 3636,4194.5C 3625.86,4234.29 3602.03,4262.45 3564.5,4279C 3558.37,4281.43 3552.03,4283.09 3545.5,4284C 3492.83,4284.67 3440.17,4284.67 3387.5,4284C 3348.56,4282.76 3311.89,4273.1 3277.5,4255C 3241.64,4232.08 3221.8,4199.24 3218,4156.5C 3214.59,4108.95 3221.59,4062.95 3239,4018.5C 3263.78,3960.39 3305.94,3920.89 3365.5,3900C 3403.09,3888.29 3441.42,3881.79 3480.5,3880.5 Z M 3376.5,4135.5 C 3413,4134.34 3449.66,4134.17 3486.5,4135C 3496.26,4141.8 3499.26,4150.96 3495.5,4162.5C 3471.83,4162.67 3448.16,4162.5 3424.5,4162C 3404.12,4160.65 3388.12,4151.82 3376.5,4135.5 Z"/></g>
<g><path style="opacity:0.993" fill="#000000" d="M 3841.5,3880.5 C 3916.86,3880.02 3992.19,3880.52 4067.5,3882C 4102.04,3893.87 4127.21,3916.37 4143,3949.5C 4149.51,3964.62 4151.51,3980.28 4149,3996.5C 4139,4053.83 4129,4111.17 4119,4168.5C 4114.57,4188.03 4105.9,4205.36 4093,4220.5C 4067.54,4251.82 4035.37,4272.98 3996.5,4284C 3919.17,4284.67 3841.83,4284.67 3764.5,4284C 3737.76,4276.6 3716.6,4261.43 3701,4238.5C 3687.18,4219.37 3680.85,4198.04 3682,4174.5C 3692.44,4115.52 3702.77,4056.52 3713,3997.5C 3717.32,3976.52 3726.66,3958.18 3741,3942.5C 3761.79,3919.39 3786.29,3901.22 3814.5,3888C 3823.41,3884.69 3832.41,3882.19 3841.5,3880.5 Z M 3906.5,4002.5 C 3926.19,4002.17 3945.86,4002.67 3965.5,4004C 3984.38,4008.37 3993.38,4020.37 3992.5,4040C 3988.8,4067.37 3983.97,4094.53 3978,4121.5C 3973.65,4139.51 3963.15,4152.34 3946.5,4160C 3943.53,4160.79 3940.53,4161.46 3937.5,4162C 3925.67,4162.17 3913.83,4162.33 3902,4162.5C 3888.46,4162.62 3874.96,4162.12 3861.5,4161C 3852.94,4159.44 3847.1,4154.6 3844,4146.5C 3840.15,4133.7 3839.48,4120.7 3842,4107.5C 3845.74,4086.12 3849.74,4064.78 3854,4043.5C 3860.91,4015.99 3878.41,4002.33 3906.5,4002.5 Z"/></g>
<g><path style="opacity:0.992" fill="#000000" d="M 4496.5,3880.5 C 4614.5,3880.5 4732.5,3880.5 4850.5,3880.5C 4843.5,3921.17 4836.5,3961.83 4829.5,4002.5C 4771.17,4002.33 4712.83,4002.5 4654.5,4003C 4669.95,4024.12 4685.78,4044.95 4702,4065.5C 4717.01,4085.5 4730.01,4106.83 4741,4129.5C 4759.72,4176.64 4753.05,4219.64 4721,4258.5C 4707.3,4272.93 4690.47,4281.43 4670.5,4284C 4566.5,4284.5 4462.5,4284.67 4358.5,4284.5C 4365.5,4243.83 4372.5,4203.17 4379.5,4162.5C 4445.84,4162.83 4512.17,4162.5 4578.5,4161.5C 4556.72,4136.22 4535.88,4110.22 4516,4083.5C 4502.99,4064.49 4492.33,4044.16 4484,4022.5C 4480.03,4009.43 4478.37,3996.1 4479,3982.5C 4484.94,3948.51 4490.78,3914.51 4496.5,3880.5 Z"/></g>
<g><path style="opacity:0.993" fill="#000000" d="M 4994.5,3880.5 C 5069.86,3880.02 5145.19,3880.52 5220.5,3882C 5234.74,3886.29 5247.74,3892.95 5259.5,3902C 5278.55,3917.71 5292.05,3937.21 5300,3960.5C 5303.56,3972.35 5304.23,3984.35 5302,3996.5C 5291.54,4058.27 5280.54,4119.94 5269,4181.5C 5247.14,4228.02 5212.31,4260.86 5164.5,4280C 5159.63,4281.8 5154.63,4283.14 5149.5,4284C 5072.17,4284.67 4994.83,4284.67 4917.5,4284C 4890.76,4276.6 4869.6,4261.43 4854,4238.5C 4840.18,4219.38 4833.85,4198.05 4835,4174.5C 4845.66,4115.56 4855.99,4056.56 4866,3997.5C 4870.41,3976.01 4880.08,3957.34 4895,3941.5C 4915.09,3919.41 4938.59,3901.91 4965.5,3889C 4974.97,3885.05 4984.64,3882.22 4994.5,3880.5 Z M 5059.5,4002.5 C 5079.19,4002.17 5098.86,4002.67 5118.5,4004C 5131.68,4006.18 5140.18,4013.68 5144,4026.5C 5145.4,4033.45 5145.73,4040.45 5145,4047.5C 5140.99,4071.23 5136.66,4094.9 5132,4118.5C 5128.6,4136.83 5118.77,4150.33 5102.5,4159C 5098.58,4160.31 5094.58,4161.31 5090.5,4162C 5065.13,4162.95 5039.79,4162.62 5014.5,4161C 5004.77,4158.94 4998.6,4153.1 4996,4143.5C 4993.04,4131.92 4992.71,4120.26 4995,4108.5C 4998.68,4086.77 5002.68,4065.1 5007,4043.5C 5010.14,4031.72 5015.97,4021.55 5024.5,4013C 5035.1,4005.69 5046.77,4002.19 5059.5,4002.5 Z"/></g>
<g><path style="opacity:0.991" fill="#000000" d="M 5358.5,3880.5 C 5422.5,3880.5 5486.5,3880.5 5550.5,3880.5C 5527.22,4014.9 5503.55,4149.24 5479.5,4283.5C 5430.5,4284.5 5381.5,4284.83 5332.5,4284.5C 5348.4,4190.43 5364.73,4096.43 5381.5,4002.5C 5366.83,4002.5 5352.17,4002.5 5337.5,4002.5C 5344.28,3961.8 5351.28,3921.13 5358.5,3880.5 Z"/></g>
<g><path style="opacity:0.993" fill="#000000" d="M 5926.5,3880.5 C 6029.83,3880.5 6133.17,3880.5 6236.5,3880.5C 6213.05,4015.21 6189.38,4149.87 6165.5,4284.5C 6116.5,4284.5 6067.5,4284.5 6018.5,4284.5C 6024.5,4248.5 6030.5,4212.5 6036.5,4176.5C 5982.83,4176.67 5929.17,4176.5 5875.5,4176C 5854.77,4173.91 5836.44,4166.24 5820.5,4153C 5796.59,4133.36 5782.43,4108.19 5778,4077.5C 5777.33,4070.17 5777.33,4062.83 5778,4055.5C 5781.68,4034.44 5785.68,4013.44 5790,3992.5C 5799.83,3964.66 5816,3941.16 5838.5,3922C 5855.39,3907.05 5874.39,3895.38 5895.5,3887C 5905.75,3883.74 5916.08,3881.58 5926.5,3880.5 Z M 5970.5,4002.5 C 6002.84,4002.17 6035.17,4002.5 6067.5,4003.5C 6064.18,4021.11 6061.18,4038.78 6058.5,4056.5C 6026.16,4056.67 5993.83,4056.5 5961.5,4056C 5935.08,4055.35 5927.25,4042.85 5938,4018.5C 5940.83,4013.67 5944.67,4009.83 5949.5,4007C 5956.47,4004.67 5963.47,4003.17 5970.5,4002.5 Z"/></g>
<g><path style="opacity:0.991" fill="#000000" d="M 6278.5,3880.5 C 6396.5,3880.5 6514.5,3880.5 6632.5,3880.5C 6627.77,3911.56 6622.6,3942.56 6617,3973.5C 6611.58,3995 6601.92,4014.33 6588,4031.5C 6561.76,4062.4 6532.93,4090.57 6501.5,4116C 6486.55,4127.29 6471.88,4138.95 6457.5,4151C 6448.58,4158.92 6440.75,4167.75 6434,4177.5C 6416.87,4211.17 6405.37,4246.67 6399.5,4284C 6350.5,4284.67 6301.5,4284.67 6252.5,4284C 6258.61,4250.86 6264.77,4217.69 6271,4184.5C 6277.2,4164.77 6286.53,4146.77 6299,4130.5C 6327.24,4096.26 6358.74,4065.43 6393.5,4038C 6405.87,4025.97 6418.53,4014.3 6431.5,4003C 6373.5,4002.5 6315.5,4002.33 6257.5,4002.5C 6264.72,3961.87 6271.72,3921.2 6278.5,3880.5 Z"/></g>
<g><path style="opacity:0.993" fill="#000000" d="M 6675.5,3880.5 C 6760.83,3880.33 6846.17,3880.5 6931.5,3881C 6954.13,3882.48 6973.79,3890.82 6990.5,3906C 7028.61,3941.86 7038.44,3984.36 7020,4033.5C 7015.42,4042.34 7010.08,4050.68 7004,4058.5C 6997.46,4065.7 6990.96,4072.87 6984.5,4080C 7007.33,4118.44 7008.49,4157.6 6988,4197.5C 6963.71,4237.45 6929.55,4265.29 6885.5,4281C 6880.86,4282.13 6876.19,4283.13 6871.5,4284C 6782.5,4284.5 6693.5,4284.67 6604.5,4284.5C 6611.5,4243.83 6618.5,4203.16 6625.5,4162.5C 6695.5,4162.67 6765.5,4162.5 6835.5,4162C 6846.68,4160.16 6851.85,4153.66 6851,4142.5C 6849.27,4139.05 6846.44,4137.21 6842.5,4137C 6777.19,4135.54 6711.85,4135.04 6646.5,4135.5C 6652.5,4100.5 6658.5,4065.5 6664.5,4030.5C 6729.85,4030.95 6795.18,4030.45 6860.5,4029C 6871.33,4026.84 6875.83,4020.34 6874,4009.5C 6872.79,4007.95 6871.29,4006.78 6869.5,4006C 6863.33,4004.07 6856.99,4003.07 6850.5,4003C 6784.83,4002.83 6719.16,4002.33 6653.5,4001.5C 6660.94,3961.18 6668.28,3920.85 6675.5,3880.5 Z"/></g>
<g><path style="opacity:0.992" fill="#000000" d="M 7083.5,3880.5 C 7174.17,3880.33 7264.83,3880.5 7355.5,3881C 7391.71,3886.35 7413.88,3906.85 7422,3942.5C 7424.88,3963.99 7421.21,3984.32 7411,4003.5C 7405.4,4013.43 7399.4,4023.1 7393,4032.5C 7373.27,4056.57 7351.77,4079.07 7328.5,4100C 7304.5,4120.67 7280.5,4141.33 7256.5,4162C 7322.83,4162.5 7389.17,4162.67 7455.5,4162.5C 7448.61,4203.11 7441.28,4243.61 7433.5,4284C 7329.83,4284.67 7226.17,4284.67 7122.5,4284C 7092.11,4278.42 7074.94,4260.25 7071,4229.5C 7069.4,4203.22 7075.07,4178.56 7088,4155.5C 7107.15,4126.34 7129.31,4099.5 7154.5,4075C 7182.39,4052.11 7209.39,4028.11 7235.5,4003C 7177.5,4002.67 7119.5,4002.33 7061.5,4002C 7069.02,3961.56 7076.35,3921.06 7083.5,3880.5 Z"/></g>
</svg>