<svg xmlns="http://www.w3.org/2000/svg" xmlns:xlink="http://www.w3.org/1999/xlink" version="1.1" style="shape-rendering:geometricPrecision; text-rendering:geometricPrecision; image-rendering:optimizeQuality; fill-rule:evenodd; clip-rule:evenodd" viewBox="29.5 3113.88 7429 1455.74">
<g><path style="opacity:0.99" fill="#000000" d="M 232.5,3114.5 C 275.525,3111.78 317.191,3117.95 357.5,3133C 418.348,3158.02 453.015,3203.19 461.5,3268.5C 413.836,3271.21 366.169,3273.87 318.5,3276.5C 313.754,3243.59 294.754,3225.42 261.5,3222C 241.371,3219.19 222.371,3222.52 204.5,3232C 187.468,3244.1 185.134,3258.44 197.5,3275C 211.018,3282.62 225.351,3288.29 240.5,3292C 276.607,3300.92 312.607,3310.26 348.5,3320C 375.527,3326.85 400.86,3337.52 424.5,3352C 463.145,3381.8 481.479,3421.3 479.5,3470.5C 478.469,3530.99 450.469,3573.49 395.5,3598C 361.735,3612.82 326.402,3621.15 289.5,3623C 238.633,3627.31 189.3,3620.64 141.5,3603C 99.4592,3586.95 67.2925,3559.45 45,3520.5C 35.6296,3501.18 30.463,3481.01 29.5,3460C 77.1667,3455.17 124.833,3450.33 172.5,3445.5C 174.167,3445.83 175.833,3446.17 177.5,3446.5C 180.325,3479.15 197.325,3500.32 228.5,3510C 251.268,3516.22 273.934,3515.89 296.5,3509C 322.753,3500.01 330.586,3482.84 320,3457.5C 314.281,3451.38 307.447,3446.88 299.5,3444C 289.047,3439.74 278.38,3436.07 267.5,3433C 227.232,3422.6 187.232,3411.27 147.5,3399C 62.4813,3372.82 28.9813,3315.99 47,3228.5C 55.9097,3195.6 74.743,3170.1 103.5,3152C 128.222,3136.76 154.888,3126.42 183.5,3121C 199.887,3118.11 216.221,3115.94 232.5,3114.5 Z"/></g>
<g><path style="opacity:0.992" fill="#000000" d="M 1231.5,3114.5 C 1290.45,3110.99 1345.45,3123.82 1396.5,3153C 1453.06,3190.55 1487.23,3243.05 1499,3310.5C 1507.2,3361.44 1504.53,3411.77 1491,3461.5C 1465.15,3538.02 1413.65,3588.19 1336.5,3612C 1283.82,3625.77 1230.82,3627.1 1177.5,3616C 1090.3,3595.01 1033.14,3541.84 1006,3456.5C 989.074,3391.55 991.074,3327.22 1012,3263.5C 1043.21,3187.97 1098.71,3140.8 1178.5,3122C 1196.16,3118.42 1213.83,3115.92 1231.5,3114.5 Z M 1243.5,3232.5 C 1283.15,3231.73 1313.31,3248.07 1334,3281.5C 1344.55,3305.35 1349.88,3330.35 1350,3356.5C 1351.64,3385.76 1348.3,3414.43 1340,3442.5C 1320.84,3488.18 1286.34,3509.02 1236.5,3505C 1187.74,3495.91 1159.58,3466.74 1152,3417.5C 1147.97,3388.73 1147.47,3359.9 1150.5,3331C 1152.69,3305.73 1161.53,3283.23 1177,3263.5C 1195.24,3244.63 1217.4,3234.3 1243.5,3232.5 Z"/></g>
<g><path style="opacity:0.992" fill="#000000" d="M 2360.5,3114.5 C 2417.75,3111.31 2471.41,3123.48 2521.5,3151C 2571.7,3182.22 2604.87,3226.39 2621,3283.5C 2634.49,3336.61 2635.49,3389.94 2624,3443.5C 2596.66,3543.5 2531.83,3602.33 2429.5,3620C 2369.42,3629.57 2311.42,3622.57 2255.5,3599C 2190.18,3566.93 2148.68,3515.43 2131,3444.5C 2119.73,3394.49 2119.73,3344.49 2131,3294.5C 2156.15,3200.35 2216.32,3142.51 2311.5,3121C 2327.86,3117.91 2344.19,3115.75 2360.5,3114.5 Z M 2371.5,3232.5 C 2430.58,3234.07 2465.08,3264.07 2475,3322.5C 2479.65,3353.5 2479.65,3384.5 2475,3415.5C 2471.74,3441.51 2460.91,3463.68 2442.5,3482C 2410.63,3506.79 2375.63,3512.13 2337.5,3498C 2309.94,3485.06 2292.11,3463.9 2284,3434.5C 2275.21,3395.38 2274.21,3356.05 2281,3316.5C 2287.66,3276.85 2309.83,3250.35 2347.5,3237C 2355.54,3234.94 2363.54,3233.44 2371.5,3232.5 Z"/></g>
<g><path style="opacity:0.99" fill="#000000" d="M 5554.5,3114.5 C 5599.42,3111.71 5642.75,3118.54 5684.5,3135C 5742.92,3160.71 5775.92,3205.04 5783.5,3268C 5735.85,3271.21 5688.18,3274.04 5640.5,3276.5C 5638.39,3253.22 5626.72,3236.72 5605.5,3227C 5582.49,3219.69 5559.49,3219.69 5536.5,3227C 5526.91,3230.7 5519.41,3236.87 5514,3245.5C 5509.45,3256.58 5511.28,3266.42 5519.5,3275C 5532.01,3282.28 5545.35,3287.62 5559.5,3291C 5595.59,3300.02 5631.59,3309.35 5667.5,3319C 5691.88,3325.46 5715.21,3334.46 5737.5,3346C 5782.42,3375.01 5803.76,3416.51 5801.5,3470.5C 5800.62,3532.14 5771.95,3574.97 5715.5,3599C 5686.73,3611.36 5656.73,3619.03 5625.5,3622C 5578.43,3627.07 5532.1,3623.4 5486.5,3611C 5450.22,3600.33 5418.72,3581.83 5392,3555.5C 5366.74,3528.58 5353.24,3496.58 5351.5,3459.5C 5400.83,3454.67 5450.16,3450.17 5499.5,3446C 5502.04,3478.87 5519.04,3500.2 5550.5,3510C 5579.25,3517.95 5606.92,3515.29 5633.5,3502C 5648.65,3489.55 5651.49,3474.72 5642,3457.5C 5638.36,3452.85 5633.86,3449.35 5628.5,3447C 5618.05,3442.44 5607.39,3438.44 5596.5,3435C 5549.03,3422.95 5502.03,3409.29 5455.5,3394C 5428,3384.82 5405.16,3368.98 5387,3346.5C 5371.33,3322.97 5363.83,3296.97 5364.5,3268.5C 5364.13,3213.38 5387.79,3172.54 5435.5,3146C 5472.93,3126.69 5512.59,3116.19 5554.5,3114.5 Z"/></g>
<g><path style="opacity:0.994" fill="#000000" d="M 506.5,3125.5 C 556.833,3125.5 607.167,3125.5 657.5,3125.5C 657.5,3185.5 657.5,3245.5 657.5,3305.5C 710.167,3305.5 762.833,3305.5 815.5,3305.5C 815.333,3245.83 815.5,3186.17 816,3126.5C 866.095,3125.5 916.262,3125.17 966.5,3125.5C 966.5,3287.83 966.5,3450.17 966.5,3612.5C 916.167,3612.5 865.833,3612.5 815.5,3612.5C 815.5,3550.5 815.5,3488.5 815.5,3426.5C 762.833,3426.5 710.167,3426.5 657.5,3426.5C 657.5,3488.5 657.5,3550.5 657.5,3612.5C 607.167,3612.5 556.833,3612.5 506.5,3612.5C 506.5,3450.17 506.5,3287.83 506.5,3125.5 Z"/></g>
<g><path style="opacity:0.994" fill="#000000" d="M 1531.5,3125.5 C 1622.17,3125.33 1712.83,3125.5 1803.5,3126C 1843.83,3127.24 1880.5,3139.24 1913.5,3162C 1949.43,3190.69 1968.93,3228.19 1972,3274.5C 1975.88,3312.05 1969.54,3347.71 1953,3381.5C 1935.73,3411.1 1911.23,3432.6 1879.5,3446C 1856.74,3455.27 1833.08,3460.61 1808.5,3462C 1766.5,3462.5 1724.5,3462.67 1682.5,3462.5C 1682.5,3512.5 1682.5,3562.5 1682.5,3612.5C 1632.17,3612.5 1581.83,3612.5 1531.5,3612.5C 1531.5,3450.17 1531.5,3287.83 1531.5,3125.5 Z M 1682.5,3238.5 C 1709.17,3238.33 1735.84,3238.5 1762.5,3239C 1797.55,3241.21 1816.55,3259.71 1819.5,3294.5C 1817.36,3327.14 1800.03,3345.3 1767.5,3349C 1739.17,3349.5 1710.84,3349.67 1682.5,3349.5C 1682.5,3312.5 1682.5,3275.5 1682.5,3238.5 Z"/></g>
<g><path style="opacity:0.99" fill="#000000" d="M 2659.5,3125.5 C 2717.5,3125.33 2775.5,3125.5 2833.5,3126C 2883.3,3221.29 2933.3,3316.46 2983.5,3411.5C 2984.5,3316.17 2984.83,3220.84 2984.5,3125.5C 3030.41,3125.17 3076.24,3125.5 3122,3126.5C 3122.5,3288.5 3122.67,3450.5 3122.5,3612.5C 3065.5,3612.67 3008.5,3612.5 2951.5,3612C 2900.21,3514.58 2849.04,3417.08 2798,3319.5C 2797.5,3417.17 2797.33,3514.83 2797.5,3612.5C 2751.5,3612.5 2705.5,3612.5 2659.5,3612.5C 2659.5,3450.17 2659.5,3287.83 2659.5,3125.5 Z"/></g>
<g><path style="opacity:0.993" fill="#000000" d="M 3265.5,3125.5 C 3316.5,3125.17 3367.5,3125.5 3418.5,3126.5C 3436.21,3233.45 3453.71,3340.45 3471,3447.5C 3471.31,3448.31 3471.81,3448.97 3472.5,3449.5C 3487.49,3341.59 3501.82,3233.59 3515.5,3125.5C 3572.4,3125.17 3629.24,3125.5 3686,3126.5C 3700.09,3234.23 3714.59,3341.9 3729.5,3449.5C 3747.97,3342 3765.81,3234.33 3783,3126.5C 3835.1,3125.17 3887.27,3125.17 3939.5,3126.5C 3905.04,3288.14 3870.71,3449.81 3836.5,3611.5C 3772.17,3612.5 3707.84,3612.83 3643.5,3612.5C 3630.48,3509.67 3616.48,3407 3601.5,3304.5C 3587.34,3407.08 3573.68,3509.75 3560.5,3612.5C 3496.17,3612.5 3431.83,3612.5 3367.5,3612.5C 3333.5,3450.17 3299.5,3287.84 3265.5,3125.5 Z"/></g>
<g><path style="opacity:0.994" fill="#000000" d="M 3953.5,3125.5 C 4003.83,3125.5 4054.17,3125.5 4104.5,3125.5C 4104.5,3185.5 4104.5,3245.5 4104.5,3305.5C 4157.17,3305.5 4209.83,3305.5 4262.5,3305.5C 4262.5,3245.5 4262.5,3185.5 4262.5,3125.5C 4312.83,3125.5 4363.17,3125.5 4413.5,3125.5C 4413.5,3287.83 4413.5,3450.17 4413.5,3612.5C 4363.17,3612.5 4312.83,3612.5 4262.5,3612.5C 4262.5,3550.5 4262.5,3488.5 4262.5,3426.5C 4209.83,3426.5 4157.17,3426.5 4104.5,3426.5C 4104.5,3488.5 4104.5,3550.5 4104.5,3612.5C 4054.17,3612.5 4003.83,3612.5 3953.5,3612.5C 3953.5,3450.17 3953.5,3287.83 3953.5,3125.5 Z"/></g>
<g><path style="opacity:0.993" fill="#000000" d="M 4593.5,3125.5 C 4662.55,3124.84 4731.38,3125.51 4800,3127.5C 4855.07,3288.87 4910.23,3450.2 4965.5,3611.5C 4912.17,3612.67 4858.84,3612.83 4805.5,3612C 4795.79,3582.05 4786.79,3551.88 4778.5,3521.5C 4722.83,3521.5 4667.17,3521.5 4611.5,3521.5C 4603.45,3551.66 4594.78,3581.66 4585.5,3611.5C 4532.84,3612.67 4480.17,3612.83 4427.5,3612C 4483.33,3450 4538.67,3287.83 4593.5,3125.5 Z M 4693.5,3246.5 C 4694.97,3247.35 4695.8,3248.68 4696,3250.5C 4712.76,3306.38 4729.59,3362.22 4746.5,3418C 4712.17,3418.5 4677.83,3418.67 4643.5,3418.5C 4659.56,3360.98 4676.23,3303.65 4693.5,3246.5 Z"/></g>
<g><path style="opacity:0.992" fill="#000000" d="M 4897.5,3125.5 C 5046.17,3125.5 5194.83,3125.5 5343.5,3125.5C 5343.5,3166.83 5343.5,3208.17 5343.5,3249.5C 5294.5,3249.5 5245.5,3249.5 5196.5,3249.5C 5196.5,3370.5 5196.5,3491.5 5196.5,3612.5C 5146.17,3612.5 5095.83,3612.5 5045.5,3612.5C 5045.5,3491.5 5045.5,3370.5 5045.5,3249.5C 4996.5,3249.67 4947.5,3249.5 4898.5,3249C 4897.5,3207.91 4897.17,3166.74 4897.5,3125.5 Z"/></g>
<g><path style="opacity:0.993" fill="#000000" d="M 5962.5,3125.5 C 6031.07,3125.17 6099.57,3125.5 6168,3126.5C 6223.47,3288.42 6278.64,3450.42 6333.5,3612.5C 6280.16,3612.83 6226.83,3612.5 6173.5,3611.5C 6164.34,3581.88 6155.34,3552.21 6146.5,3522.5C 6091.17,3521.33 6035.84,3521.17 5980.5,3522C 5971.29,3552.01 5962.62,3582.17 5954.5,3612.5C 5901.83,3612.5 5849.17,3612.5 5796.5,3612.5C 5851.44,3450.02 5906.77,3287.69 5962.5,3125.5 Z M 6061.5,3246.5 C 6063.48,3247.85 6064.65,3249.85 6065,3252.5C 6081.5,3307.85 6098,3363.19 6114.5,3418.5C 6080.16,3418.83 6045.83,3418.5 6011.5,3417.5C 6028.17,3360.49 6044.84,3303.49 6061.5,3246.5 Z"/></g>
<g><path style="opacity:0.991" fill="#000000" d="M 6347.5,3125.5 C 6438.5,3125.33 6529.5,3125.5 6620.5,3126C 6659.48,3127.32 6695.15,3138.65 6727.5,3160C 6763.65,3187.46 6783.82,3223.96 6788,3269.5C 6792.82,3309.1 6786.49,3346.77 6769,3382.5C 6746.44,3419.06 6714.27,3442.89 6672.5,3454C 6657.07,3458.09 6641.41,3460.75 6625.5,3462C 6583.5,3462.5 6541.5,3462.67 6499.5,3462.5C 6499.5,3512.5 6499.5,3562.5 6499.5,3612.5C 6448.83,3612.5 6398.17,3612.5 6347.5,3612.5C 6347.5,3450.17 6347.5,3287.83 6347.5,3125.5 Z M 6498.5,3239.5 C 6525.33,3238.34 6552.33,3238.17 6579.5,3239C 6621.26,3243.75 6639.43,3266.92 6634,3308.5C 6626.83,3333.19 6610.33,3346.69 6584.5,3349C 6555.83,3349.83 6527.16,3349.67 6498.5,3348.5C 6498.77,3312.03 6498.77,3275.7 6498.5,3239.5 Z"/></g>
<g><path style="opacity:0.993" fill="#000000" d="M 6816.5,3125.5 C 6907.5,3125.33 6998.5,3125.5 7089.5,3126C 7128.94,3127.52 7164.94,3139.18 7197.5,3161C 7233.66,3188.8 7253.49,3225.63 7257,3271.5C 7261.07,3307.98 7255.73,3342.98 7241,3376.5C 7220.42,3414.06 7189.59,3439.23 7148.5,3452C 7130.86,3457.27 7112.86,3460.61 7094.5,3462C 7052.17,3462.5 7009.83,3462.67 6967.5,3462.5C 6967.5,3512.5 6967.5,3562.5 6967.5,3612.5C 6917.17,3612.5 6866.83,3612.5 6816.5,3612.5C 6816.5,3450.17 6816.5,3287.83 6816.5,3125.5 Z M 6967.5,3238.5 C 6994.5,3238.33 7021.5,3238.5 7048.5,3239C 7092.1,3244.7 7109.94,3269.2 7102,3312.5C 7093.23,3334.91 7076.73,3347.07 7052.5,3349C 7024.17,3349.5 6995.84,3349.67 6967.5,3349.5C 6967.5,3312.5 6967.5,3275.5 6967.5,3238.5 Z"/></g>
<g><path style="opacity:0.985" fill="#000000" d="M 7294.5,3249.5 C 7344.17,3249.5 7393.83,3249.5 7443.5,3249.5C 7443.5,3295.17 7443.5,3340.83 7443.5,3386.5C 7393.5,3386.5 7343.5,3386.5 7293.5,3386.5C 7293.17,3340.76 7293.51,3295.09 7294.5,3249.5 Z"/></g>
<g><path style="opacity:0.985" fill="#000000" d="M 7294.5,3475.5 C 7344.17,3475.5 7393.83,3475.5 7443.5,3475.5C 7443.5,3521.17 7443.5,3566.83 7443.5,3612.5C 7393.5,3612.5 7343.5,3612.5 7293.5,3612.5C 7293.17,3566.76 7293.51,3521.09 7294.5,3475.5 Z"/></g>
<g><path style="opacity:0.994" fill="#000000" d="M 2098.5,3925.5 C 2148.2,3922.27 2196.54,3928.77 2243.5,3945C 2299.37,3967.54 2339.54,4006.37 2364,4061.5C 2383.16,4109.62 2393.49,4159.62 2395,4211.5C 2398.01,4264.98 2394.35,4317.98 2384,4370.5C 2357.18,4492.65 2281.35,4558.48 2156.5,4568C 1967.46,4580.62 1866.29,4492.45 1853,4303.5C 1848.63,4247.88 1850.96,4192.54 1860,4137.5C 1884.21,4004.45 1963.71,3933.79 2098.5,3925.5 Z M 2115.5,4060.5 C 2150.2,4058.76 2172.7,4074.42 2183,4107.5C 2194.25,4141.56 2199.91,4176.56 2200,4212.5C 2202.04,4257.36 2200.04,4302.03 2194,4346.5C 2190.39,4368.33 2183.39,4389 2173,4408.5C 2161.16,4425.67 2144.66,4434.34 2123.5,4434.5C 2101.8,4434.24 2084.97,4425.24 2073,4407.5C 2060.05,4382.38 2052.39,4355.71 2050,4327.5C 2045.07,4271.13 2045.41,4214.8 2051,4158.5C 2054.19,4132.74 2061.86,4108.41 2074,4085.5C 2084.37,4071.4 2098.2,4063.07 2115.5,4060.5 Z"/></g>
<g><path style="opacity:0.994" fill="#000000" d="M 3231.5,3925.5 C 3280.07,3922.53 3327.4,3928.7 3373.5,3944C 3429.83,3965.33 3470.33,4003.49 3495,4058.5C 3514.18,4104.56 3524.85,4152.56 3527,4202.5C 3531.74,4266.71 3526.41,4330.04 3511,4392.5C 3482.03,4495.13 3414.53,4552.96 3308.5,4566C 3249.89,4573.87 3192.56,4568.54 3136.5,4550C 3075.12,4525.62 3032.95,4482.45 3010,4420.5C 2990.78,4364.47 2981.95,4306.8 2983.5,4247.5C 2982.11,4190.07 2990.28,4134.07 3008,4079.5C 3040.01,3993.54 3101.51,3943.71 3192.5,3930C 3205.61,3928.16 3218.61,3926.66 3231.5,3925.5 Z M 3248.5,4060.5 C 3268.39,4059.07 3285.56,4065.07 3300,4078.5C 3314.51,4100.69 3323.51,4125.02 3327,4151.5C 3335.14,4213.12 3335.47,4274.79 3328,4336.5C 3324.7,4364.06 3316.04,4389.73 3302,4413.5C 3289.93,4427.21 3274.6,4434.21 3256,4434.5C 3227.91,4433.97 3208.91,4420.63 3199,4394.5C 3188.5,4368.18 3182.5,4340.85 3181,4312.5C 3176.74,4257.69 3178.07,4203.02 3185,4148.5C 3188.8,4124.1 3197.13,4101.43 3210,4080.5C 3220.5,4069.17 3233.33,4062.5 3248.5,4060.5 Z"/></g>
<g><path style="opacity:0.994" fill="#000000" d="M 4512.5,3925.5 C 4553.08,3923.51 4593.08,3927.34 4632.5,3937C 4701.93,3956.43 4750.76,3999.26 4779,4065.5C 4792.53,4099.28 4801.19,4134.28 4805,4170.5C 4812.08,4233.07 4810.41,4295.41 4800,4357.5C 4792.75,4399.31 4777.75,4437.98 4755,4473.5C 4720.82,4519.96 4675.32,4549.13 4618.5,4561C 4559.6,4573.06 4500.94,4572.06 4442.5,4558C 4359.6,4534.1 4306.44,4480.6 4283,4397.5C 4269.56,4348.42 4263.4,4298.42 4264.5,4247.5C 4263.15,4193 4270.31,4139.67 4286,4087.5C 4316.73,3997.45 4379.23,3944.95 4473.5,3930C 4486.61,3928.16 4499.61,3926.66 4512.5,3925.5 Z M 4529.5,4060.5 C 4563.3,4059.14 4585.47,4074.47 4596,4106.5C 4606.87,4138.58 4612.54,4171.58 4613,4205.5C 4614.1,4243.21 4613.44,4280.87 4611,4318.5C 4608.9,4349.8 4600.9,4379.46 4587,4407.5C 4575,4425.25 4558.16,4434.25 4536.5,4434.5C 4518.39,4434.3 4503.22,4427.64 4491,4414.5C 4478.13,4393.57 4469.8,4370.9 4466,4346.5C 4457.34,4280.17 4457.34,4213.84 4466,4147.5C 4469.33,4127.16 4475.67,4107.83 4485,4089.5C 4495.22,4072.78 4510.06,4063.11 4529.5,4060.5 Z"/></g>
<g><path style="opacity:0.992" fill="#000000" d="M 6652.5,3925.5 C 6691.52,3923.74 6730.19,3926.57 6768.5,3934C 6815.11,3942.88 6854.61,3964.38 6887,3998.5C 6916.41,4036.12 6928.08,4078.79 6922,4126.5C 6918.79,4152.24 6908.13,4174.24 6890,4192.5C 6871.7,4210.07 6850.2,4222.07 6825.5,4228.5C 6825.5,4229.83 6825.5,4231.17 6825.5,4232.5C 6896.74,4250.41 6932.07,4296.25 6931.5,4370C 6932.34,4407.15 6924.5,4442.32 6908,4475.5C 6894.83,4499.33 6876.33,4517.83 6852.5,4531C 6810.6,4552.98 6765.93,4564.98 6718.5,4567C 6667.83,4571.11 6617.83,4567.11 6568.5,4555C 6469.11,4528.43 6418.44,4463.59 6416.5,4360.5C 6479.19,4358.15 6541.85,4355.48 6604.5,4352.5C 6604.75,4408.25 6632.75,4434.08 6688.5,4430C 6717.05,4425.81 6734.55,4409.64 6741,4381.5C 6745.76,4360.81 6742.43,4341.48 6731,4323.5C 6717.26,4309.36 6700.43,4302.19 6680.5,4302C 6658.17,4301.5 6635.84,4301.33 6613.5,4301.5C 6613.5,4260.5 6613.5,4219.5 6613.5,4178.5C 6637.17,4178.67 6660.84,4178.5 6684.5,4178C 6725.5,4171 6743.67,4146.83 6739,4105.5C 6732.66,4083.83 6718.49,4070.33 6696.5,4065C 6645.67,4058.34 6618.33,4080.51 6614.5,4131.5C 6553.19,4128.52 6491.85,4125.85 6430.5,4123.5C 6433.84,4026.35 6482.17,3964.51 6575.5,3938C 6600.9,3931.29 6626.57,3927.12 6652.5,3925.5 Z"/></g>
<g><path style="opacity:0.992" fill="#000000" d="M 2672.5,3926.5 C 2718.34,3923.74 2763,3929.57 2806.5,3944C 2876.21,3971.05 2920.55,4020.71 2939.5,4093C 2937.38,4094.19 2935.04,4094.86 2932.5,4095C 2876.46,4102.01 2820.46,4109.17 2764.5,4116.5C 2760.9,4104.54 2756.4,4092.87 2751,4081.5C 2735.97,4058.91 2714.81,4049.41 2687.5,4053C 2650.39,4060.15 2626.89,4081.98 2617,4118.5C 2611.54,4140.83 2609.04,4163.5 2609.5,4186.5C 2610.87,4186.66 2612.21,4186.49 2613.5,4186C 2650.62,4156.29 2693.12,4142.13 2741,4143.5C 2809.58,4144.96 2865.92,4171.63 2910,4223.5C 2941.19,4265.24 2954.52,4312.24 2950,4364.5C 2945.23,4438.58 2911.06,4494.41 2847.5,4532C 2800.38,4557.13 2750.05,4569.63 2696.5,4569.5C 2654.75,4570.1 2614.41,4562.93 2575.5,4548C 2518.1,4523.6 2477.93,4482.43 2455,4424.5C 2440.13,4382.46 2431.79,4339.12 2430,4294.5C 2425.9,4235 2429.57,4176 2441,4117.5C 2454.46,4056.37 2485.29,4006.2 2533.5,3967C 2550.11,3954.87 2568.44,3946.2 2588.5,3941C 2616.16,3933.36 2644.16,3928.53 2672.5,3926.5 Z M 2679.5,4265.5 C 2709.27,4262.8 2734.11,4272.47 2754,4294.5C 2766.17,4312.54 2772.01,4332.54 2771.5,4354.5C 2771.11,4409.21 2743.78,4438.88 2689.5,4443.5C 2660.4,4442.54 2637.57,4430.2 2621,4406.5C 2604.63,4373.95 2603.63,4340.95 2618,4307.5C 2632,4283.92 2652.5,4269.92 2679.5,4265.5 Z"/></g>
<g><path style="opacity:0.992" fill="#000000" d="M 5607.5,3926.5 C 5654.08,3923.84 5699.41,3930.01 5743.5,3945C 5816.2,3974.82 5862.03,4027.99 5881,4104.5C 5889.77,4139.97 5894.77,4175.97 5896,4212.5C 5898.7,4263.85 5895.7,4314.85 5887,4365.5C 5876.3,4427.43 5847.8,4479.27 5801.5,4521C 5773.65,4543.08 5741.98,4556.75 5706.5,4562C 5650.54,4572.62 5594.87,4571.29 5539.5,4558C 5482.47,4542.44 5438.63,4509.61 5408,4459.5C 5398.47,4441.57 5391.3,4422.74 5386.5,4403C 5386.83,4402.5 5387.17,4402 5387.5,4401.5C 5445.75,4393.59 5504.08,4386.26 5562.5,4379.5C 5565.11,4395.72 5571.28,4410.38 5581,4423.5C 5593.92,4436.87 5609.75,4443.54 5628.5,4443.5C 5663.52,4441.25 5688.35,4424.25 5703,4392.5C 5712.8,4365.38 5716.97,4337.38 5715.5,4308.5C 5714.45,4308.35 5713.45,4308.52 5712.5,4309C 5681.82,4334.35 5646.49,4348.35 5606.5,4351C 5541.84,4355.89 5485.17,4337.22 5436.5,4295C 5386.12,4244.86 5366.29,4184.36 5377,4113.5C 5387.03,4046.16 5421.53,3995.66 5480.5,3962C 5520.55,3941.57 5562.88,3929.74 5607.5,3926.5 Z M 5625.5,4052.5 C 5668.2,4050.41 5697.37,4069.08 5713,4108.5C 5720.01,4134.3 5718.68,4159.63 5709,4184.5C 5689.62,4219.11 5660.12,4233.94 5620.5,4229C 5580.83,4220.53 5558.99,4196.03 5555,4155.5C 5551.45,4129.59 5556.45,4105.59 5570,4083.5C 5584.35,4065.74 5602.85,4055.41 5625.5,4052.5 Z"/></g>
<g><path style="opacity:0.994" fill="#000000" d="M 7196.5,3926.5 C 7239.23,3924.43 7281.23,3928.93 7322.5,3940C 7361.25,3950.94 7394.08,3971.1 7421,4000.5C 7447.29,4034.54 7459.46,4073.21 7457.5,4116.5C 7460.53,4202.31 7425.2,4266.48 7351.5,4309C 7305.83,4335.33 7260.17,4361.67 7214.5,4388C 7205.78,4393.03 7197.78,4399.03 7190.5,4406C 7279.83,4406.5 7369.17,4406.67 7458.5,4406.5C 7458.5,4456.5 7458.5,4506.5 7458.5,4556.5C 7292.17,4556.5 7125.83,4556.5 6959.5,4556.5C 6957.87,4514.48 6962.37,4473.15 6973,4432.5C 6986.82,4387.67 7010.65,4349.17 7044.5,4317C 7068.56,4295.8 7094.23,4276.8 7121.5,4260C 7148.83,4244 7176.17,4228 7203.5,4212C 7222.44,4200.44 7239.61,4186.6 7255,4170.5C 7275.8,4142.47 7276.8,4113.81 7258,4084.5C 7246.95,4073.23 7233.45,4067.9 7217.5,4068.5C 7186.27,4069.7 7166.44,4085.37 7158,4115.5C 7154.31,4128.92 7152.47,4142.59 7152.5,4156.5C 7090.16,4156.64 7027.83,4156.31 6965.5,4155.5C 6969.92,4032.46 7032.26,3957.96 7152.5,3932C 7167.26,3929.66 7181.92,3927.82 7196.5,3926.5 Z"/></g>
<g><path style="opacity:0.992" fill="#000000" d="M 3766.5,3938.5 C 3907.17,3938.5 4047.83,3938.5 4188.5,3938.5C 4188.5,3986.5 4188.5,4034.5 4188.5,4082.5C 4098.17,4082.5 4007.83,4082.5 3917.5,4082.5C 3915.45,4111.83 3913.45,4141.16 3911.5,4170.5C 3917.13,4168.06 3922.13,4164.56 3926.5,4160C 3947.97,4144.61 3971.97,4135.94 3998.5,4134C 4058.18,4128.35 4111.84,4143.35 4159.5,4179C 4202.51,4216.18 4226.01,4263.34 4230,4320.5C 4234.84,4365.6 4229.18,4409.26 4213,4451.5C 4196.02,4487.14 4170.19,4514.31 4135.5,4533C 4084.47,4558.8 4030.31,4570.96 3973,4569.5C 3926.46,4569.77 3881.62,4561.27 3838.5,4544C 3769.11,4514.09 3729.44,4461.59 3719.5,4386.5C 3781.2,4380.03 3842.87,4373.36 3904.5,4366.5C 3910.77,4407.6 3934.6,4429.27 3976,4431.5C 4015.39,4429.44 4037.39,4408.78 4042,4369.5C 4045.33,4345.44 4042.66,4322.11 4034,4299.5C 4025.67,4282.5 4012.17,4272.34 3993.5,4269C 3958,4262.27 3931,4274.27 3912.5,4305C 3853.36,4306 3794.36,4305.66 3735.5,4304C 3746.34,4182.26 3756.67,4060.43 3766.5,3938.5 Z"/></g>
<g><path style="opacity:0.994" fill="#000000" d="M 5000.5,3938.5 C 5052.5,3938.5 5104.5,3938.5 5156.5,3938.5C 5156.5,4144.5 5156.5,4350.5 5156.5,4556.5C 5093.5,4556.5 5030.5,4556.5 4967.5,4556.5C 4967.5,4432.17 4967.5,4307.83 4967.5,4183.5C 4925.83,4183.5 4884.17,4183.5 4842.5,4183.5C 4842.5,4141.83 4842.5,4100.17 4842.5,4058.5C 4913.34,4064.01 4962.84,4034.35 4991,3969.5C 4995.08,3959.43 4998.25,3949.1 5000.5,3938.5 Z"/></g>
<g><path style="opacity:0.993" fill="#000000" d="M 5917.5,3938.5 C 6080.5,3938.5 6243.5,3938.5 6406.5,3938.5C 6406.67,3968.84 6406.5,3999.17 6406,4029.5C 6402.12,4070.47 6389.45,4108.47 6368,4143.5C 6337.09,4188.99 6306.42,4234.66 6276,4280.5C 6236.48,4348.07 6214.48,4421.07 6210,4499.5C 6208.92,4518.49 6208.42,4537.49 6208.5,4556.5C 6141.5,4556.5 6074.5,4556.5 6007.5,4556.5C 6002.7,4455.09 6025.53,4360.43 6076,4272.5C 6110.53,4211.1 6151.2,4154.1 6198,4101.5C 6199.88,4099.47 6201.05,4097.14 6201.5,4094.5C 6106.83,4094.5 6012.17,4094.5 5917.5,4094.5C 5917.5,4042.5 5917.5,3990.5 5917.5,3938.5 Z"/></g>
</svg>