<svg xmlns="http://www.w3.org/2000/svg" xmlns:xlink="http://www.w3.org/1999/xlink" version="1.1" style="shape-rendering:geometricPrecision; text-rendering:geometricPrecision; image-rendering:optimizeQuality; fill-rule:evenodd; clip-rule:evenodd" viewBox="106.5 3503.59 7273.2 538.48">
<g><path style="opacity:0.988" fill="#000000" d="M 299.5,3504.5 C 340.251,3501.68 379.918,3506.84 418.5,3520C 482.032,3546.52 520.032,3593.52 532.5,3661C 497.971,3663.34 463.471,3665.84 429,3668.5C 428.055,3668.09 427.388,3667.43 427,3666.5C 419.258,3625.42 395.091,3599.92 354.5,3590C 327.122,3584.28 300.122,3585.62 273.5,3594C 257.285,3600.23 244.785,3610.73 236,3625.5C 222.691,3661.05 233.858,3685.21 269.5,3698C 280.652,3701.95 291.985,3705.29 303.5,3708C 343.744,3717.06 383.744,3727.06 423.5,3738C 444.833,3744.34 465.5,3752.34 485.5,3762C 523.863,3786.53 544.363,3821.7 547,3867.5C 553.426,3931.15 529.26,3978.98 474.5,4011C 441.466,4027.68 406.466,4037.34 369.5,4040C 314.824,4045.67 262.158,4038 211.5,4017C 149.145,3987.34 114.145,3938.34 106.5,3870C 142.147,3866.24 177.814,3862.74 213.5,3859.5C 219.249,3912.42 248.249,3944.25 300.5,3955C 331.743,3961.2 362.409,3959.2 392.5,3949C 430.309,3932.88 443.476,3905.05 432,3865.5C 426.551,3855.05 418.718,3846.88 408.5,3841C 394.696,3834.29 380.363,3828.95 365.5,3825C 327.129,3815.49 288.796,3805.82 250.5,3796C 230.744,3790.12 211.411,3783.12 192.5,3775C 149.526,3753.91 126.359,3719.41 123,3671.5C 118.143,3613.98 139.643,3569.48 187.5,3538C 222.326,3518.13 259.659,3506.96 299.5,3504.5 Z"/></g>
<g><path style="opacity:0.989" fill="#000000" d="M 1311.5,3504.5 C 1360.5,3500.76 1407.5,3508.59 1452.5,3528C 1513.43,3557.94 1553.93,3605.44 1574,3670.5C 1592.55,3736.31 1593.22,3802.31 1576,3868.5C 1543.82,3969.67 1474.99,4026.83 1369.5,4040C 1309.73,4046.87 1253.39,4036.21 1200.5,4008C 1140.24,3969.9 1103.24,3915.56 1089.5,3845C 1078.73,3788.74 1080.56,3732.91 1095,3677.5C 1124.29,3582.54 1187.79,3526.04 1285.5,3508C 1294.3,3506.67 1302.96,3505.5 1311.5,3504.5 Z M 1334.5,3591.5 C 1404.71,3594.54 1449.54,3629.87 1469,3697.5C 1481.77,3748.91 1481.44,3800.25 1468,3851.5C 1447.74,3916.6 1403.57,3950.6 1335.5,3953.5C 1266.57,3950.4 1222.4,3915.74 1203,3849.5C 1190.33,3798.49 1190.33,3747.49 1203,3696.5C 1222.26,3630.33 1266.1,3595.33 1334.5,3591.5 Z"/></g>
<g><path style="opacity:0.989" fill="#000000" d="M 2459.5,3504.5 C 2508.49,3500.76 2555.49,3508.59 2600.5,3528C 2663.4,3559.23 2704.57,3608.73 2724,3676.5C 2739.11,3735.17 2740.44,3794.17 2728,3853.5C 2699.97,3962.52 2630.14,4024.69 2518.5,4040C 2459.23,4046.9 2403.23,4036.57 2350.5,4009C 2296.49,3975.9 2260.66,3928.73 2243,3867.5C 2226.07,3803.07 2226.4,3738.74 2244,3674.5C 2278.89,3571.12 2350.73,3514.45 2459.5,3504.5 Z M 2483.5,3591.5 C 2551.57,3594.4 2595.74,3628.4 2616,3693.5C 2629.54,3745.08 2629.87,3796.75 2617,3848.5C 2597.25,3915.09 2552.75,3950.09 2483.5,3953.5C 2416.22,3950.28 2372.39,3916.62 2352,3852.5C 2338.03,3799.49 2338.03,3746.49 2352,3693.5C 2372.22,3628.75 2416.06,3594.75 2483.5,3591.5 Z"/></g>
<g><path style="opacity:0.988" fill="#000000" d="M 5675.5,3504.5 C 5716.59,3501.6 5756.59,3506.77 5795.5,3520C 5851.19,3542.69 5887.69,3582.86 5905,3640.5C 5906.98,3647.42 5908.48,3654.42 5909.5,3661.5C 5874.44,3663.52 5839.44,3665.68 5804.5,3668C 5793.59,3618.77 5762.93,3591.77 5712.5,3587C 5686.15,3583.92 5661.15,3588.25 5637.5,3600C 5607.7,3619.41 5600.2,3645.24 5615,3677.5C 5622.35,3685.76 5631.18,3691.93 5641.5,3696C 5648.09,3698.53 5654.76,3700.86 5661.5,3703C 5703.2,3713.18 5744.87,3723.51 5786.5,3734C 5808.26,3740.14 5829.59,3747.48 5850.5,3756C 5893.44,3777.64 5917.6,3812.47 5923,3860.5C 5931.99,3931.7 5904.82,3983.53 5841.5,4016C 5806.52,4031.58 5769.85,4039.91 5731.5,4041C 5687.25,4043.79 5644.25,4037.79 5602.5,4023C 5532.19,3995.56 5492.19,3944.39 5482.5,3869.5C 5518.18,3866.2 5553.85,3863.03 5589.5,3860C 5598.09,3917.59 5631.43,3949.92 5689.5,3957C 5717.62,3960.8 5744.95,3957.8 5771.5,3948C 5809.87,3930.24 5821.71,3901.41 5807,3861.5C 5800.45,3851.8 5791.95,3844.3 5781.5,3839C 5773.05,3835.11 5764.39,3831.78 5755.5,3829C 5711.59,3817.35 5667.59,3806.02 5623.5,3795C 5598.13,3788.11 5574.13,3778.11 5551.5,3765C 5520.54,3743.27 5503.38,3713.44 5500,3675.5C 5494.38,3606.57 5522.54,3557.07 5584.5,3527C 5613.67,3514.29 5644,3506.79 5675.5,3504.5 Z"/></g>
<g><path style="opacity:0.989" fill="#000000" d="M 592.5,3515.5 C 628.833,3515.5 665.167,3515.5 701.5,3515.5C 701.5,3585.17 701.5,3654.83 701.5,3724.5C 776.833,3724.5 852.167,3724.5 927.5,3724.5C 927.5,3654.83 927.5,3585.17 927.5,3515.5C 963.833,3515.5 1000.17,3515.5 1036.5,3515.5C 1036.5,3686.83 1036.5,3858.17 1036.5,4029.5C 1000.17,4029.5 963.833,4029.5 927.5,4029.5C 927.5,3957.83 927.5,3886.17 927.5,3814.5C 852.167,3814.5 776.833,3814.5 701.5,3814.5C 701.5,3886.17 701.5,3957.83 701.5,4029.5C 665.167,4029.5 628.833,4029.5 592.5,4029.5C 592.5,3858.17 592.5,3686.83 592.5,3515.5 Z"/></g>
<g><path style="opacity:0.995" fill="#000000" d="M 1635.5,3515.5 C 1721.83,3515.33 1808.17,3515.5 1894.5,3516C 1937.74,3517.19 1976.08,3531.19 2009.5,3558C 2044.42,3591.54 2061.08,3632.71 2059.5,3681.5C 2057.22,3776.28 2009.22,3831.12 1915.5,3846C 1908.52,3846.92 1901.52,3847.59 1894.5,3848C 1844.17,3848.5 1793.83,3848.67 1743.5,3848.5C 1743.5,3908.83 1743.5,3969.17 1743.5,4029.5C 1707.5,4029.5 1671.5,4029.5 1635.5,4029.5C 1635.5,3858.17 1635.5,3686.83 1635.5,3515.5 Z M 1743.5,3601.5 C 1781.17,3601.33 1818.83,3601.5 1856.5,3602C 1927.46,3603.94 1956.96,3639.77 1945,3709.5C 1933.75,3738.57 1912.58,3755.4 1881.5,3760C 1873.2,3761.07 1864.87,3761.74 1856.5,3762C 1818.83,3762.5 1781.17,3762.67 1743.5,3762.5C 1743.5,3708.83 1743.5,3655.17 1743.5,3601.5 Z"/></g>
<g><path style="opacity:0.992" fill="#000000" d="M 2783.5,3515.5 C 2824.5,3515.33 2865.5,3515.5 2906.5,3516C 2980.47,3636.79 3054.8,3757.29 3129.5,3877.5C 3130.5,3756.84 3130.83,3636.17 3130.5,3515.5C 3163.83,3515.5 3197.17,3515.5 3230.5,3515.5C 3230.5,3686.83 3230.5,3858.17 3230.5,4029.5C 3190.16,4029.83 3149.83,4029.5 3109.5,4028.5C 3034.74,3905.96 2959.74,3783.63 2884.5,3661.5C 2883.5,3784.16 2883.17,3906.83 2883.5,4029.5C 2850.17,4029.5 2816.83,4029.5 2783.5,4029.5C 2783.5,3858.17 2783.5,3686.83 2783.5,3515.5 Z"/></g>
<g><path style="opacity:0.99" fill="#000000" d="M 3396.5,3515.5 C 3433.83,3515.5 3471.17,3515.5 3508.5,3515.5C 3534.47,3642.19 3560.64,3768.86 3587,3895.5C 3587.1,3897.62 3587.93,3899.29 3589.5,3900.5C 3615.98,3772.58 3642.15,3644.58 3668,3516.5C 3708.76,3515.5 3749.59,3515.17 3790.5,3515.5C 3816.05,3644.03 3842.38,3772.36 3869.5,3900.5C 3897.39,3772.38 3924.39,3644.05 3950.5,3515.5C 3988.17,3515.5 4025.83,3515.5 4063.5,3515.5C 4022.18,3686.76 3981.18,3858.09 3940.5,4029.5C 3896.59,4029.83 3852.76,4029.5 3809,4028.5C 3782.97,3904.86 3757.14,3781.19 3731.5,3657.5C 3730.5,3657.5 3729.5,3657.5 3728.5,3657.5C 3703.04,3781.47 3677.71,3905.47 3652.5,4029.5C 3608.26,4029.83 3564.09,4029.5 3520,4028.5C 3478.67,3857.52 3437.51,3686.52 3396.5,3515.5 Z"/></g>
<g><path style="opacity:0.989" fill="#000000" d="M 4092.5,3515.5 C 4128.83,3515.5 4165.17,3515.5 4201.5,3515.5C 4201.5,3585.17 4201.5,3654.83 4201.5,3724.5C 4276.83,3724.5 4352.17,3724.5 4427.5,3724.5C 4427.5,3654.83 4427.5,3585.17 4427.5,3515.5C 4463.83,3515.5 4500.17,3515.5 4536.5,3515.5C 4536.5,3686.83 4536.5,3858.17 4536.5,4029.5C 4500.17,4029.5 4463.83,4029.5 4427.5,4029.5C 4427.5,3957.83 4427.5,3886.17 4427.5,3814.5C 4352.17,3814.5 4276.83,3814.5 4201.5,3814.5C 4201.5,3886.17 4201.5,3957.83 4201.5,4029.5C 4165.17,4029.5 4128.83,4029.5 4092.5,4029.5C 4092.5,3858.17 4092.5,3686.83 4092.5,3515.5 Z"/></g>
<g><path style="opacity:0.99" fill="#000000" d="M 4756.5,3515.5 C 4804.41,3515.17 4852.24,3515.5 4900,3516.5C 4963.7,3687.4 5027.54,3858.24 5091.5,4029C 5052.5,4029.67 5013.5,4029.67 4974.5,4029C 4960.27,3988.81 4945.94,3948.65 4931.5,3908.5C 4861.84,3907.33 4792.17,3907.17 4722.5,3908C 4708.7,3948.41 4694.7,3988.74 4680.5,4029C 4641.83,4029.67 4603.17,4029.67 4564.5,4029C 4628.8,3857.94 4692.8,3686.78 4756.5,3515.5 Z M 4825.5,3608.5 C 4826.5,3608.5 4827.5,3608.5 4828.5,3608.5C 4852.97,3680.57 4877.64,3752.57 4902.5,3824.5C 4852.17,3824.5 4801.83,3824.5 4751.5,3824.5C 4775.97,3752.43 4800.64,3680.43 4825.5,3608.5 Z"/></g>
<g><path style="opacity:0.992" fill="#000000" d="M 5026.5,3515.5 C 5173.5,3515.5 5320.5,3515.5 5467.5,3515.5C 5467.5,3545.83 5467.5,3576.17 5467.5,3606.5C 5412.17,3606.5 5356.83,3606.5 5301.5,3606.5C 5301.5,3747.5 5301.5,3888.5 5301.5,4029.5C 5265.17,4029.5 5228.83,4029.5 5192.5,4029.5C 5192.5,3888.5 5192.5,3747.5 5192.5,3606.5C 5137.17,3606.5 5081.83,3606.5 5026.5,3606.5C 5026.5,3576.17 5026.5,3545.83 5026.5,3515.5 Z"/></g>
<g><path style="opacity:0.99" fill="#000000" d="M 6123.5,3515.5 C 6171.17,3515.17 6218.84,3515.5 6266.5,3516.5C 6330.09,3687.51 6394.09,3858.35 6458.5,4029C 6419.5,4029.67 6380.5,4029.67 6341.5,4029C 6326.88,3988.96 6312.54,3948.8 6298.5,3908.5C 6228.5,3907.5 6158.5,3907.17 6088.5,3907.5C 6075.44,3948.02 6061.77,3988.35 6047.5,4028.5C 6008.83,4029.83 5970.17,4029.83 5931.5,4028.5C 5995.51,3857.47 6059.51,3686.47 6123.5,3515.5 Z M 6192.5,3608.5 C 6193.5,3608.41 6194.33,3608.75 6195,3609.5C 6219.55,3680.94 6244.39,3752.27 6269.5,3823.5C 6218.84,3824.67 6168.17,3824.83 6117.5,3824C 6142.6,3752.2 6167.6,3680.36 6192.5,3608.5 Z"/></g>
<g><path style="opacity:0.991" fill="#000000" d="M 6485.5,3515.5 C 6572.17,3515.33 6658.83,3515.5 6745.5,3516C 6789.3,3517.15 6827.96,3531.48 6861.5,3559C 6889.17,3585.18 6905.01,3617.35 6909,3655.5C 6913.46,3690.67 6909.13,3724.67 6896,3757.5C 6878.36,3794.81 6850.19,3820.64 6811.5,3835C 6790.13,3842.54 6768.13,3846.87 6745.5,3848C 6695.17,3848.5 6644.83,3848.67 6594.5,3848.5C 6594.5,3908.83 6594.5,3969.17 6594.5,4029.5C 6558.17,4029.5 6521.83,4029.5 6485.5,4029.5C 6485.5,3858.17 6485.5,3686.83 6485.5,3515.5 Z M 6594.5,3601.5 C 6632.17,3601.33 6669.83,3601.5 6707.5,3602C 6732.72,3601.19 6755.38,3608.19 6775.5,3623C 6792.28,3638.99 6800.28,3658.66 6799.5,3682C 6798.79,3723.75 6778.13,3749.42 6737.5,3759C 6727.59,3760.88 6717.59,3761.88 6707.5,3762C 6669.83,3762.5 6632.17,3762.67 6594.5,3762.5C 6594.5,3708.83 6594.5,3655.17 6594.5,3601.5 Z"/></g>
<g><path style="opacity:0.991" fill="#000000" d="M 6954.5,3515.5 C 7041.17,3515.33 7127.83,3515.5 7214.5,3516C 7258.3,3517.15 7296.96,3531.48 7330.5,3559C 7358.18,3585.19 7374.01,3617.36 7378,3655.5C 7382.46,3690.67 7378.13,3724.67 7365,3757.5C 7347.36,3794.81 7319.19,3820.64 7280.5,3835C 7259.13,3842.54 7237.13,3846.87 7214.5,3848C 7164.17,3848.5 7113.83,3848.67 7063.5,3848.5C 7063.5,3908.83 7063.5,3969.17 7063.5,4029.5C 7027.17,4029.5 6990.83,4029.5 6954.5,4029.5C 6954.5,3858.17 6954.5,3686.83 6954.5,3515.5 Z M 7063.5,3601.5 C 7101.17,3601.33 7138.83,3601.5 7176.5,3602C 7201.72,3601.19 7224.38,3608.19 7244.5,3623C 7261.28,3638.99 7269.28,3658.66 7268.5,3682C 7267.79,3723.75 7247.13,3749.42 7206.5,3759C 7196.59,3760.88 7186.59,3761.88 7176.5,3762C 7138.83,3762.5 7101.17,3762.67 7063.5,3762.5C 7063.5,3708.83 7063.5,3655.17 7063.5,3601.5 Z"/></g>
</svg>